<svg xmlns="http://www.w3.org/2000/svg" width="22" height="22" viewBox="0 0 22 22">
  <g id="acc_up" transform="translate(23 -1) rotate(90)">
    <path id="Path_31844" data-name="Path 31844" d="M23,12A11,11,0,1,1,12,1,11,11,0,0,1,23,12ZM2.467,12A9.533,9.533,0,1,0,12,2.467,9.533,9.533,0,0,0,2.467,12Z" fill="#fff"/>
    <path id="Path_31845" data-name="Path 31845" d="M17.728,9.956l-4.092,4.1,4.092,4.1a.733.733,0,0,1,0,1.034h0a.733.733,0,0,1-1.034,0L12.03,14.525a.667.667,0,0,1,0-.939l4.664-4.664a.733.733,0,0,1,1.034,0h0A.733.733,0,0,1,17.728,9.956Z" transform="translate(-2.89 -2.056)" fill="#fff"/>
  </g>
</svg>
