<svg xmlns="http://www.w3.org/2000/svg" width="21.978" height="12" viewBox="0 0 21.978 12">
  <path id="Path_19829" data-name="Path 19829" d="M511.1,295.538h17.345a1.584,1.584,0,0,0,.486-.044,1,1,0,0,0-.186-1.933,2.98,2.98,0,0,0-.373-.014l-17.022,0a.464.464,0,0,1-.272-.027c.023-.095.1-.139.16-.2q1.513-1.513,3.029-3.022a.986.986,0,0,0,.3-1.039,1,1,0,0,0-1.6-.481c-.077.065-.147.139-.219.211l-4.743,4.748a1.015,1.015,0,0,0,0,1.61q2.428,2.432,4.855,4.866a1.008,1.008,0,0,0,1.724-.47.971.971,0,0,0-.329-.966q-1.507-1.5-3.012-3.007a1.228,1.228,0,0,0-.217-.14Z" transform="translate(-507.613 -288.542)" fill="#b6b8b9" opacity="0.48"/>
</svg>
