<svg xmlns="http://www.w3.org/2000/svg" width="52.941" height="56.746" viewBox="0 0 52.941 56.746">
  <g id="Group_27198" data-name="Group 27198" transform="translate(-408.932 -252.846)">
    <path id="Path_19886" data-name="Path 19886" d="M473.811,279.778c-2.975,2.31-4.507,1.981-5.156-1.377-1.532-7.932-5.79-14.334-10.962-20.269-1.191-1.366-3.107-2.844-.991-4.624,1.986-1.67,3.309.184,4.564,1.592a54.9,54.9,0,0,1,12.545,23.188Z" transform="translate(-11.938)" fill="#00aeba"/>
    <path id="Path_19887" data-name="Path 19887" d="M411.5,275.324a140.481,140.481,0,0,1,33.053,11.108c2.342,1.106,4.587,2.413,6.881,3.62,1.483.781,3.111,1.676,1.975,3.639-1.1,1.9-2.745,1.045-4.21.239a138.337,138.337,0,0,0-31.2-12.5c-2.265-.6-4.557-1.1-6.837-1.647-1.492-.356-2.614-1.083-2.1-2.822A2.164,2.164,0,0,1,411.5,275.324Z" transform="translate(0 -5.726)" fill="#00aeba"/>
    <path id="Path_19888" data-name="Path 19888" d="M450.232,317.442c1.535-.149,3.085-.185,3.356,1.852.267,2.013-1.185,2.569-2.749,2.722-5.315.522-10.357,2.143-15.411,3.718-1.578.492-3.043.625-3.575-1.312-.494-1.8.547-2.634,2.232-3.134C439.4,319.714,444.646,317.9,450.232,317.442Z" transform="translate(-5.813 -16.455)" fill="#00aeba"/>
  </g>
</svg>
