<svg id="cal_icon" xmlns="http://www.w3.org/2000/svg" width="13.813" height="13.813" viewBox="0 0 13.813 13.813">
  <path id="Path_32012" data-name="Path 32012" d="M14.156,17.75h-8.5A2.656,2.656,0,0,1,3,15.094V7.656A2.656,2.656,0,0,1,5.656,5h8.5a2.656,2.656,0,0,1,2.656,2.656v7.438A2.656,2.656,0,0,1,14.156,17.75ZM5.656,6.063A1.594,1.594,0,0,0,4.063,7.656v7.437a1.594,1.594,0,0,0,1.594,1.594h8.5a1.594,1.594,0,0,0,1.594-1.594V7.656a1.594,1.594,0,0,0-1.594-1.594Z" transform="translate(-3 -3.938)" fill="#00aeba"/>
  <path id="Path_32013" data-name="Path 32013" d="M21.656,22.188H19.531A.531.531,0,0,1,19,21.656V19.531A.531.531,0,0,1,19.531,19h2.125a.531.531,0,0,1,.531.531v2.125A.531.531,0,0,1,21.656,22.188Zm-1.594-1.062h1.063V20.063H20.063Z" transform="translate(-10.5 -10.5)" fill="#00aeba"/>
  <path id="Path_32014" data-name="Path 32014" d="M16.281,12.063H3.531a.531.531,0,0,1,0-1.062h12.75a.531.531,0,0,1,0,1.063Z" transform="translate(-3 -6.75)" fill="#00aeba"/>
  <path id="Path_32015" data-name="Path 32015" d="M10.531,6.188A.531.531,0,0,1,10,5.656V3.531a.531.531,0,0,1,1.063,0V5.656A.531.531,0,0,1,10.531,6.188Z" transform="translate(-6.281 -3)" fill="#00aeba"/>
  <path id="Path_32016" data-name="Path 32016" d="M20.531,6.188A.531.531,0,0,1,20,5.656V3.531a.531.531,0,0,1,1.063,0V5.656A.531.531,0,0,1,20.531,6.188Z" transform="translate(-10.969 -3)" fill="#00aeba"/>
</svg>
