<svg xmlns="http://www.w3.org/2000/svg" xmlns:xlink="http://www.w3.org/1999/xlink" width="197.101" height="194.899" viewBox="0 0 197.101 194.899">
  <defs>
    <clipPath id="clip-path">
      <rect id="Rectangle_17698" data-name="Rectangle 17698" width="189.296" height="164.53" fill="none"/>
    </clipPath>
  </defs>
  <g id="Group_31017" data-name="Group 31017" transform="translate(-692.957 -3102)">
    <path id="Path_32028" data-name="Path 32028" d="M314.515,175.567c20.722,4.441,32.675,23.99,48.439,38.155,14.962,13.445,37.77,22.107,40.761,42,2.978,19.811-16.482,34.579-26.656,51.838-10.031,17.018-13.17,41.851-32.031,47.723-18.826,5.86-34.975-13.94-53.326-21.153-17.58-6.91-40.263-4.549-51.214-19.94-11.241-15.8-3.727-36.954-3.058-56.332.829-23.991-9.007-51.931,7.4-69.45,16.648-17.773,45.869-17.943,69.681-12.84" transform="translate(486.037 2929.325)" fill="#b7e8e6"/>
    <g id="Group_31010" data-name="Group 31010" transform="translate(692.957 3132.369)">
      <g id="Group_31009" data-name="Group 31009" clip-path="url(#clip-path)">
        <path id="Path_32633" data-name="Path 32633" d="M25.007,574.258l.216.061-.041.063-.177-.124Z" transform="translate(-20.853 -478.896)" fill="#dde7fd"/>
        <path id="Path_32634" data-name="Path 32634" d="M0,527.255l.071.04L0,527.259l0,0" transform="translate(0 -439.699)" fill="#dde7fd"/>
        <path id="Path_32635" data-name="Path 32635" d="M396.206,63.089v.5c-.019.017-.056.039-.053.05a.634.634,0,0,0,.053.116V87.661c-.479.072-.376.518-.443.79a66.984,66.984,0,0,1-2.306,7.745,52.293,52.293,0,0,1-2.428,5.931c-.315.6-.436,1.4-1.251,1.645.053-.659.1-1.319.161-1.977a68.124,68.124,0,0,0-.874-20.21,23.336,23.336,0,0,0-1.99-6.555,4.156,4.156,0,0,0-2.632-2.244,6.313,6.313,0,0,0-2.3.034,21.2,21.2,0,0,0-9.7-10.974c-.257-.14-.593-.177-.717-.508a18.62,18.62,0,0,0,8.057.257,5.9,5.9,0,0,0,4.189-2.719,8.929,8.929,0,0,0,.68-8.133c-1.4-3.3-4.163-4.887-7.528-5.6a21.523,21.523,0,0,1-2.415-.581,9.859,9.859,0,0,1-5.931-5.205,14.708,14.708,0,0,0-3.836-4.841c-.153-.128-.4-.2-.4-.5a18.679,18.679,0,0,0,3.123-.377c2.016-.523,2.589-1.753,1.61-3.611a6.19,6.19,0,0,0-4.764-3.349,3.209,3.209,0,0,0-3.681,1.882,7.635,7.635,0,0,0-.738,2.789c-.042.439-.137.623-.638.512a16.541,16.541,0,0,0-8.982.719,9.187,9.187,0,0,0-5.279,3.927,5.25,5.25,0,0,0-.276,5.652l.21,2.246-.005.022-.007.615a3.061,3.061,0,0,0-2.224,2.432,2.944,2.944,0,0,0,3.152,3.389c.077.321.129.65.233.962a10.162,10.162,0,0,0,2.8,4.809c2.021,1.7,4.257,1.4,6.431.275.615-.319.724-.119.892.393.422,1.282.885,2.551,1.331,3.825a15.085,15.085,0,0,0-5.024,3.457c-.237-.136-.467-.288-.713-.406q-5.4-2.591-10.811-5.171c-2.511-1.193-5.031-2.365-7.548-3.546-.348-2.257-.689-4.516-1.049-6.771-.152-.956-.615-1.14-1.6-.659-2.481,1.217-4.963,2.43-7.437,3.662q-7.233,3.6-14.458,7.219a2.164,2.164,0,0,1-1.164.384,1.119,1.119,0,0,1-.743-.483c-.632-.682-1.245-1.384-1.9-2.043-2.724-2.738-5.46-5.462-8.105-8.277a1.571,1.571,0,0,1,.014-2.525c.4-.376.831-.723,1.248-1.084,1.975-1.707,3.9-3.475,5.938-5.106,2.645-2.118,5.121-4.429,7.737-6.578l2.4-1.967c.194.235.039.37-.008.517a8.781,8.781,0,0,0,0,5.989c.206.548.5.683,1,.371.328-.2.666-.393,1.012-.562q5.831-2.863,11.664-5.721c.523-.258.752-.632.3-1.181-.33-.405-.587-.874-.94-1.256a8.038,8.038,0,0,0-6.008-2.474,1.18,1.18,0,0,1-1.2-.663c-.44-.886-.911-1.758-1.319-2.658-.268-.592-.548-.814-1.195-.447-.837.474-1.73.849-2.6,1.27-1.073.521-1.073.522-.565,1.6s.444,1.312-.3,1.933q-2.631,2.193-5.234,4.419c-1.984,1.693-3.951,3.406-5.937,5.1-2.117,1.8-4.23,3.611-6.381,5.372a15.748,15.748,0,0,1-2.858,2.229,1.877,1.877,0,0,0-.32,3.342,74.682,74.682,0,0,1,5.835,5.814c1.074,1.1,2.035,2.328,3.189,3.336,1.067.932,1.874,2.081,2.9,3.038-.28.165-.555.337-.84.494-1.145.63-2.382,1.084-3.471,1.821-.476.148-.533.5-.464.926.085.519.175,1.037.242,1.557.21,1.641.6,3.257.689,4.915-1.435.7-2.877,1.388-4.306,2.1q-5.471,2.735-10.932,5.487-.008-.852-.015-1.7a4.437,4.437,0,0,0-.343-1.846l-.006.025.182-.263c-.053-.409-.11-.817-.155-1.227-.023-.209-.122-.492.185-.554,1.048-.213,1.165-1.072,1.313-1.884a1.169,1.169,0,0,1,.889-1.061A2.1,2.1,0,0,0,289.95,68.1c.173-.412.59-.988.124-1.271-.548-.332-1.121.2-1.336.658a1.557,1.557,0,0,1-1.194.872c-.4.108-.947.2-1,.63-.152,1.282-1.084,1.537-2.078,1.768-.214-.449-.436-.894-.638-1.348-.27-.608-.681-1.31-.311-1.9.682-1.078.253-1.94-.253-2.847A1.7,1.7,0,0,1,283.1,63.1a2.552,2.552,0,0,0-.064-2.015c-.372-.785-.792-.417-1.1.012a3.3,3.3,0,0,0-.339,3.6,2.212,2.212,0,0,1-.359,2.7,3.889,3.889,0,0,0-1.1-1.308c-.257-.218-.564-.505-.3-.84.936-1.2.585-2.433.046-3.6a2.812,2.812,0,0,1,.064-2.751,5.033,5.033,0,0,0,.121-4.262c-.092-.258-.216-.549-.543-.552-.288,0-.421.261-.506.49a3.623,3.623,0,0,0-.365,2.561,1.287,1.287,0,0,1-.158,1.037c-.278.541-.576,1.073-.83,1.625a1.716,1.716,0,0,0-.1,1.668,2.527,2.527,0,0,1,.006,2.466c-.327.7-.7,1.373-1.059,2.058a17.648,17.648,0,0,0-2.206-2.1,2.639,2.639,0,0,1-.909-2.446,2.315,2.315,0,0,0-.991-2.438c-.4-.337-.81-.661-1.214-.992a1.756,1.756,0,0,1-.678-1.5,4.356,4.356,0,0,0-.98-2.733c-.119-.331-.314-.638-.69-.6s-.507.42-.58.734c-.507,2.175-.31,4.215,1.464,5.78a2.973,2.973,0,0,1,1.142,2.832,11.014,11.014,0,0,0,.008,2.234,2.083,2.083,0,0,0,.95,1.845,1.915,1.915,0,0,1,1.035,2.133c-.029.468-.036.938-.052,1.408a1.4,1.4,0,0,1-1.646-1.248.935.935,0,0,0-.82-.821A1.937,1.937,0,0,1,268.722,67c-.106-.233-.467-.375-.738-.5-.416-.192-.671-.023-.6.434a2.3,2.3,0,0,0,1.423,2.08,1.761,1.761,0,0,1,1.334,1.573c.1.566.265,1.272.883,1.4.766.158.668.547.566,1.071a6.091,6.091,0,0,0-.045.909c0,.163.009.322.187.4l.022-.051a6.442,6.442,0,0,0-.222,1.866q0,4.729-.008,9.458l-.316.07c-2.373,1.18-4.75,2.354-7.116,3.547a.859.859,0,0,0-.543.685c-.429,1.192-.222,1.8.837,2.387,1.54.854,3.1,1.677,4.626,2.549,1.479.844,3.034,1.556,4.439,2.531-.38.319-.356.781-.414,1.207-.267,1.961-.52,3.924-.783,5.886-.351,2.616-.657,5.24-1.079,7.844a45.481,45.481,0,0,1-.793,4.863,24.973,24.973,0,0,1-5.166-2.291,37.934,37.934,0,0,1-6.773-4.55,26.848,26.848,0,0,1-7.855-10.521,28.915,28.915,0,0,1-2.139-7.806c-.023-.221-.1-.368-.331-.4v-.5a.571.571,0,0,0,0-.83V84.008a.571.571,0,0,0,0-.83v-.83c.293-.035.308-.246.335-.481a31.626,31.626,0,0,1,1.307-5.7,48.912,48.912,0,0,1,4.883-10.726q1.578-2.613,3.325-5.109c2.268-3.253,4.733-6.361,7.231-9.443,1.37-1.689,2.757-3.372,4.047-5.116a52.227,52.227,0,0,0,3.921-5.972,15.58,15.58,0,0,0,2-5.728,33.756,33.756,0,0,1,2.073-8.46A36.892,36.892,0,0,1,285.643,13c1.186-1.2,2.474-2.284,3.759-3.364A28.97,28.97,0,0,1,292.8,7.177,53.955,53.955,0,0,1,297.56,4.54a41.549,41.549,0,0,1,5.7-2.373,42.254,42.254,0,0,1,8.37-1.837c.221-.023.368-.1.4-.331h.83a.767.767,0,0,0,1,0h7.8a.571.571,0,0,0,.83,0h.83c.068.4.387.339.65.327a16.485,16.485,0,0,1,3.355.4,74.364,74.364,0,0,1,8.782,1.821c2.7.778,5.357,1.68,8,2.647a76.363,76.363,0,0,1,9.476,4.264,88.663,88.663,0,0,1,11.562,7.289c2.474,1.845,4.827,3.835,7.115,5.9A83.471,83.471,0,0,1,384.95,37.274a76.284,76.284,0,0,1,6.369,11.26,50.306,50.306,0,0,1,2.4,6.125,42.367,42.367,0,0,1,2.018,7.473c.04.328-.041.815.467.957" transform="translate(-206.91)" fill="#fdecdc"/>
        <path id="Path_32636" data-name="Path 32636" d="M831.154,702.574a28.824,28.824,0,0,1-3.5-2.983,10.136,10.136,0,0,1-1.846-2.606c1.91-.3,3.837-.444,5.777-.648l-6.472-.842a33.389,33.389,0,0,1-3.852-.932,3.023,3.023,0,0,1-2.082-1.825c-.4-1-.954-1.925-1.413-2.9a2.092,2.092,0,0,0-.591-.667.33.33,0,0,0,.088-.442,22.833,22.833,0,0,1-1.487-4.108.492.492,0,0,0-.534-.42,1.752,1.752,0,0,1-.8-.159.581.581,0,0,1-.622-.62,1.068,1.068,0,0,1,.5-1.066,2.823,2.823,0,0,1,2.291-.375,8.715,8.715,0,0,1,1.546.754,24,24,0,0,0,3.3,6.8,2.742,2.742,0,0,0,2.973,1.058,4.481,4.481,0,0,1-1.159-1.837,59.539,59.539,0,0,1-1.708-6.881c-.045-.291-.02-.719-.537-.665a1.481,1.481,0,0,1,.054-2,2.125,2.125,0,0,1,1.422-.519l0,.009c.019.088.069.124.158.093l1.139.926a14.984,14.984,0,0,0,2.045,5.536c.289.483.489.468.742-.089a16.04,16.04,0,0,1,1.366-2.639,33.088,33.088,0,0,0,3.1,2.189c2.94,1.593,5.917,2.917,9.356,1.638l.331,1.832c-.2.213-.461.14-.7.157a10.845,10.845,0,0,0-4.684,1.2,3.691,3.691,0,0,0,.3,6.646c2.7,1.108,5.585,1.163,8.424,1.434a30.113,30.113,0,0,1,5.85.895,4.392,4.392,0,0,1,3.194,2.509c.785,2.054,1.466,4.148,2.251,6.2a11.018,11.018,0,0,0,2.386,4.016,2.735,2.735,0,0,0,3.34.492c.409-.213.816-.43,1.224-.645a6.421,6.421,0,0,0,1.939,5.582,5.362,5.362,0,0,1,.388.538,4.508,4.508,0,0,1,.753,4.382c-.16.5-.3,1.01-.491,1.5-.978,2.435-1.806,4.922-2.588,7.425H858.5c.2-.356.575-.5.874-.735,2.288-1.769,2.012-4.388,1.253-6.392-.049-.129-.163-.126-.273-.127a2.172,2.172,0,0,0-.277-1.1,23.335,23.335,0,0,0-4.005-4.692,11.786,11.786,0,0,1-3.51-4.805,24.574,24.574,0,0,1-1.187-3.939c-.063-.321-.13-.627-.449-.727a17.768,17.768,0,0,0-4.088-.885c-2.05-.37-4.126-.562-6.169-.986-1.588-.329-3.121-.853-4.7-1.216l-4.822-2.347" transform="translate(-678.672 -565.991)" fill="#cc8d61"/>
        <path id="Path_32637" data-name="Path 32637" d="M1088.018,726.565a10.271,10.271,0,0,1-6.948,4.326c-.849-.378-1.219-1.24-1.851-1.836a10.649,10.649,0,0,0,3.355-3.127,5.447,5.447,0,0,0-3.738-8.239,4.293,4.293,0,0,0-1.152.012,4.4,4.4,0,0,1,4.609-1.136,8.492,8.492,0,0,1,5.205,4.082c.184.306.348.624.521.937Z" transform="translate(-898.722 -597.398)" fill="#cc8d61"/>
        <path id="Path_32638" data-name="Path 32638" d="M639.025,0a.767.767,0,0,1-1,0Z" transform="translate(-532.078)" fill="#fefefe"/>
        <path id="Path_32639" data-name="Path 32639" d="M248.113,500.891a.572.572,0,0,1,0,.83Z" transform="translate(-206.911 -417.713)" fill="#fefefe"/>
        <path id="Path_32640" data-name="Path 32640" d="M691.848,0a.571.571,0,0,1-.83,0Z" transform="translate(-576.267)" fill="#fefefe"/>
        <path id="Path_32641" data-name="Path 32641" d="M248.113,543.882a.571.571,0,0,1,0,.83Z" transform="translate(-206.911 -453.565)" fill="#fdfefd"/>
        <path id="Path_32642" data-name="Path 32642" d="M1139.655,383.083a.636.636,0,0,1-.053-.116c0-.011.034-.033.053-.05Z" transform="translate(-950.359 -319.33)" fill="#fefefe"/>
        <path id="Path_32643" data-name="Path 32643" d="M737.614,416.071l-1.139-.926-.158-.094,0-.009c-.046-.334-.313-.511-.528-.717a31.255,31.255,0,0,1-4.425-5.11c-1.279-1.905-2.384-3.87-1.565-6.3a16.475,16.475,0,0,0,5.852-2.986,11.152,11.152,0,0,0,3.774-11.567c-4.367,3.4-9.047,6.039-14.727,6.331a31.635,31.635,0,0,1-10.163-2.481c-.129-.27-.392-.19-.608-.232-.6-.338-1.206-.663-1.8-1.016-.733-.439-1.5-.86-1.641-1.832a2.008,2.008,0,0,1,1.072-2.045,8.955,8.955,0,0,1,3.026-.3,42.381,42.381,0,0,0,6.269-.157,21.035,21.035,0,0,0,4.555-.84,11.6,11.6,0,0,0,5.75-3.422,7.293,7.293,0,0,0,1.813-2.826,22.4,22.4,0,0,0,.721-2.287,58.852,58.852,0,0,1,2.562-7.324l2.027-3.012a15.087,15.087,0,0,1,5.024-3.457c.774-.19,1.544-.4,2.324-.564a26.407,26.407,0,0,1,7.577-.17c1.443-.025,2.719.672,4.093.945.124.331.46.368.717.508a21.2,21.2,0,0,1,9.7,10.974,23.484,23.484,0,0,0-4.45,2.145c-2.817,1.731-5.586,3.544-8.572,4.993a8.3,8.3,0,0,0-4.025,3.9,12.315,12.315,0,0,0-1.06,4.984c-.073,2.374.034,4.753-.068,7.125-.126,2.943-.228,5.911-1.645,8.617a4.355,4.355,0,0,1-3.34-1.339c-.215-.607-.5-1.229-1.208-1.274-.564-.036-.9.432-1.053.97a7.268,7.268,0,0,0-1.5,2.142,4.62,4.62,0,0,0-.453,3.578,8.676,8.676,0,0,0,1.33,2.259,25.276,25.276,0,0,1-4.061,2.812" transform="translate(-592.488 -302.338)" fill="#1e756f"/>
        <path id="Path_32644" data-name="Path 32644" d="M935.875,469.608c1.417-2.705,1.519-5.673,1.645-8.617.1-2.372-.005-4.752.068-7.125a12.318,12.318,0,0,1,1.06-4.983,8.3,8.3,0,0,1,4.025-3.9c2.986-1.449,5.754-3.262,8.572-4.993a23.491,23.491,0,0,1,4.45-2.145,6.307,6.307,0,0,1,2.3-.035,4.155,4.155,0,0,1,2.632,2.244,23.328,23.328,0,0,1,1.991,6.555,68.129,68.129,0,0,1,.873,20.21c-.063.658-.108,1.318-.161,1.977a38.762,38.762,0,0,1-2.1,9.005c-2.75,6.664-7.743,10.787-14.517,12.919a.911.911,0,0,1-.618,0c-1.688-.667-3.077-1.617-3.568-3.5l-.332-1.832q0-.751,0-1.5l.657-3.143c.257-.952.53-1.9.765-2.857a3.6,3.6,0,0,1,1-1.661,7.911,7.911,0,0,0,1.906-2.12c.307-.152.605-.284.381-.736a16.67,16.67,0,0,0-2.008-3.3c-.279-.336-.584-.61-1.048-.282-.378.268-.661.108-.924-.2-.43-.5-.873-.985-1.307-1.48-.332-.38-.6-.391-.9.066a4.834,4.834,0,0,0-.843,1.77l-1.331-.32-2.664-.021" transform="translate(-780.463 -365.024)" fill="#cc5e46"/>
        <path id="Path_32645" data-name="Path 32645" d="M854.33,195.011c-1.374-.272-2.65-.97-4.093-.945a9.78,9.78,0,0,1-3.469-2.5A35.642,35.642,0,0,1,839.147,177a12.3,12.3,0,0,0-.4-1.606c-.919-2.2-4.3-3.79-6.867-3.264a5.967,5.967,0,0,0-4.359,3.7,5.251,5.251,0,0,1,.276-5.652,9.187,9.187,0,0,1,5.279-3.927,16.541,16.541,0,0,1,8.982-.719c.5.111.6-.073.638-.512a7.638,7.638,0,0,1,.738-2.789,3.209,3.209,0,0,1,3.681-1.882,6.19,6.19,0,0,1,4.764,3.349c.979,1.858.406,3.088-1.61,3.611a18.659,18.659,0,0,1-3.123.377c0,.3.246.373.4.5a14.713,14.713,0,0,1,3.836,4.841,9.858,9.858,0,0,0,5.931,5.205,21.518,21.518,0,0,0,2.415.582c3.365.712,6.132,2.3,7.528,5.6a8.929,8.929,0,0,1-.68,8.133,5.9,5.9,0,0,1-4.189,2.719,18.623,18.623,0,0,1-8.057-.257" transform="translate(-689.518 -133.674)" fill="#5b3425"/>
        <path id="Path_32646" data-name="Path 32646" d="M363.873,431.014q5.466-2.745,10.932-5.487c1.428-.714,2.87-1.4,4.306-2.1.331,2.06.623,4.126.944,6.185s.627,4.118.958,6.174a1.547,1.547,0,0,0,.837,1.25c.564.277,1.1.614,1.645.925-.079.108-.135.253-.24.319a9.5,9.5,0,0,0-2.666,2.538,7.352,7.352,0,0,0-2.959-2.064c-2.479-.795-4.958-1.143-7.421.047-.4.193-.594.124-.709-.321-.08-.311-.065-.694-.452-.957-.056.538.024,1.122-.29,1.414-.356.331-.887-.245-1.37-.1a.581.581,0,0,0,.322.5c.635.421.513.719,0,1.221a9.379,9.379,0,0,0-2.724,5.458,11.932,11.932,0,0,0,.613,5.215,2.572,2.572,0,0,0-.9.809c-1.011,1.078-1.7,2.4-2.662,3.512-.467-.287-.922-.6-1.4-.859-2.946-1.612-5.9-3.2-8.846-4.82-3.36-1.844-6.7-3.723-10.074-5.543-.569-.307-.874-.629-.773-1.273a.858.858,0,0,1,.543-.685c2.366-1.193,4.743-2.367,7.116-3.547.386,1.2.282,1.436-.868,1.806a4.327,4.327,0,0,0-1.709.967,1.239,1.239,0,0,0,.116,2.1,7.559,7.559,0,0,0,3.322,1.377,27.42,27.42,0,0,0,7.519.534,18.275,18.275,0,0,0,6.488-1.387c1.774-.8,1.932-1.843.417-3.1q-.007-5.05-.014-10.1" transform="translate(-284.309 -353.111)" fill="#cc8d61"/>
        <path id="Path_32647" data-name="Path 32647" d="M403.949,460.5q.007,5.05.014,10.1c.23,1.6-.77,2.3-2.055,2.772a16.518,16.518,0,0,1-7.438.78,10.234,10.234,0,0,1-4.5-1.316,1.856,1.856,0,0,1-.99-1.776c.04-.939.011-1.88.012-2.821q0-4.729.008-9.458a7.516,7.516,0,0,0,2.09,1.3,16.127,16.127,0,0,0,6.734.752c2.219-.219,4.354-.506,6.108-2.038q.008.852.015,1.7" transform="translate(-324.386 -382.593)" fill="#c7e7e9"/>
        <path id="Path_32648" data-name="Path 32648" d="M831.06,234.792a5.967,5.967,0,0,1,4.359-3.7c2.566-.526,5.948,1.069,6.867,3.264a12.343,12.343,0,0,1,.4,1.606,35.644,35.644,0,0,0,7.621,14.56,9.781,9.781,0,0,0,3.469,2.5,26.4,26.4,0,0,0-7.577.17c-.781.16-1.55.375-2.324.564-.446-1.274-.909-2.543-1.331-3.825-.168-.511-.277-.712-.892-.393-2.174,1.128-4.41,1.429-6.431-.275a10.162,10.162,0,0,1-2.8-4.809c-.1-.312-.157-.641-.233-.962a2.93,2.93,0,0,0,2.675-2.806.431.431,0,0,1,.456-.46c.547-.047.8.127.931.735a2.923,2.923,0,1,0,3.263-3.562,2.806,2.806,0,0,0-3.177,1.932c-.265.718-.825.337-1.216.533-.234.117-.332-.047-.415-.253a3,3,0,0,0-3.446-1.942q0-.308.007-.615a10.589,10.589,0,0,1,2.976-.74c-1.474-.528-1.865-.423-2.97.718Zm5.184,9.671c-.774-.062-1.21.106-1.2.715.015.834-.187,1.829.655,2.348.893.55,1.751-.015,2.552-.449a3.6,3.6,0,0,0,.573-.474c.469-.4.449-.793-.046-1.149a5.848,5.848,0,0,0-2.535-.99m.623-8.318c1.324.23,2.55-.012,3.6.659-.77-1.062-2.042-1.309-3.6-.659" transform="translate(-693.054 -192.634)" fill="#ecac7c"/>
        <path id="Path_32649" data-name="Path 32649" d="M529.766,175.953c-1.021-.957-1.829-2.106-2.9-3.038-1.154-1.008-2.115-2.233-3.189-3.336a74.685,74.685,0,0,0-5.836-5.814,1.877,1.877,0,0,1,.32-3.342,15.728,15.728,0,0,0,2.858-2.229c2.151-1.761,4.264-3.57,6.381-5.372,1.986-1.691,3.953-3.4,5.937-5.1q2.606-2.223,5.234-4.419c.745-.621.8-.868.3-1.933s-.508-1.081.565-1.6c.867-.421,1.761-.8,2.6-1.27.647-.367.927-.145,1.195.447.408.9.878,1.772,1.319,2.658a1.18,1.18,0,0,0,1.2.663,8.038,8.038,0,0,1,6.008,2.475c.353.381.61.85.94,1.255.448.549.219.923-.3,1.181q-5.827,2.87-11.664,5.721c-.346.17-.684.36-1.012.562-.5.312-.794.177-1-.371a8.781,8.781,0,0,1,0-5.989c.048-.147.2-.281.008-.517l-2.4,1.967c-2.616,2.149-5.092,4.46-7.737,6.578-2.036,1.631-3.963,3.4-5.938,5.106-.417.36-.845.708-1.248,1.084a1.571,1.571,0,0,0-.014,2.525c2.646,2.814,5.382,5.539,8.105,8.277.656.659,1.269,1.361,1.9,2.043a1.116,1.116,0,0,0,.742.482.815.815,0,0,1-.708.482q-3.217-3.344-6.432-6.689c-.821-.857-1.706-1.647-2.452-2.583a21.306,21.306,0,0,0-1.856-1.871.647.647,0,0,0-1.013-.008c-.429.4-.008.547.206.767q2.453,2.53,4.9,5.064,2.821,2.906,5.649,5.806a.984.984,0,0,1-.67.338M540.2,144.1a.6.6,0,0,0-.992-.5,12.757,12.757,0,0,0-.991.877q-3.745,3.184-7.5,6.361c-1.74,1.475-3.485,2.943-5.218,4.426s-3.47,2.98-5.18,4.5c-.181.161-.72.33-.3.752.3.3.554.616,1.082.151,2.127-1.873,4.312-3.678,6.468-5.518,1.988-1.7,3.961-3.409,5.948-5.1q3.205-2.735,6.424-5.453a.546.546,0,0,0,.257-.491" transform="translate(-431.121 -115.352)" fill="#fdfefd"/>
        <path id="Path_32650" data-name="Path 32650" d="M572.284,300.516a.984.984,0,0,0,.67-.337,2.105,2.105,0,0,0,1-.486c.3-.063.588-.151.708-.482a2.161,2.161,0,0,0,1.165-.384q7.23-3.608,14.458-7.219c2.474-1.232,4.956-2.445,7.437-3.662.981-.481,1.444-.3,1.6.659.36,2.256.7,4.514,1.049,6.771.3,2.008.626,4.013.9,6.025.276,2.038.753,4.047.864,6.108-.417.212-.826.443-1.256.627-.258.111-.516.452-.816.206-.416-.341-.737-.046-1.052.106-.917.442-1.788.986-2.725,1.375-.565.234-.6.52-.4.982l-.193.023a11.394,11.394,0,0,0-2.276,1.073c-.409.216-.956.229-1.2.722-.116-.061-.236-.116-.347-.184-.174-.106-.35-.371-.55-.168-.228.231.164.34.2.535.01.053.018.107.027.16a2.006,2.006,0,0,0-1.074.392c-3.1,1.7-6.305,3.188-9.453,4.792-.24.122-.535.407-.752.245-.575-.428-.979-.025-1.425.188-.694.332-1.366.712-2.071,1.019-.646.281-1.221.547-.576,1.589a.988.988,0,0,0-1.054-.027,30.989,30.989,0,0,1-3.811,1.759c-.582-.032-.488-.5-.543-.86-.764-4.906-1.541-9.811-2.271-14.722a20.33,20.33,0,0,1-.531-4.51c1.089-.737,2.326-1.191,3.471-1.821.284-.157.56-.329.84-.494m27.229,5.125c-.006-.11,0-.221-.018-.329-.5-3.221-.956-6.448-1.515-9.658a7.942,7.942,0,0,0-.615-2.934,12.451,12.451,0,0,0-.129-1.73c-.071-.8-.381-.86-1.019-.536-1.947.99-3.906,1.956-5.862,2.929q-9.613,4.78-19.232,9.547c-.616.3-.9.627-.7,1.348a11.037,11.037,0,0,1,.2,1.722c.5,3.114.979,6.232,1.509,9.341a13.474,13.474,0,0,0,.66,3.446c0,.248-.023.5,0,.744.072.931.245,1.035,1.063.623q12.369-6.235,24.735-12.478c1.241-.627,1.233-.642.926-2.032" transform="translate(-473.639 -239.916)" fill="#abdcd9"/>
        <path id="Path_32651" data-name="Path 32651" d="M764.874,346.108c-.11-2.061-.588-4.07-.864-6.108-.272-2.012-.6-4.017-.9-6.026,2.516,1.181,5.037,2.353,7.548,3.546q5.412,2.572,10.811,5.171c.246.118.476.27.713.406l-2.027,3.012c-.442-.282-.717-.785-1.249-.947a4.111,4.111,0,0,0-1.853-1.186,9.77,9.77,0,0,0-4.578-.326,5.83,5.83,0,0,0-3.893,2.11c-.445.535-.538,1.352-1.283,1.638a14.486,14.486,0,0,0-2.425-1.292" transform="translate(-636.389 -278.515)" fill="#b57d50"/>
        <path id="Path_32652" data-name="Path 32652" d="M419.158,337.6c.355-.685.733-1.36,1.059-2.059a2.528,2.528,0,0,0-.006-2.467,1.715,1.715,0,0,1,.1-1.668c.253-.552.552-1.084.83-1.625a1.286,1.286,0,0,0,.158-1.037,3.624,3.624,0,0,1,.365-2.561c.086-.229.218-.493.506-.49.327,0,.451.294.543.552a5.032,5.032,0,0,1-.121,4.262,2.813,2.813,0,0,0-.064,2.751c.539,1.17.89,2.4-.046,3.6-.261.335.047.622.3.84a3.888,3.888,0,0,1,1.1,1.308,2.212,2.212,0,0,0,.358-2.7,3.3,3.3,0,0,1,.339-3.6c.3-.43.724-.8,1.1-.012-.107.081-.25.141-.316.247a4.089,4.089,0,0,0-.246,3.869,3.127,3.127,0,0,1,.145,2.32,2.237,2.237,0,0,0-.079,1.46,5.811,5.811,0,0,1-.23,4.257,12.06,12.06,0,0,0-.5,3.283c-.057.415.258.492.5.652a10.911,10.911,0,0,1-4.309.339.809.809,0,0,0,.674-1.008,7.87,7.87,0,0,1-.009-1.323,6.4,6.4,0,0,0-1.343-4.394,1.251,1.251,0,0,1-.2-.621,2.714,2.714,0,0,0-.463-2.493,5.419,5.419,0,0,0-.146-1.685m4.5,5.665c1.1-1.021.341-1.96-.076-2.977a2.864,2.864,0,0,0,.076,2.977" transform="translate(-349.552 -271.612)" fill="#3f8482"/>
        <path id="Path_32653" data-name="Path 32653" d="M372.819,337.191c.017-.469.023-.939.052-1.408a1.915,1.915,0,0,0-1.035-2.133,2.084,2.084,0,0,1-.949-1.845,11.014,11.014,0,0,1-.008-2.234,2.972,2.972,0,0,0-1.143-2.832c-1.774-1.565-1.971-3.605-1.463-5.781.073-.314.195-.7.58-.734s.572.271.69.6a1.071,1.071,0,0,0-.351.794,6.157,6.157,0,0,0,1.895,5.007,4.331,4.331,0,0,1,1.282,2.873,3.882,3.882,0,0,0,.974,2.565,7.2,7.2,0,0,1,1.523,3.249c.581,2.166.1,4.507,1.14,6.6a12.1,12.1,0,0,1,.5,2.5,3.32,3.32,0,0,1-3.318-2.155c.219-.2.163-.444.126-.688a24.652,24.652,0,0,1-.5-4.376" transform="translate(-306.915 -267.047)" fill="#3f8482"/>
        <path id="Path_32654" data-name="Path 32654" d="M382.243,347.447a12.079,12.079,0,0,0-.5-2.5c-1.036-2.091-.558-4.432-1.14-6.6a7.2,7.2,0,0,0-1.523-3.25,3.883,3.883,0,0,1-.974-2.565,4.331,4.331,0,0,0-1.282-2.873,6.157,6.157,0,0,1-1.895-5.007,1.07,1.07,0,0,1,.351-.794,4.356,4.356,0,0,1,.98,2.734,1.755,1.755,0,0,0,.678,1.5c.4.332.815.656,1.214.992a2.315,2.315,0,0,1,.991,2.438,2.639,2.639,0,0,0,.909,2.446,17.636,17.636,0,0,1,2.206,2.1,5.411,5.411,0,0,1,.146,1.685,13.943,13.943,0,0,0,.015,1.562c.038.337-.059.8.448.931a1.254,1.254,0,0,0,.2.621,6.4,6.4,0,0,1,1.343,4.394,7.871,7.871,0,0,0,.009,1.323.809.809,0,0,1-.674,1.008,3.03,3.03,0,0,1-1.5-.151" transform="translate(-312.652 -270.085)" fill="#4c9a99"/>
        <path id="Path_32655" data-name="Path 32655" d="M378.722,607.222c-.427,1.705-.511,3.464-.8,5.191-.137.811-.237,1.629-.342,2.445-.056.437-.342.547-.707.494-.434-.063-.838-.226-.776-.773.12-1.063.3-2.12.406-3.185a44.8,44.8,0,0,0,.6-4.985,45.4,45.4,0,0,0,.793-4.863c.422-2.6.728-5.228,1.079-7.844.263-1.962.516-3.925.783-5.886.058-.426.034-.888.414-1.206a3.21,3.21,0,0,1,1.239.646c-.032.3-.055.6-.1.9-.245,1.745-.5,3.488-.739,5.233-.32,2.317-.615,4.638-.948,6.953-.329,2.289-.721,4.569-.9,6.877" transform="translate(-313.635 -489.196)" fill="#abdcd9"/>
        <path id="Path_32656" data-name="Path 32656" d="M371.907,515.731c0,.94.029,1.882-.011,2.821a1.856,1.856,0,0,0,.99,1.776,10.237,10.237,0,0,0,4.5,1.316,16.52,16.52,0,0,0,7.438-.78c1.285-.475,2.285-1.17,2.055-2.772,1.515,1.261,1.357,2.308-.417,3.1a18.275,18.275,0,0,1-6.488,1.387,27.408,27.408,0,0,1-7.519-.534,7.559,7.559,0,0,1-3.322-1.378,1.239,1.239,0,0,1-.116-2.1,4.327,4.327,0,0,1,1.709-.967c1.15-.37,1.254-.6.868-1.806l.316-.07" transform="translate(-307.299 -430.088)" fill="#b37e54"/>
        <path id="Path_32657" data-name="Path 32657" d="M351.129,549.753a3.214,3.214,0,0,0-1.239-.646c-1.4-.976-2.958-1.688-4.438-2.531-1.529-.872-3.086-1.7-4.626-2.549-1.059-.587-1.266-1.2-.837-2.388-.1.644.2.966.773,1.273,3.373,1.82,6.714,3.7,10.074,5.543,2.944,1.616,5.9,3.208,8.846,4.82.48.263.935.571,1.4.858a1.631,1.631,0,0,1-.485.826c-.45-.264-.894-.541-1.352-.791q-4.056-2.213-8.117-4.415" transform="translate(-283.356 -451.694)" fill="#b37e54"/>
        <path id="Path_32658" data-name="Path 32658" d="M451.516,383.938c-.239-.16-.554-.237-.5-.652a12.059,12.059,0,0,1,.5-3.283,5.81,5.81,0,0,0,.23-4.257,2.236,2.236,0,0,1,.079-1.46,3.127,3.127,0,0,0-.145-2.321,4.09,4.09,0,0,1,.246-3.869c.065-.107.208-.166.316-.247a2.551,2.551,0,0,1,.064,2.015,1.7,1.7,0,0,0,.162,1.572c.507.907.935,1.769.253,2.847-.371.586.041,1.287.311,1.9.2.454.424.9.638,1.348a2.241,2.241,0,0,1-.3,1.1c-.209.555-.591,1.084-.425,1.723a5.777,5.777,0,0,1,.052,3.017,3.031,3.031,0,0,1-1.483.574" transform="translate(-376.117 -306.764)" fill="#4c9a99"/>
        <path id="Path_32659" data-name="Path 32659" d="M462.511,411.715a5.779,5.779,0,0,0-.052-3.017c-.166-.639.216-1.169.425-1.723a2.239,2.239,0,0,0,.3-1.1c.994-.232,1.926-.486,2.078-1.768.051-.435.6-.522,1-.63a1.557,1.557,0,0,0,1.194-.872c.215-.463.788-.989,1.336-.658.467.283.049.859-.124,1.271a2.1,2.1,0,0,1-1.426,1.284,1.169,1.169,0,0,0-.889,1.062c-.148.812-.265,1.671-1.313,1.884-.306.062-.208.344-.185.554.045.41.1.818.155,1.227l-.182.263.005-.025c-.744.257-1.4.562-1.525,1.5a1.051,1.051,0,0,1-.8.751" transform="translate(-385.629 -335.114)" fill="#3f8482"/>
        <path id="Path_32660" data-name="Path 32660" d="M820.9,269.666a3,3,0,0,1,3.446,1.942c.083.205.181.37.415.253.391-.2.951.185,1.216-.533a2.806,2.806,0,0,1,3.177-1.932,2.858,2.858,0,0,1,2.5,2.926,2.927,2.927,0,0,1-5.768.636c-.127-.608-.384-.782-.931-.735a.431.431,0,0,0-.456.46,2.934,2.934,0,1,1-5.828-.583,3.061,3.061,0,0,1,2.224-2.432m.775,5.254a2.161,2.161,0,0,0,2.138-1.412,2.4,2.4,0,0,0-2.951-3.233,2.37,2.37,0,0,0,.814,4.645m4.622-2.664a2.437,2.437,0,1,0,2.427-2.426,2.438,2.438,0,0,0-2.427,2.426" transform="translate(-682.7 -224.625)" fill="#5b3425"/>
        <path id="Path_32661" data-name="Path 32661" d="M401.282,449.825a1.051,1.051,0,0,0,.8-.751c.123-.936.78-1.241,1.525-1.5a4.441,4.441,0,0,1,.343,1.846c-1.754,1.532-3.888,1.819-6.108,2.039a16.128,16.128,0,0,1-6.734-.752,7.523,7.523,0,0,1-2.09-1.3,6.461,6.461,0,0,1,.222-1.866,2.117,2.117,0,0,1,1.436.889,3.32,3.32,0,0,0,3.318,2.155,3.03,3.03,0,0,0,1.5.151,10.918,10.918,0,0,0,4.309-.339,3.033,3.033,0,0,0,1.483-.574" transform="translate(-324.4 -373.225)" fill="#fdfefd"/>
        <path id="Path_32662" data-name="Path 32662" d="M369.888,408.763a2.117,2.117,0,0,0-1.435-.889l-.022.051a.484.484,0,0,0-.187-.4,6.112,6.112,0,0,1,.045-.909c.1-.525.2-.913-.566-1.071-.618-.128-.785-.834-.883-1.4a1.76,1.76,0,0,0-1.334-1.573,2.3,2.3,0,0,1-1.423-2.08c-.066-.457.189-.627.6-.435.271.126.632.268.738.5a1.936,1.936,0,0,0,1.627,1.076.935.935,0,0,1,.82.821,1.4,1.4,0,0,0,1.646,1.248,24.655,24.655,0,0,0,.5,4.376c.037.244.092.491-.126.688" transform="translate(-303.615 -333.555)" fill="#4c9a99"/>
        <path id="Path_32663" data-name="Path 32663" d="M565.619,378.869a20.312,20.312,0,0,0,.531,4.51c.73,4.912,1.508,9.816,2.271,14.723.056.358-.039.827.543.86-.19.436.133.57.422.74a6.44,6.44,0,0,1,1.522.941.409.409,0,0,0,.017.115l-.453.046c-.547-.311-1.082-.648-1.646-.925a1.548,1.548,0,0,1-.837-1.25c-.331-2.056-.637-4.116-.958-6.174s-.613-4.126-.944-6.185c-.09-1.658-.479-3.274-.689-4.915-.067-.521-.157-1.039-.242-1.557-.069-.423-.012-.778.464-.926" transform="translate(-471.285 -315.954)" fill="#4c9a99"/>
        <path id="Path_32664" data-name="Path 32664" d="M832.3,262.253c1.105-1.141,1.5-1.246,2.97-.718a10.583,10.583,0,0,0-2.975.74l.005-.022" transform="translate(-694.084 -217.849)" fill="#5b3425"/>
        <path id="Path_32665" data-name="Path 32665" d="M389.19,445.418a.484.484,0,0,1,.187.4c-.177-.081-.187-.24-.187-.4" transform="translate(-324.561 -371.452)" fill="#fdfefd"/>
        <path id="Path_32666" data-name="Path 32666" d="M476.928,446.573l.182-.263-.182.263" transform="translate(-397.729 -372.196)" fill="#fdfefd"/>
        <path id="Path_32667" data-name="Path 32667" d="M702.6,605.653c-.819,2.433.285,4.4,1.565,6.3a31.275,31.275,0,0,0,4.424,5.11c.215.206.482.383.529.717a2.125,2.125,0,0,0-1.422.519,1.481,1.481,0,0,0-.055,2c-.886.639-1.933.973-2.867,1.522a8.705,8.705,0,0,0-1.546-.754,2.823,2.823,0,0,0-2.291.374,1.069,1.069,0,0,0-.5,1.066.58.58,0,0,0,.621.62.9.9,0,0,1-.6.519q-1.222.495-2.442,1a16.7,16.7,0,0,0-2.842,1.043c-.338.141-.793.134-.875.634a.526.526,0,0,0-.473-.024,7.655,7.655,0,0,0-5.334,6.638,29.872,29.872,0,0,0,1.126,10.963c.253.988.529,1.974.878,2.931.2.552.041.735-.469.82-.3.05-.587.15-.879.228a11.348,11.348,0,0,0-2.82.689,3.951,3.951,0,0,0-1.447.29.735.735,0,0,1-1.016-.486c-3.1-6.55-5.493-13.3-6-20.6.009-.523.016-1.046.027-1.569.079-3.749,1.018-7.182,3.67-9.986a42.542,42.542,0,0,1,13.427-8.43,32.028,32.028,0,0,1,7.617-2.129" transform="translate(-565.29 -505.078)" fill="#4c9a99"/>
        <path id="Path_32668" data-name="Path 32668" d="M862.048,838.6a6.206,6.206,0,0,1-2.546,4.55c-3.137,2.626-6.875,3.745-10.86,4.249a30.158,30.158,0,0,1-9.213-.208c-3.734-.679-7.275-1.886-10.046-4.672a6,6,0,0,1-.027-8.849,16.448,16.448,0,0,1,6.765-3.874,20.427,20.427,0,0,1,4.843-1.016,17.59,17.59,0,0,0,.45,4.75,4.487,4.487,0,0,0,4.161,3.565c2.033.085,4.072.149,6.093.361.965.1,1.924.081,2.884.157,2.081.164,4.162.315,6.244.468a.441.441,0,0,0,.431-.192l.821.712" transform="translate(-690.02 -691.149)" fill="#b4dfe0"/>
        <path id="Path_32669" data-name="Path 32669" d="M432.779,596.005a1.631,1.631,0,0,0,.485-.826c.963-1.112,1.65-2.434,2.662-3.512a2.577,2.577,0,0,1,.9-.809c.181.307.374.607.542.921a8.683,8.683,0,0,0,10.614,4.048,10.876,10.876,0,0,0,4-2.981c.295-.014.6-.032.882-.052a6.232,6.232,0,0,1,3.439.89c1.185,1.155,2.433,2.282,1.855,4.213a10.339,10.339,0,0,1-1.54,1.471,25.494,25.494,0,0,1-5.47,2.394,3.214,3.214,0,0,0-2.108,1.642c-.208.441-.338.919-.5,1.38q0,.091.006.183a18.642,18.642,0,0,0-.984,2.663,78.928,78.928,0,0,1-3.654,7.672,1.409,1.409,0,0,1-.144.035,29.214,29.214,0,0,0-3.529-3.34,15.65,15.65,0,0,0-7.554-3.409,40.288,40.288,0,0,0-6.344-.3c1.418-2.677,2.847-5.348,4.251-8.033.739-1.414,1.594-2.768,2.193-4.254" transform="translate(-355.537 -492.741)" fill="#a97352"/>
        <path id="Path_32670" data-name="Path 32670" d="M560.048,609.945c0-.061,0-.122-.006-.183a3.2,3.2,0,0,1,1.47.713,1.31,1.31,0,0,0,1.466.045q9.942-5.135,19.9-10.236c2.284-1.17,4.585-2.306,6.878-3.458-1.249,1.459-1.666,3.294-2.246,5.049a8.492,8.492,0,0,1-1.372,2.893c-.222.267-.412.446-.757.284a8.388,8.388,0,0,0-3.954-.57,1.05,1.05,0,0,0-.859,1.656,7.468,7.468,0,0,0,2.167,1.883c.286.214.626.384.566.831-2.652,2.8-3.591,6.237-3.67,9.986-.011.523-.018,1.046-.027,1.569-3.185.2-6.379.221-9.559.394-2.733.149-5.44-.056-8.159-.055-.477-3.2-.94-6.41-1.447-9.609-.063-.4.117-.924-.393-1.192" transform="translate(-467.041 -497.717)" fill="#fdecdc"/>
        <path id="Path_32671" data-name="Path 32671" d="M419.673,695.835a40.286,40.286,0,0,1,6.344.3,15.653,15.653,0,0,1,7.554,3.409,29.24,29.24,0,0,1,3.529,3.34q.013.307.027.613a.093.093,0,0,0,0,.123c.21,3.676.407,7.352.642,11.026.046.72-.206,1.1-.9,1.2.251-1.56-.061-2.174-1.433-2.7a10.124,10.124,0,0,0-2.991-.584c-1.192-.078-2.35.281-3.535.18-.5-.124-.669-.507-.784-.952-.636-2.472-1.253-4.949-1.937-7.408-.143-.516-.038-1.224-.508-1.523-.921-.585-1.937-1.02-2.914-1.516l-.109.188c.494.379.978.772,1.485,1.133,1.148.818,2.14,1.711,2.109,3.3a10.235,10.235,0,0,0,.1,1.4c.228,1.906.385,3.82.569,5.731l-.48.058c-1.527-.453-3.061-.876-4.624-1.191-1.093-.116-1.4-.851-1.631-1.818a63.858,63.858,0,0,1-1.767-9.669.928.928,0,0,0-.075-.733l.054-.243a6.228,6.228,0,0,1,1.272-3.653" transform="translate(-348.876 -580.284)" fill="#4c9a99"/>
        <path id="Path_32672" data-name="Path 32672" d="M397.662,607.994a6.228,6.228,0,0,0-1.272,3.653c-1.33.018-2.482-.651-3.725-.967-.24-.061-.475-.14-.712-.211.18-2.308.572-4.589.9-6.878.332-2.315.628-4.636.947-6.953.241-1.745.5-3.488.74-5.233.042-.3.065-.6.1-.9q4.059,2.206,8.117,4.414c.458.25.9.527,1.352.791-.6,1.486-1.454,2.84-2.194,4.254-1.4,2.684-2.833,5.356-4.251,8.032" transform="translate(-326.865 -492.443)" fill="#fdecdc"/>
        <path id="Path_32673" data-name="Path 32673" d="M414.642,797.058l.48-.058a4.09,4.09,0,0,0,1.987-.348c1.185.1,2.344-.258,3.536-.18a10.123,10.123,0,0,1,2.991.584c1.372.525,1.684,1.139,1.434,2.7-2.012,1.653-4.586,2.044-6.879,3.066a9.112,9.112,0,0,0-1.949.851,19.946,19.946,0,0,0-4.489,1.7,27.842,27.842,0,0,0-4.108,1.429l-1.479.505c-.222-.187-.145-.447-.166-.683a2.215,2.215,0,0,0-1.8-2.2,1.691,1.691,0,0,0,.648-.5,27.564,27.564,0,0,1,5.029-4.764,16.336,16.336,0,0,1,3.089-1.451c.565-.2,1.218-.183,1.68-.651" transform="translate(-337.075 -664.2)" fill="#ecac7c"/>
        <path id="Path_32674" data-name="Path 32674" d="M929.229,837.061a.442.442,0,0,1-.431.192c-2.082-.153-4.163-.3-6.244-.468-.96-.076-1.919-.056-2.884-.157-2.022-.212-4.06-.276-6.093-.361a4.487,4.487,0,0,1-4.161-3.565,17.589,17.589,0,0,1-.45-4.75l1.327-.164a1.753,1.753,0,0,1,.17.965c0,1.438-.056,2.878.014,4.313a2.088,2.088,0,0,0,2.33,2.2,2.139,2.139,0,0,0,2.3-2.183c.012-1,0-1.991.006-2.986,0-.293-.088-.62.214-.841,1.576.364,3.109.887,4.7,1.216,2.043.424,4.119.616,6.169.986.1.283.2.568.3.849a19.152,19.152,0,0,0,2.734,4.755" transform="translate(-758.022 -690.325)" fill="#abdcd9"/>
        <path id="Path_32675" data-name="Path 32675" d="M776.841,721.7c.082-.5.538-.492.875-.633a16.738,16.738,0,0,1,2.842-1.044c.061.353.39.439.624.61,1.449,1.055,3.059,1.847,4.575,2.794a38.351,38.351,0,0,0,1.713,7.049c.264.759.173,1.123-.675,1.167a2.936,2.936,0,0,0-.634.177,15.268,15.268,0,0,0-2.815.672c-.135.016-.273.02-.406.048-1.715.375-1.729.382-2.447-1.185a61,61,0,0,1-3.653-9.657" transform="translate(-647.838 -600.455)" fill="#3f8482"/>
        <path id="Path_32676" data-name="Path 32676" d="M555.138,675.825c.51.268.33.793.393,1.192.507,3.2.97,6.4,1.447,9.609q.8,5.3,1.594,10.606.839,5.633,1.665,11.269c.067.454-.106.683-.565.708-.5.027-.945.015-1.036-.644-.21-1.526-.448-3.049-.668-4.574-.4-2.778-.789-5.558-1.2-8.335-.429-2.913-.874-5.823-1.317-8.734a3.09,3.09,0,0,0-.148-.47,27.9,27.9,0,0,0-.618-4.65,21,21,0,0,0-.532-3.315,18.579,18.579,0,0,1,.984-2.663" transform="translate(-462.131 -563.597)" fill="#abdcd9"/>
        <path id="Path_32677" data-name="Path 32677" d="M1015.739,855.486a19.153,19.153,0,0,1-2.734-4.755c-.106-.281-.2-.566-.3-.849a17.766,17.766,0,0,1,4.088.885c.32.1.387.405.449.727a24.57,24.57,0,0,0,1.187,3.939,11.785,11.785,0,0,0,3.51,4.805,23.331,23.331,0,0,1,4.005,4.692,2.172,2.172,0,0,1,.277,1.1A16.682,16.682,0,0,1,1025.5,869c-.534,1.649-1.355,2.092-3.029,1.649-.514-.136-1.264-.146-1.384-.713-.113-.53.624-.678,1.006-.957,2.023-1.479,2.38-3.608,1-6.183a11.46,11.46,0,0,0-1.745-2.406,34.241,34.241,0,0,0-4.781-4.188l-.821-.712" transform="translate(-844.532 -708.75)" fill="#b37e54"/>
        <path id="Path_32678" data-name="Path 32678" d="M788.023,811.323c.459-.079.917-.173,1.38-.232.247-.031.522-.011.634.272.1.253-.092.428-.259.559a11.165,11.165,0,0,1-1.274.92,71.12,71.12,0,0,1-10.92,4.978,1.173,1.173,0,0,1-1.7-1.075,3.118,3.118,0,0,1,.587-2.194,12.2,12.2,0,0,1,4.428-3.665c.29-.166.452,0,.649.162.248.211.426.521.786.58.323.713,1.043,1.04,1.541,1.584a.461.461,0,0,0,.547.078c1.18-.694,2.478-1.169,3.6-1.968" transform="translate(-647.019 -676.172)" fill="#3f8482"/>
        <path id="Path_32679" data-name="Path 32679" d="M700.518,880.292c.484-.1.966-.219,1.454-.293a.459.459,0,0,1,.49.242c.109.218-.041.369-.167.511a5.1,5.1,0,0,1-1.321.986,70.674,70.674,0,0,1-10.977,5c-.865.318-1.428-.022-1.651-.929a2.8,2.8,0,0,1,.478-2.2,11.809,11.809,0,0,1,4.5-3.8c.276-.157.459-.033.657.146.242.219.423.513.753.627a9.612,9.612,0,0,0,1.571,1.568.457.457,0,0,0,.654.073,35.821,35.821,0,0,1,3.556-1.926" transform="translate(-573.982 -733.643)" fill="#3f8482"/>
        <path id="Path_32680" data-name="Path 32680" d="M390.287,859.217c-.365,1.267-.876,1.447-1.7.5a17.665,17.665,0,0,1-3.718-7.109,4.156,4.156,0,0,1,.79-3.35c1.226-.379,1.951.19,2.535,1.225a17.2,17.2,0,0,1,1.777,6.311,11.411,11.411,0,0,0,.318,2.423" transform="translate(-320.865 -708.132)" fill="#a97352"/>
        <path id="Path_32681" data-name="Path 32681" d="M455.033,852.719c-.42-2.137-1.181-4.178-1.747-6.274.868-.624,1.721-1.27,2.611-1.861.426-.283.757-.745,1.33-.782.213,1.257.433,2.514.638,3.773.185,1.133.354,2.268.53,3.4.058.542.1,1.085.176,1.625a1.122,1.122,0,0,1-.91,1.338c-1.3.431-1.815.208-2.627-1.221" transform="translate(-378.013 -703.68)" fill="#ecac7c"/>
        <path id="Path_32682" data-name="Path 32682" d="M921.989,824.836c-.3.221-.211.548-.214.841-.009,1,.006,1.991-.006,2.986a2.14,2.14,0,0,1-2.3,2.183,2.088,2.088,0,0,1-2.33-2.2c-.07-1.434-.017-2.875-.014-4.313a1.752,1.752,0,0,0-.17-.965l.212-.88,4.822,2.346" transform="translate(-764.685 -685.907)" fill="#b4dfe0"/>
        <path id="Path_32683" data-name="Path 32683" d="M460.957,887.917c.812,1.429,1.324,1.651,2.627,1.221a1.122,1.122,0,0,0,.91-1.338c-.072-.54-.118-1.083-.176-1.625a12.224,12.224,0,0,1,3.7-.029,6.818,6.818,0,0,1,2.324.841c.54.349.63.768.027,1.15a24.3,24.3,0,0,1-7.86,3.443c-1.631.351-2.35-.445-2.053-2.1a4.131,4.131,0,0,1,.5-1.566m5.03-.453-.068-.209c-.02.014-.059.039-.059.041.036.061.076.119.116.178a.769.769,0,0,0,.276.7.52.52,0,0,0-.265-.708m-.384-.556.07.026c.007-.021.026-.053.018-.06a.182.182,0,0,0-.067-.028l-.021.063" transform="translate(-383.937 -738.878)" fill="#cc8d61"/>
        <path id="Path_32684" data-name="Path 32684" d="M732.956,863.784a35.833,35.833,0,0,0-3.556,1.926.457.457,0,0,1-.654-.073,9.609,9.609,0,0,1-1.571-1.568c.105-.246.348-.341.544-.48a.709.709,0,0,0,.283-.914,9.357,9.357,0,0,1-.551-2.049,11.348,11.348,0,0,1,2.82-.689,5.581,5.581,0,0,0,1.35,1.919,5.41,5.41,0,0,1,1.335,1.928" transform="translate(-606.42 -717.135)" fill="#ecac7c"/>
        <path id="Path_32685" data-name="Path 32685" d="M820.547,794.854c-1.121.8-2.42,1.274-3.6,1.968a.461.461,0,0,1-.547-.078c-.5-.544-1.218-.872-1.541-1.584.948-.533.976-1.276.548-2.175a7.462,7.462,0,0,1-.356-1.245,15.324,15.324,0,0,1,2.815-.672,8.587,8.587,0,0,0,1.553,2.1,3.816,3.816,0,0,1,1.128,1.68" transform="translate(-679.544 -659.704)" fill="#b37e54"/>
        <path id="Path_32686" data-name="Path 32686" d="M535.8,691.859a21.007,21.007,0,0,1,.532,3.315,27.862,27.862,0,0,1,.618,4.65,25.173,25.173,0,0,1-4.51-.166,1.682,1.682,0,0,1-.295-.127,78.985,78.985,0,0,0,3.654-7.672" transform="translate(-443.778 -576.969)" fill="#fdecdc"/>
        <path id="Path_32687" data-name="Path 32687" d="M804.426,715.825c-1.515-.947-3.126-1.74-4.575-2.794-.234-.171-.563-.258-.624-.61q1.221-.5,2.442-1a.9.9,0,0,0,.6-.519,1.755,1.755,0,0,0,.8.159.492.492,0,0,1,.534.42,22.819,22.819,0,0,0,1.487,4.108.33.33,0,0,1-.088.442l-.585-.212" transform="translate(-666.507 -592.853)" fill="#cc5e46"/>
        <path id="Path_32688" data-name="Path 32688" d="M394.8,855.062a11.411,11.411,0,0,1-.318-2.423,17.2,17.2,0,0,0-1.777-6.311c-.584-1.035-1.308-1.6-2.535-1.225a2.07,2.07,0,0,1,2.329-.9,2.215,2.215,0,0,1,1.8,2.2c.022.236-.055.5.166.683.14,1.428.312,2.854.41,4.285a10.415,10.415,0,0,1-.078,3.691" transform="translate(-325.377 -703.977)" fill="#cc8d61"/>
        <path id="Path_32689" data-name="Path 32689" d="M442.856,794.075c-.462.468-1.115.447-1.68.651a16.337,16.337,0,0,0-3.089,1.451,11.23,11.23,0,0,1,.145-3.292c1.563.315,3.1.738,4.624,1.191" transform="translate(-365.289 -661.217)" fill="#cc8d61"/>
        <path id="Path_32690" data-name="Path 32690" d="M454.232,840.539c-.573.037-.9.5-1.33.782-.89.591-1.743,1.237-2.611,1.861l-.6-1.59a19.956,19.956,0,0,1,4.489-1.7q.024.325.048.649" transform="translate(-375.018 -700.417)" fill="#cc8d61"/>
        <path id="Path_32691" data-name="Path 32691" d="M881.85,779.868l6.472.842c-1.94.2-3.867.344-5.777.648a4.21,4.21,0,0,1-.7-1.489" transform="translate(-735.41 -650.363)" fill="#b57d50"/>
        <path id="Path_32692" data-name="Path 32692" d="M418.14,719.3a.929.929,0,0,1,.075.733c-.182-.228-.1-.483-.075-.733" transform="translate(-348.669 -599.852)" fill="#fdecdc"/>
        <path id="Path_32693" data-name="Path 32693" d="M531.34,742.083a.092.092,0,0,1,0-.123l.048.06Z" transform="translate(-443.084 -618.75)" fill="#fdecdc"/>
        <path id="Path_32694" data-name="Path 32694" d="M939.07,735.883c.492,1.879,1.88,2.83,3.569,3.5a.911.911,0,0,0,.618,0c.178.393.586.374.907.477,2.619.838,5.307,1.458,7.867,2.483a19.311,19.311,0,0,1,5.031,2.8,1.954,1.954,0,0,0,.439.2c.633.6,1,1.458,1.851,1.836.1.568.556.929.838,1.391a9.42,9.42,0,0,1,.812,9.212c-.144.325-.233.675-.347,1.013-.408.215-.815.432-1.224.645a2.735,2.735,0,0,1-3.34-.492,11.022,11.022,0,0,1-2.386-4.016c-.784-2.055-1.466-4.148-2.251-6.2a4.392,4.392,0,0,0-3.194-2.509,30.116,30.116,0,0,0-5.85-.895c-2.839-.27-5.723-.326-8.425-1.434a3.691,3.691,0,0,1-.3-6.646,10.844,10.844,0,0,1,4.684-1.2c.242-.016.5.057.7-.156" transform="translate(-777.005 -613.682)" fill="#b57d50"/>
        <path id="Path_32695" data-name="Path 32695" d="M873.934,670.769a25.261,25.261,0,0,0,4.06-2.812c.857,1.191,1.667,2.394.938,3.962a2.048,2.048,0,0,0-.846,1.659,16.03,16.03,0,0,0-1.366,2.639c-.253.557-.452.572-.742.089a14.987,14.987,0,0,1-2.045-5.536" transform="translate(-728.808 -557.036)" fill="#cc5e46"/>
        <path id="Path_32696" data-name="Path 32696" d="M839.937,695.37c.933-.549,1.981-.883,2.867-1.522.518-.055.493.373.537.664a59.534,59.534,0,0,0,1.708,6.881,4.483,4.483,0,0,0,1.159,1.837,2.742,2.742,0,0,1-2.973-1.058,24.006,24.006,0,0,1-3.3-6.8" transform="translate(-700.457 -578.623)" fill="#cc5e46"/>
        <path id="Path_32697" data-name="Path 32697" d="M898.933,693.473a.965.965,0,0,1,1.279-1.446,18.831,18.831,0,0,0,5.053,3.023c1.966.78,3.951,1.572,6.122.747v1.5c-3.439,1.28-6.416-.045-9.356-1.638a33.053,33.053,0,0,1-3.1-2.19" transform="translate(-749.655 -576.932)" fill="#a97352"/>
        <path id="Path_32698" data-name="Path 32698" d="M866.121,678.749l.158.094c-.089.031-.139-.006-.158-.094" transform="translate(-722.292 -566.036)" fill="#4c9a99"/>
        <path id="Path_32699" data-name="Path 32699" d="M792.891,401.062c.532.163.807.666,1.249.948a58.863,58.863,0,0,0-2.562,7.325,22.443,22.443,0,0,1-.721,2.287,7.3,7.3,0,0,1-1.814,2.826c-.9-.114-1.814-.176-2.7-.353a31.172,31.172,0,0,1-5.9-1.249c.238-.336.018-.559-.193-.785a.1.1,0,0,0-.01-.1.561.561,0,0,0-.2-.484c.016-.25.1-.516-.159-.7a.627.627,0,0,0,.028-.572,3.39,3.39,0,0,0,.131-1.6l.166-1.268a14.766,14.766,0,0,1,1.2-3.487,57.215,57.215,0,0,1,5-2.846l.115.178-2.2,1.857c1.508-.241,2.532-1.145,3.806-1.363.031.408-.494.4-.418.807,1.743-.475,3.5-.812,5.183-1.421m-10.338,3.078h1.318c.186,0,.435.057.464-.2s-.23-.266-.4-.334a1.01,1.01,0,0,0-1.373.545l-.031.056.026-.062m7.144.664.054.034-.061-.027a1.28,1.28,0,0,0-1.44-1.139c-.2.012-.492-.059-.485.281a.339.339,0,0,0,.414.311,2.408,2.408,0,0,1,1.518.54m-5.541,6.325c.19.381.342.731-.1,1.087-.332.27-.213.577.171.659a3.18,3.18,0,0,0,2.249-.222.778.778,0,0,0,.268-1.2c-.244-.414-.585-1.09-1.066-.762s-.868.149-1.293.211c-.112-.4-.112-.4,1.136-.544-.551-.286-1.11-.469-1.575-.091-.27.22-.048.613.206.864m4.2-4.078c-.054-.379-.252-.675-.676-.658a.66.66,0,0,0-.674.767.612.612,0,0,0,.7.632c.426-.031.609-.315.645-.74m-5.282.559a.675.675,0,0,0,.629-.72c.019-.389-.113-.732-.561-.762-.488-.033-.693.306-.689.73a.686.686,0,0,0,.621.751" transform="translate(-650.373 -334.414)" fill="#fdecdc"/>
        <path id="Path_32700" data-name="Path 32700" d="M903.349,635.828c-2.171.825-4.156.032-6.122-.747a18.83,18.83,0,0,1-5.053-3.023,2.061,2.061,0,0,0-.433-.213c.729-1.567-.081-2.77-.938-3.962a8.683,8.683,0,0,1-1.33-2.259,4.621,4.621,0,0,1,.453-3.578,7.277,7.277,0,0,1,1.5-2.142c.732.264,1.441.7,2.262.3a4.356,4.356,0,0,0,3.34,1.339l2.664.021a24.157,24.157,0,0,0-2.513,1.66,4.391,4.391,0,0,0-1.474,2.3c-.748,2.936,1.265,5.363,3.629,6.325a11.626,11.626,0,0,0,4.671.832l-.657,3.143" transform="translate(-741.616 -516.962)" fill="#cc8d61"/>
        <path id="Path_32701" data-name="Path 32701" d="M599.248,543.684c-.288.684-.586,1.364-.86,2.053-.128.323-.412.423-.676.565-1.963,1.053-4.052,1.855-5.977,2.984q-.987.579-1.976,1.154c-2.293,1.152-4.595,2.287-6.878,3.458q-9.959,5.1-19.9,10.236a1.31,1.31,0,0,1-1.466-.045,3.2,3.2,0,0,0-1.47-.713c.165-.461.3-.939.5-1.38a3.214,3.214,0,0,1,2.108-1.641,25.5,25.5,0,0,0,5.47-2.394,10.3,10.3,0,0,0,1.54-1.472,50.514,50.514,0,0,0,8.161-3.608c1.3-.742,2.43-1.818,4-2.059a1.8,1.8,0,0,0,1.025-.509,7.657,7.657,0,0,1,3.241-1.7c.161.03.356.036.391.238.03.171-.127.22-.258.264a9.856,9.856,0,0,0-3.3,1.783c-.717.609-1.729.417-2.429.945a40.429,40.429,0,0,1-5.637,3.255c-4.358,2.3-8.687,4.658-13.025,7-.257.138-.732.245-.633.545a.826.826,0,0,0,.985.421,3.055,3.055,0,0,0,.788-.238c.836-.421,1.666-.855,2.484-1.31,3.393-1.885,6.922-3.507,10.337-5.355,3.484-1.885,7.077-3.568,10.609-5.366q4.049-2.061,8.061-4.194a21.361,21.361,0,0,0,3-1.6c-.064-.184-.188-.177-.291-.18a19.263,19.263,0,0,1-7.778-1.987,2.338,2.338,0,0,0-2.491-.168,8.663,8.663,0,0,1-1.592.861c-.682.258-1.232.881-2.051.765a37.568,37.568,0,0,1,5.82-3.078,31.63,31.63,0,0,0,10.163,2.481" transform="translate(-467.042 -451.331)" fill="#b37e54"/>
        <path id="Path_32702" data-name="Path 32702" d="M724.7,453.653a31.176,31.176,0,0,0,5.9,1.249c.889.176,1.8.239,2.7.353a11.6,11.6,0,0,1-5.75,3.422,21.058,21.058,0,0,1-4.556.84,4.662,4.662,0,0,1-1.908-.884,12.849,12.849,0,0,0-2.774-1.733l-.163-.3c-.012-.1-.059-.124-.145-.072l-.291-.038a1.864,1.864,0,0,0-1.17-.912.458.458,0,0,0-.52-.319,3.062,3.062,0,0,0-.995-1.006c-.2-.163-.372-.372-.66-.381-.049-.441-.5-.6-.673-.951-.086-.343-.487-.318-.658-.562.2-.124.484-.136.568-.426a3.21,3.21,0,0,1,2.22-2,4.149,4.149,0,0,0,1.18.823l.521.217a1.8,1.8,0,0,0,1.232.621,1.025,1.025,0,0,0,.912.29,2.9,2.9,0,0,0,1.61.72c.143.184.348.172.549.171a4.207,4.207,0,0,0,1.827.636,1.324,1.324,0,0,0,1.039.237" transform="translate(-594.632 -375.221)" fill="#fdfefd"/>
        <path id="Path_32703" data-name="Path 32703" d="M668.718,489.8a2.008,2.008,0,0,0-1.072,2.046c-.83-.144-1.284-.948-2.063-1.181-.043-.288-.3-.334-.5-.44-.155-.25-.435-.3-.672-.417a.256.256,0,0,0-.181-.252l.008.008a1.08,1.08,0,0,0-.8-.4,11.7,11.7,0,0,0-2.553-.134c-.372-.369-.349-.586.223-.641.321-.031.675.046.949-.294h-1.315c-.3-.016-.6-.038-.907-.048-.348-.012-.677-.041-.722-.493l.683-.244a1.285,1.285,0,0,0-.692-.274c.083-.305.329-.283.564-.283.323-.06.685.071,1.038-.154-.373-.329-.836-.028-1.128-.339.455-.661,1.145-.294,1.728-.4a1.629,1.629,0,0,0,.972.016c.91-.427,1.569.044,2.224.555.173.135.319.3.561.3l1,.628a.274.274,0,0,0,.342.208l-.007-.007c0,.217.165.282.321.358a3.605,3.605,0,0,0,1.262,1,.407.407,0,0,0,.373.317l.372.559" transform="translate(-549.649 -405.056)" fill="#ecac7c"/>
        <path id="Path_32704" data-name="Path 32704" d="M715.157,494.93l-.372-.559c1.645-.871,3.274-1.773,4.985-2.51a12.848,12.848,0,0,1,2.774,1.733,4.664,4.664,0,0,0,1.908.883,42.4,42.4,0,0,1-6.269.157,8.954,8.954,0,0,0-3.026.3" transform="translate(-596.087 -410.182)" fill="#c7e7e9"/>
        <path id="Path_32705" data-name="Path 32705" d="M636.467,523.327a37.565,37.565,0,0,0-5.82,3.078l.014,0c-.678.076-1.239.62-1.969.488h.013c-.037-.319-.254-.357-.514-.329l0,0a.53.53,0,0,0-.518-.345l-.3-.134a.285.285,0,0,0-.353-.189l.005.011-.176-.167.007,0a.57.57,0,0,0-.668-.34l0,0a2.657,2.657,0,0,0-1.491-.838v.006c-.12-.31-.4-.337-.67-.369l-.135-.126a6.011,6.011,0,0,0-2.2-1.181l-.239-.008a.673.673,0,0,0-.761-.507l-.067.006a.459.459,0,0,0-.57-.322l.011,0a1.7,1.7,0,0,0-1.363-.829l-.242-.017c-.054-.164-.126-.309-.33-.315-.21-.623-1.023-.567-1.28-1.137l.3-.012q1.324.74,2.649,1.48,4.423,2.459,8.846,4.917c.316.176.6.368,1,.156,1.611-.854,3.234-1.685,4.853-2.524a4.625,4.625,0,0,0,1.35-.7c.216.042.479-.038.608.232" transform="translate(-514.424 -433.454)" fill="#4c9a99"/>
        <path id="Path_32706" data-name="Path 32706" d="M700.2,519.577a4.62,4.62,0,0,1-1.35.7,22.238,22.238,0,0,1-2.032-1.383,10.653,10.653,0,0,1-2.8-2.953,1.366,1.366,0,0,1,.686-.395c.78.233,1.233,1.037,2.063,1.181.143.972.908,1.392,1.641,1.831.59.353,1.2.678,1.8,1.016" transform="translate(-578.767 -429.937)" fill="#abdcd9"/>
        <path id="Path_32707" data-name="Path 32707" d="M904.4,615.325c-.821.4-1.53-.04-2.262-.3.158-.538.489-1.006,1.053-.97.707.045.993.667,1.208,1.274" transform="translate(-752.331 -512.08)" fill="#5b3425"/>
        <path id="Path_32708" data-name="Path 32708" d="M935.415,641.039a11.627,11.627,0,0,1-4.671-.832c-2.364-.962-4.377-3.389-3.629-6.325a4.391,4.391,0,0,1,1.474-2.3,24.185,24.185,0,0,1,2.513-1.66l1.331.32a5.762,5.762,0,0,1,2.589,1.941,4.715,4.715,0,0,0,.948,1.09,6.367,6.367,0,0,0,3.112,1.13,7.917,7.917,0,0,1-1.906,2.12,3.6,3.6,0,0,0-1,1.661c-.235.957-.508,1.9-.765,2.857m-2.144-7.645c-.031-.8-.706-1.283-.992-1.959a.509.509,0,0,0-.671-.323c-.34.1-.359.4-.328.677a3.7,3.7,0,0,0,1.07,2.085.533.533,0,0,0,.608.138c.286-.106.309-.358.312-.618m-2.8.645a.8.8,0,0,0,.789-.778.547.547,0,0,0-.589-.634.714.714,0,0,0-.736.728c-.018.373.108.642.536.684" transform="translate(-773.026 -525.315)" fill="#b57d50"/>
        <path id="Path_32709" data-name="Path 32709" d="M966.583,625.374a6.367,6.367,0,0,1-3.113-1.13,4.712,4.712,0,0,1-.948-1.09,5.764,5.764,0,0,0-2.589-1.941,4.832,4.832,0,0,1,.843-1.77c.3-.457.567-.446.9-.066.434.5.877.982,1.307,1.48.264.306.546.465.924.2.464-.328.77-.054,1.048.282a16.677,16.677,0,0,1,2.008,3.3c.225.453-.074.585-.38.737" transform="translate(-800.526 -516.289)" fill="#cc8d61"/>
        <path id="Path_32710" data-name="Path 32710" d="M501.139,524a10.877,10.877,0,0,1-4,2.981,8.683,8.683,0,0,1-10.614-4.048c-.169-.314-.361-.614-.542-.921a11.937,11.937,0,0,1-.612-5.215,9.38,9.38,0,0,1,2.724-5.458c.514-.5.636-.8,0-1.22a.582.582,0,0,1-.322-.5c.482-.148,1.014.428,1.37.1.314-.292.233-.876.29-1.414.387.263.372.646.452.956.114.445.309.514.708.321,2.463-1.19,4.941-.842,7.421-.047a7.355,7.355,0,0,1,2.96,2.064,5.251,5.251,0,0,0,2.017,1.54c.131.3.45.279.682.408l1.107.417c-.3.5-.861.613-1.43.922a7.721,7.721,0,0,0,3.062.018,5.626,5.626,0,0,1-2.917,2.258c-.279.091-.522.133-.5.514A10.566,10.566,0,0,1,501.139,524" transform="translate(-404.694 -423.897)" fill="#5b3425"/>
        <path id="Path_32711" data-name="Path 32711" d="M581.805,513.666a5.257,5.257,0,0,1-2.017-1.54,9.5,9.5,0,0,1,2.665-2.538c.105-.066.161-.211.24-.319l.454-.045c.056.353-.336.514-.357.835l-.187.1c.016.018.041.055.047.052.064-.031.124-.068.186-.1a1.223,1.223,0,0,0,.831-.8c.305-.1.826-.933.76.236-.012.207.213.18.382.1.311-.149.556-.782.912-.389.291.322-.413.564-.446.953a.509.509,0,0,0,.03.141c.426.053.781-.415,1.266-.173l-.322.551-.3.012-.3.182a.292.292,0,0,0-.177.314l-.008,0a.553.553,0,0,0-.659.5l0,0c-.223.038-.456.115-.4.385.038.182.263.114.415.116.231,0,.474.059.67-.128.151.016.367-.075.418.132s-.146.269-.3.324a16.709,16.709,0,0,1-2.607.683c-.415.074-.881.024-1.187.417" transform="translate(-483.508 -424.422)" fill="#ecac7c"/>
        <path id="Path_32712" data-name="Path 32712" d="M856.2,312.045a5.846,5.846,0,0,1,2.535.99c.5.357.515.747.046,1.149a3.6,3.6,0,0,1-.573.474c-.8.434-1.659,1-2.552.449-.842-.519-.64-1.514-.655-2.348-.011-.609.426-.777,1.2-.715m2.356,1.5a4.727,4.727,0,0,0-2.023-.882c-.518-.088-.963.018-1.019.638-.061.677.421.849.955.833a4.785,4.785,0,0,0,2.086-.589" transform="translate(-713.009 -260.217)" fill="#cc5e46"/>
        <path id="Path_32713" data-name="Path 32713" d="M866.029,260.22c1.558-.65,2.829-.4,3.6.659-1.049-.671-2.275-.429-3.6-.659" transform="translate(-722.216 -216.71)" fill="#5b3425"/>
        <path id="Path_32714" data-name="Path 32714" d="M554.742,169.912a.546.546,0,0,1-.257.491q-3.212,2.727-6.424,5.453c-1.988,1.7-3.961,3.409-5.948,5.1-2.156,1.839-4.341,3.645-6.468,5.518-.528.465-.783.15-1.082-.151-.419-.422.12-.591.3-.752,1.711-1.518,3.443-3.011,5.18-4.5s3.479-2.951,5.218-4.426q3.749-3.179,7.5-6.361a12.724,12.724,0,0,1,.991-.877.6.6,0,0,1,.992.5" transform="translate(-445.664 -141.162)" fill="#fdecdc"/>
        <path id="Path_32715" data-name="Path 32715" d="M544.112,302.767a2.106,2.106,0,0,1-1,.486q-2.825-2.9-5.649-5.806-2.455-2.529-4.9-5.064c-.213-.22-.634-.363-.205-.767a.648.648,0,0,1,1.013.008,21.294,21.294,0,0,1,1.856,1.871c.746.935,1.631,1.726,2.452,2.583q3.21,3.351,6.432,6.689" transform="translate(-443.802 -242.99)" fill="#fdecdc"/>
        <path id="Path_32716" data-name="Path 32716" d="M610.778,317.976a7.943,7.943,0,0,1,.615,2.934c.559,3.21,1.019,6.437,1.515,9.658a3.248,3.248,0,0,1,.018.329c-.991.481-1.986.956-2.974,1.442q-11.873,5.849-23.745,11.7a13.468,13.468,0,0,1-.66-3.446c-.53-3.109-1.01-6.227-1.509-9.341.153-.059.312-.107.458-.18q13.142-6.548,26.281-13.1m-11.8,8.963-.182-.368c.636-.674.072-1.359.161-2.145-1.925.968-3.694,1.86-5.466,2.748-1.105.554-1.26,1.1-.649,2.325l.171.258c-.122.162-.459.258-.287.516s.4.008.577-.078c1.76-.87,3.513-1.755,5.269-2.633.26-.13.495-.27.406-.623m4.805-3.66c.166,1.228.368,2.453.485,3.687.062.652.284.761.837.481q2.587-1.312,5.189-2.6a.741.741,0,0,0,.475-.854q-.262-2.006-.5-4.016c-.056-.479-.275-.546-.672-.341-1.764.909-3.527,1.821-5.3,2.709a.807.807,0,0,0-.512.929m-2.648,10.693c.395.221.553-.052.718-.253a3.887,3.887,0,0,0,.574-.807,1.685,1.685,0,0,1,2.012-1.015,1.228,1.228,0,0,0,1.2-.376c1.625-1.8,3.279-3.583,4.911-5.381.187-.206.443-.433.261-.78-.222-.031-.306.14-.41.254-1.4,1.528-2.824,3.028-4.163,4.6a2.6,2.6,0,0,1-2.584,1.218c-.3-.054-.674-.125-.912.218l-1.6,2.318m10.77-4.442a.235.235,0,0,0-.343-.23,3.579,3.579,0,0,0-.524.244q-4.748,2.431-9.5,4.862c-.207.106-.451.218-.346.472.155.373.427.113.618.016q4.862-2.478,9.717-4.971c.179-.091.348-.168.374-.394m-19.423,4.149c-.038-.284-.22-.236-.41-.14q-2.882,1.44-5.761,2.887c-.181.091-.344.25-.236.461.136.265.339.071.491-.005q2.773-1.381,5.539-2.777c.174-.087.347-.177.377-.426m7.478.627c-.13-.353-.378-.12-.562-.029q-2.7,1.342-5.4,2.7a2.81,2.81,0,0,0-.289.16.324.324,0,0,0-.166.42c.106.217.282.1.422.026q2.847-1.425,5.691-2.858a.465.465,0,0,0,.3-.421m-.505-4.154c-.087-.3-.285-.164-.447-.083q-2.812,1.4-5.619,2.818a1.011,1.011,0,0,0-.21.129c-.135.116-.217.267-.108.432s.247.056.364,0q2.845-1.425,5.687-2.854c.18-.09.337-.193.333-.44m-7.459.466c-.121-.3-.342-.181-.535-.085q-2.781,1.383-5.555,2.779c-.166.083-.406.167-.307.413.128.319.365.144.551.051q2.78-1.386,5.554-2.783c.148-.074.3-.149.292-.374m.649,7.047c-.051.021-.1.038-.153.062q-2.843,1.425-5.684,2.854c-.182.092-.343.254-.234.462.138.264.343.061.492-.014q2.773-1.379,5.537-2.777a.7.7,0,0,0,.268-.182.387.387,0,0,0,.044-.3.2.2,0,0,0-.27-.11m6.325-8.68c-.395.2-.857.445-1.322.679q-2.216,1.114-4.434,2.223c-.207.1-.438.243-.32.493.151.32.387.057.553-.022.7-.332,1.382-.689,2.072-1.038q1.728-.875,3.457-1.751c.179-.091.348-.182.314-.425-.019-.136-.113-.172-.32-.16m-7.211.325c-.081.033-.133.051-.182.075q-2.885,1.443-5.767,2.89c-.182.092-.34.263-.234.466.137.262.343.058.493-.017q2.775-1.377,5.542-2.773a.848.848,0,0,0,.315-.251.4.4,0,0,0,.011-.3c-.014-.048-.128-.066-.177-.089M586.113,336c.082-.033.135-.049.184-.074q2.864-1.459,5.726-2.922c.171-.088.383-.222.261-.44-.138-.247-.347-.046-.5.03q-2.771,1.375-5.533,2.769a.827.827,0,0,0-.311.254.4.4,0,0,0-.006.3c.015.047.129.062.177.082m7.505-.443c.147-.067.376-.16.6-.272,1.668-.854,3.337-1.707,5-2.574.193-.1.589-.152.458-.453-.158-.362-.482-.115-.713,0q-2.185,1.083-4.36,2.188c-.393.2-.773.426-1.154.649-.117.069-.239.161-.184.328.041.123.151.144.358.134m6.357-.187c-.14-.409-.393-.1-.561-.021-1.554.773-3.1,1.563-4.647,2.349-.318.161-.643.308-.948.49a.273.273,0,0,0-.08.426c.1.132.248.089.374.025q2.8-1.428,5.591-2.859a.406.406,0,0,0,.27-.41m-7.154,1.45c-.127-.415-.447-.156-.626-.068-1.8.9-3.594,1.817-5.387,2.733-.22.112-.535.239-.4.528.174.361.433.031.613-.058,1.8-.887,3.6-1.794,5.391-2.695.173-.087.355-.163.4-.44m.158,2.057c-.1-.184-.275-.174-.463-.08q-2.814,1.411-5.623,2.831c-.167.085-.374.242-.263.452.123.231.339.083.507,0q2.745-1.37,5.487-2.747c.167-.084.368-.154.355-.455m6.707-7.779c-.217,0-.406-.056-.535.008q-2.849,1.421-5.683,2.874c-.172.087-.386.22-.254.44.142.235.353.041.508-.036Q596.5,333,599.277,331.6a.647.647,0,0,0,.409-.5m-6.083,5.562c.091-.038.195-.075.293-.125q2.711-1.389,5.419-2.786c.2-.1.579-.178.44-.484-.159-.353-.434-.033-.615.056-1.779.875-3.548,1.77-5.32,2.659-.171.086-.372.147-.437.351-.055.171-.047.338.221.33m-7.138,1.343c.171-.081.321-.149.469-.223,1.675-.839,3.352-1.676,5.023-2.524.224-.114.652-.181.492-.527-.17-.367-.486-.052-.7.054q-2.405,1.184-4.794,2.4a4.412,4.412,0,0,0-.681.46.193.193,0,0,0-.009.292c.047.047.14.048.2.066m7.58,1.759c.454-.237.889-.468,1.328-.691,1.42-.721,2.844-1.434,4.259-2.163.218-.112.646-.185.443-.546-.167-.3-.428,0-.635.1l-4.645,2.341c-.3.149-.59.3-.88.458-.127.07-.229.19-.151.334.04.075.17.1.282.164m-7.506-.709a.977.977,0,0,0,.221-.057q2.8-1.421,5.605-2.849c.177-.09.383-.22.256-.439-.137-.236-.363-.052-.514.021-1.016.492-2.024,1-3.031,1.512q-1.255.635-2.5,1.283c-.145.075-.307.152-.293.357.01.144.13.156.26.174m-.505-4.149a.917.917,0,0,0,.221-.054q2.808-1.427,5.612-2.86c.18-.092.385-.21.251-.433s-.365-.052-.515.021q-1.823.884-3.63,1.8c-.665.335-1.321.687-1.979,1.036-.122.065-.238.15-.221.315.014.143.132.155.261.175m5.785-6.466c-.117-.217-.294-.117-.462-.034q-2.807,1.4-5.612,2.813a.965.965,0,0,0-.211.128c-.133.118-.21.272-.1.433s.254.052.368-.007c.513-.266,1.014-.555,1.531-.813,1.328-.662,2.666-1.3,3.99-1.975.2-.1.478-.187.493-.546m-4.838,14.823c.191-.08.375-.142.546-.229q2.613-1.335,5.22-2.68c.183-.095.508-.171.378-.443-.173-.36-.436-.041-.615.047-1.761.863-3.513,1.744-5.264,2.626a1.8,1.8,0,0,0-.464.329c-.053.053-.035.2-.008.3.01.035.137.037.208.053m12.156-15.125c-.1-.267-.288-.21-.507-.1q-2.784,1.424-5.572,2.842c-.172.088-.4.195-.29.416s.341.077.507-.005q2.77-1.38,5.536-2.769a.472.472,0,0,0,.326-.385" transform="translate(-487.053 -265.173)" fill="#fdfefd"/>
        <path id="Path_32717" data-name="Path 32717" d="M592.991,453.157l.322-.551c-.485-.242-.839.226-1.266.173a.513.513,0,0,1-.03-.141c.034-.388.737-.63.446-.952-.355-.393-.6.24-.912.389-.169.081-.393.108-.381-.1.066-1.17-.455-.336-.761-.237l-.536-.207a6.436,6.436,0,0,0-1.522-.941c-.289-.17-.611-.3-.422-.74a30.985,30.985,0,0,0,3.811-1.759.989.989,0,0,1,1.054.027c-.645-1.043-.07-1.308.576-1.589.7-.306,1.377-.687,2.071-1.018.446-.213.85-.616,1.425-.188.217.162.512-.123.752-.245,3.147-1.6,6.354-3.092,9.453-4.792a2.006,2.006,0,0,1,1.074-.392c.45.378.914.7.176,1.3a1.674,1.674,0,0,0-.5,1.5.926.926,0,0,0-.242.048q-6.06,3.05-12.119,6.1c-.2.1-.429.2-.409.457s.282.315.475.411c2.07,1.04,4.175,2.015,6.2,3.138,1.225.68,2.334,1.036,3.533.058.058-.047.158-.042.238-.061a10.65,10.65,0,0,0,2.8,2.953,22.268,22.268,0,0,0,2.032,1.383c-1.619.839-3.242,1.67-4.853,2.524-.4.211-.68.019-1-.156q-4.422-2.461-8.847-4.917-1.326-.737-2.649-1.48m-.261-4.955a1.138,1.138,0,0,0,1.036.021c1.165-.612,2.341-1.2,3.514-1.8.18-.091.509-.106.327-.419-.128-.221-.327-.051-.5.038a30.806,30.806,0,0,1-4.377,2.161" transform="translate(-490.251 -366.844)" fill="#c7e7e9"/>
        <path id="Path_32718" data-name="Path 32718" d="M609.445,305.675q-13.14,6.551-26.281,13.1c-.146.073-.305.12-.458.18a11.039,11.039,0,0,0-.2-1.722c-.2-.721.084-1.044.7-1.348q9.627-4.752,19.232-9.546c1.956-.972,3.915-1.939,5.862-2.929.638-.324.948-.262,1.019.536a12.453,12.453,0,0,1,.129,1.73" transform="translate(-485.72 -252.872)" fill="#4c9a99"/>
        <path id="Path_32719" data-name="Path 32719" d="M597.038,408.935q11.872-5.851,23.745-11.7c.988-.487,1.983-.962,2.974-1.443.307,1.391.315,1.406-.926,2.032Q610.467,404.068,598.1,410.3c-.817.412-.99.308-1.063-.623-.019-.246,0-.5,0-.744" transform="translate(-497.884 -330.065)" fill="#4c9a99"/>
        <path id="Path_32720" data-name="Path 32720" d="M726.445,408.883a14.774,14.774,0,0,0-1.2,3.487c-.9-.425-1.807-.823-2.683-1.287a1.33,1.33,0,0,0-1.389-.007c-1.486.786-3,1.523-4.5,2.278-.054-.357-.136-.86-.555-.75-.6.156-.136.822-.368,1.223l-1.771-1.674c.246-.493.793-.506,1.2-.722a11.392,11.392,0,0,1,2.276-1.073c.28.462.682.772,1.21.527,1.271-.59,2.514-1.241,3.767-1.87.146-.073.337-.171.255-.36s-.268-.106-.418-.03c-.683.348-1.347.746-2.057,1.026-.823.323-1.512,1.211-2.564.684-.194-.462-.162-.748.4-.982.937-.389,1.808-.933,2.724-1.375.315-.152.636-.447,1.052-.106.3.246.558-.095.816-.206.429-.184.838-.416,1.256-.627a14.463,14.463,0,0,1,2.425,1.292l.117.552" transform="translate(-595.418 -339.447)" fill="#c7e7e9"/>
        <path id="Path_32721" data-name="Path 32721" d="M708.942,435.691l1.77,1.674c.232-.4-.227-1.066.368-1.223.419-.11.5.393.554.75q-.014.163-.028.325-.017.242-.033.484a3.21,3.21,0,0,0-2.22,2c-.085.289-.365.3-.568.426a1.282,1.282,0,0,0-.153.046l-.172-.16-.5-.481-.015-.205.011-.488a1.674,1.674,0,0,1,.5-1.5c.738-.6.274-.924-.176-1.3-.009-.053-.016-.107-.027-.16-.038-.195-.43-.3-.2-.535.2-.2.376.062.55.168.112.068.231.123.347.184" transform="translate(-590.377 -362.984)" fill="#fdecdc"/>
        <path id="Path_32722" data-name="Path 32722" d="M735.119,417.844c1.052.527,1.742-.361,2.565-.684.71-.279,1.374-.678,2.057-1.026.151-.077.332-.171.418.03s-.109.286-.255.36c-1.253.629-2.5,1.28-3.767,1.87-.528.245-.93-.064-1.21-.527l.192-.023" transform="translate(-612.885 -346.956)" fill="#b4dfe0"/>
        <path id="Path_32723" data-name="Path 32723" d="M788.443,395.932l-.117-.552c.746-.286.839-1.1,1.284-1.638a5.83,5.83,0,0,1,3.893-2.11,9.767,9.767,0,0,1,4.578.326,4.112,4.112,0,0,1,1.853,1.185c-1.683.609-3.44.946-5.183,1.421-.077-.409.449-.4.418-.807-1.274.219-2.3,1.122-3.806,1.363l2.2-1.857-.115-.178a57.143,57.143,0,0,0-5,2.845" transform="translate(-657.416 -326.495)" fill="#ecac7c"/>
        <path id="Path_32724" data-name="Path 32724" d="M443.98,416.548a2.864,2.864,0,0,1-.076-2.977c.417,1.017,1.179,1.957.076,2.977" transform="translate(-369.872 -344.893)" fill="#fdecdc"/>
        <path id="Path_32725" data-name="Path 32725" d="M420.425,410.028c-.507-.134-.41-.595-.448-.931a13.9,13.9,0,0,1-.015-1.562,2.713,2.713,0,0,1,.463,2.493" transform="translate(-350.21 -339.86)" fill="#c7e7e9"/>
        <path id="Path_32726" data-name="Path 32726" d="M864.758,274.65a2.437,2.437,0,1,1,2.4,2.452,2.444,2.444,0,0,1-2.4-2.452m.782-.217c.3.253.472-.171.75-.04,0,.1,0,.2,0,.312a.588.588,0,0,0,.43.629.429.429,0,0,0,.458-.114c.248-.277.147-.465-.145-.65-.063-.04-.023-.314.034-.453.085-.208.285-.1.424-.064a1.5,1.5,0,0,1,.8.543c.31.371.458-.059.645-.2.114-.084.269-.209.07-.39a2.829,2.829,0,0,0-3.469.424" transform="translate(-721.156 -227.019)" fill="#ecac7c"/>
        <path id="Path_32727" data-name="Path 32727" d="M832.022,274.1a2.4,2.4,0,0,1,2.951,3.233,2.161,2.161,0,0,1-2.138,1.412,5.066,5.066,0,0,1-.324-1.921.526.526,0,0,1,.274-.454l.1.1c-.033.437.006.982.54.9.849-.124.411-.784.276-1.221.46-.24.659.427,1.086.208-.68-.835-.85-.874-2.353-.567-.466-.485-.207-1.146-.414-1.694" transform="translate(-693.856 -228.453)" fill="#ecac7c"/>
        <path id="Path_32728" data-name="Path 32728" d="M823.823,277.624a5.071,5.071,0,0,0,.324,1.921,2.37,2.37,0,0,1-.814-4.645c.207.548-.052,1.209.414,1.694-.11.272-.633.172-.567.519a.644.644,0,0,0,.643.512" transform="translate(-685.168 -229.25)" fill="#fdecdc"/>
        <path id="Path_32729" data-name="Path 32729" d="M598.207,509.983l.536.207a1.222,1.222,0,0,1-.83.8l-.046-.053c.021-.32.413-.481.357-.834a.415.415,0,0,1-.017-.115" transform="translate(-498.584 -425.295)" fill="#cc8d61"/>
        <path id="Path_32730" data-name="Path 32730" d="M569.227,540.916a10.566,10.566,0,0,0,1.852-6.324c-.018-.381.225-.423.5-.514a5.626,5.626,0,0,0,2.917-2.258,7.721,7.721,0,0,1-3.062-.018c.569-.31,1.129-.423,1.43-.922l-1.107-.417c.207-.4.623-.428.982-.488a26.287,26.287,0,0,0,4.085-1.387l.242.017c.253.608.815.707,1.363.828l-.011,0a.433.433,0,0,0,.57.321l.067-.006c.146.331.353.57.761.506l.239.008a3.157,3.157,0,0,0,2.2,1.181l.135.127c.093.361.361.4.67.369v-.006c.3.631.909.71,1.492.838l0,0c.114.328.373.37.668.34l-.007,0,.176.167-.005-.011c.065.162.2.187.353.189l.3.134c.019.346.247.378.518.344l0,0a.422.422,0,0,0,.513.329h-.013c.587.574,1.268.4,1.969-.488l-.014,0c.819.116,1.37-.507,2.051-.765a8.663,8.663,0,0,0,1.592-.861,2.338,2.338,0,0,1,2.491.168,19.262,19.262,0,0,0,7.778,1.987c.1,0,.227,0,.291.18a21.371,21.371,0,0,1-3,1.6q-4.011,2.133-8.061,4.194c-3.532,1.8-7.125,3.481-10.609,5.366-3.415,1.848-6.944,3.47-10.337,5.355-.818.455-1.648.889-2.484,1.31a3.054,3.054,0,0,1-.788.238.826.826,0,0,1-.985-.421c-.1-.3.377-.407.634-.545,4.338-2.339,8.668-4.694,13.025-7a40.458,40.458,0,0,0,5.637-3.255c.7-.528,1.712-.336,2.429-.945a9.856,9.856,0,0,1,3.3-1.783c.131-.044.287-.093.258-.264-.036-.2-.23-.208-.391-.238-.034-.691-.517-.316-.828-.347.019-.232.189-.371.317-.541.331-.438-.038-.4-.3-.428.064-.964-.6-.105-.828-.329,0-.269-.015-.525-.312-.648-.076-.429-.336-.37-.61-.219a2.777,2.777,0,0,0-1.058.9c-.154.237-.441.445-.7.218-.24-.213.109-.36.205-.531.081-.144.189-.273.267-.418.121-.227.478-.482.23-.7-.327-.292-.617.053-.818.3-.291.363-.529.769-.8,1.151-.3.423-.791.339-1.2.378-.237.023-.342-.31-.338-.58,0-.165.234-.405-.085-.472-.29-.061-.472.176-.542.413a3.443,3.443,0,0,0-.225,1.378c.062.529-.2.784-.676.978a66.508,66.508,0,0,1-9.986,3.165,6.231,6.231,0,0,0-3.439-.89c-.287.02-.588.037-.882.052" transform="translate(-472.782 -440.81)" fill="#cc8d61"/>
        <path id="Path_32731" data-name="Path 32731" d="M624.265,569.583c.312.031.794-.345.828.347a7.656,7.656,0,0,0-3.241,1.7,1.794,1.794,0,0,1-1.024.508c-1.574.241-2.7,1.317-4,2.059a50.523,50.523,0,0,1-8.161,3.608c.578-1.93-.67-3.057-1.855-4.212a66.474,66.474,0,0,0,9.986-3.165c.476-.194.739-.449.676-.978a3.444,3.444,0,0,1,.225-1.378c.07-.237.252-.474.543-.413.319.067.086.307.084.472,0,.27.1.6.338.58.408-.039.9.044,1.2-.378.269-.382.507-.788.8-1.151.2-.25.49-.6.818-.3.249.222-.108.477-.23.7-.078.145-.186.274-.267.418-.1.172-.446.318-.205.531.256.227.544.019.7-.218a2.776,2.776,0,0,1,1.058-.9c.274-.151.535-.21.61.219a1.035,1.035,0,0,0-.218.237c-.2.45-1.125.664-.8,1.084.218.287.9-.364,1.334-.674.231.224.892-.635.828.329-.392.246-.786.487-1.174.739-.128.083-.328.15-.243.361a.339.339,0,0,0,.48.175,2.759,2.759,0,0,1,.924-.306" transform="translate(-506.04 -472.652)" fill="#ecac7c"/>
        <path id="Path_32732" data-name="Path 32732" d="M450.563,740.367a4.09,4.09,0,0,1-1.987.348c-.183-1.911-.341-3.825-.569-5.731a10.21,10.21,0,0,1-.1-1.4c.031-1.588-.961-2.481-2.109-3.3-.507-.361-.99-.754-1.484-1.133l.109-.188c.977.5,1.993.932,2.914,1.516.47.3.364,1.007.508,1.523.684,2.459,1.3,4.936,1.937,7.408.114.445.287.828.784.952" transform="translate(-370.529 -607.915)" fill="#3f8482"/>
        <path id="Path_32733" data-name="Path 32733" d="M494.04,894.768a.52.52,0,0,1,.265.708.769.769,0,0,1-.276-.7Z" transform="translate(-411.99 -746.182)" fill="#ecac7c"/>
        <path id="Path_32734" data-name="Path 32734" d="M491.783,891.1l.021-.063a.182.182,0,0,1,.067.028c.007.007-.011.04-.018.06l-.07-.026" transform="translate(-410.117 -743.074)" fill="#ecac7c"/>
        <path id="Path_32735" data-name="Path 32735" d="M493.448,893.73c-.04-.059-.079-.117-.116-.178,0,0,.038-.027.059-.04l.068.209-.011.009" transform="translate(-411.409 -745.135)" fill="#ecac7c"/>
        <path id="Path_32736" data-name="Path 32736" d="M730.029,432.984q.014-.163.028-.325c1.5-.756,3.016-1.492,4.5-2.279a1.33,1.33,0,0,1,1.389.007c.876.464,1.787.862,2.683,1.287l-.166,1.268c-.486.244-.969.495-1.459.731-.307.148-.41.334-.17.623a2.218,2.218,0,0,0-1.942.543c.079.351.535.295.614.619-.557.054-1.1-.712-1.667-.039a1.024,1.024,0,0,1-.912-.29c.3-.127.586-.276.891-.376.522-.171.472-.449.187-.8.185.043.37.087.555.128a1.161,1.161,0,0,0,1.336-.55c.147-.4-.581-.4-.886-.639a.417.417,0,0,0-.232-.075,1.583,1.583,0,0,0-1.3.581c-.221.3.446.269.537.561-.287.076-.527-.1-.79-.144-.646-.1-1.236-.021-1.529.689l-.521-.217c.087-.326.5-.3.63-.59-.1-.3-.543-.246-.622-.575a1.461,1.461,0,0,1,.689.192,1.323,1.323,0,0,0,1.635-.69,1.627,1.627,0,0,0,1.012-.221c.254-.136.624-.188.317-.608a2.015,2.015,0,0,0,1.414-.276c.244-.167.3-.279.03-.476a1.5,1.5,0,0,0-2.186.168c.187.278.626.237.751.591-.383.027-.668-.245-1.014-.329a1.191,1.191,0,0,0-1.2.407c-.265.313.38.3.384.585a4.527,4.527,0,0,1-.547-.134,1.2,1.2,0,0,0-1.613.633l-.83.016m5.356-.433a2.017,2.017,0,0,0,2.851-.137c.23-.251.077-.363-.133-.5-.743-.5-1.6-.3-2.718.639" transform="translate(-608.8 -358.751)" fill="#4c9a99"/>
        <path id="Path_32737" data-name="Path 32737" d="M804.41,459.094c.425-.063.814.115,1.293-.211s.822.348,1.066.762a.778.778,0,0,1-.268,1.2,3.182,3.182,0,0,1-2.249.222c-.384-.082-.5-.389-.171-.659.438-.356.286-.707.1-1.088l.233-.229" transform="translate(-670.393 -382.608)" fill="#cc5e46"/>
        <path id="Path_32738" data-name="Path 32738" d="M767.817,464.621a4.2,4.2,0,0,1-1.827-.636,1.726,1.726,0,0,1,1.832-.519l-.009-.007c.206.291.581.307.839.514a.1.1,0,0,1,.01.1l-.846.548" transform="translate(-638.789 -386.427)" fill="#abdcd9"/>
        <path id="Path_32739" data-name="Path 32739" d="M770.357,448.125c-.24-.288-.137-.474.17-.622.49-.236.973-.487,1.46-.731a3.393,3.393,0,0,1-.131,1.6l-.842.082.009.007c-.057-.172-.2-.178-.342-.172l.01.006a.332.332,0,0,0-.342-.172Z" transform="translate(-642.321 -372.58)" fill="#abdcd9"/>
        <path id="Path_32740" data-name="Path 32740" d="M824.121,434.1c-.036.425-.219.709-.645.74a.612.612,0,0,1-.7-.632.66.66,0,0,1,.674-.767c.424-.017.622.28.676.658" transform="translate(-686.14 -361.465)" fill="#4c9a99"/>
        <path id="Path_32741" data-name="Path 32741" d="M795.984,433.328a.686.686,0,0,1-.621-.751c0-.424.2-.763.689-.73.448.03.58.373.561.762a.675.675,0,0,1-.629.72" transform="translate(-663.284 -360.132)" fill="#4c9a99"/>
        <path id="Path_32742" data-name="Path 32742" d="M764.726,456.466l.842-.082a.627.627,0,0,1-.027.572c-.461.016-.743.156-.474.68a1.726,1.726,0,0,0-1.832.519c-.2,0-.406.013-.549-.171.176-.138.4-.244.381-.522a2.739,2.739,0,0,0,1.324-.4c.242-.125.54-.216.336-.593" transform="translate(-636.033 -380.597)" fill="#4c9a99"/>
        <path id="Path_32743" data-name="Path 32743" d="M829.3,418.181a2.406,2.406,0,0,0-1.518-.54.339.339,0,0,1-.414-.311c-.006-.34.283-.27.486-.281a1.28,1.28,0,0,1,1.44,1.139Z" transform="translate(-689.972 -347.79)" fill="#ecac7c"/>
        <path id="Path_32744" data-name="Path 32744" d="M795.984,416.7a1.01,1.01,0,0,1,1.373-.545c.173.068.43.087.4.334s-.277.2-.464.2h-1.318Z" transform="translate(-663.797 -346.964)" fill="#ecac7c"/>
        <path id="Path_32745" data-name="Path 32745" d="M776.993,468.132l.846-.548c.211.225.431.449.193.785a1.324,1.324,0,0,1-1.039-.237" transform="translate(-647.965 -389.937)" fill="#4c9a99"/>
        <path id="Path_32746" data-name="Path 32746" d="M804.211,456.328l-.233.229c-.254-.251-.476-.644-.206-.864.466-.379,1.024-.2,1.575.09-1.248.147-1.248.147-1.136.545" transform="translate(-670.194 -379.842)" fill="#cc8d61"/>
        <path id="Path_32747" data-name="Path 32747" d="M776.5,460.511c-.269-.524.014-.664.474-.68.262.187.175.453.159.7l-.643-.03Z" transform="translate(-647.467 -383.471)" fill="#abdcd9"/>
        <path id="Path_32748" data-name="Path 32748" d="M776.968,463.884l.643.03a.562.562,0,0,1,.2.484c-.258-.207-.633-.223-.839-.514" transform="translate(-647.944 -386.851)" fill="#4c9a99"/>
        <path id="Path_32749" data-name="Path 32749" d="M795.851,419.885l-.026.062.032-.056-.006-.006" transform="translate(-663.67 -350.159)" fill="#ecac7c"/>
        <path id="Path_32750" data-name="Path 32750" d="M838.96,423.891l.061.027-.054-.034-.007.007" transform="translate(-699.642 -353.494)" fill="#ecac7c"/>
        <path id="Path_32751" data-name="Path 32751" d="M643.889,457.461l.5.481-.011.01c-.378.075-.664-.187-1-.274a1.04,1.04,0,0,0-1.323.777c-.666.052-1.416-.066-1.662.829a1.975,1.975,0,0,0-1.647.571,2.487,2.487,0,0,0,1.062.635,1.011,1.011,0,0,0,1.29-.431c.241-.379-.412-.346-.588-.58-.047-.063-.084-.135-.125-.2.436-.026.752.278,1.13.409a1.163,1.163,0,0,0,1.232-.426c.323-.34-.388-.335-.367-.645a4.358,4.358,0,0,1,.549.14,1.188,1.188,0,0,0,1.616-.637l.014-.014a1.326,1.326,0,0,1,.153-.046c.171.244.571.219.658.562a2.448,2.448,0,0,0-1.222.435c-.2.092-.319.2-.083.421a1.475,1.475,0,0,0,1.978.1c.288.009.461.218.66.381-.361.18-.728.35-1.08.545-.171.094-.317.213-.1.437a1.54,1.54,0,0,0,2.172.024.458.458,0,0,1,.52.319c-.513.248-1.029.492-1.539.745-.443.22-.217.358.049.547,1.017.725,1.847.253,2.66-.381l.291.038.145.072.163.3c-1.712.737-3.341,1.639-4.985,2.51a.405.405,0,0,1-.373-.317c.217-.2.924-.246.575-.6a1.37,1.37,0,0,0-1.837-.4c-.156-.075-.323-.141-.321-.358.305-.122.615-.233.913-.371.142-.065.346-.106.367-.3.029-.254-.229-.268-.375-.374a1.671,1.671,0,0,0-2.235.212c-.242,0-.388-.167-.561-.3-.655-.511-1.315-.983-2.224-.555a1.634,1.634,0,0,1-.972-.015l-.226-.457a1.654,1.654,0,0,0,1.555-.2c.121-.1.364-.23.188-.362a1.848,1.848,0,0,0-1.325-.567c-.435.076-1.019.134-1.075.8a2.478,2.478,0,0,0-1.766.594c.164.243.5.281.592.559-.294.051-.518-.137-.773-.222-.646-.217-1.429.3-1.373.895-.581-.3-1.056,0-1.537.27-.145.081-.348.219-.138.352.433.275.873.655,1.426.545.467-.093.975-.235,1.074-.842a1.885,1.885,0,0,0,1.177-.2,1.284,1.284,0,0,1,.692.274l-.684.244a5.929,5.929,0,0,0-1.819.917c.751.646,1.469.908,2.313.277a10.49,10.49,0,0,1,1.135-.653h1.315c-.274.34-.628.263-.949.294-.572.055-.6.271-.225.641-.226.1-.456.192-.675.3-.164.082-.406.129-.407.351s.255.252.406.358a1.533,1.533,0,0,0,1.546.181c.016.235-.26.535.165.679.473.161.869.661,1.453.322l1.716-1c.2.107.459.152.5.44a1.362,1.362,0,0,0-.686.394c-.08.019-.18.014-.238.061-1.2.977-2.308.622-3.533-.058-2.023-1.123-4.129-2.1-6.2-3.138-.192-.1-.454-.152-.475-.411s.207-.355.409-.457q6.06-3.051,12.118-6.1a.927.927,0,0,1,.242-.048q-.005.244-.011.488c-.09.018-.215.008-.184.15.007.031.13.037.2.055m2.231,6.5c.259-.131.605-.293.937-.481.146-.082.125-.211.016-.342a1.923,1.923,0,0,0-2.345-.106c-.146.143-.21.28,0,.385a3.384,3.384,0,0,0,1.4.543m-5.823-2.783c.99.784,1.624.855,2.353.3.25-.191.249-.3,0-.491a1.637,1.637,0,0,0-2.355.191m3.014-1.588A2.552,2.552,0,0,0,642.3,460c-.171.089-.225.2-.063.379a1.858,1.858,0,0,0,2.316.071c.121-.13.146-.244,0-.326a3.181,3.181,0,0,0-1.242-.531m1.492,1.464c-.46.113-1.021.216-1.132.606-.1.341.5.375.784.563a.941.941,0,0,0,.387.135,1.243,1.243,0,0,0,1.262-.57c.135-.267-.493-.379-.781-.554a2.457,2.457,0,0,0-.52-.18" transform="translate(-526.311 -380.917)" fill="#4c9a99"/>
        <path id="Path_32752" data-name="Path 32752" d="M726.328,484.816c-.814.634-1.643,1.106-2.66.381-.266-.189-.492-.327-.049-.547.511-.253,1.026-.5,1.539-.745a1.863,1.863,0,0,1,1.17.912" transform="translate(-603.245 -403.547)" fill="#abdcd9"/>
        <path id="Path_32753" data-name="Path 32753" d="M742.388,452.018c.285.347.335.625-.187.8-.305.1-.594.249-.891.376a1.8,1.8,0,0,1-1.233-.621c.293-.709.883-.788,1.529-.688.263.041.5.22.79.144Z" transform="translate(-617.18 -376.811)" fill="#abdcd9"/>
        <path id="Path_32754" data-name="Path 32754" d="M719.551,476.934a1.54,1.54,0,0,1-2.172-.024c-.221-.225-.074-.343.1-.437.353-.195.719-.365,1.08-.545a3.058,3.058,0,0,1,1,1.006" transform="translate(-598.157 -396.895)" fill="#abdcd9"/>
        <path id="Path_32755" data-name="Path 32755" d="M710.47,468.841a1.476,1.476,0,0,1-1.978-.1c-.235-.219-.113-.328.083-.421a2.449,2.449,0,0,1,1.222-.435c.17.356.623.51.673.951" transform="translate(-590.732 -390.19)" fill="#abdcd9"/>
        <path id="Path_32756" data-name="Path 32756" d="M729.865,446.906l.83-.016-.008-.008c.053.178.192.188.342.172l-.009-.007c.079.329.522.27.622.575-.126.292-.543.264-.63.59a4.148,4.148,0,0,1-1.18-.823q.016-.242.033-.483" transform="translate(-608.636 -372.673)" fill="#abdcd9"/>
        <path id="Path_32757" data-name="Path 32757" d="M754.981,460.488c.015.278-.205.383-.381.522a2.9,2.9,0,0,1-1.61-.72c.572-.673,1.11.093,1.667.039l-.01-.007a.293.293,0,0,0,.342.172Z" transform="translate(-627.948 -383.622)" fill="#abdcd9"/>
        <path id="Path_32758" data-name="Path 32758" d="M743.093,489.563l-.146-.072c.086-.053.133-.026.146.072" transform="translate(-619.573 -408.184)" fill="#abdcd9"/>
        <path id="Path_32759" data-name="Path 32759" d="M678.006,509.415l-1.717,1c-.583.338-.979-.162-1.453-.323-.425-.145-.149-.444-.165-.679l-.007.006c.167.049.3.031.34-.171l-.008.005c.773.059,1.361-.692,2.166-.5l-.008-.008.181.252c.237.118.516.167.672.417" transform="translate(-562.574 -424.243)" fill="#abdcd9"/>
        <path id="Path_32760" data-name="Path 32760" d="M665.241,506.857a1.533,1.533,0,0,1-1.546-.181c-.151-.106-.407-.133-.406-.358s.243-.269.407-.351c.22-.11.449-.2.676-.3a11.67,11.67,0,0,1,2.555.134c-.414.36-1.049.385-1.361.9l.008-.005a.282.282,0,0,0-.34.171Z" transform="translate(-553.143 -421.69)" fill="#abdcd9"/>
        <path id="Path_32761" data-name="Path 32761" d="M651.642,497.331a10.486,10.486,0,0,0-1.135.653c-.844.63-1.562.369-2.313-.278a5.929,5.929,0,0,1,1.819-.917c.045.452.374.481.722.493.3.01.6.032.907.048" transform="translate(-540.555 -414.293)" fill="#abdcd9"/>
        <path id="Path_32762" data-name="Path 32762" d="M694.99,489.107a1.671,1.671,0,0,1,2.235-.211c.146.106.4.12.375.374-.021.189-.224.23-.367.3-.3.137-.608.249-.913.37l.007.007-.342-.208-1-.628" transform="translate(-579.58 -407.425)" fill="#abdcd9"/>
        <path id="Path_32763" data-name="Path 32763" d="M649.008,488.294a1.884,1.884,0,0,1-1.177.2l.007.006a.72.72,0,0,0-.84-.336l.008.006c-.056-.6.727-1.112,1.373-.9.255.086.479.273.773.222h0l.418.516c-.235,0-.482-.023-.565.283" transform="translate(-539.558 -406.314)" fill="#abdcd9"/>
        <path id="Path_32764" data-name="Path 32764" d="M657,483.03c-.088-.278-.428-.316-.592-.559a2.477,2.477,0,0,1,1.766-.594l-.008-.007c.042.2.184.2.342.172l-.009-.006c.044.195.18.208.341.172l-.008-.006.225.457c-.583.1-1.273-.267-1.727.394L657,483.03Z" transform="translate(-547.405 -401.849)" fill="#abdcd9"/>
        <path id="Path_32765" data-name="Path 32765" d="M704.938,497.913a1.37,1.37,0,0,1,1.837.4c.349.356-.358.4-.575.6a3.6,3.6,0,0,1-1.262-1" transform="translate(-587.876 -415.045)" fill="#abdcd9"/>
        <path id="Path_32766" data-name="Path 32766" d="M677,507.39c.312-.514.946-.539,1.361-.9a1.079,1.079,0,0,1,.8.4c-.8-.2-1.393.554-2.166.5" transform="translate(-564.574 -422.383)" fill="#4c9a99"/>
        <path id="Path_32767" data-name="Path 32767" d="M659.981,488.865l.328.022c.292.311.755.01,1.127.339-.353.225-.716.094-1.038.154l-.417-.515" transform="translate(-550.384 -407.684)" fill="#b37e54"/>
        <path id="Path_32768" data-name="Path 32768" d="M700.986,495.666l.342.208a.274.274,0,0,1-.342-.208" transform="translate(-584.58 -413.355)" fill="#4c9a99"/>
        <path id="Path_32769" data-name="Path 32769" d="M690.166,509.126l-.181-.252a.256.256,0,0,1,.181.252" transform="translate(-575.406 -424.37)" fill="#4c9a99"/>
        <path id="Path_32770" data-name="Path 32770" d="M597.685,526.336a26.289,26.289,0,0,1-4.085,1.387c-.359.059-.775.086-.983.488-.231-.129-.55-.112-.682-.408.306-.392.772-.342,1.187-.417a16.7,16.7,0,0,0,2.607-.683c.154-.054.348-.129.3-.324s-.267-.116-.418-.132q0-.18-.006-.359l1.749.133c.2.006.276.151.33.315" transform="translate(-493.639 -438.559)" fill="#b57d50"/>
        <path id="Path_32771" data-name="Path 32771" d="M615.689,520.977l-1.749-.133h0q-.009-.257-.019-.513l.008.005a.322.322,0,0,0,.177-.313l.3-.182c.257.57,1.07.514,1.28,1.137" transform="translate(-511.972 -433.515)" fill="#b37e54"/>
        <path id="Path_32772" data-name="Path 32772" d="M648.214,539.871a3.158,3.158,0,0,1-2.2-1.181,6.007,6.007,0,0,1,2.2,1.181" transform="translate(-538.735 -449.235)" fill="#b37e54"/>
        <path id="Path_32773" data-name="Path 32773" d="M690.081,559.766c-.7.893-1.382,1.062-1.969.488.729.132,1.291-.412,1.969-.488" transform="translate(-573.844 -466.811)" fill="#b37e54"/>
        <path id="Path_32774" data-name="Path 32774" d="M629.379,529.518c-.548-.122-1.11-.221-1.363-.828a1.7,1.7,0,0,1,1.363.828" transform="translate(-523.727 -440.895)" fill="#b37e54"/>
        <path id="Path_32775" data-name="Path 32775" d="M665.612,549.583c-.582-.128-1.192-.206-1.491-.838a2.656,2.656,0,0,1,1.491.838" transform="translate(-553.837 -457.62)" fill="#b37e54"/>
        <path id="Path_32776" data-name="Path 32776" d="M640.752,536.1c-.408.063-.615-.175-.761-.506a.672.672,0,0,1,.761.506" transform="translate(-533.714 -446.648)" fill="#b37e54"/>
        <path id="Path_32777" data-name="Path 32777" d="M673.743,554.076c-.3.03-.555-.011-.668-.34a.569.569,0,0,1,.668.34" transform="translate(-561.304 -461.777)" fill="#b37e54"/>
        <path id="Path_32778" data-name="Path 32778" d="M660.756,546.93c-.309.033-.577-.008-.67-.369.273.032.55.059.67.369" transform="translate(-550.472 -455.799)" fill="#b37e54"/>
        <path id="Path_32779" data-name="Path 32779" d="M682.523,559.027c-.271.033-.5,0-.518-.344a.53.53,0,0,1,.518.344" transform="translate(-568.751 -465.908)" fill="#b37e54"/>
        <path id="Path_32780" data-name="Path 32780" d="M685.613,561.019a.423.423,0,0,1-.514-.328c.259-.028.476.01.514.328" transform="translate(-571.331 -467.576)" fill="#b37e54"/>
        <path id="Path_32781" data-name="Path 32781" d="M636.722,533.964a.433.433,0,0,1-.57-.321.458.458,0,0,1,.57.321" transform="translate(-530.512 -445.017)" fill="#b37e54"/>
        <path id="Path_32782" data-name="Path 32782" d="M678.439,556.89c-.15,0-.288-.027-.352-.189a.285.285,0,0,1,.352.189" transform="translate(-565.484 -464.249)" fill="#b37e54"/>
        <path id="Path_32783" data-name="Path 32783" d="M677.231,555.966l-.176-.167.176.167" transform="translate(-564.623 -463.503)" fill="#b37e54"/>
        <path id="Path_32784" data-name="Path 32784" d="M954.932,639.222c0,.261-.026.513-.312.618a.533.533,0,0,1-.608-.138,3.7,3.7,0,0,1-1.07-2.085c-.031-.278-.012-.573.328-.677a.509.509,0,0,1,.671.323c.286.676.961,1.156.992,1.959" transform="translate(-794.687 -531.143)" fill="#cc8d61"/>
        <path id="Path_32785" data-name="Path 32785" d="M945.444,647.628c-.427-.043-.553-.311-.536-.684a.714.714,0,0,1,.736-.728.547.547,0,0,1,.589.634.8.8,0,0,1-.789.778" transform="translate(-787.995 -538.904)" fill="#5b3425"/>
        <path id="Path_32786" data-name="Path 32786" d="M610.621,525.808q0,.18.006.359c-.2.187-.439.126-.67.128q-.008-.251-.016-.5l0,0,.677.015Z" transform="translate(-508.654 -438.479)" fill="#b37e54"/>
        <path id="Path_32787" data-name="Path 32787" d="M610.631,523.3l-.677-.015a.553.553,0,0,1,.659-.5q.009.256.019.513" transform="translate(-508.665 -435.973)" fill="#b57d50"/>
        <path id="Path_32788" data-name="Path 32788" d="M607.891,525.8q.008.251.016.5c-.152,0-.377.066-.415-.116-.057-.27.176-.347.4-.385" transform="translate(-506.604 -438.488)" fill="#b57d50"/>
        <path id="Path_32789" data-name="Path 32789" d="M614.133,520.937a.322.322,0,0,1-.177.314.292.292,0,0,1,.177-.314" transform="translate(-512.001 -434.43)" fill="#b57d50"/>
        <path id="Path_32790" data-name="Path 32790" d="M596.974,515.754c-.061.035-.122.072-.186.1-.006,0-.031-.034-.047-.052l.187-.1.045.053" transform="translate(-497.646 -430.063)" fill="#cc8d61"/>
        <path id="Path_32791" data-name="Path 32791" d="M861.162,316.575a4.785,4.785,0,0,1-2.086.589c-.534.016-1.016-.156-.955-.833.056-.62.5-.726,1.019-.638a4.727,4.727,0,0,1,2.023.882" transform="translate(-715.617 -263.246)" fill="#fdecdc"/>
        <path id="Path_32792" data-name="Path 32792" d="M702.841,331.09a.807.807,0,0,1,.512-.929c1.774-.889,3.537-1.8,5.3-2.709.4-.2.615-.138.672.341q.236,2.01.5,4.016a.741.741,0,0,1-.475.854q-2.6,1.278-5.188,2.6c-.552.28-.775.171-.837-.481-.118-1.233-.319-2.458-.485-3.687" transform="translate(-586.116 -272.984)" fill="#abdcd9"/>
        <path id="Path_32793" data-name="Path 32793" d="M635.242,361.894c-.611-1.225-.456-1.771.649-2.325,1.771-.888,3.54-1.78,5.466-2.748-.09.786.475,1.471-.161,2.145a55,55,0,0,0-5.953,2.928" transform="translate(-529.458 -297.567)" fill="#4c9a99"/>
        <path id="Path_32794" data-name="Path 32794" d="M686.96,371.035l1.6-2.318c.237-.343.611-.273.912-.218a2.6,2.6,0,0,0,2.584-1.218c1.339-1.576,2.767-3.076,4.163-4.6.1-.114.188-.285.41-.254.182.347-.074.574-.261.78-1.632,1.8-3.286,3.576-4.911,5.381a1.229,1.229,0,0,1-1.2.376,1.685,1.685,0,0,0-2.012,1.015,3.885,3.885,0,0,1-.574.807c-.164.2-.323.474-.718.253" transform="translate(-572.883 -302.236)" fill="#ecac7c"/>
        <path id="Path_32795" data-name="Path 32795" d="M697.9,386.3c-.027.225-.2.3-.375.393q-4.86,2.483-9.717,4.971c-.191.1-.463.357-.618-.016-.106-.255.138-.366.346-.472q4.751-2.426,9.5-4.862a3.585,3.585,0,0,1,.524-.244.236.236,0,0,1,.343.23" transform="translate(-573.056 -321.942)" fill="#b4dfe0"/>
        <path id="Path_32796" data-name="Path 32796" d="M602.506,411.461c-.029.249-.2.338-.377.426q-2.768,1.391-5.539,2.777c-.153.076-.356.271-.491.005-.108-.212.054-.37.235-.461q2.878-1.448,5.761-2.887c.191-.1.373-.144.411.14" transform="translate(-497.081 -342.955)" fill="#b4dfe0"/>
        <path id="Path_32797" data-name="Path 32797" d="M647.513,415.367a.465.465,0,0,1-.3.421q-2.844,1.432-5.691,2.858c-.14.07-.316.191-.422-.026a.324.324,0,0,1,.166-.42,2.789,2.789,0,0,1,.289-.16q2.7-1.354,5.4-2.7c.184-.091.433-.324.562.029" transform="translate(-534.611 -346.233)" fill="#b4dfe0"/>
        <path id="Path_32798" data-name="Path 32798" d="M644.528,390.383c0,.247-.154.35-.333.44q-2.844,1.427-5.687,2.854c-.117.059-.26.16-.364,0s-.027-.316.108-.432a1.014,1.014,0,0,1,.21-.129q2.809-1.411,5.619-2.818c.163-.081.36-.213.447.083" transform="translate(-532.131 -325.403)" fill="#b4dfe0"/>
        <path id="Path_32799" data-name="Path 32799" d="M599.685,393.143c.01.225-.144.3-.292.374q-2.776,1.394-5.554,2.783c-.186.093-.423.268-.551-.051-.1-.246.141-.329.307-.413q2.775-1.395,5.556-2.779c.193-.1.413-.217.535.085" transform="translate(-494.747 -327.697)" fill="#b4dfe0"/>
        <path id="Path_32800" data-name="Path 32800" d="M605.175,436.462a.2.2,0,0,1,.27.109.388.388,0,0,1-.044.3.7.7,0,0,1-.268.182q-2.767,1.392-5.537,2.777c-.15.074-.355.278-.492.014-.109-.208.052-.371.234-.463q2.84-1.432,5.684-2.854c.049-.025.1-.042.153-.062" transform="translate(-499.587 -363.969)" fill="#b4dfe0"/>
        <path id="Path_32801" data-name="Path 32801" d="M643.252,384.259c.207-.013.3.024.319.16.034.243-.135.334-.314.425q-1.73.873-3.457,1.751c-.689.349-1.374.706-2.071,1.038-.166.079-.4.343-.553.022-.118-.25.113-.389.32-.493q2.218-1.11,4.434-2.223c.466-.234.928-.476,1.322-.679" transform="translate(-531.339 -320.447)" fill="#b4dfe0"/>
        <path id="Path_32802" data-name="Path 32802" d="M599.28,386.23c.049.023.162.041.177.089a.4.4,0,0,1-.011.3.847.847,0,0,1-.315.251q-2.767,1.393-5.542,2.773c-.151.075-.356.279-.493.017-.106-.2.051-.374.234-.466q2.881-1.45,5.767-2.89c.049-.024.1-.042.182-.075" transform="translate(-494.578 -322.092)" fill="#b4dfe0"/>
        <path id="Path_32803" data-name="Path 32803" d="M595.505,408.681c-.048-.02-.162-.035-.177-.082a.4.4,0,0,1,.006-.3.827.827,0,0,1,.311-.254q2.763-1.392,5.533-2.769c.152-.076.361-.277.5-.03.122.218-.09.352-.261.44q-2.861,1.466-5.726,2.922c-.049.025-.1.041-.184.074" transform="translate(-496.446 -337.851)" fill="#b4dfe0"/>
        <path id="Path_32804" data-name="Path 32804" d="M639.858,406.348c-.208.009-.318-.012-.358-.135-.056-.168.067-.26.184-.328.381-.223.761-.45,1.154-.649q2.175-1.1,4.36-2.188c.231-.114.555-.361.713,0,.131.3-.264.353-.458.453-1.662.866-3.331,1.72-5,2.574-.219.112-.448.205-.6.272" transform="translate(-533.292 -335.96)" fill="#b4dfe0"/>
        <path id="Path_32805" data-name="Path 32805" d="M648.34,421.7a.407.407,0,0,1-.27.41q-2.8,1.43-5.592,2.859c-.126.065-.271.107-.374-.025a.273.273,0,0,1,.08-.426c.305-.182.631-.329.948-.49,1.548-.785,3.093-1.576,4.647-2.349.168-.083.421-.388.561.021" transform="translate(-535.418 -351.495)" fill="#b4dfe0"/>
        <path id="Path_32806" data-name="Path 32806" d="M604.571,430.321c-.049.277-.232.353-.4.44-1.8.9-3.589,1.807-5.391,2.695-.18.089-.439.419-.613.058-.14-.289.176-.416.4-.528,1.793-.915,3.585-1.836,5.387-2.733.179-.089.5-.347.626.068" transform="translate(-498.803 -358.671)" fill="#b4dfe0"/>
        <path id="Path_32807" data-name="Path 32807" d="M605.833,443.125c.012.3-.189.371-.355.455q-2.741,1.378-5.487,2.747c-.168.084-.384.232-.507,0-.112-.21.1-.367.262-.452q2.807-1.425,5.623-2.831c.188-.094.365-.1.463.08" transform="translate(-499.907 -369.418)" fill="#b4dfe0"/>
        <path id="Path_32808" data-name="Path 32808" d="M645.559,396.9a.648.648,0,0,1-.409.5q-2.775,1.4-5.555,2.787c-.155.077-.365.271-.508.036-.133-.219.082-.353.254-.44q2.837-1.445,5.683-2.873c.129-.064.318-.008.535-.008" transform="translate(-532.926 -330.972)" fill="#b4dfe0"/>
        <path id="Path_32809" data-name="Path 32809" d="M640.389,412.641c-.269.008-.276-.159-.221-.33.065-.2.266-.265.437-.351,1.772-.889,3.541-1.784,5.32-2.659.18-.089.456-.409.615-.055.138.307-.239.38-.441.484q-2.7,1.4-5.419,2.786c-.1.05-.2.087-.293.125" transform="translate(-533.839 -341.151)" fill="#b4dfe0"/>
        <path id="Path_32810" data-name="Path 32810" d="M597.327,421.285c-.062-.018-.155-.019-.2-.066a.193.193,0,0,1,.009-.292,4.4,4.4,0,0,1,.681-.46q2.39-1.214,4.794-2.4c.216-.106.532-.421.7-.054.16.345-.268.413-.492.527-1.671.848-3.348,1.684-5.023,2.524-.148.074-.3.142-.469.223" transform="translate(-497.914 -348.452)" fill="#b4dfe0"/>
        <path id="Path_32811" data-name="Path 32811" d="M642.746,431.457c-.112-.061-.242-.089-.282-.164-.078-.144.024-.265.151-.334.29-.159.585-.309.88-.458l4.645-2.341c.207-.1.468-.4.635-.1.2.361-.225.434-.443.546-1.415.73-2.839,1.442-4.259,2.163-.439.223-.874.455-1.328.692" transform="translate(-535.753 -356.866)" fill="#b4dfe0"/>
        <path id="Path_32812" data-name="Path 32812" d="M597.785,427.53c-.13-.018-.251-.03-.26-.174-.014-.2.148-.282.293-.357q1.25-.646,2.5-1.283c1.008-.509,2.015-1.019,3.031-1.512.15-.073.377-.256.514-.021.127.219-.079.349-.256.439q-2.8,1.428-5.605,2.849a.977.977,0,0,1-.22.057" transform="translate(-498.299 -353.647)" fill="#b4dfe0"/>
        <path id="Path_32813" data-name="Path 32813" d="M594.735,402.543c-.129-.02-.246-.032-.261-.175-.017-.165.1-.25.221-.315.658-.349,1.314-.7,1.979-1.036q1.809-.912,3.63-1.8c.151-.073.376-.253.515-.021s-.072.341-.251.433q-2.806,1.431-5.612,2.86a.917.917,0,0,1-.221.054" transform="translate(-495.755 -332.809)" fill="#b4dfe0"/>
        <path id="Path_32814" data-name="Path 32814" d="M598.564,380.337c-.015.359-.293.444-.493.546-1.323.671-2.661,1.313-3.989,1.975-.517.258-1.018.547-1.531.813-.114.059-.261.159-.368.007s-.037-.315.1-.433a.964.964,0,0,1,.211-.128q2.805-1.408,5.612-2.813c.168-.084.345-.184.462.034" transform="translate(-493.798 -317.069)" fill="#b4dfe0"/>
        <path id="Path_32815" data-name="Path 32815" d="M600.579,452.584c-.072-.016-.2-.018-.208-.053-.026-.095-.044-.244.009-.3a1.806,1.806,0,0,1,.464-.329c1.751-.882,3.5-1.763,5.264-2.626.179-.088.442-.407.615-.047.131.272-.194.348-.378.443q-2.607,1.346-5.22,2.68c-.171.087-.355.15-.546.229" transform="translate(-500.651 -374.493)" fill="#b4dfe0"/>
        <path id="Path_32816" data-name="Path 32816" d="M642.819,378.213a.472.472,0,0,1-.326.385q-2.766,1.388-5.536,2.769c-.166.083-.388.234-.507.005s.118-.328.29-.416q2.786-1.421,5.572-2.842c.219-.112.407-.169.507.1" transform="translate(-530.735 -315.246)" fill="#b4dfe0"/>
        <path id="Path_32817" data-name="Path 32817" d="M642.333,371.951c.089.354-.146.494-.406.624-1.756.878-3.509,1.763-5.269,2.633-.174.086-.4.338-.577.078s.165-.354.287-.516c1.607-.623,3.09-1.5,4.636-2.251a3.23,3.23,0,0,1,1.329-.568" transform="translate(-530.413 -310.185)" fill="#abdcd9"/>
        <path id="Path_32818" data-name="Path 32818" d="M643.159,370.1a3.23,3.23,0,0,0-1.329.568c-1.546.749-3.029,1.628-4.636,2.251l-.171-.258a54.978,54.978,0,0,1,5.953-2.928l.182.368" transform="translate(-531.239 -308.338)" fill="#c7e7e9"/>
        <path id="Path_32819" data-name="Path 32819" d="M617.121,478.339a30.806,30.806,0,0,0,4.377-2.161c.173-.088.371-.259.5-.038.182.314-.147.328-.327.419-1.173.6-2.349,1.188-3.514,1.8a1.138,1.138,0,0,1-1.036-.021" transform="translate(-514.642 -396.981)" fill="#abdcd9"/>
        <path id="Path_32820" data-name="Path 32820" d="M707.02,459.91c-.069-.018-.192-.024-.2-.055-.031-.141.094-.132.184-.15l.015.2" transform="translate(-589.442 -383.366)" fill="#c7e7e9"/>
        <path id="Path_32821" data-name="Path 32821" d="M711.03,463.832l.172.16-.014.014c-.1-.014-.171-.05-.169-.165Z" transform="translate(-592.947 -386.808)" fill="#4c9a99"/>
        <path id="Path_32822" data-name="Path 32822" d="M869.467,281.283a2.829,2.829,0,0,1,3.469-.424c.2.181.044.306-.07.39-.186.138-.335.568-.645.2a1.5,1.5,0,0,0-.8-.543c-.138-.034-.339-.143-.424.064-.057.14-.1.414-.034.453.292.185.393.373.145.65a.429.429,0,0,1-.458.114.588.588,0,0,1-.43-.629c0-.107,0-.214,0-.312-.278-.131-.446.292-.75.04" transform="translate(-725.083 -233.869)" fill="#5b3425"/>
        <path id="Path_32823" data-name="Path 32823" d="M831.712,285.243a.644.644,0,0,1-.643-.512c-.065-.347.457-.247.567-.519,1.5-.308,1.674-.268,2.354.567-.427.22-.626-.448-1.086-.208.134.437.572,1.1-.276,1.221-.534.078-.574-.467-.54-.9l.073-.173-.174.073a.527.527,0,0,0-.274.454" transform="translate(-693.056 -236.869)" fill="#5b3425"/>
        <path id="Path_32824" data-name="Path 32824" d="M704.786,578.846a2.758,2.758,0,0,0-.924.306.339.339,0,0,1-.48-.175c-.085-.211.115-.278.243-.361.388-.251.782-.493,1.174-.739.266.027.634-.01.3.428-.128.17-.3.309-.317.541" transform="translate(-586.561 -481.914)" fill="#b57d50"/>
        <path id="Path_32825" data-name="Path 32825" d="M699.991,572.641c-.434.31-1.116.961-1.334.674-.32-.421.6-.635.8-1.085a1.041,1.041,0,0,1,.218-.237c.3.123.317.38.313.648" transform="translate(-582.581 -477.008)" fill="#b57d50"/>
        <path id="Path_32826" data-name="Path 32826" d="M762.281,439.869c1.123-.943,1.975-1.138,2.718-.639.209.14.363.252.133.5a2.017,2.017,0,0,1-2.851.137" transform="translate(-635.696 -366.069)" fill="#abdcd9"/>
        <path id="Path_32827" data-name="Path 32827" d="M761.929,455.09c.2.377-.094.468-.336.593a2.739,2.739,0,0,1-1.324.4l.008.006c-.054-.176-.191-.187-.342-.172l.009.007c-.079-.324-.536-.268-.614-.619a2.218,2.218,0,0,1,1.942-.543l-.008-.007c.052.18.191.189.342.172l-.01-.006c.053.179.19.191.342.172Z" transform="translate(-633.236 -379.221)" fill="#abdcd9"/>
        <path id="Path_32828" data-name="Path 32828" d="M751.123,447.184c-.091-.293-.758-.259-.537-.561a1.583,1.583,0,0,1,1.3-.581.417.417,0,0,1,.232.075c.3.234,1.032.236.886.639a1.161,1.161,0,0,1-1.336.55c-.185-.041-.37-.085-.555-.128l.009.007" transform="translate(-625.906 -371.971)" fill="#abdcd9"/>
        <path id="Path_32829" data-name="Path 32829" d="M734.987,443.21a1.2,1.2,0,0,1,1.613-.633,4.521,4.521,0,0,0,.547.134l-.01-.007c.118.211.308.208.51.171l-.01-.007a1.323,1.323,0,0,1-1.635.69,1.458,1.458,0,0,0-.689-.192l.009.007a.312.312,0,0,0-.343-.172Z" transform="translate(-612.928 -368.993)" fill="#abdcd9"/>
        <path id="Path_32830" data-name="Path 32830" d="M745.783,438.771c0-.29-.649-.272-.384-.585a1.191,1.191,0,0,1,1.2-.407c.346.085.631.357,1.014.329l-.009-.007c.307.42-.063.472-.317.608a1.627,1.627,0,0,1-1.012.221l.01.007a.507.507,0,0,0-.51-.171Z" transform="translate(-621.564 -365.052)" fill="#abdcd9"/>
        <path id="Path_32831" data-name="Path 32831" d="M755.27,434.136c-.125-.354-.564-.313-.751-.591a1.5,1.5,0,0,1,2.186-.168c.273.2.214.309-.03.476a2.016,2.016,0,0,1-1.414.275l.009.008" transform="translate(-629.223 -361.081)" fill="#abdcd9"/>
        <path id="Path_32832" data-name="Path 32832" d="M773.313,456.047c-.152.018-.289.006-.342-.172.146-.006.286,0,.342.172" transform="translate(-644.611 -380.171)" fill="#4c9a99"/>
        <path id="Path_32833" data-name="Path 32833" d="M771.313,455.052c-.152.017-.29.008-.342-.172a.332.332,0,0,1,.342.172" transform="translate(-642.943 -379.342)" fill="#4c9a99"/>
        <path id="Path_32834" data-name="Path 32834" d="M713.813,493.694a3.388,3.388,0,0,1-1.4-.543c-.205-.106-.141-.242,0-.385a1.923,1.923,0,0,1,2.345.106c.108.131.13.259-.016.342-.332.187-.678.349-.937.481" transform="translate(-594.004 -410.646)" fill="#abdcd9"/>
        <path id="Path_32835" data-name="Path 32835" d="M686.412,480.313a1.637,1.637,0,0,1,2.354-.191c.247.19.249.3,0,.491-.728.555-1.363.483-2.353-.3" transform="translate(-572.426 -400.048)" fill="#abdcd9"/>
        <path id="Path_32836" data-name="Path 32836" d="M639.007,492.619c-.1.608-.607.749-1.074.842-.553.11-.993-.27-1.426-.544-.21-.133-.007-.271.138-.352.481-.267.957-.568,1.537-.27l-.008-.006a.826.826,0,0,0,.84.336Z" transform="translate(-530.733 -410.441)" fill="#abdcd9"/>
        <path id="Path_32837" data-name="Path 32837" d="M698.681,473.784a3.181,3.181,0,0,1,1.242.531c.146.082.122.2,0,.326a1.858,1.858,0,0,1-2.316-.071c-.162-.176-.108-.29.063-.379a2.549,2.549,0,0,1,1.011-.407" transform="translate(-581.681 -395.107)" fill="#abdcd9"/>
        <path id="Path_32838" data-name="Path 32838" d="M707.808,482.6a2.457,2.457,0,0,1,.52.18c.288.175.916.287.781.554a1.243,1.243,0,0,1-1.262.57.941.941,0,0,1-.387-.135c-.28-.187-.881-.222-.784-.563.111-.39.672-.492,1.132-.606" transform="translate(-589.316 -402.458)" fill="#abdcd9"/>
        <path id="Path_32839" data-name="Path 32839" d="M667,477.835c.055-.666.639-.724,1.075-.8a1.848,1.848,0,0,1,1.325.567c.177.132-.066.265-.187.362a1.654,1.654,0,0,1-1.555.2l.008.006a.315.315,0,0,0-.341-.172l.009.006a.315.315,0,0,0-.341-.172Z" transform="translate(-556.235 -397.807)" fill="#abdcd9"/>
        <path id="Path_32840" data-name="Path 32840" d="M688.978,467.044c-.021.31.69.306.367.646a1.163,1.163,0,0,1-1.232.426c-.379-.131-.695-.435-1.13-.409l.009.007c.246-.895,1-.776,1.662-.829l-.009-.007c.052.18.184.2.342.172Z" transform="translate(-572.902 -389.348)" fill="#abdcd9"/>
        <path id="Path_32841" data-name="Path 32841" d="M699.319,462.335c0,.115.073.15.169.165a1.188,1.188,0,0,1-1.616.637,4.358,4.358,0,0,0-.549-.14l.008.006c-.058-.168-.2-.178-.342-.172l.009.007a1.04,1.04,0,0,1,1.323-.777c.334.087.62.349,1,.274" transform="translate(-581.247 -385.301)" fill="#abdcd9"/>
        <path id="Path_32842" data-name="Path 32842" d="M678.756,471.863c.042.068.078.139.125.2.177.235.829.2.588.58a1.011,1.011,0,0,1-1.29.431,2.486,2.486,0,0,1-1.062-.635,1.976,1.976,0,0,1,1.647-.571l-.008-.007" transform="translate(-564.675 -393.505)" fill="#abdcd9"/>
        <path id="Path_32843" data-name="Path 32843" d="M734.979,446.879a.312.312,0,0,1,.343.172c-.151.015-.289.006-.343-.172" transform="translate(-612.928 -372.67)" fill="#4c9a99"/>
        <path id="Path_32844" data-name="Path 32844" d="M762.972,461.858c.15-.015.287,0,.342.172a.293.293,0,0,1-.342-.172" transform="translate(-636.272 -385.157)" fill="#4c9a99"/>
        <path id="Path_32845" data-name="Path 32845" d="M674.995,512.019a.282.282,0,0,1,.34-.171c-.041.2-.174.22-.34.171" transform="translate(-562.905 -426.846)" fill="#4c9a99"/>
        <path id="Path_32846" data-name="Path 32846" d="M647.838,493.1a.826.826,0,0,1-.84-.337.72.72,0,0,1,.84.337" transform="translate(-539.557 -410.919)" fill="#4c9a99"/>
        <path id="Path_32847" data-name="Path 32847" d="M667,481.866a.315.315,0,0,1,.342.172c-.157.029-.3.028-.342-.172" transform="translate(-556.235 -401.845)" fill="#4c9a99"/>
        <path id="Path_32848" data-name="Path 32848" d="M669,482.871a.315.315,0,0,1,.341.172c-.161.037-.3.023-.341-.172" transform="translate(-557.902 -402.685)" fill="#4c9a99"/>
        <path id="Path_32849" data-name="Path 32849" d="M836.623,288.2l.174-.073-.073.173-.1-.1" transform="translate(-697.693 -240.281)" fill="#ecac7c"/>
        <path id="Path_32850" data-name="Path 32850" d="M747.973,443.859a.506.506,0,0,1,.509.171c-.2.037-.391.039-.509-.171" transform="translate(-623.764 -370.147)" fill="#4c9a99"/>
        <path id="Path_32851" data-name="Path 32851" d="M696.988,466.873c.146-.006.283,0,.342.172-.158.03-.289.008-.342-.172" transform="translate(-581.246 -389.343)" fill="#4c9a99"/>
      </g>
    </g>
  </g>
</svg>
