<svg xmlns="http://www.w3.org/2000/svg" xmlns:xlink="http://www.w3.org/1999/xlink" width="169.668" height="183.676" viewBox="0 0 169.668 183.676">
  <defs>
    <clipPath id="clip-path">
      <rect id="Rectangle_17697" data-name="Rectangle 17697" width="107.963" height="167.398" fill="none"/>
    </clipPath>
  </defs>
  <g id="Group_31016" data-name="Group 31016" transform="translate(-277.39 -3102)">
    <path id="Path_32025" data-name="Path 32025" d="M314.515,175.567c20.722,4.441,32.675,23.99,48.439,38.155,14.962,13.445,37.77,22.107,40.761,42,2.978,19.811-16.482,34.579-26.656,51.838-10.031,17.018-13.17,41.851-32.031,47.723-18.826,5.86-34.975-13.94-53.326-21.153-17.58-6.91-40.263-4.549-51.214-19.94-11.241-15.8-3.727-36.954-3.058-56.332.829-23.991-9.007-51.931,7.4-69.45,16.648-17.773,45.869-17.943,69.681-12.84" transform="translate(43.037 2929.325)" fill="#b7e8e6"/>
    <g id="Group_31008" data-name="Group 31008" transform="translate(308.019 3110.139)">
      <g id="Group_31007" data-name="Group 31007" clip-path="url(#clip-path)">
        <path id="Path_32498" data-name="Path 32498" d="M263.686,177.282a32.265,32.265,0,0,1,3.328-7.974c2.791-4.5,6.361-8.148,11.407-10.07a22.909,22.909,0,0,1,5.69-1.075c.947-.1,1.9-.139,2.853-.2a3.339,3.339,0,0,0,1.413.7,8.8,8.8,0,0,0,5.7-.849,36.874,36.874,0,0,1,10.688,2.9,8.783,8.783,0,0,1,5.06,6.236,60.86,60.86,0,0,1,1.49,9.463,71.85,71.85,0,0,1,.291,7.409,39.765,39.765,0,0,1-.464,5.449A4.259,4.259,0,0,1,309,192.5a28.92,28.92,0,0,1-4.634,2.219,1.5,1.5,0,0,1-.825.1c-4.184,1.364-8.321.869-12.482-.195-1.329-.34-2-.933-1.92-2.306a2.105,2.105,0,0,1,.467-.791,9.251,9.251,0,0,0,2-4.031,56.26,56.26,0,0,1,8.467-3.341c1.581-.447,1.69-.607,1.634-2.292,0-.141-.017-.281-.027-.421a58.348,58.348,0,0,0-1.748-9.108,1.539,1.539,0,0,0,.906-1.811c-.166-.458-.907-.757-1.445-1.013-.35-.167-.564.272-.832.458-.18.125-.4.6-.607.109-.325-.782-.429-.344-.709.027-.781,1.035-1.059,2.5-2.545,2.946a10.425,10.425,0,0,1-2.367.542.781.781,0,0,0-.68-.228,26.871,26.871,0,0,1-3.816-.208,2.817,2.817,0,0,1,2.408-3.541,1.425,1.425,0,0,0,1.208-.793.71.71,0,0,0-.114-.933c-.6-.4-.378-.9-.279-1.41a5.153,5.153,0,0,0-.943-4.352,9.933,9.933,0,0,0-1.908-2.736c-.183-.179-.622-.727-.733.126-.048.37-.3.14-.439.088a8.722,8.722,0,0,0-2.714-.558c-.515-.019-1.172-.171-1.416.451-.273.694.472.841.829,1.186a7.767,7.767,0,0,0-2.292,2.946.65.65,0,0,1-.564.423c-.6.087-.641.54-.41.939a1.628,1.628,0,0,1,.138,1.2,3.925,3.925,0,0,0,.7,3.174,10.4,10.4,0,0,0,2.232,1.746c.47.366.984.734.509,1.442a23.473,23.473,0,0,1-3.363-.706c-.539-.4-1.073-.806-1.617-1.2-1.644-1.184-1.442-3.172-2.091-4.789-.1-.238.138-.624-.241-.724-.407-.107-.312.483-.567.539-.644-.189-.383-1.6-1.633-.994-.28.136-1.1.251-1.128.4-.105.532-.395,1.158.152,1.668.452.422.873.875,1.312,1.311a1,1,0,0,1,.425.785,6.593,6.593,0,0,0,.365,2.235,8.215,8.215,0,0,0,3.522,5.141c.025.105.023.285.079.306,1.007.372.783,1.108.576,1.852-.112.4-.195.814-.29,1.221-.464.206-.66.079-.5-.425a2.718,2.718,0,0,0,.294-.872c0-.24.123-.539-.164-.685-.312-.159-.537.053-.72.278a28.556,28.556,0,0,1-4.691,4.062c-.639-1.2-.639-1.2-2.081-1.028-1.537.181-3.074.355-4.61.546-.251.031-.568-.072-.736.25.177.268.413.124.615.1,1.79-.2,3.582-.378,5.365-.626a.722.722,0,0,1,.928.546c.448,1.12.957,2.216,1.442,3.322a2.633,2.633,0,0,1-.426.383,4.173,4.173,0,0,0-2,3.309l-.395,2.73a9.449,9.449,0,0,1-2.668-.4,1.908,1.908,0,0,1-.467-.791c-1.915-4.253-3.4-8.674-5.051-13.028" transform="translate(-219.122 -131.139)" fill="#7f9af0"/>
        <path id="Path_32499" data-name="Path 32499" d="M107.228,233.122c1.654,4.354,3.136,8.775,5.051,13.028a1.91,1.91,0,0,0,.467.791,5.05,5.05,0,0,0,1,1.71,6.032,6.032,0,0,1-2.4,1.521l-1.365-.3a3.7,3.7,0,0,0,1.788-1.416c.4-.8.213-1.134-.658-1.173-2.044-.093-4.091-.13-6.127-.356l-1.335-2.885-.175.075q.072,1.386.145,2.772a8.039,8.039,0,0,0-6.908,3.6,8.04,8.04,0,0,0-.586-.8.674.674,0,0,0-.769-.2c-.313.137-.184.451-.136.67a8.915,8.915,0,0,0,.381,1.2c.072.193.2.378-.113.45-.974.227-.378.621-.095.957.254.3.727.4.653.974a9.285,9.285,0,0,0,.832,5,1.1,1.1,0,0,1-.078.406,1.573,1.573,0,0,0,1.206,2.658.81.81,0,0,1,.735.556,4.766,4.766,0,0,0,1.481,2.2c1.515.929,1.709,2.294,1.567,3.886a2.026,2.026,0,0,1-1.036,1.839l-.789.035c-.229-.055-.462-.124-.567.189l-.409.094c-2.4.547-4.854.957-6.876,2.535-1.618-.133-2.98-1.1-4.545-1.416-.245-.05-.432-.38-.474-.655a6.448,6.448,0,0,0-.572-1.392c-.594-1.5-1.228-2.976-1.678-4.526,1.11-2.491,2.37-4.906,3.694-7.289a4.35,4.35,0,0,0,.109-4.2c-.9-1.9-1.795-3.811-2.7-5.714-.633-1.334-1.278-2.662-1.986-4.136-.131.362-.216.537-.258.723-.462,2.024-.89,4.057-1.385,6.073a31.981,31.981,0,0,1-1.145,4.461l-5.44-.692a.518.518,0,0,1-.324-.608c.452-4.9.745-9.812,1.486-14.681A9.123,9.123,0,0,0,76.938,238a2.1,2.1,0,0,0,.307-1.11,35.143,35.143,0,0,1,1.555-6.357,4.632,4.632,0,0,1,1.343-2.2,12.6,12.6,0,0,1,5.732-2.438c.032.23-.148.35-.26.505a2.246,2.246,0,0,0,.361,3.468,9.093,9.093,0,0,0,2.517,1.508,38.95,38.95,0,0,0,7.019,2.042c.342.222.679.326.994-.046a13.77,13.77,0,0,0,2.765-3.758c1.045-2.149.849-3.071-.969-4.547a1.028,1.028,0,0,1,.656-.02c2.384.349,4.674.889,6.168,3.042l2.1,5.03m-3.657,10.526a4.542,4.542,0,0,0,1.715-4.562c-.224-2.056-1.673-3.093-3.284-3.989,3.791,3.356,4.081,4.925,1.569,8.55m-8.11-2.977c-.859,1.494-1.755,2.93-3.616,3.285-1.761.336-3.218-.563-4.715-1.266,1.546,1.122,3.195,1.99,5.166,1.39a5.04,5.04,0,0,0,3.166-3.409" transform="translate(-62.664 -186.979)" fill="#f87369"/>
        <path id="Path_32500" data-name="Path 32500" d="M350.5,449.757q.052,4.416.1,8.833c0,.27.094.563-.113.808a1.073,1.073,0,0,1-.657-.079,8.72,8.72,0,0,0-4.8-.419c-2.652.534-5.167,2.121-5.514,5.122a.945.945,0,0,1-.647.792,3.479,3.479,0,0,0-1.988,2.265c-.365,1.28-.4,1.3-1.781,1.44a2.019,2.019,0,0,0-1.973,1.932,2.512,2.512,0,0,1-1.584,2.45,4.336,4.336,0,0,0-1,.619,1.613,1.613,0,0,0-.178,2.5,3.083,3.083,0,0,0,1.482.923,10.126,10.126,0,0,0,3.249.355q-.19,3.639-.381,7.279a13.535,13.535,0,0,1-1.067,2.1c-.193.367-.342.716-.056,1.1a12.2,12.2,0,0,0-.83,2.554,42.223,42.223,0,0,0-.8,9.635,6.024,6.024,0,0,1-.171,1.581,11.888,11.888,0,0,0-.434,3.912c.062.74.352.422.635.141.156.375,0,.92.417.987.366.058.238-.515.46-.745.139.307.018.7.349.9.341-.131.2-.584.53-.725V507.2l.011-.013-.143.184c-2.079,3.364-3.975,6.834-5.9,10.284-.616,1.1-.417,1.612.737,2.2a9.914,9.914,0,0,0,2.844.7,9.062,9.062,0,0,1,3.986,1.643l-2.175.07-5.372-.01a8.693,8.693,0,0,0-1.345-.018c-.774.1-.984-.24-1.086-.956-.5-3.5-1.1-6.989-1.589-10.491-.681-4.838-1.3-9.685-1.648-14.562a4.183,4.183,0,0,1,.419.269c.565.461,1.115.941,1.69,1.389a.464.464,0,0,0,.621.055c.249-.217.016-.4-.068-.591-.119-.275-.468-.43-.411-.794l0,0a.451.451,0,0,1,.084,0c.45.1.89.713,1.275.394.364-.3-.459-.617-.35-1.068l.006-.008c.356-.049.636.6.936.233s-.184-.678-.368-1a1.217,1.217,0,0,1-.079-.233l.057-.053c.186-.038.434.138.553-.059.135-.225-.074-.425-.207-.589a8.6,8.6,0,0,0-1.969-1.7c-1.573-1.056-2.842-2.3-2.742-4.392-.016-1.434-.082-2.869-.037-4.3.129-4.135.3-8.27.46-12.4q0-.184,0-.367c.044-.475.1-.949.13-1.425q.548-9.669,1.088-19.337a31.254,31.254,0,0,0,7.581,1.379,49.916,49.916,0,0,0,6.553-.054,61.47,61.47,0,0,0,7.01-.762c2.07-.338,4.134-.715,6.2-1.075" transform="translate(-267.13 -373.746)" fill="#355db2"/>
        <path id="Path_32501" data-name="Path 32501" d="M88.909,112.084c-1.495-2.153-3.784-2.693-6.168-3.042a1.027,1.027,0,0,0-.656.02,1.332,1.332,0,0,0-.74-.083c-.529-.048-1.057-.127-1.586-.137a1.1,1.1,0,0,1-1.216-1.109c-.094-.892-.179-1.786-.289-2.676a.51.51,0,0,1,.368-.639,4.009,4.009,0,0,0,2.368-3.059,14.947,14.947,0,0,0,.37-3.506,1.714,1.714,0,0,0,.777-.626,1.212,1.212,0,0,0,.251-1.4c-.282-.55-.749-.478-1.227-.384a2.659,2.659,0,0,0-.254-1.562,8.166,8.166,0,0,0-3.492-3.089c-.866-.329-1.737-.641-2.627-1.063a8.279,8.279,0,0,1-1.867,3.485A29.322,29.322,0,0,0,70.1,97.52c-.318.577-.549.911-1.314.654a1.232,1.232,0,0,0-1.645.654c-.282.748.193,1.282.782,1.7a1.112,1.112,0,0,0,.771.3c.8-.142,1.147.354,1.5.921a11.854,11.854,0,0,0,.835,1.061,7.033,7.033,0,0,1,1.512,3.255c.388,2.281-.061,3.012-2.231,3.652l-.66.175a12.607,12.607,0,0,0-5.732,2.439,4.632,4.632,0,0,0-1.343,2.2,35.141,35.141,0,0,0-1.555,6.357,2.1,2.1,0,0,1-.307,1.11,5.268,5.268,0,0,1-4.653-6.708,8.872,8.872,0,0,1,3.77-5.111c.069-.049.142-.091.213-.138,2.678-1.75,2.945-2.6,1.715-5.594a8.5,8.5,0,0,1-.875-3.744,3.094,3.094,0,0,1,1.2-2.585,3.685,3.685,0,0,0,1.619-3.139,10.1,10.1,0,0,1,5.8-8.6,9.645,9.645,0,0,1,7.635-.352,15.265,15.265,0,0,1,6.769,3.962,8.06,8.06,0,0,1,2.221,8.132c-.053.189-.071.389-.133.575a4.708,4.708,0,0,0,1.849,5.763,5.272,5.272,0,0,1,1.053,7.632" transform="translate(-46.447 -70.971)" fill="#0d0954"/>
        <path id="Path_32502" data-name="Path 32502" d="M349.394,379.138c-2.066.36-4.13.737-6.2,1.075a61.469,61.469,0,0,1-7.01.762,49.916,49.916,0,0,1-6.553.054,31.253,31.253,0,0,1-7.581-1.379,2.959,2.959,0,0,0-.539-.237c-.93-.206-1.222-.753-1.18-1.7.079-1.8.027-3.6.021-5.4,0-.3.1-.632-.22-.851.316-.091.632-.185.95-.273,1.675-.462,1.675-.462,1.45-2.15a.5.5,0,0,0,.316-.45c.1-.86.292-1.717.309-2.577.016-.8.405-.856,1.015-.753a12.836,12.836,0,0,0,4.753-.033c.642-.132.76.044.745.641-.033,1.233,0,2.467.018,3.7,0,.307-.1.722.458.663a.762.762,0,0,0,.074.135c-.266.62-.556,1.231-.791,1.862-.3.8-.148.977.7.8s1.693-.412,2.531-.653c1.376-.4,1.373-.407,1.116-1.816.348-.191.249-.529.269-.826a9.3,9.3,0,0,1,1.666-4.95,5.5,5.5,0,0,1,.172.907c.013.478.259.674.685.815,4.516,1.489,9.075,2.121,13.742.729q-.037,4.544-.075,9.088c0,.534-.036,1.07,0,1.6.04.645-.142,1.1-.837,1.222" transform="translate(-266.028 -303.127)" fill="#7d9af1"/>
        <path id="Path_32503" data-name="Path 32503" d="M111.081,519.279c.085-2.162.148-4.325.259-6.485.254-4.937.321-9.884.736-14.814.319.07.383.383.549.593,1.789,2.249,2.872,5,4.975,7.024-.354.942-.681,1.9-1.07,2.823-.372.884-.629,1.726.214,2.49a6.4,6.4,0,0,1-.062.84,76.1,76.1,0,0,0-.972,10.181c-.166,2.5.176,4.993.163,7.493a3.6,3.6,0,0,0,.061.415c.29,2.55.814,5.1-.192,7.626a4.482,4.482,0,0,0-.156,2.423c.428-.05.368-.5.664-.658a3.016,3.016,0,0,1,.121,1.2c.019.172.02.365.228.4.227.035.365-.112.423-.325.089-.327.171-.656.256-.984a5.191,5.191,0,0,1,.115,1.284c0,.14.01.294.175.347.214.069.3-.093.38-.242.19-.354.2-.808.624-1.125,0,.238,0,.4,0,.572.01.356-.068.871.359.912s.437-.457.508-.822c.167-.859.384-1.709.6-2.667.317.427.552.736.778,1.05.153.213.314.447.609.287s.205-.453.125-.678a17.549,17.549,0,0,0-1.228-3.214,7.469,7.469,0,0,1-1.122-4.215c.091-2.522.272-5.029.534-7.536q.539-5.168,1.367-10.3c.373.023.336.31.353.556.041.587.1,1.174.112,1.761q.21,9,.832,17.99c.047.687.247.909.887.782.244,3.984.37,7.972.326,11.965l-.488-.019a1.564,1.564,0,0,0-1.355.036l-.021.013c-2.534-.05-5.072.161-7.6-.121-1.065,0-2.131,0-3.2.01-.356,0-.7,0-.682-.5.06-1.931-.046-3.866.144-5.793a1.5,1.5,0,0,0,.091-1.495c-.114-.8.234-1.6.03-2.4a.946.946,0,0,0,0-.674c.192-1.287.047-2.585.137-3.876.281-4.039.293-8.087.411-12.131" transform="translate(-91.635 -413.819)" fill="#f87369"/>
        <path id="Path_32504" data-name="Path 32504" d="M403.718,519.546c-.252.565-.331,1.266-1.116,1.409a2.478,2.478,0,0,0-2.422.6,7.315,7.315,0,0,1-.956.693,3.54,3.54,0,0,1-5.336-2.755,1.636,1.636,0,0,1,.572-1.509,3.026,3.026,0,0,0,.984-3.489,2.023,2.023,0,0,1,.086-.409,1.121,1.121,0,0,0-.092-1.337,1.659,1.659,0,0,0-1.49-.359c-.442.042-.787.69-1.224.293a4.473,4.473,0,0,1-.757-1.208c-.323-.592-.656-1.182-.92-1.8a7.767,7.767,0,0,0-1.993-2.885c-.953-.837-1.943-1.421-3.267-.788a7.25,7.25,0,0,1-1.6.52c-2.159.464-3.108,1.931-3.381,3.983a.071.071,0,0,0-.033.114.336.336,0,0,0-.116.074c-.272-.2-.543-.3-.8.018a.79.79,0,0,0-.139.854,1.236,1.236,0,0,0,.691.683,8.623,8.623,0,0,0,.9,4.266c-1.4.259-1.966.68-1.988,1.736a3.068,3.068,0,0,1-1.6,2.741l-1.345.449a10.134,10.134,0,0,1-3.249-.355,3.082,3.082,0,0,1-1.482-.922,1.613,1.613,0,0,1,.178-2.5,4.342,4.342,0,0,1,1-.619,2.512,2.512,0,0,0,1.584-2.45,2.019,2.019,0,0,1,1.973-1.932c1.381-.136,1.416-.16,1.781-1.44a3.479,3.479,0,0,1,1.988-2.265.946.946,0,0,0,.647-.792c.347-3,2.862-4.588,5.514-5.121a8.719,8.719,0,0,1,4.8.419,1.075,1.075,0,0,0,.657.079,34.408,34.408,0,0,1,2.532,2.431,10.914,10.914,0,0,1,1.693,3.525c.068.311.309.367.529.47a6.844,6.844,0,0,1,2.091,1.516,7.91,7.91,0,0,1,.731,1.96,1.882,1.882,0,0,0,1.351,1.351,4.046,4.046,0,0,1,3.027,4.752" transform="translate(-308.41 -417.89)" fill="#0d0954"/>
        <path id="Path_32505" data-name="Path 32505" d="M386.8,63.6a8.8,8.8,0,0,1-5.7.849,3.34,3.34,0,0,1-1.414-.7c.06-1.29.112-2.58.184-3.869.03-.53-.172-.9-.7-.985-2.778-.444-3.722-2.752-3.878-5.1-.052-.784-.012-1.575-.014-2.362l.339-2.528q.016-.373.032-.746c.252-.978.5-1.958.76-2.934.056-.208.07-.49.345-.531,1.038-.156,2.094-.573,3.081.186a3.156,3.156,0,0,0,3.493.307,3.687,3.687,0,0,1,4.408.8,1.416,1.416,0,0,1,.548,1.149c-.025,1.57-.009,3.14-.009,4.71l.238.1c.629-.519,1.441-.075,2.088-.5.037.1.044.239.115.308.448.437.781.888.445,1.556a2,2,0,0,1-1.815,1.3,1.309,1.309,0,0,0-1.334.9,11.077,11.077,0,0,0-1.284,6.578c.067.5.045,1.009.065,1.515m-1.927-15.519c-.148.027-.371.055-.588.109-.323.081-.753.139-.68.585.086.522.5.386.867.3a1.4,1.4,0,0,1,1.626.584c.181.273.414.433.7.234.326-.229.209-.538.015-.812a2.36,2.36,0,0,0-1.938-1m-6.807-1.755c-.151.025-.43.055-.7.121-.313.077-.637.21-.529.613s.447.363.759.261a1.4,1.4,0,0,1,1.753.605c.153.225.357.389.634.213.305-.193.268-.479.1-.736a2.251,2.251,0,0,0-2.019-1.078m.176,3.455a.717.717,0,0,0,.6-.789.678.678,0,0,0-.779-.69.686.686,0,0,0-.7.78c.027.452.324.69.875.7m7.027,1.191a.714.714,0,0,0-.715-.769.738.738,0,1,0-.063,1.475.711.711,0,0,0,.778-.706m-4.149,2.123c-.09-.1-.194-.075-.3-.036a.913.913,0,0,1-1.166-.41c-.3-.476.23-.626.445-.856a2.544,2.544,0,0,0,.774-1.961,6.659,6.659,0,0,1-1.323,2,.69.69,0,0,0-.048,1.2,1.077,1.077,0,0,0,1.62.069m-3.228,1.44a2.762,2.762,0,0,0,3.3.771,5.733,5.733,0,0,1-3.3-.771" transform="translate(-311.848 -36.927)" fill="#f79393"/>
        <path id="Path_32506" data-name="Path 32506" d="M382.271,14.515c-.647.425-1.459-.02-2.088.5l-.238-.1c0-1.57-.016-3.14.009-4.71a1.416,1.416,0,0,0-.548-1.149,3.687,3.687,0,0,0-4.408-.8,3.156,3.156,0,0,1-3.493-.307c-.987-.759-2.043-.342-3.081-.186-.274.041-.289.323-.344.531-.26.976-.508,1.956-.76,2.934a13.4,13.4,0,0,1,.125-2.5,7.253,7.253,0,0,0-.233-2.9,1.1,1.1,0,0,0-.806-.883,1.679,1.679,0,0,1-1.164-1.766,1.676,1.676,0,0,1,1.289-1.592,4.212,4.212,0,0,1,1.318-.25A5.5,5.5,0,0,0,371.338.33a1.912,1.912,0,0,1,2.1-.032,6.272,6.272,0,0,0,5.147.266,3.97,3.97,0,0,1,2.169-.1,1.95,1.95,0,0,1,1.533,1.186,2.011,2.011,0,0,0,1.12,1.186,3.338,3.338,0,0,1,1.767,1.952,8.225,8.225,0,0,1,.559,3.641,2.629,2.629,0,0,1-1.363,2.365,1.259,1.259,0,0,0-.51.646q-.795,1.535-1.585,3.073" transform="translate(-303.512 0)" fill="#080934"/>
        <path id="Path_32507" data-name="Path 32507" d="M90.245,423.169c-2.1-2.026-3.187-4.775-4.976-7.024-.167-.21-.231-.522-.549-.593-1.215-2.018-2.487-4-3.633-6.061a28.657,28.657,0,0,1-3.631-9.195c-.082-.495-.072-1-.1-1.508l5.44.692a3.083,3.083,0,0,0,.086.657c.66,1.849,1.306,3.7,2.016,5.534a32.407,32.407,0,0,0,1.566,3.888c.449,1.549,1.083,3.03,1.678,4.525a6.457,6.457,0,0,1,.572,1.392c.042.275.229.605.474.655,1.565.32,2.926,1.283,4.545,1.416-.206.262-.4.535-.622.783a1.185,1.185,0,0,0,.057,1.943,2.785,2.785,0,0,1,.57.917c.088.185.233.427.011.623-.238.209-.414-.015-.587-.134-.133-.091-.228-.3-.419-.207-.226.106-.055.285-.03.435s.087.361-.1.451-.3-.1-.428-.2c-.111-.082-.206-.2-.368-.155-.143.162-.039.307.02.464.13.346-.077.581-.345.392-.592-.42-.89-.023-1.247.3" transform="translate(-64.279 -331.392)" fill="#f79393"/>
        <path id="Path_32508" data-name="Path 32508" d="M426.9,364.957c-4.668,1.392-9.226.759-13.742-.729-.426-.14-.672-.337-.685-.815a5.462,5.462,0,0,0-.173-.907c.062-.19.1-.4.337-.462-.082,1.373.591,1.966,1.92,2.306,4.161,1.064,8.3,1.558,12.482.195a.347.347,0,0,1-.139.412" transform="translate(-342.616 -300.858)" fill="#0d0954"/>
        <path id="Path_32509" data-name="Path 32509" d="M370.578,70.507l-.339,2.528a2.183,2.183,0,0,1-.788-.738,1.186,1.186,0,0,1-.08-1.343.915.915,0,0,1,1.206-.447" transform="translate(-306.805 -58.53)" fill="#f87369"/>
        <path id="Path_32510" data-name="Path 32510" d="M186.891,714.091c.043-3.992-.082-7.98-.326-11.964a8.494,8.494,0,0,1,4.05-.886c3.118.16,6.23.43,9.358.425,2.313,0,4.553-.181,6.468-1.678.029-.022.106.017.161.028.23,1.839.49,3.675.682,5.518a107.292,107.292,0,0,1,.662,14.631,127.378,127.378,0,0,1-1.379,13.9c-.322,1.61-.69,3.213-.947,4.834-.143.907-.479,1.411-1.462,1.258l-3.552.009c-.809.079-1.006-.279-.9-1.056a18.6,18.6,0,0,0,.042-2.338q.04-.923.079-1.846.009-.178.018-.355c.075-2.474.19-4.948.216-7.422.046-4.36.13-8.722-.175-13.078a35.117,35.117,0,0,0-.854-7.693c-.188-.756-.273-1.819-1.322-1.8-1.133.026-1.2,1.12-1.34,1.958a72.881,72.881,0,0,0-.651,7.557c-.426,4.132-.835,8.266-1.544,12.362-.44,2.542-.913,5.078-1.371,7.617-.359,1.519-.754,3.031-1.058,4.561-.116.585-.378.8-.926.785a1.846,1.846,0,0,0-.87-.064,1.113,1.113,0,0,0-.667-.015l-2.035-.042c-.671.026-.881-.255-.827-.95.107-1.366.1-2.741.14-4.112.071-2.191.151-4.382.213-6.574.128-4.525.2-9.051.115-13.578" transform="translate(-154.91 -581.682)" fill="#0d0954"/>
        <path id="Path_32511" data-name="Path 32511" d="M393.928,776.781c-.05.225-.027.41.25.455a3.359,3.359,0,0,0,.507,1.145,2.436,2.436,0,0,1-1.093,3.7,10.765,10.765,0,0,1-6.381,1.391s-.008-.058-.008-.058l-.028.023-.639-.135s.025-.038.025-.038l-.031,0-1.164-.569c-.152-.409-.6-.213-.854-.419-2.543-.591-4.751.427-6.956,1.453-.543.434-1.1.851-1.626,1.306a4.8,4.8,0,0,1-4.621.941,22.879,22.879,0,0,1-5.163-2.124,1.9,1.9,0,0,0-1.092-.384.731.731,0,0,0-.692-.386,9.061,9.061,0,0,0-3.986-1.643,9.923,9.923,0,0,1-2.844-.7c-1.153-.589-1.353-1.1-.737-2.2,1.93-3.45,3.826-6.919,5.9-10.284l.143-.184-.011.013a6.283,6.283,0,0,0,.879-1.872,2.687,2.687,0,0,0,.669-.99,1.616,1.616,0,0,0,.338-.847c.335-.11.369-.5.622-.682a3.307,3.307,0,0,1,.831.082,25.816,25.816,0,0,0,7.711,1.418,35.687,35.687,0,0,0,11.969-1.147l.213.363a8.088,8.088,0,0,0,1.282,1.836l.005,0,.147.2a25.533,25.533,0,0,0,2.086,3.513c1.232,2.126,2.552,4.2,3.842,6.294.129.209.231.457.5.536" transform="translate(-296.212 -634.62)" fill="#f87369"/>
        <path id="Path_32512" data-name="Path 32512" d="M107.541,798.94a.406.406,0,0,0,.1-.569c.516-1.6.668-3.275,1.05-4.9a16.359,16.359,0,0,0,.68-3.436,29.344,29.344,0,0,0,.976-3.7c.24-.827.352-1.692.573-2.526a1.212,1.212,0,0,0-.071-.88c2.53.282,5.068.071,7.6.122-.118.315-.25.626-.354.946-1.56,4.809-3.151,9.609-4.429,14.5a26.533,26.533,0,0,0-1.1,5.171c-.529,1.963-.628,3.863.753,5.575a2.664,2.664,0,0,1,.627,1.269c-.372.859-1.076.9-1.828.688a7.172,7.172,0,0,1-2.2-1.192,40.965,40.965,0,0,1-3.62-3.238c.06-1.71.617-3.337.843-5.021a18.9,18.9,0,0,0,.4-2.809" transform="translate(-88.329 -650.609)" fill="#f79393"/>
        <path id="Path_32513" data-name="Path 32513" d="M481.315,874.256c2.206-1.026,4.413-2.044,6.953-1.455a.848.848,0,0,0-.426.911q-.012.276-.023.552v-.032c-.023.387-.045.774-.068,1.152a4.092,4.092,0,0,1,.007,1.317,9.16,9.16,0,0,0-.06,3.429s0,.063,0,.063a25.332,25.332,0,0,0-.253,3.067q-.286,2.942-.571,5.885a.431.431,0,0,1-.162.363c-.4-.27-.426-.286-.994.292a4.034,4.034,0,0,1-4.231.921c1.305-1.847.818-3.95.806-5.967-.01-1.738-.181-3.475-.291-5.211-.1-1.54-.216-3.079-.311-4.619-.018-.3-.032-.566-.374-.668" transform="translate(-399.971 -725.15)" fill="#f79393"/>
        <path id="Path_32514" data-name="Path 32514" d="M405.751,880.691a1.9,1.9,0,0,1,1.092.384,22.885,22.885,0,0,0,5.163,2.124c-.426.113-.335.467-.338.761-.033,3.626-.329,7.235-.7,10.838a8.233,8.233,0,0,1-.223.983,2.4,2.4,0,0,0-.754.527,4.369,4.369,0,0,1-4.56,1.119,5.292,5.292,0,0,0,.873-3.567c-.005-3.216-.3-6.415-.444-9.622q-.052-1.773-.105-3.546" transform="translate(-336.909 -731.846)" fill="#f79393"/>
        <path id="Path_32515" data-name="Path 32515" d="M313.915,910.272l.175-.044a8.308,8.308,0,0,0,2.275.82,10.258,10.258,0,0,0,3.242-.221,34.59,34.59,0,0,1,.493,4.523c.007,1.241-.074,1.348-1.3,1.432q-5.764.391-11.532.72a7.644,7.644,0,0,1-1.512-.106c-.851-.122-1.063-.5-.726-1.286a4.4,4.4,0,0,1,1.406-1.654,31,31,0,0,1,6.575-3.743c.305-.14.6-.293.907-.44" transform="translate(-253.35 -756.396)" fill="#0d0954"/>
        <path id="Path_32516" data-name="Path 32516" d="M104.594,924a40.918,40.918,0,0,0,3.62,3.238,7.17,7.17,0,0,0,2.2,1.192c.753.211,1.456.171,1.828-.688a12.1,12.1,0,0,1,2.479,4.229c.187.549-.02.888-.662.788a6.722,6.722,0,0,1-1.069-.22,28.518,28.518,0,0,1-7.29-3.628,4.481,4.481,0,0,1-1.419-1.417,9.339,9.339,0,0,1,.313-3.495" transform="translate(-86.63 -767.842)" fill="#0d0954"/>
        <path id="Path_32517" data-name="Path 32517" d="M192.465,947.79a25.523,25.523,0,0,1,4.291,2.315,8.483,8.483,0,0,1,.967.806c.375.369.9.769.609,1.351-.232.462-.822.406-1.294.385q-1.766-.079-3.529-.2c-1.371-.095-2.739-.243-4.111-.3-.685-.03-.958-.3-.945-.972a16.225,16.225,0,0,1,.372-3,4.489,4.489,0,0,0,3.641-.378" transform="translate(-156.603 -787.61)" fill="#f87369"/>
        <path id="Path_32518" data-name="Path 32518" d="M271.991,947.809a24.6,24.6,0,0,1,4.664,2.517,4.184,4.184,0,0,1,1.179,1.187c.376.642.19,1.029-.55,1.112a9.91,9.91,0,0,1-1.768.01c-2.212-.152-4.422-.338-6.634-.489-.545-.037-.866-.257-.83-.816a9.891,9.891,0,0,1,.416-3.15,4.1,4.1,0,0,0,3.522-.371" transform="translate(-222.748 -787.626)" fill="#f87369"/>
        <path id="Path_32519" data-name="Path 32519" d="M364.246,884.7a10.262,10.262,0,0,1-3.242.221,8.306,8.306,0,0,1-2.275-.821q-.068-2.656-.136-5.313l5.372.01q.095,2.626.189,5.252c.006.165-.012.337.132.463l-.039.187" transform="translate(-297.989 -730.272)" fill="#f79393"/>
        <path id="Path_32520" data-name="Path 32520" d="M194.3,935.215a4.489,4.489,0,0,1-3.641.378,19.783,19.783,0,0,0,.118-2.936l2.035.042a.484.484,0,0,0,.667.015,1.846,1.846,0,0,1,.87.064q-.025,1.219-.05,2.437" transform="translate(-158.434 -775.035)" fill="#fefefe"/>
        <path id="Path_32521" data-name="Path 32521" d="M400.483,971.651a4.369,4.369,0,0,0,4.559-1.119,2.4,2.4,0,0,1,.754-.527,4.333,4.333,0,0,1-.178,1.493.8.8,0,0,1-.574.657,31.652,31.652,0,0,1-4.273,1.259,2.546,2.546,0,0,1-.67.045c-.621-.036-.782-.339-.469-.893a2.794,2.794,0,0,1,.85-.916" transform="translate(-331.964 -806.07)" fill="#f87369"/>
        <path id="Path_32522" data-name="Path 32522" d="M477.043,972.838a4.035,4.035,0,0,0,4.231-.921c.568-.578.6-.562.994-.292-.161,1.612-.161,1.613-1.734,2.071-.938.273-1.878.539-2.813.821a2.935,2.935,0,0,1-1.159.135c-.552-.059-.768-.351-.437-.854a2.626,2.626,0,0,1,.917-.96" transform="translate(-395.528 -807.267)" fill="#f87369"/>
        <path id="Path_32523" data-name="Path 32523" d="M273.934,939.428a4.1,4.1,0,0,1-3.522.371q-.012-1.034-.024-2.067l3.552-.009q0,.852-.005,1.7" transform="translate(-224.69 -779.244)" fill="#fefefe"/>
        <path id="Path_32524" data-name="Path 32524" d="M264.4,906.771q-.04.923-.079,1.846a1.889,1.889,0,0,1,.079-1.846" transform="translate(-219.478 -753.523)" fill="#dde7fd"/>
        <path id="Path_32525" data-name="Path 32525" d="M519.886,874.565a.848.848,0,0,1,.426-.911c.256.207.705.011.857.42-.438.138-.7.721-1.283.491" transform="translate(-432.015 -726.003)" fill="#0d164a"/>
        <path id="Path_32526" data-name="Path 32526" d="M519.063,890.255a4.093,4.093,0,0,0-.007-1.317,3.076,3.076,0,0,0,.007,1.317" transform="translate(-431.277 -738.704)" fill="#0d164a"/>
        <path id="Path_32527" data-name="Path 32527" d="M518.622,916.793s0-.065,0-.063c-.087-.127-.083-.018-.092.039a.241.241,0,0,0,.012.076l.079-.052" transform="translate(-430.896 -761.75)" fill="#0d164a"/>
        <path id="Path_32528" data-name="Path 32528" d="M534.2,879.509l.031,0s-.024.038-.025.038l-.051.009Z" transform="translate(-443.88 -730.869)" fill="#0d164a"/>
        <path id="Path_32529" data-name="Path 32529" d="M538.238,880.446l.028-.023s.008.058.008.058l-.03.032Z" transform="translate(-447.274 -731.628)" fill="#0d164a"/>
        <path id="Path_32530" data-name="Path 32530" d="M519.793,882.122v0" transform="translate(-431.946 -733.04)" fill="#0d164a"/>
        <path id="Path_32531" data-name="Path 32531" d="M328.849,321.8c-.236.064-.275.272-.337.462a9.3,9.3,0,0,0-1.665,4.949c-.02.3.079.635-.269.825l-.095-.143a7.265,7.265,0,0,0-3.172-.149l-.287.1a.771.771,0,0,1-.073-.134c-.382-1.525-.016-3.085-.2-4.611a7.058,7.058,0,0,1,.7-3.482c.1-.256.385-.435.314-.759.316-1.27.036-1.583-1.244-1.394-.245.036-.492.063-.738.094-.824.01-1.3-.569-1.822-1.073-.279-.269-.571-.688-.988-.388-.457.328-.015.748.054,1.126.009.049.065.09.1.135.37.5.183.716-.367.854a2.588,2.588,0,0,0-2.074,1.628c-.381,1.191-.687,2.406-1,3.617a14.593,14.593,0,0,1-.562,2.945l-2.969-.4c-.692-.044-.732-.585-.643-1.032a7.829,7.829,0,0,0,.08-1.919,12.155,12.155,0,0,0,0-2.081l.395-2.73a4.173,4.173,0,0,1,2-3.309,2.625,2.625,0,0,0,.425-.383l.253-.067a29.937,29.937,0,0,0,4.988-.149,25.379,25.379,0,0,1,3.509-.722l.45.015.19.009,7.895.051c.1.924-.275,1.828-.12,2.754a.615.615,0,0,0-.255.534,9.256,9.256,0,0,1-2,4.031,2.107,2.107,0,0,0-.467.791" transform="translate(-258.832 -260.61)" fill="#f87369"/>
        <path id="Path_32532" data-name="Path 32532" d="M368.173,253.26l-7.894-.051q-.089-.122-.189-.009l-.45-.014c-.054-1.272-1.048-.46-1.586-.717.547-.247,1.087-.473,1.608-.735.26-.131.657-.266.511-.649-.123-.322-.473-.184-.751-.146-.329.045-.662.054-.994.078a8.149,8.149,0,0,1,1.374-.72c.153-.07.316-.205.231-.391a.459.459,0,0,0-.343-.2c-.471-.022-.944-.009-1.417-.009a8.393,8.393,0,0,1,1.484-.723c.151-.064.318-.158.3-.362s-.184-.269-.34-.331a2.543,2.543,0,0,0-1.493-.042,9.859,9.859,0,0,1-2.483.414c.1-.407.179-.818.29-1.221.207-.744.431-1.481-.576-1.852-.056-.021-.054-.2-.08-.306l1.5-4.38a23.446,23.446,0,0,0,3.363.706,4.274,4.274,0,0,0,3.787.605,26.868,26.868,0,0,0,3.816.208.783.783,0,0,1,.68.228,9.489,9.489,0,0,0,1.685,3.686c-.069.527-.559.536-.888.6-.826.156-1.015.622-.915,1.376a37.216,37.216,0,0,1,.174,4.194c.006.322.1.709-.409.764" transform="translate(-295.318 -200.183)" fill="#fefefe"/>
        <path id="Path_32533" data-name="Path 32533" d="M369.7,187.329a4.273,4.273,0,0,1-3.787-.605c.475-.707-.039-1.076-.509-1.442a10.409,10.409,0,0,1-2.232-1.746,3.925,3.925,0,0,1-.7-3.173,1.628,1.628,0,0,0-.138-1.2c-.23-.4-.195-.852.41-.939a.651.651,0,0,0,.565-.423,7.775,7.775,0,0,1,2.291-2.946c.384.221,1.3-.1.851.971-.147.35.444.621.828.674a4.417,4.417,0,0,0,1.509.007,16.565,16.565,0,0,1,3.193-.21,5.153,5.153,0,0,1,.943,4.352c-.1.514-.322,1.007.279,1.411a.71.71,0,0,1,.114.933,1.425,1.425,0,0,1-1.208.793,2.817,2.817,0,0,0-2.408,3.541m-2.028-4.407a12.021,12.021,0,0,1-2.614-.951c-.161-.085-.362-.279-.526-.1-.206.223-.042.468.1.681.658,1.009,1.812,1.191,3.043.372m-2.741-3.418a.5.5,0,0,0-.537-.513.471.471,0,0,0-.487.473.478.478,0,0,0,.484.557c.323.02.5-.193.539-.517m4.694,1.608c-.053-.3-.195-.513-.533-.525a.458.458,0,0,0-.5.452.476.476,0,0,0,.464.575c.344.029.492-.2.573-.5m.679-.5c.045-.554-.292-.646-.541-.781-.231-.125-.6-.406-.739-.14-.219.408.309.31.5.447.219.159.463.283.782.475m-6.42-2.021c.433,0,.867,0,1.3,0a.686.686,0,0,0,.214-.091c-.595-.422-.866-.433-1.514.1" transform="translate(-300.99 -145.305)" fill="#f79393"/>
        <path id="Path_32534" data-name="Path 32534" d="M329.134,276.786a9.867,9.867,0,0,0,2.483-.414,2.541,2.541,0,0,1,1.493.042c.156.063.325.135.34.331s-.151.3-.3.362a8.373,8.373,0,0,0-1.484.723c.472,0,.945-.013,1.416.009a.458.458,0,0,1,.343.2c.085.185-.078.32-.231.39a8.156,8.156,0,0,0-1.374.72c.331-.024.665-.033.994-.078.278-.038.628-.175.751.146.146.382-.251.518-.511.649-.522.263-1.062.488-1.608.735.539.256,1.533-.555,1.586.717a25.347,25.347,0,0,0-3.509.722,29.954,29.954,0,0,1-4.988.149l-1.176-3.044a28.573,28.573,0,0,0,4.691-4.062c.183-.224.408-.437.72-.278.287.146.16.445.164.686a2.715,2.715,0,0,1-.294.872c-.164.5.033.631.5.425" transform="translate(-268.708 -228.314)" fill="#f79393"/>
        <path id="Path_32535" data-name="Path 32535" d="M327.641,204.934l-1.5,4.38a8.216,8.216,0,0,1-3.522-5.141,6.593,6.593,0,0,1-.365-2.235,1,1,0,0,0-.425-.785c-.439-.436-.861-.889-1.312-1.311-.547-.511-.258-1.137-.152-1.668.03-.153.847-.269,1.128-.4,1.25-.6.989.8,1.633.994.256-.057.16-.647.567-.539.378.1.145.486.241.723.648,1.617.447,3.605,2.091,4.789.544.392,1.079.8,1.617,1.2" transform="translate(-266.079 -164.221)" fill="#f79393"/>
        <path id="Path_32536" data-name="Path 32536" d="M434.855,234.672a9.5,9.5,0,0,1-1.685-3.686,10.408,10.408,0,0,0,2.367-.541c1.486-.443,1.764-1.91,2.545-2.946.28-.372.384-.809.709-.027.2.491.427.015.607-.11.268-.185.482-.625.832-.457.538.256,1.279.555,1.445,1.013a1.54,1.54,0,0,1-.906,1.811.293.293,0,0,0-.344.256,3.424,3.424,0,0,0-2.323,1.566,7.037,7.037,0,0,1-3.247,3.12" transform="translate(-359.963 -188.526)" fill="#f79393"/>
        <path id="Path_32537" data-name="Path 32537" d="M384.323,168.1a16.579,16.579,0,0,0-3.193.209,4.421,4.421,0,0,1-1.509-.007c-.385-.052-.975-.324-.828-.674.45-1.071-.466-.751-.851-.971-.357-.345-1.1-.492-.829-1.186.245-.622.9-.47,1.416-.451a8.715,8.715,0,0,1,2.714.558c.139.052.391.282.439-.088.11-.853.55-.3.733-.126a9.932,9.932,0,0,1,1.908,2.736" transform="translate(-313.331 -137.107)" fill="#080934"/>
        <path id="Path_32538" data-name="Path 32538" d="M436.832,244.05a.293.293,0,0,1,.344-.256,58.4,58.4,0,0,1,1.748,9.108c.01.14.022.281.027.421.056,1.685-.053,1.845-1.634,2.292a56.3,56.3,0,0,0-8.467,3.341.616.616,0,0,1,.256-.534,61.054,61.054,0,0,1,8.177-3.155c1.331-.364,1.389-.4,1.326-1.783a43.247,43.247,0,0,0-1.776-9.433" transform="translate(-356.37 -202.591)" fill="#0d0954"/>
        <path id="Path_32539" data-name="Path 32539" d="M286.841,295.3l1.176,3.044-.253.067c-.484-1.106-.993-2.2-1.442-3.322a.722.722,0,0,0-.928-.546c-1.783.249-3.575.428-5.365.626-.2.022-.439.167-.615-.1.167-.323.485-.219.736-.25,1.536-.191,3.073-.365,4.61-.546,1.442-.17,1.442-.171,2.081,1.028" transform="translate(-232.192 -244.473)" fill="#0d0954"/>
        <path id="Path_32540" data-name="Path 32540" d="M299,355.2a12.155,12.155,0,0,1,0,2.081c-.649-.058-1.106-.533-1.672-.77a5.053,5.053,0,0,1-1-1.711,9.446,9.446,0,0,0,2.668.4" transform="translate(-246.252 -294.835)" fill="#dde7fd"/>
        <path id="Path_32541" data-name="Path 32541" d="M172.688,527.37c-.24.114-.223.366-.3.566-.055-.011-.132-.05-.161-.028-1.914,1.5-4.155,1.674-6.468,1.678-3.127.005-6.24-.265-9.358-.425a8.494,8.494,0,0,0-4.05.886c-.64.126-.84-.1-.887-.783q-.619-8.986-.832-17.99c-.014-.587-.07-1.174-.112-1.761-.017-.246.02-.533-.353-.556a12.871,12.871,0,0,1-4.362-2.265c-.843-.765-.586-1.606-.214-2.49.39-.927.716-1.881,1.07-2.823.358-.328.655-.725,1.248-.3.268.19.475-.046.345-.392-.059-.157-.163-.3-.02-.464.162-.042.257.073.368.155.13.1.244.287.428.2s.123-.288.1-.451-.2-.329.03-.435c.19-.089.285.115.419.207.173.119.35.342.587.133s.078-.438-.011-.623a2.779,2.779,0,0,0-.57-.917,1.185,1.185,0,0,1-.056-1.943c.222-.248.416-.521.622-.783,2.022-1.578,4.474-1.988,6.876-2.535l.409-.094a.384.384,0,0,0,.568-.19l.789-.035a6.67,6.67,0,0,0,5.89.094l3.913,1.961a2.543,2.543,0,0,0,.421.4,10.953,10.953,0,0,1,4.7,6.123c.645,1.788,1.109,3.631,1.786,5.4v.368l-2.053.874a17.686,17.686,0,0,1-2.26.179c-.546-.027-.723.308-.673.827.3,3.043.273,6.1.589,9.15a55.464,55.464,0,0,0,1.085,7.141,9.894,9.894,0,0,1,.5,1.946" transform="translate(-120.694 -409.602)" fill="#7e9bf1"/>
        <path id="Path_32542" data-name="Path 32542" d="M125.229,130.981c2.171-.639,2.62-1.371,2.231-3.652a7.035,7.035,0,0,0-1.512-3.255,11.824,11.824,0,0,1-.836-1.06c-.357-.567-.7-1.063-1.5-.921a1.112,1.112,0,0,1-.772-.3c-.589-.416-1.064-.949-.782-1.7a1.232,1.232,0,0,1,1.645-.654c.765.257,1-.078,1.314-.654a29.315,29.315,0,0,1,2.816-4.305A8.281,8.281,0,0,0,129.7,111c.89.421,1.761.734,2.627,1.063a8.164,8.164,0,0,1,3.492,3.089,2.656,2.656,0,0,1,.254,1.561l.2,2.411a14.937,14.937,0,0,1-.37,3.505,4.009,4.009,0,0,1-2.368,3.06.51.51,0,0,0-.368.639c.11.89.2,1.784.289,2.676a1.1,1.1,0,0,0,1.217,1.108c.529.01,1.057.089,1.586.137-.2,1.516-.407,3.032-.6,4.55a21.977,21.977,0,0,0-.46,3.839c-.314.372-.651.268-.994.046l.559-.076c-1.674-1.322-3.257-2.565-4.831-3.818s-3.246-2.4-4.705-3.8m8.489-8.871a5.171,5.171,0,0,0-2.692.5c-.037.016-.046.1-.068.146l-.733-.121-.034.112.769.4a1.546,1.546,0,0,0,1.786.756,1.364,1.364,0,0,0,1.12-1.473l.116-.343-.265.031m-1.966-4.482c-.256-.013-.262.184-.238.34a2.57,2.57,0,0,0,.382,1.257c.423.545.639,1.022-.287,1.262a.353.353,0,0,0-.2.238c-.023.119.088.187.212.2a.846.846,0,0,0,.882-.349c.188-.314.541-.643.191-1.05a3.616,3.616,0,0,1-.682-1.5c-.044-.167-.077-.326-.259-.4m1.964-2.621c-.14.01-.282.011-.42.032-.245.037-.587.041-.568.364.022.386.36.224.6.217a6.633,6.633,0,0,0,.756,0c.342-.05.876.532.972-.058.076-.468-.615-.414-1-.522a1.771,1.771,0,0,0-.336-.03m-7.174,2.917a1.791,1.791,0,0,0,.28-.172,2.859,2.859,0,0,1,1.325-.7c.176-.037.34-.11.309-.323-.041-.281-.269-.249-.46-.211a2.847,2.847,0,0,0-1.593.884c-.1.111-.167.238-.083.377.038.063.133.091.223.148m8.14-.416c-.047-.393-.247-.632-.649-.618a.586.586,0,0,0-.618.641.593.593,0,0,0,.645.619.615.615,0,0,0,.621-.642m-6.471.7a.579.579,0,0,0-.63.633.551.551,0,0,0,.566.606.568.568,0,0,0,.67-.586.576.576,0,0,0-.607-.653" transform="translate(-101.359 -92.236)" fill="#f79393"/>
        <path id="Path_32543" data-name="Path 32543" d="M209.854,410.011a6.667,6.667,0,0,1-5.89-.094A2.026,2.026,0,0,0,205,408.079c.142-1.592-.052-2.957-1.567-3.886a4.767,4.767,0,0,1-1.481-2.2.809.809,0,0,0-.734-.556,1.573,1.573,0,0,1-1.206-2.658,1.1,1.1,0,0,0,.078-.406c.145.079.141.329.351.325a2.628,2.628,0,0,1,1.669.465c.32.229.312-.187.382-.343a28.847,28.847,0,0,0,1.3-3.742c.175-.6-.094-1.49.489-1.765a4.776,4.776,0,0,1,2-.048,22.8,22.8,0,0,0,6.139-.194.485.485,0,0,1,.647.34c.3.653.587,1.309.881,1.963.051.87-.06,1.776.889,2.338a.7.7,0,0,1,.166,1.051,3.172,3.172,0,0,0-.615,2.269,9.259,9.259,0,0,1-1.135,3.291,12.587,12.587,0,0,1-3.757,1.515.971.971,0,0,0-.728.743,3.31,3.31,0,0,0,1.091,3.435m-2.735-7.635a3.88,3.88,0,0,0,1.825,1.351,2.162,2.162,0,0,0,3.07-1.732c.06-.334.053-.556-.4-.468-1.448.283-2.9.549-4.5.849m5.483-4.962a.6.6,0,0,0-.648-.611.651.651,0,1,0,.073,1.3.6.6,0,0,0,.575-.685m-7.569,1.072a.651.651,0,0,0,.606.691.616.616,0,0,0,.723-.629.6.6,0,0,0-.585-.678.657.657,0,0,0-.743.617M212,395.78a2.955,2.955,0,0,0,.294.049c.183.01.439.132.488-.149.046-.265-.207-.282-.4-.313a3.235,3.235,0,0,0-1.741.143c-.137.054-.273.148-.239.3.049.219.228.205.4.142a2.885,2.885,0,0,1,1.2-.172m-5.939.61a3.158,3.158,0,0,0-1.716.725c-.1.089-.208.212-.1.353s.243.1.368.01a3.121,3.121,0,0,1,1.607-.624c.147-.01.278-.1.254-.264-.033-.227-.233-.19-.417-.2m3.254,4.556c.431.306.726.011,1.019-.224.19-.153.327-.455.168-.593a3.939,3.939,0,0,1-1.2-1.782,1.613,1.613,0,0,0,.617,1.652c.419.339.163.491-.089.7-.146.121-.4-.035-.515.248" transform="translate(-165.873 -326.615)" fill="#f79393"/>
        <path id="Path_32544" data-name="Path 32544" d="M206.844,363.318c-.293-.654-.585-1.31-.88-1.963a.485.485,0,0,0-.647-.34,22.8,22.8,0,0,1-6.139.194,4.775,4.775,0,0,0-2,.048c-.583.275-.314,1.161-.489,1.765a28.845,28.845,0,0,1-1.3,3.742c-.07.156-.062.572-.382.343a2.627,2.627,0,0,0-1.669-.465c-.209,0-.206-.246-.351-.325a9.286,9.286,0,0,1-.832-5c.074-.569-.4-.673-.653-.974-.283-.335-.879-.729.095-.957.31-.073.184-.257.113-.45a8.909,8.909,0,0,1-.381-1.2c-.048-.219-.177-.533.136-.67a.674.674,0,0,1,.769.2,8.08,8.08,0,0,1,.586.8,8.039,8.039,0,0,1,6.908-3.6l1.365.038c2.036.226,4.083.263,6.127.356.871.04,1.062.375.659,1.173a3.7,3.7,0,0,1-1.788,1.416l1.365.3c1.049.534,1.146,1.173.292,2.039a3.13,3.13,0,0,1-.649.513.553.553,0,0,0-.24.775q-.01,1.118-.02,2.236" transform="translate(-158.775 -294.562)" fill="#080934"/>
        <path id="Path_32545" data-name="Path 32545" d="M133.5,229.251c1.459,1.4,3.127,2.549,4.705,3.8s3.157,2.5,4.831,3.818l-.559.076a38.943,38.943,0,0,1-7.019-2.043,9.089,9.089,0,0,1-2.517-1.508,2.246,2.246,0,0,1-.361-3.468c.111-.155.291-.275.26-.505l.66-.176" transform="translate(-109.634 -190.507)" fill="#fefefe"/>
        <path id="Path_32546" data-name="Path 32546" d="M284.218,369.766a.553.553,0,0,1,.24-.775,3.133,3.133,0,0,0,.649-.513c.853-.865.757-1.5-.292-2.039a6.025,6.025,0,0,0,2.4-1.52c.566.237,1.024.712,1.672.77a7.823,7.823,0,0,1-.08,1.919c-.089.447-.049.989.643,1.032l-1.117,2.32a27.669,27.669,0,0,0-4.112-1.194" transform="translate(-236.13 -303.246)" fill="#f79393"/>
        <path id="Path_32547" data-name="Path 32547" d="M200.2,233.171a22,22,0,0,1,.46-3.839c.189-1.518.4-3.033.6-4.549a1.332,1.332,0,0,1,.741.083c1.818,1.476,2.014,2.4.969,4.547a13.772,13.772,0,0,1-2.765,3.759" transform="translate(-166.359 -186.774)" fill="#fefefe"/>
        <path id="Path_32548" data-name="Path 32548" d="M234.335,293.269c2.512-3.626,2.222-5.194-1.569-8.55,1.61.9,3.059,1.932,3.283,3.988a4.542,4.542,0,0,1-1.715,4.562" transform="translate(-193.428 -236.6)" fill="#080934"/>
        <path id="Path_32549" data-name="Path 32549" d="M153.1,317.7a5.04,5.04,0,0,1-3.166,3.409c-1.971.6-3.62-.268-5.166-1.39,1.5.7,2.954,1.6,4.715,1.266,1.861-.355,2.757-1.791,3.616-3.285" transform="translate(-120.302 -264.005)" fill="#0d164a"/>
        <path id="Path_32550" data-name="Path 32550" d="M243,340.513l-1.365-.038q-.073-1.386-.145-2.772l.175-.075L243,340.513" transform="translate(-200.681 -280.568)" fill="#dde7fd"/>
        <path id="Path_32551" data-name="Path 32551" d="M217.928,492.88a.384.384,0,0,1-.568.19c.106-.313.339-.245.568-.19" transform="translate(-180.625 -409.542)" fill="#f79393"/>
        <path id="Path_32552" data-name="Path 32552" d="M415.641,638.9a35.692,35.692,0,0,1-11.969,1.147,25.821,25.821,0,0,1-7.71-1.418,3.316,3.316,0,0,0-.831-.082l2.361-14.168-1.075.722a21.77,21.77,0,0,0-3.953-1.593c-.286-.382-.138-.731.056-1.1a13.516,13.516,0,0,0,1.066-2.1l2.462-3.736c.671-.247,1-.927,1.654-1.24a26.96,26.96,0,0,1,5.351-1.886,1.108,1.108,0,0,0,.825.647,5.721,5.721,0,0,0,3.056-.1.976.976,0,0,0,.766-.9l2.063.2a17.811,17.811,0,0,1,3.078,1.323,26.286,26.286,0,0,1,3.626,2.974l.016.016c.045.18.1.351.315.4l.159.119c.02.128.06.242.206.275l.032.041.127.15.018.021a.384.384,0,0,0,.3.367.584.584,0,0,0,.372.485l.143.183-.01-.009a.3.3,0,0,0,.2.291l.022.031a.4.4,0,0,0,.281.391.145.145,0,0,0,.067.137.477.477,0,0,0,.307.445l.03.043a.4.4,0,0,0,.275.391.141.141,0,0,0,.063.134.49.49,0,0,0,.3.471l.128.213c.06.517.58.908.409,1.488a.331.331,0,0,0-.223.3l-.175.2-.147.076c-.167.037-.142.166-.137.285l-.047-.015-.048.006a27.182,27.182,0,0,1-3.332,3.032,1.307,1.307,0,0,1-1.8-.537c.058,1.313.17,2.51.329,3.7.362,2.721.559,5.463,1.054,8.166Z" transform="translate(-326.004 -509.485)" fill="#e35953"/>
        <path id="Path_32553" data-name="Path 32553" d="M296.912,602.219a9.9,9.9,0,0,0-.5-1.946,55.459,55.459,0,0,1-1.085-7.141c-.316-3.045-.293-6.107-.589-9.15-.05-.519.127-.854.673-.827a17.631,17.631,0,0,0,2.26-.18c.124,2.16.266,4.319.367,6.48.11,2.359.429,4.7.76,7.03a4.837,4.837,0,0,0,.5,2.323c-.1,2.1,1.169,3.336,2.742,4.392a8.6,8.6,0,0,1,1.969,1.7c.132.164.342.364.207.59-.119.2-.366.021-.553.059a.17.17,0,0,0-.208-.133l-.083-.086c0,.02,0,.05.007.059a.24.24,0,0,0,.074.029l.153.183a1.219,1.219,0,0,0,.079.232c.184.32.664.633.368,1s-.581-.281-.936-.233a.258.258,0,0,0-.346-.16.207.207,0,0,0-.008-.062c-.005-.011-.026-.016-.04-.023l.056.078a.268.268,0,0,0,.331.175c-.11.451.714.766.35,1.068-.385.32-.825-.29-1.275-.394a.441.441,0,0,0-.084,0,.238.238,0,0,0-.036-.067c-.01-.01-.037,0-.055,0l.094.066c-.057.364.293.519.411.794.084.194.317.374.068.591a.464.464,0,0,1-.621-.055c-.575-.448-1.125-.929-1.69-1.389a4.161,4.161,0,0,0-.419-.269c-.112-.078-.235-.233-.332-.218-.19.029-.1.223-.087.347.066.479.385,1.187-.206,1.322-.655.149-.642-.683-.839-1.135a16.7,16.7,0,0,1-1.222-4.522,1.825,1.825,0,0,0-.255-.518" transform="translate(-244.918 -484.451)" fill="#f79393"/>
        <path id="Path_32554" data-name="Path 32554" d="M382.129,674.694a21.775,21.775,0,0,1,3.953,1.593,40.145,40.145,0,0,0-2.668,7.689c-.533,2.231-.83,4.391.734,6.36a.247.247,0,0,1,.026.08,1.614,1.614,0,0,1-.338.847c-.069-.236-.216-.446-.466-.37-.2.061-.181.324-.187.521-.009.28-.011.56-.015.841a6.286,6.286,0,0,1-.879,1.871c0-.39,0-.781,0-1.191-.328.142-.19.595-.531.725-.331-.2-.209-.593-.349-.9-.222.23-.095.8-.46.745-.418-.067-.261-.611-.417-.987-.283.28-.573.6-.635-.141a11.891,11.891,0,0,1,.434-3.912,6.031,6.031,0,0,0,.171-1.581,42.214,42.214,0,0,1,.8-9.635,12.189,12.189,0,0,1,.83-2.554" transform="translate(-315.668 -560.668)" fill="#f79393"/>
        <path id="Path_32555" data-name="Path 32555" d="M393.556,789.59l-.143.184.143-.184" transform="translate(-326.925 -656.146)" fill="#f79393"/>
        <path id="Path_32556" data-name="Path 32556" d="M533.183,683.726a27.131,27.131,0,0,0,3.332-3.032,41.856,41.856,0,0,1,2.606,6.64.424.424,0,0,0,.1.594q.216,1.04.433,2.078a22.744,22.744,0,0,0,1.6,5.7,8.885,8.885,0,0,1,.334,1.815c.118.716-.611.99-1.006,1.323-.308.259-.89.29-1.273.6-.415.338-.588-.046-.682-.292a11.523,11.523,0,0,1-.487-1.688c-.117-.542-.314-.692-.781-.306-.161.133-.367.322-.6.131-.263-.218-.077-.455.009-.687.32-.866.629-1.735.952-2.6.175-.468-.067-.879-.147-1.313a4.3,4.3,0,0,0-.681-1.889c.032-.191.083-.387-.164-.483a1.434,1.434,0,0,0-.257-.867,36.447,36.447,0,0,0-3.295-5.729" transform="translate(-443.073 -565.654)" fill="#f79393"/>
        <path id="Path_32557" data-name="Path 32557" d="M535.624,740.52a4.3,4.3,0,0,1,.681,1.889c-.454,0-.545.446-.78.687a26.735,26.735,0,0,0-2.393,3.18,1.172,1.172,0,0,0-.2.712,8.1,8.1,0,0,1-1.282-1.837c.341-.077.458-.394.649-.623,1.114-1.331,2.219-2.671,3.326-4.008" transform="translate(-441.797 -615.369)" fill="#7f9af0"/>
        <path id="Path_32558" data-name="Path 32558" d="M539.413,779.007l-.147-.2.147.2" transform="translate(-448.128 -647.19)" fill="#7f9af0"/>
        <path id="Path_32559" data-name="Path 32559" d="M637.8,317.4c.013.023.035.046.034.068s-.029.04-.045.06l.011-.128" transform="translate(-530.003 -263.756)" fill="#dde7fd"/>
        <path id="Path_32560" data-name="Path 32560" d="M205.594,146.893l-.2-2.411c.478-.094.945-.166,1.227.385a1.212,1.212,0,0,1-.251,1.4,1.714,1.714,0,0,1-.777.626" transform="translate(-170.682 -120.01)" fill="#f87369"/>
        <path id="Path_32561" data-name="Path 32561" d="M555.492,668.37c.171-.581-.349-.971-.409-1.488.435.414,1.03.784.409,1.488" transform="translate(-461.272 -554.176)" fill="#bed1f8"/>
        <path id="Path_32562" data-name="Path 32562" d="M552.866,663.305a.49.49,0,0,1-.3-.471c.314.022.289.257.3.471" transform="translate(-459.182 -550.812)" fill="#bed1f8"/>
        <path id="Path_32563" data-name="Path 32563" d="M548.879,657.282a.477.477,0,0,1-.307-.445c.3.012.284.242.307.445" transform="translate(-455.861 -545.829)" fill="#bed1f8"/>
        <path id="Path_32564" data-name="Path 32564" d="M535.69,640.2c-.214-.045-.27-.217-.315-.4.269,0,.333.167.315.4" transform="translate(-444.894 -531.677)" fill="#bed1f8"/>
        <path id="Path_32565" data-name="Path 32565" d="M550.839,660.116a.4.4,0,0,1-.275-.392.305.305,0,0,1,.275.392" transform="translate(-457.516 -548.228)" fill="#bed1f8"/>
        <path id="Path_32566" data-name="Path 32566" d="M546.794,654.107a.4.4,0,0,1-.281-.391.307.307,0,0,1,.281.391" transform="translate(-454.15 -543.235)" fill="#bed1f8"/>
        <path id="Path_32567" data-name="Path 32567" d="M540.742,646.1a.384.384,0,0,1-.3-.367.3.3,0,0,1,.3.367" transform="translate(-449.106 -536.605)" fill="#bed1f8"/>
        <path id="Path_32568" data-name="Path 32568" d="M538.381,643.137c-.147-.033-.186-.147-.206-.275.142.036.181.151.206.275" transform="translate(-447.221 -534.216)" fill="#bed1f8"/>
        <path id="Path_32569" data-name="Path 32569" d="M553.441,679.344c0-.119-.029-.248.137-.285l-.137.285" transform="translate(-459.904 -564.295)" fill="#bed1f8"/>
        <path id="Path_32570" data-name="Path 32570" d="M545.4,652.1a.3.3,0,0,1-.2-.291c.143.044.18.162.2.291" transform="translate(-453.062 -541.652)" fill="#bed1f8"/>
        <path id="Path_32571" data-name="Path 32571" d="M544.557,650.964l-.144-.183.144.183" transform="translate(-452.405 -540.796)" fill="#bed1f8"/>
        <path id="Path_32572" data-name="Path 32572" d="M539.71,644.879l-.127-.15.127.15" transform="translate(-448.391 -535.767)" fill="#bed1f8"/>
        <path id="Path_32573" data-name="Path 32573" d="M555.145,677.645l.175-.2-.175.2" transform="translate(-461.323 -562.957)" fill="#bed1f8"/>
        <path id="Path_32574" data-name="Path 32574" d="M333.051,338.1a14.583,14.583,0,0,0,.562-2.944c.316-1.211.621-2.426,1-3.617a2.588,2.588,0,0,1,2.074-1.628c.55-.138.737-.357.367-.854-.034-.045-.089-.086-.1-.135-.068-.378-.51-.8-.053-1.126.418-.3.71.119.989.388.521.5,1,1.083,1.822,1.073.4.823,1.229,1.006,1.982,1.3.071.323-.215.5-.314.759a7.054,7.054,0,0,0-.7,3.482c.184,1.525-.182,3.086.2,4.61-.556.058-.454-.357-.458-.664-.019-1.234-.051-2.468-.018-3.7.016-.6-.1-.773-.745-.641a12.83,12.83,0,0,1-4.753.033c-.61-.1-1-.045-1.016.753-.017.861-.209,1.717-.309,2.577a.5.5,0,0,1-.316.45l-.216-.116" transform="translate(-276.764 -272.314)" fill="#f79393"/>
        <path id="Path_32575" data-name="Path 32575" d="M312.266,387.333l.216.116c.225,1.688.225,1.688-1.45,2.15-.317.088-.633.182-.949.273-.384.086-.765.187-1.152.255-1,.174-1.005.163-.752-.87l1.118-2.32,2.969.4" transform="translate(-255.979 -321.542)" fill="#0d0954"/>
        <path id="Path_32576" data-name="Path 32576" d="M375.243,397.318l.287-.1,3.172.149.095.143c.257,1.409.26,1.42-1.116,1.816-.837.241-1.679.475-2.531.654s-1,0-.7-.8c.236-.631.525-1.242.791-1.862" transform="translate(-311.051 -330.086)" fill="#0d0954"/>
        <path id="Path_32577" data-name="Path 32577" d="M142.415,574.483a12.871,12.871,0,0,0,4.362,2.265q-.83,5.129-1.367,10.3c-.261,2.507-.443,5.015-.534,7.537A7.466,7.466,0,0,0,146,598.8a17.571,17.571,0,0,1,1.228,3.214c.08.225.16.524-.125.678s-.457-.075-.61-.287c-.226-.314-.461-.623-.778-1.05-.22.958-.437,1.808-.6,2.667-.071.364-.068.865-.508.822s-.349-.556-.359-.912c0-.167,0-.334,0-.571-.424.317-.434.77-.624,1.125-.08.149-.166.311-.38.242-.164-.053-.173-.207-.175-.347a5.191,5.191,0,0,0-.115-1.284c-.085.328-.167.657-.256.984-.058.212-.2.359-.423.325-.208-.032-.21-.225-.228-.4a3.017,3.017,0,0,0-.121-1.2c-.3.154-.236.608-.664.658a4.478,4.478,0,0,1,.156-2.423c1.006-2.528.483-5.076.192-7.626a3.608,3.608,0,0,1-.061-.415c.013-2.5-.329-4.994-.163-7.493a76.136,76.136,0,0,1,.972-10.18,6.407,6.407,0,0,0,.062-.84" transform="translate(-117.306 -477.393)" fill="#fa9392"/>
        <path id="Path_32578" data-name="Path 32578" d="M110.568,738.4a1.842,1.842,0,0,1,.091-1.495,1.5,1.5,0,0,1-.091,1.495" transform="translate(-91.788 -612.363)" fill="#f79393"/>
        <path id="Path_32579" data-name="Path 32579" d="M179.683,782.688a4.546,4.546,0,0,1-1.355.036,1.563,1.563,0,0,1,1.355-.036" transform="translate(-148.19 -650.297)" fill="#f79393"/>
        <path id="Path_32580" data-name="Path 32580" d="M441.01,528.539a5.763,5.763,0,0,1-1.44.749c-.539-.036-1.082-.079-1.217.645-.253.252-.647.383-.695.812a3.829,3.829,0,0,0-1.984,4.8.976.976,0,0,1-.766.9,5.723,5.723,0,0,1-3.056.1,1.107,1.107,0,0,1-.824-.647,7.434,7.434,0,0,0,.257-2.082.94.94,0,0,0-.665-.971,7.671,7.671,0,0,1-3.747-2.29,8.623,8.623,0,0,1-.9-4.266,6.409,6.409,0,0,0,.249-1.555.336.336,0,0,1,.116-.074.422.422,0,0,0,.034-.114c.273-2.052,1.222-3.52,3.381-3.983a7.26,7.26,0,0,0,1.6-.52c1.323-.633,2.313-.049,3.266.788a7.767,7.767,0,0,1,1.993,2.885c.263.619.6,1.209.919,1.8a4.476,4.476,0,0,0,.758,1.208c.437.4.782-.251,1.224-.293a1.66,1.66,0,0,1,1.49.36,1.121,1.121,0,0,1,.092,1.337,2.016,2.016,0,0,0-.086.409m-7.362.938c-.718-.078-1.319-.17-1.924-.2a15.026,15.026,0,0,1-1.893-.37c-.234-.043-.528-.3-.7-.049s.083.531.246.752c.96,1.3,2.862,1.283,4.268-.131m-5.313-2.961c.394-.051.7-.239.709-.676a.711.711,0,1,0-1.422-.027c-.012.418.287.645.714.7m7.373.027a.65.65,0,0,0-.677-.679.693.693,0,1,0,0,1.385c.438,0,.647-.266.681-.707m.775-1.3a1.427,1.427,0,0,0-.078-.15,2.877,2.877,0,0,0-1.792-.511.371.371,0,0,0-.174.245c-.018.176.135.221.277.238a3.46,3.46,0,0,1,1.353.383c.2.115.375.062.414-.2m-7.712-1.355a3.1,3.1,0,0,0-1.344.364c-.127.082-.22.214-.131.349a.339.339,0,0,0,.3.072,4.646,4.646,0,0,1,1.234-.242c.211,0,.525.029.506-.284-.018-.293-.324-.238-.566-.26" transform="translate(-353.976 -431.933)" fill="#f79393"/>
        <path id="Path_32581" data-name="Path 32581" d="M413.691,583.565a7.674,7.674,0,0,0,3.747,2.291.939.939,0,0,1,.665.971,7.43,7.43,0,0,1-.257,2.081,26.934,26.934,0,0,0-5.351,1.886c-.655.313-.983.993-1.654,1.24l-.736-3.991a3.068,3.068,0,0,0,1.6-2.741c.022-1.056.586-1.477,1.988-1.736" transform="translate(-340.795 -484.94)" fill="#355db2"/>
        <path id="Path_32582" data-name="Path 32582" d="M422.526,548.219a6.418,6.418,0,0,1-.249,1.555,1.236,1.236,0,0,1-.691-.682.79.79,0,0,1,.139-.855c.258-.313.529-.216.8-.018" transform="translate(-350.28 -455.416)" fill="#f87369"/>
        <path id="Path_32583" data-name="Path 32583" d="M428.119,548.008a.433.433,0,0,1-.034.114.071.071,0,0,1,.034-.114" transform="translate(-355.724 -455.393)" fill="#f87369"/>
        <path id="Path_32584" data-name="Path 32584" d="M425.807,65.981a2.359,2.359,0,0,1,1.938,1c.194.274.31.583-.015.812-.283.2-.516.038-.7-.234a1.4,1.4,0,0,0-1.626-.584c-.372.088-.781.225-.867-.3-.073-.446.356-.5.68-.585.217-.055.441-.082.588-.109" transform="translate(-352.783 -54.83)" fill="#080934"/>
        <path id="Path_32585" data-name="Path 32585" d="M385.653,55.6a2.252,2.252,0,0,1,2.019,1.078c.165.256.2.543-.1.736-.278.176-.481.012-.634-.213a1.4,1.4,0,0,0-1.753-.605c-.312.1-.652.142-.759-.261s.216-.536.529-.613c.271-.066.55-.1.7-.121" transform="translate(-319.436 -46.202)" fill="#080934"/>
        <path id="Path_32586" data-name="Path 32586" d="M388.535,68.76c-.55-.009-.848-.247-.875-.7a.686.686,0,0,1,.7-.78.678.678,0,0,1,.779.69.717.717,0,0,1-.6.789" transform="translate(-322.143 -55.909)" fill="#080934"/>
        <path id="Path_32587" data-name="Path 32587" d="M427.12,79.308a.711.711,0,0,1-.778.706.738.738,0,1,1,.063-1.475.714.714,0,0,1,.715.769" transform="translate(-353.701 -65.265)" fill="#080934"/>
        <path id="Path_32588" data-name="Path 32588" d="M400.308,79.608a1.077,1.077,0,0,1-1.62-.069.69.69,0,0,1,.047-1.2,6.67,6.67,0,0,0,1.323-2,2.544,2.544,0,0,1-.774,1.961c-.215.23-.74.381-.445.856a.913.913,0,0,0,1.166.41c.109-.039.213-.067.3.036" transform="translate(-331.038 -63.442)" fill="#f87369"/>
        <path id="Path_32589" data-name="Path 32589" d="M390.771,104.174a5.733,5.733,0,0,0,3.3.771,2.762,2.762,0,0,1-3.3-.771" transform="translate(-324.729 -86.568)" fill="#080934"/>
        <path id="Path_32590" data-name="Path 32590" d="M.2,802.26c.021.069.081.175.056.2-.1.1-.183.023-.257-.055l.2-.146" transform="translate(0 -666.675)" fill="#93b5f8"/>
        <path id="Path_32591" data-name="Path 32591" d="M637.631,802.511c-.065.026-.161.092-.188.07-.107-.084-.031-.168.037-.243l.151.173" transform="translate(-529.669 -666.74)" fill="#93b5f8"/>
        <path id="Path_32592" data-name="Path 32592" d="M636.684,640.423l-.207.038c.011-.061.022-.122.032-.184l.175.146" transform="translate(-528.91 -532.068)" fill="#7d9af1"/>
        <path id="Path_32593" data-name="Path 32593" d="M245.643,736.71l-4.167.028a72.938,72.938,0,0,1,.651-7.557c.136-.839.208-1.932,1.341-1.958,1.049-.024,1.134,1.039,1.322,1.8a35.124,35.124,0,0,1,.854,7.693" transform="translate(-200.666 -604.318)" fill="#f87369"/>
        <path id="Path_32594" data-name="Path 32594" d="M204.065,932.705a.484.484,0,0,1-.667-.015,1.114,1.114,0,0,1,.667.015" transform="translate(-169.023 -775.026)" fill="#bed1f8"/>
        <path id="Path_32595" data-name="Path 32595" d="M399.391,771.823c0-.28.007-.561.015-.841.006-.2-.011-.46.188-.52.25-.076.4.134.466.37a2.693,2.693,0,0,1-.669.991" transform="translate(-331.892 -640.238)" fill="#dde7fd"/>
        <path id="Path_32596" data-name="Path 32596" d="M437.917,245.313a43.247,43.247,0,0,1,1.776,9.433c.063,1.38.005,1.42-1.326,1.783a61.066,61.066,0,0,0-8.177,3.155c-.155-.927.219-1.83.12-2.754.507-.055.415-.442.409-.764a37.231,37.231,0,0,0-.174-4.194c-.1-.753.089-1.219.915-1.375.329-.062.818-.072.887-.6a7.035,7.035,0,0,0,3.247-3.12,3.423,3.423,0,0,1,2.323-1.566" transform="translate(-357.455 -203.854)" fill="#7f9af0"/>
        <path id="Path_32597" data-name="Path 32597" d="M374.463,337.543c-.752-.294-1.577-.477-1.982-1.3.246-.031.492-.058.738-.094,1.28-.189,1.561.125,1.244,1.394" transform="translate(-309.53 -279.296)" fill="#7f9af0"/>
        <path id="Path_32598" data-name="Path 32598" d="M384.7,396.859l-3.172-.149a7.267,7.267,0,0,1,3.172.149" transform="translate(-317.044 -329.578)" fill="#f79393"/>
        <path id="Path_32599" data-name="Path 32599" d="M383.251,313.432c.067-.075.13-.072.19.009l-.19-.009" transform="translate(-318.48 -260.415)" fill="#f79393"/>
        <path id="Path_32600" data-name="Path 32600" d="M378.657,217.04c-1.231.82-2.385.637-3.043-.372-.139-.212-.3-.457-.1-.681.164-.178.365.016.526.1a12.025,12.025,0,0,0,2.614.951" transform="translate(-311.973 -179.424)" fill="#fefefe"/>
        <path id="Path_32601" data-name="Path 32601" d="M373.309,199.826c-.038.324-.216.537-.539.517a.478.478,0,0,1-.485-.557.471.471,0,0,1,.487-.473.5.5,0,0,1,.537.513" transform="translate(-309.366 -165.628)" fill="#080934"/>
        <path id="Path_32602" data-name="Path 32602" d="M401.008,209.28c-.081.306-.229.531-.573.5a.476.476,0,0,1-.464-.575.458.458,0,0,1,.5-.452c.339.011.481.229.533.525" transform="translate(-332.371 -173.474)" fill="#080934"/>
        <path id="Path_32603" data-name="Path 32603" d="M403.593,203.829c-.32-.191-.563-.316-.782-.475-.189-.136-.717-.038-.5-.447.143-.266.508.015.739.14.249.135.586.227.541.781" transform="translate(-334.277 -168.523)" fill="#0d164a"/>
        <path id="Path_32604" data-name="Path 32604" d="M372.159,194.956c.648-.528.919-.517,1.514-.1a.686.686,0,0,1-.214.091c-.433.008-.866,0-1.3,0" transform="translate(-309.263 -161.672)" fill="#080934"/>
        <path id="Path_32605" data-name="Path 32605" d="M257.612,459.779a22.283,22.283,0,0,1,.52,7.653l-3.913-1.96a3.311,3.311,0,0,1-1.092-3.435.971.971,0,0,1,.728-.743,12.588,12.588,0,0,0,3.757-1.515" transform="translate(-210.237 -382.074)" fill="#f87369"/>
        <path id="Path_32606" data-name="Path 32606" d="M178.132,150.236c.181.072.214.231.258.4a3.617,3.617,0,0,0,.682,1.5c.349.408,0,.737-.191,1.05a.846.846,0,0,1-.882.349c-.124-.013-.235-.08-.212-.2a.354.354,0,0,1,.2-.238c.925-.239.709-.717.287-1.262a2.57,2.57,0,0,1-.382-1.257c-.024-.156-.018-.352.24-.34" transform="translate(-147.737 -124.845)" fill="#f87369"/>
        <path id="Path_32607" data-name="Path 32607" d="M178.065,178.6a1.364,1.364,0,0,1-1.12,1.473,1.546,1.546,0,0,1-1.785-.756c.972-.007,2.017.281,2.747-.688l-.011.011.17-.04" transform="translate(-145.556 -148.418)" fill="#e35953"/>
        <path id="Path_32608" data-name="Path 32608" d="M186.594,134.726a1.8,1.8,0,0,1,.335.03c.384.107,1.075.053,1,.522-.1.591-.63.008-.972.058a6.636,6.636,0,0,1-.756,0c-.235.007-.573.169-.6-.217-.019-.323.323-.327.568-.364.139-.021.28-.022.421-.033" transform="translate(-154.237 -111.957)" fill="#0d164a"/>
        <path id="Path_32609" data-name="Path 32609" d="M175.143,177.27c.022-.05.031-.13.068-.146a5.168,5.168,0,0,1,2.691-.5l-.021.352.012-.011c-.888.359-1.762.852-2.75.3" transform="translate(-145.543 -146.755)" fill="#e35953"/>
        <path id="Path_32610" data-name="Path 32610" d="M147.725,144.939c-.089-.057-.184-.085-.223-.148-.085-.139-.018-.266.083-.377a2.847,2.847,0,0,1,1.593-.884c.191-.039.418-.071.46.211.031.214-.133.286-.309.323a2.859,2.859,0,0,0-1.325.7,1.8,1.8,0,0,1-.28.172" transform="translate(-122.541 -119.253)" fill="#0d164a"/>
        <path id="Path_32611" data-name="Path 32611" d="M190.942,146.484a.614.614,0,0,1-.621.642.593.593,0,0,1-.645-.619.586.586,0,0,1,.618-.641c.4-.015.6.225.649.618" transform="translate(-157.619 -121.213)" fill="#080934"/>
        <path id="Path_32612" data-name="Path 32612" d="M155.788,153.643a.576.576,0,0,1,.607.653.568.568,0,0,1-.67.586.551.551,0,0,1-.566-.606.579.579,0,0,1,.63-.633" transform="translate(-128.936 -127.677)" fill="#080934"/>
        <path id="Path_32613" data-name="Path 32613" d="M171.373,179.078c.988.551,1.862.059,2.75-.3-.73.969-1.775.681-2.747.688l-.769-.4.034-.112.733.121" transform="translate(-141.773 -148.563)" fill="#080934"/>
        <path id="Path_32614" data-name="Path 32614" d="M191.346,176.958q.011-.176.021-.352l.265-.031-.116.343-.17.04" transform="translate(-159.008 -146.733)" fill="#080934"/>
        <path id="Path_32615" data-name="Path 32615" d="M244.052,444.013c1.6-.3,3.049-.566,4.5-.849.452-.088.459.134.4.468a2.162,2.162,0,0,1-3.07,1.732,3.88,3.88,0,0,1-1.825-1.351" transform="translate(-202.806 -368.251)" fill="#fefefe"/>
        <path id="Path_32616" data-name="Path 32616" d="M270.027,415.918a.6.6,0,0,1-.575.685.651.651,0,1,1-.073-1.3.6.6,0,0,1,.648.611" transform="translate(-223.298 -345.118)" fill="#080934"/>
        <path id="Path_32617" data-name="Path 32617" d="M231.713,422.217a.657.657,0,0,1,.743-.617.594.594,0,0,1,.585.678.616.616,0,0,1-.723.629.651.651,0,0,1-.605-.691" transform="translate(-192.553 -350.345)" fill="#080934"/>
        <path id="Path_32618" data-name="Path 32618" d="M265.033,406.945a2.886,2.886,0,0,0-1.2.172c-.174.063-.353.077-.4-.142-.034-.153.1-.247.239-.3a3.234,3.234,0,0,1,1.741-.143c.193.031.446.048.4.313-.049.281-.305.16-.488.149a2.857,2.857,0,0,1-.294-.049" transform="translate(-218.908 -337.78)" fill="#080934"/>
        <path id="Path_32619" data-name="Path 32619" d="M228.63,412.86c.184.009.384-.027.417.2.024.164-.107.254-.254.264a3.121,3.121,0,0,0-1.607.624c-.125.089-.264.121-.368-.01s-.009-.263.1-.353a3.158,3.158,0,0,1,1.716-.725" transform="translate(-188.445 -343.085)" fill="#080934"/>
        <path id="Path_32620" data-name="Path 32620" d="M256.793,427.04c.113-.283.37-.127.515-.248.251-.208.508-.36.089-.7a1.613,1.613,0,0,1-.617-1.652,3.94,3.94,0,0,0,1.2,1.782c.159.138.022.44-.168.593-.293.235-.588.53-1.019.224" transform="translate(-213.353 -352.71)" fill="#f87369"/>
        <path id="Path_32621" data-name="Path 32621" d="M482.24,589.476a3.829,3.829,0,0,1,1.984-4.8l.078,5.005-2.062-.2" transform="translate(-400.542 -485.86)" fill="#355db2"/>
        <path id="Path_32622" data-name="Path 32622" d="M342.31,721.716a.258.258,0,0,1,.346.16l-.006.008a.268.268,0,0,1-.331-.175Z" transform="translate(-284.458 -599.731)" fill="#355db2"/>
        <path id="Path_32623" data-name="Path 32623" d="M345.952,715.311a.236.236,0,0,1-.074-.029c-.011-.009-.005-.039-.007-.059l.083.086Z" transform="translate(-287.417 -594.347)" fill="#355db2"/>
        <path id="Path_32624" data-name="Path 32624" d="M342.084,721.359l-.056-.078c.014.008.035.012.04.023a.213.213,0,0,1,.008.062l.009-.008" transform="translate(-284.224 -599.382)" fill="#355db2"/>
        <path id="Path_32625" data-name="Path 32625" d="M337.9,726.388l-.094-.066c.019,0,.046-.008.055,0a.241.241,0,0,1,.036.067Z" transform="translate(-280.719 -603.568)" fill="#355db2"/>
        <path id="Path_32626" data-name="Path 32626" d="M346.5,715.9l-.153-.183,0,0a.17.17,0,0,1,.208.133l-.057.053" transform="translate(-287.815 -594.755)" fill="#355db2"/>
        <path id="Path_32627" data-name="Path 32627" d="M499.26,576.614c.135-.724.678-.682,1.217-.645a2.446,2.446,0,0,1-1.217.645" transform="translate(-414.883 -478.614)" fill="#0d164a"/>
        <path id="Path_32628" data-name="Path 32628" d="M448.956,573.574c-1.406,1.414-3.307,1.435-4.268.131-.163-.221-.414-.5-.245-.752s.462.006.7.049a15.026,15.026,0,0,0,1.893.37c.6.032,1.206.124,1.924.2" transform="translate(-369.284 -476.03)" fill="#fefefe"/>
        <path id="Path_32629" data-name="Path 32629" d="M436.472,552.688c-.427-.058-.725-.285-.714-.7a.711.711,0,1,1,1.422.027c-.013.438-.315.625-.709.676" transform="translate(-362.113 -458.105)" fill="#0d164a"/>
        <path id="Path_32630" data-name="Path 32630" d="M476.737,556.473c-.034.44-.242.708-.681.707a.693.693,0,1,1,.681-.707" transform="translate(-395.005 -461.863)" fill="#080934"/>
        <path id="Path_32631" data-name="Path 32631" d="M478.143,548.7c-.038.267-.213.32-.414.2a3.461,3.461,0,0,0-1.353-.383c-.142-.017-.295-.062-.277-.237a.37.37,0,0,1,.174-.245,2.876,2.876,0,0,1,1.792.511,1.453,1.453,0,0,1,.078.15" transform="translate(-395.636 -455.397)" fill="#0d164a"/>
        <path id="Path_32632" data-name="Path 32632" d="M435.142,544.087c.242.022.548-.032.566.26.019.313-.3.282-.506.284a4.644,4.644,0,0,0-1.234.242.339.339,0,0,1-.3-.072c-.089-.136,0-.268.131-.349a3.1,3.1,0,0,1,1.344-.364" transform="translate(-360.347 -452.134)" fill="#0d164a"/>
      </g>
    </g>
  </g>
</svg>
