<svg xmlns="http://www.w3.org/2000/svg" width="30" height="30" viewBox="0 0 30 30">
  <g id="chat-support-11844" transform="translate(126.036 126.036)">
    <g id="Group_27205" data-name="Group 27205" transform="translate(-126.036 -126.036)">
      <path id="Path_19901" data-name="Path 19901" d="M12.457,42.737A12.454,12.454,0,0,0,2.241,62.318L0,67.651,5.333,65.41a12.456,12.456,0,1,0,7.124-22.673Z" transform="translate(0 -37.651)" fill="#fff"/>
      <path id="Path_19902" data-name="Path 19902" d="M55.192,0A12.454,12.454,0,0,1,65.408,19.581l2.241,5.332-5.333-2.241A12.456,12.456,0,1,1,55.192,0Z" transform="translate(-37.649)" fill="#005988"/>
      <path id="Path_19903" data-name="Path 19903" d="M112.45,48.668a1,1,0,0,1-1-1V46.006a1,1,0,0,1,.313-.727l2.651-2.5a2.707,2.707,0,0,0,.757-1.884v-.1a2.722,2.722,0,0,0-2.794-2.721,2.782,2.782,0,0,0-2.649,2.8,1,1,0,1,1-2,0,4.8,4.8,0,0,1,4.6-4.8,4.721,4.721,0,0,1,4.846,4.72v.1a4.7,4.7,0,0,1-1.338,3.293l-.03.03-2.354,2.223v1.231A1,1,0,0,1,112.45,48.668Z" transform="translate(-94.906 -31.778)" fill="#fff"/>
      <path id="Path_19904" data-name="Path 19904" d="M138.77,157.5a1.046,1.046,0,0,1-.227-.023.989.989,0,0,1-.22-.067.975.975,0,0,1-.2-.107,1.228,1.228,0,0,1-.176-.143,1.167,1.167,0,0,1,0-1.65,1.2,1.2,0,0,1,1.65,0,1.165,1.165,0,0,1-.823,1.99Z" transform="translate(-121.227 -136.716)" fill="#fff"/>
    </g>
  </g>
</svg>
