<svg xmlns="http://www.w3.org/2000/svg" width="30.667" height="30.667" viewBox="0 0 30.667 30.667">
  <g id="Search" transform="translate(-2 -2)">
    <path id="Path_32017" data-name="Path 32017" d="M22.384,23.515a1.131,1.131,0,0,1-.8-.328L19.4,21A1.135,1.135,0,1,1,21,19.4l2.182,2.182a1.131,1.131,0,0,1-.8,1.934Z" transform="translate(2.232 2.232)" fill="#ce2525"/>
    <path id="Path_32018" data-name="Path 32018" d="M14.439,26.878A12.439,12.439,0,1,1,26.878,14.439,12.439,12.439,0,0,1,14.439,26.878Zm0-22.616A10.177,10.177,0,1,0,24.616,14.439,10.177,10.177,0,0,0,14.439,4.262Z" transform="translate(0 0)" fill="#fff"/>
    <path id="Path_32019" data-name="Path 32019" d="M29.285,24.287l-3.958-3.958a1.131,1.131,0,0,0-1.606,0l-3.392,3.392a1.131,1.131,0,0,0,0,1.606l3.958,3.958a3.534,3.534,0,0,0,5-5Z" transform="translate(2.354 2.354)" fill="#ce2525"/>
  </g>
</svg>
