<svg xmlns="http://www.w3.org/2000/svg" width="30.64" height="30" viewBox="0 0 30.64 30">
  <g id="calendar-11024" transform="translate(179 125.768)">
    <g id="Group_27203" data-name="Group 27203" transform="translate(-179 -125.768)">
      <path id="Path_19889" data-name="Path 19889" d="M25.383,26.86h2.334a2.924,2.924,0,0,1,2.924,2.924v3.236H0V29.784A2.924,2.924,0,0,1,2.924,26.86H25.383Z" transform="translate(0 -23.915)" fill="#ce2525"/>
      <path id="Path_19890" data-name="Path 19890" d="M2.924,98.43H27.716a2.924,2.924,0,0,0,2.924-2.924V77.535H0V95.506A2.924,2.924,0,0,0,2.924,98.43Z" transform="translate(0 -68.43)" fill="#e5e5e5"/>
      <path id="Path_19891" data-name="Path 19891" d="M42.864,119.169H41.127a.953.953,0,0,1-.953-.953V116.48a.953.953,0,0,1,.953-.953h1.737a.953.953,0,0,1,.953.953v1.737A.953.953,0,0,1,42.864,119.169Z" transform="translate(-35.291 -101.805)" fill="#727eaf"/>
      <path id="Path_19892" data-name="Path 19892" d="M113.744,119.169h-1.737a.953.953,0,0,1-.953-.953V116.48a.953.953,0,0,1,.953-.953h1.737a.953.953,0,0,1,.953.953v1.737A.952.952,0,0,1,113.744,119.169Z" transform="translate(-97.556 -101.805)" fill="#727eaf"/>
      <path id="Path_19893" data-name="Path 19893" d="M184.627,119.169H182.89a.953.953,0,0,1-.953-.953V116.48a.953.953,0,0,1,.953-.953h1.737a.953.953,0,0,1,.953.953v1.737A.953.953,0,0,1,184.627,119.169Z" transform="translate(-159.822 -101.805)" fill="#727eaf"/>
      <path id="Path_19894" data-name="Path 19894" d="M42.864,180.8H41.127a.953.953,0,0,1-.953-.953v-1.737a.953.953,0,0,1,.953-.953h1.737a.953.953,0,0,1,.953.953v1.737A.953.953,0,0,1,42.864,180.8Z" transform="translate(-35.291 -155.947)" fill="#727eaf"/>
      <path id="Path_19895" data-name="Path 19895" d="M113.744,180.8h-1.737a.953.953,0,0,1-.953-.953v-1.737a.953.953,0,0,1,.953-.953h1.737a.953.953,0,0,1,.953.953v1.737A.952.952,0,0,1,113.744,180.8Z" transform="translate(-97.556 -155.947)" fill="#727eaf"/>
      <path id="Path_19896" data-name="Path 19896" d="M184.627,180.8H182.89a.953.953,0,0,1-.953-.953v-1.737a.953.953,0,0,1,.953-.953h1.737a.953.953,0,0,1,.953.953v1.737A.953.953,0,0,1,184.627,180.8Z" transform="translate(-159.822 -155.947)" fill="#727eaf"/>
      <path id="Path_19897" data-name="Path 19897" d="M45.193,8.523h-.988a.953.953,0,0,1-.953-.953V3.585a.953.953,0,0,1,.953-.953h.988a.953.953,0,0,1,.953.953V7.57A.952.952,0,0,1,45.193,8.523Z" transform="translate(-37.995 -2.633)" fill="#9fa3ad"/>
      <path id="Path_19898" data-name="Path 19898" d="M186.956,8.523h-.988a.953.953,0,0,1-.953-.953V3.585a.953.953,0,0,1,.953-.953h.988a.953.953,0,0,1,.953.953V7.57A.952.952,0,0,1,186.956,8.523Z" transform="translate(-162.526 -2.633)" fill="#9fa3ad"/>
    </g>
  </g>
</svg>
