<svg id="play-badge" xmlns="http://www.w3.org/2000/svg" xmlns:xlink="http://www.w3.org/1999/xlink" width="160" height="49.017" viewBox="0 0 160 49.017">
  <defs>
    <linearGradient id="linear-gradient" x1="0.5" x2="0.5" y2="0.389" gradientUnits="objectBoundingBox">
      <stop offset="0" stop-color="#fbda09"/>
      <stop offset="1" stop-color="#ffbc00"/>
    </linearGradient>
    <clipPath id="clip-path">
      <path id="Path_1442" data-name="Path 1442" d="M26.252,14.052c1.639.962,1.639,2.525,0,3.487L2.99,31.213c-1.638.962-2.967.165-2.967-1.783V2.16C.023.213,1.352-.585,2.99.379Z" transform="translate(-0.023 0.03)" fill="url(#linear-gradient)"/>
    </clipPath>
    <linearGradient id="linear-gradient-3" y1="0.585" x2="0.693" y2="0.391" gradientUnits="objectBoundingBox">
      <stop offset="0" stop-color="#01e2ff"/>
      <stop offset="1" stop-color="#01c4ff"/>
    </linearGradient>
    <linearGradient id="linear-gradient-4" x1="0.203" y1="0.201" x2="0.838" y2="0.836" gradientUnits="objectBoundingBox">
      <stop offset="0" stop-color="#28d781"/>
      <stop offset="1" stop-color="#02f076"/>
    </linearGradient>
    <linearGradient id="linear-gradient-5" x1="0.745" y1="0.174" x2="0.101" y2="0.912" gradientUnits="objectBoundingBox">
      <stop offset="0" stop-color="#f2414e"/>
      <stop offset="1" stop-color="#e02554"/>
    </linearGradient>
  </defs>
  <path id="Path_1431" data-name="Path 1431" d="M0,5.582A5.484,5.484,0,0,1,5.381,0H154.619A5.483,5.483,0,0,1,160,5.582V43.436a5.484,5.484,0,0,1-5.381,5.582H5.381A5.483,5.483,0,0,1,0,43.436Z"/>
  <g id="Group_353" data-name="Group 353" transform="translate(49.066 8.39)">
    <path id="Path_1432" data-name="Path 1432" d="M89.191,17.021a3.976,3.976,0,1,1,3.884-3.975A3.93,3.93,0,0,1,89.191,17.021Zm0-1.214a2.761,2.761,0,1,0-2.7-2.761A2.73,2.73,0,0,0,89.191,15.807ZM62.862,13.488v2.429h3.13V16.8H61.676V9.4h4.316v.883h-3.13V12.6h2.806v.883Zm7.338-3.2V16.8H69.013V10.286H67.179V9.4h4.855v.883Zm10.575,0V16.8H79.587V10.286H77.753V9.4h4.855v.883ZM75.487,9.4h1.187v7.4H75.487Zm19.747,0h.215l3.237,5.412V9.4h1.188v7.4H98.686l-3.452-5.773V16.8H94.046V9.4ZM57.228,12.734h3.25l-.032,1.052H57.228Z" transform="translate(-53.367 -9.072)" fill="#b6b8b9" fill-rule="evenodd"/>
    <path id="Path_1433" data-name="Path 1433" d="M59.524,10.267l-.743.76a2.549,2.549,0,0,0-1.883-.75,2.812,2.812,0,0,0,0,5.623c1.52,0,2.6-.9,2.6-2.812,0-.118,0-.233-.008-.345h.95v.039a3.454,3.454,0,0,1-3.57,4.2,3.9,3.9,0,0,1,0-7.795,3.539,3.539,0,0,1,2.659,1.076Z" transform="translate(-53.053 -9.081)" fill="#b6b8b9" fill-rule="evenodd"/>
  </g>
  <g id="Group_355" data-name="Group 355" transform="translate(48.64 21.197)">
    <path id="Path_1434" data-name="Path 1434" d="M125.91,23.522h6.111a4.557,4.557,0,0,1,3.519,4.8,4.558,4.558,0,0,1-3.519,4.8H125.91Zm1.186,2.322V31h4.149s1.889,0,1.889-2.576-1.889-2.577-1.889-2.577H127.1Z" transform="translate(-58.101 -22.964)" fill="#fff" fill-rule="evenodd"/>
    <path id="Path_1435" data-name="Path 1435" d="M121.175,23.522h2.156V39.141h-2.155Zm11.428,0h2.156V39.141H132.6Zm10.148,14.5a5.046,5.046,0,0,1-3.043,1.082,3.056,3.056,0,0,1-3.438-3.242,3,3,0,0,1,2.564-3.285,6.5,6.5,0,0,1,3.917.513v-.459a2.074,2.074,0,0,0-2.06-1.724c-1.963,0-2.4,1.1-2.4,1.1l-1.8-1.1a4.325,4.325,0,0,1,4.02-2.145c3.749,0,4.388,2.677,4.388,3.578v6.792H142.75V38.024Zm-.154-3.345s-4.154-1.159-4.3,1.256,3.985,1.256,4.353-.456A4.229,4.229,0,0,0,142.6,34.679Zm6.356,3.87L145.108,29.1h2.156l2.766,6.8,2.744-6.744h2.156L149.1,43.491h-2.156l2.011-4.943Zm-32.6-5.8-6.819,2.917a2.447,2.447,0,0,0,2.491,1.624,3.207,3.207,0,0,0,2.512-1.472l1.729,1.212a5.057,5.057,0,0,1-9.316-2.907c0-1.989,1.228-5.359,4.843-5.359s4.56,3.986,4.56,3.986Zm-2.594-.825a2.353,2.353,0,0,0-2.173-1.1,2.744,2.744,0,0,0-2.433,3.047l4.606-1.945Zm-10.043-8.4h2.281V39.108h-2.281Zm-3.65,5.582,2.109.018v9.834c0,2.513-1.446,5.165-4.849,5.165a4.88,4.88,0,0,1-4.5-3.12l1.937-.843a2.829,2.829,0,0,0,2.666,1.923c2.364,0,2.64-2.225,2.64-2.987V38.027a3.335,3.335,0,0,1-2.849,1.324,5.1,5.1,0,0,1-4.82-5.282,5.068,5.068,0,0,1,4.846-5.3,3.367,3.367,0,0,1,2.823,1.31V29.1Zm-2.669,8.25a3.047,3.047,0,0,0,2.784-3.255,2.818,2.818,0,1,0-5.568,0A3.048,3.048,0,0,0,97.392,37.354ZM86.313,39.363a5.3,5.3,0,1,1,5.132-5.3,5.217,5.217,0,0,1-5.132,5.3Zm-.034-2.077a3.241,3.241,0,1,0-2.885-3.221,3.068,3.068,0,0,0,2.885,3.221Zm-11.07,2.077a5.3,5.3,0,1,1,5.132-5.3,5.217,5.217,0,0,1-5.132,5.3Zm-.034-2.077a3.241,3.241,0,1,0-2.885-3.221,3.068,3.068,0,0,0,2.885,3.221Z" transform="translate(-53.906 -22.964)" fill="#fff" fill-rule="evenodd"/>
    <g id="Group_354" data-name="Group 354">
      <path id="Path_1436" data-name="Path 1436" d="M61.3,31.008h6.775l-.067,2.217H61.3Z" transform="translate(-53.246 -23.527)" fill="#fff" fill-rule="evenodd"/>
      <path id="Path_1437" data-name="Path 1437" d="M66.085,25.185l-1.55,1.6a5.286,5.286,0,0,0-3.926-1.58,5.925,5.925,0,0,0,0,11.845c3.169,0,5.418-1.89,5.413-5.923,0-.249,0-.491-.017-.727h1.979v.082c.745,5.644-2.978,8.9-7.442,8.854a8.213,8.213,0,0,1,0-16.417A7.335,7.335,0,0,1,66.085,25.185Z" transform="translate(-52.592 -22.919)" fill="#fff" fill-rule="evenodd"/>
    </g>
  </g>
  <g id="Group_356" data-name="Group 356" transform="translate(11.541 9)">
    <path id="Path_1438" data-name="Path 1438" d="M26.252,14.052c1.639.962,1.639,2.525,0,3.487L2.99,31.213c-1.638.962-2.967.165-2.967-1.783V2.16C.023.213,1.352-.585,2.99.379Z" transform="translate(-0.023 0.03)" fill="url(#linear-gradient)"/>
    <g id="Mask_Group_6" data-name="Mask Group 6" transform="translate(0 0)" clip-path="url(#clip-path)">
      <path id="Path_1439" data-name="Path 1439" d="M-.016-.012,15.128,15.542-.211,31.712Z" transform="translate(-0.005 0.029)" fill-rule="evenodd" fill="url(#linear-gradient-3)"/>
      <path id="Path_1440" data-name="Path 1440" d="M-3.367-3.474l18.256,18.76,5.428-5.351Z" transform="translate(0.232 0.289)" fill-rule="evenodd" fill="url(#linear-gradient-4)"/>
      <path id="Path_1441" data-name="Path 1441" d="M15.033,16.807l8.309,8.656L-1.481,34.118Z" transform="translate(0.09 -1.235)" fill-rule="evenodd" fill="url(#linear-gradient-5)"/>
    </g>
  </g>
</svg>
