<svg xmlns="http://www.w3.org/2000/svg" width="152" height="25" viewBox="0 0 152 25">
  <path id="Path_19924" data-name="Path 19924" d="M137.915,263.719c-.815,2.787-.82,2.832-2.539,2.173a268.858,268.858,0,0,0-26.292-8.241c-7.06-1.907-14.155-3.3-21.258-4.548a168.961,168.961,0,0,0-36.368-2.726,126.629,126.629,0,0,0-21.352,2.741,117.3,117.3,0,0,0-26.669,9.116,78.7,78.7,0,0,0-15.5,9.572c-.385.311-.621.268-.91-.285-.306-.587-.668-1.069-1.116-1.769a71.694,71.694,0,0,1,9.612-6.661,108.471,108.471,0,0,1,22.91-10.145,115.928,115.928,0,0,1,20.68-4.571c4.741-.56,9.482-1.025,14.232-1.151a4.479,4.479,0,0,0,.928-.224H61.64a2.01,2.01,0,0,0,.553.193,183.644,183.644,0,0,1,20.9,1.951c5.542.836,11.075,1.84,16.595,3.089q6.918,1.565,13.816,3.45c5.745,1.579,11.467,3.423,17.187,5.3q3.611,1.187,7.223,2.369Z" transform="translate(14.085 -247)" fill="#00aeba"/>
</svg>
