<svg xmlns="http://www.w3.org/2000/svg" xmlns:xlink="http://www.w3.org/1999/xlink" width="202.69" height="61" viewBox="0 0 202.69 61">
  <defs>
    <clipPath id="clip-path">
      <path id="Path_30055" data-name="Path 30055" d="M329.73,2177.017a10.725,10.725,0,0,1,3.257-1.55,5.676,5.676,0,0,1,5.774,1.626,2.216,2.216,0,0,1,.623,1.936c-.2.506-.912.621-1.478.626l-.189,0a16.112,16.112,0,0,1-7.987-2.639m-65.292,2.637c-.565-.005-1.281-.12-1.478-.626a2.216,2.216,0,0,1,.623-1.936,5.358,5.358,0,0,1,4.163-1.83,6.424,6.424,0,0,1,1.611.2,10.733,10.733,0,0,1,3.257,1.55,16.219,16.219,0,0,1-8.068,2.639h-.108m30.562,19.3a5.841,5.841,0,0,1-2.143-4.476c-.568-6.819,4.773-17.2,8.315-21.492,3.541,4.292,8.883,14.673,8.315,21.492a5.84,5.84,0,0,1-2.143,4.476c-.528.385-.781.272-.886.223-1.244-.567-2.984-4.61-3.793-14.139a1.023,1.023,0,0,0-.035-.121.934.934,0,0,0-.161-.387.947.947,0,0,0-.288-.289.957.957,0,0,0-.386-.161.977.977,0,0,0-.123-.036c-.032,0-.061.011-.092.011s-.06-.013-.092-.011a.96.96,0,0,0-.123.036,1.078,1.078,0,0,0-.2.059,1.066,1.066,0,0,0-.189.105,1.05,1.05,0,0,0-.151.122,1.038,1.038,0,0,0-.136.168,1.064,1.064,0,0,0-.1.172,1.032,1.032,0,0,0-.062.213,1,1,0,0,0-.035.119c-.733,8.639-2.814,13.37-4.437,14.108a.837.837,0,0,1-.357.086,1.2,1.2,0,0,1-.7-.278m6.172-28.927a15.581,15.581,0,0,0-12.037-2.539c-4.264.909-7.986,3.594-11.585,6.192l-1.1.793c-.6.428-1.214.862-1.845,1.285a13.75,13.75,0,0,0-4.7-2.4,7.8,7.8,0,0,0-7.975,2.319,4.245,4.245,0,0,0-1,4.143,3.448,3.448,0,0,0,3.486,2.015c3.651.024,7.011-1.5,10.051-3.39.321.275.626.55.913.813,3.377,3.109,9.056,9.6,9.146,18.127a1.022,1.022,0,0,1-.058.43c-.094-.019-.312-.117-.708-.566a17.839,17.839,0,0,1-2.815-5.489,25.568,25.568,0,0,0-2.376-5.074,1.089,1.089,0,0,0-1.984.77,39.442,39.442,0,0,1,.4,8.207c-.094,1.715-.548,2.46-.831,2.542-.13.029-.454-.121-.709-.5a5.974,5.974,0,0,1-.7-2.014,34.8,34.8,0,0,1-.045-14.137,1.089,1.089,0,1,0-2.134-.44,37.008,37.008,0,0,0,.048,15.03,7.789,7.789,0,0,0,1.025,2.78,3.06,3.06,0,0,0,2.468,1.467,2.34,2.34,0,0,0,.655-.094c1.43-.416,2.259-1.976,2.4-4.514q.067-1.207.063-2.416a17.377,17.377,0,0,0,2.9,5.323,3.609,3.609,0,0,0,1.924,1.263,2.2,2.2,0,0,0,2.527-1.493,3.414,3.414,0,0,0,.129-1.1c-.1-9.347-6.213-16.358-9.849-19.706-.162-.149-.328-.3-.5-.453.462-.318.916-.638,1.36-.956l1.11-.8c3.416-2.465,6.949-5.015,10.764-5.828a13.365,13.365,0,0,1,9.949,1.928c-3.853,4.651-9.477,15.616-8.852,23.113a7.9,7.9,0,0,0,3.028,6.053,3.354,3.354,0,0,0,1.985.7,3.052,3.052,0,0,0,1.259-.28c1.9-.866,3.483-3.829,4.543-8.294.935,4.731,2.29,7.523,4.052,8.324a2.754,2.754,0,0,0,1.143.253,3.244,3.244,0,0,0,1.933-.7,7.9,7.9,0,0,0,3.028-6.053c.625-7.5-5-18.462-8.852-23.113a13.372,13.372,0,0,1,9.949-1.928c3.815.813,7.348,3.363,10.765,5.829l1.109.8c.445.317.9.638,1.36.956-.171.153-.338.3-.5.453-3.636,3.348-9.75,10.36-9.849,19.705a3.415,3.415,0,0,0,.129,1.1,2.2,2.2,0,0,0,2.526,1.492,3.606,3.606,0,0,0,1.924-1.263,17.361,17.361,0,0,0,2.9-5.323q0,1.208.063,2.416c.177,3.207,1.4,4.225,2.4,4.514a2.323,2.323,0,0,0,.657.094,3.056,3.056,0,0,0,2.467-1.466,7.766,7.766,0,0,0,1.026-2.78,37.012,37.012,0,0,0,.048-15.03,1.089,1.089,0,1,0-2.134.44,34.806,34.806,0,0,1-.045,14.137,5.95,5.95,0,0,1-.7,2.014c-.256.379-.583.537-.709.5-.282-.081-.736-.826-.831-2.541a39.492,39.492,0,0,1,.4-8.207,1.089,1.089,0,0,0-1.984-.77,25.551,25.551,0,0,0-2.376,5.074,17.841,17.841,0,0,1-2.816,5.489c-.4.449-.614.547-.741.548a1.867,1.867,0,0,1-.025-.414c.09-8.526,5.769-15.015,9.147-18.126.287-.264.592-.538.913-.813a19.276,19.276,0,0,0,10.051,3.39,3.447,3.447,0,0,0,3.485-2.015,4.244,4.244,0,0,0-1-4.143,7.8,7.8,0,0,0-7.975-2.319,13.743,13.743,0,0,0-4.7,2.4c-.631-.424-1.247-.856-1.845-1.285l-1.1-.793c-3.6-2.6-7.321-5.283-11.585-6.192a14.614,14.614,0,0,0-3.046-.319,15.931,15.931,0,0,0-8.992,2.858" transform="translate(-260.717 -2167.169)" fill="none"/>
    </clipPath>
    <linearGradient id="linear-gradient" x1="-0.33" y1="2.947" x2="-0.328" y2="2.947" gradientUnits="objectBoundingBox">
      <stop offset="0" stop-color="#005988"/>
      <stop offset="1" stop-color="#00aea7"/>
    </linearGradient>
    <clipPath id="clip-path-2">
      <path id="Path_30056" data-name="Path 30056" d="M335.293,2129.046a2.576,2.576,0,1,1,2.576,2.576,2.579,2.579,0,0,1-2.576-2.576m-2.179,0a4.755,4.755,0,1,0,4.755-4.756,4.76,4.76,0,0,0-4.755,4.756" transform="translate(-333.114 -2124.29)" fill="none"/>
    </clipPath>
    <linearGradient id="linear-gradient-2" x1="-3.668" y1="11.198" x2="-3.657" y2="11.198" xlink:href="#linear-gradient"/>
    <clipPath id="clip-path-3">
      <path id="Path_30057" data-name="Path 30057" d="M852.349,2129.046a2.577,2.577,0,1,1,2.576,2.576,2.579,2.579,0,0,1-2.576-2.576m-2.179,0a4.755,4.755,0,1,0,4.755-4.756,4.76,4.76,0,0,0-4.755,4.756" transform="translate(-850.17 -2124.29)" fill="none"/>
    </clipPath>
    <linearGradient id="linear-gradient-3" x1="-9.36" y1="11.198" x2="-9.349" y2="11.198" xlink:href="#linear-gradient"/>
    <clipPath id="clip-path-4">
      <path id="Path_30058" data-name="Path 30058" d="M586.156,2058.358a3.727,3.727,0,1,1,3.727,3.727,3.731,3.731,0,0,1-3.727-3.727m-2.179,0a5.906,5.906,0,1,0,5.906-5.906,5.913,5.913,0,0,0-5.906,5.906" transform="translate(-583.977 -2052.452)" fill="none"/>
    </clipPath>
    <linearGradient id="linear-gradient-4" x1="-5.177" y1="9.653" x2="-5.168" y2="9.653" xlink:href="#linear-gradient"/>
  </defs>
  <g id="Group_30915" data-name="Group 30915" transform="translate(-260.717 -2052.452)">
    <g id="Group_30898" data-name="Group 30898" transform="translate(260.717 2064.464)">
      <g id="Group_30897" data-name="Group 30897" transform="translate(0 0)" clip-path="url(#clip-path)">
        <rect id="Rectangle_17599" data-name="Rectangle 17599" width="81.657" height="34.796" transform="translate(-0.373 -0.552)" fill="url(#linear-gradient)"/>
      </g>
    </g>
    <g id="Group_30900" data-name="Group 30900" transform="translate(268.298 2059.975)">
      <g id="Group_30899" data-name="Group 30899" transform="translate(0 0)" clip-path="url(#clip-path-2)">
        <rect id="Rectangle_17600" data-name="Rectangle 17600" width="9.51" height="9.51" fill="url(#linear-gradient-2)"/>
      </g>
    </g>
    <g id="Group_30902" data-name="Group 30902" transform="translate(322.441 2059.975)">
      <g id="Group_30901" data-name="Group 30901" transform="translate(0 0)" clip-path="url(#clip-path-3)">
        <rect id="Rectangle_17601" data-name="Rectangle 17601" width="9.511" height="9.51" fill="url(#linear-gradient-3)"/>
      </g>
    </g>
    <g id="Group_30904" data-name="Group 30904" transform="translate(294.567 2052.452)">
      <g id="Group_30903" data-name="Group 30903" transform="translate(0 0)" clip-path="url(#clip-path-4)">
        <rect id="Rectangle_17602" data-name="Rectangle 17602" width="11.812" height="11.812" transform="translate(0 0)" fill="url(#linear-gradient-4)"/>
      </g>
    </g>
    <path id="Path_30059" data-name="Path 30059" d="M1249.377,2330.259a12.425,12.425,0,0,0,.326,2.657,2.255,2.255,0,0,1,.062.467q0,.279-.513.722a1.641,1.641,0,0,1-1.088.443q-1.508,0-1.507-2.766a54.238,54.238,0,0,1,1.181-9.045,21.742,21.742,0,0,0,.4-2.658,3.6,3.6,0,0,1,.358-1.67,1.105,1.105,0,0,1,1.01-.691,1.9,1.9,0,0,1,1.252.381,1.1,1.1,0,0,1,.458.847,4.719,4.719,0,0,1-.218,1.227,57.938,57.938,0,0,0-1.445,5.875,27.417,27.417,0,0,0-.28,4.212" transform="translate(-882.698 -237.488)" fill="#005988"/>
    <path id="Path_30060" data-name="Path 30060" d="M1340.776,2324.548a2.586,2.586,0,0,0-1.764,1.057,27.932,27.932,0,0,0-2.914,4.74q-2.58,4.942-3.333,5.626a2.115,2.115,0,0,1-1.251.684,1.594,1.594,0,0,1-1.834-1.772,12.725,12.725,0,0,1,.249-2.114,55.218,55.218,0,0,0,.855-9.9,2.363,2.363,0,0,1,.505-1.313q.505-.723.956-.722a1.3,1.3,0,0,1,1.15.5,3.94,3.94,0,0,1,.342,2.006,44.4,44.4,0,0,1-.933,6.465,15.135,15.135,0,0,0-.311,2.051c0,.166.041.249.124.249q.233,0,2.161-3.715a24.229,24.229,0,0,1,3.4-5.315,4.373,4.373,0,0,1,3.217-1.539,2.659,2.659,0,0,1,2.276,1.275,11.134,11.134,0,0,1,1.282,4.646,27.778,27.778,0,0,0,.785,4.779q.349.94,1.111.94a3,3,0,0,0,1.212-.342.485.485,0,0,1,.187-.062q.668,0,.668.777A2.063,2.063,0,0,1,1348,2335a3.317,3.317,0,0,1-2.207.769,2.337,2.337,0,0,1-2.043-1.049q-.723-1.049-1.142-5.6-.435-4.57-1.834-4.57" transform="translate(-957.026 -240.278)" fill="#005988"/>
    <path id="Path_30061" data-name="Path 30061" d="M1542.661,2246.221a19.465,19.465,0,0,1-4.414,5.151,7.216,7.216,0,0,1-4.289,1.811,2.833,2.833,0,0,1-2.386-1.157,4.975,4.975,0,0,1-.878-3.084,13.285,13.285,0,0,1,3.194-8.066q3.194-4.135,6.893-4.135a4.189,4.189,0,0,1,3,1.384l1.811-9.185a2.005,2.005,0,0,1,.863-1.4,2.224,2.224,0,0,1,.987-.358q1.088,0,1.088,1.927a16.336,16.336,0,0,1-.715,2.549,60.151,60.151,0,0,0-1.788,7.421,42.032,42.032,0,0,0-1.018,8q0,3.109,1.352,3.109a3.442,3.442,0,0,0,1.8-.575,1.27,1.27,0,0,1,.73-.28q.5,0,.5.652,0,.794-1.391,1.835a4.715,4.715,0,0,1-2.852,1.04q-2.565,0-2.565-4.942,0-.84.078-1.694m-2.036-7.274q-2.518,0-4.989,3.411a11.013,11.013,0,0,0-2.471,6.3q0,1.944,1.29,1.943a5.347,5.347,0,0,0,2.945-1.274,15.737,15.737,0,0,0,3.567-4.065q1.834-2.789,1.834-4.188a2.176,2.176,0,0,0-.629-1.406,1.972,1.972,0,0,0-1.546-.723" transform="translate(-1136.993 -156.433)" fill="#005988"/>
    <path id="Path_30062" data-name="Path 30062" d="M1747.049,2330.259a12.433,12.433,0,0,0,.326,2.657,2.239,2.239,0,0,1,.062.467q0,.279-.513.722a1.641,1.641,0,0,1-1.088.443q-1.508,0-1.507-2.766a54.261,54.261,0,0,1,1.181-9.045,21.783,21.783,0,0,0,.4-2.658,3.6,3.6,0,0,1,.358-1.67,1.105,1.105,0,0,1,1.01-.691,1.9,1.9,0,0,1,1.251.381,1.1,1.1,0,0,1,.458.847,4.717,4.717,0,0,1-.218,1.227,57.8,57.8,0,0,0-1.445,5.875,27.416,27.416,0,0,0-.28,4.212" transform="translate(-1328.257 -237.488)" fill="#005988"/>
    <path id="Path_30063" data-name="Path 30063" d="M1838.445,2324.548a2.586,2.586,0,0,0-1.764,1.057,27.91,27.91,0,0,0-2.914,4.74q-2.58,4.942-3.334,5.626a2.116,2.116,0,0,1-1.251.684,1.594,1.594,0,0,1-1.834-1.772,12.736,12.736,0,0,1,.249-2.114,55.219,55.219,0,0,0,.854-9.9,2.361,2.361,0,0,1,.505-1.313q.505-.723.956-.722a1.3,1.3,0,0,1,1.15.5,3.942,3.942,0,0,1,.342,2.006,44.389,44.389,0,0,1-.932,6.465,15.1,15.1,0,0,0-.311,2.051q0,.249.124.249.233,0,2.161-3.715a24.209,24.209,0,0,1,3.4-5.315,4.372,4.372,0,0,1,3.217-1.539,2.659,2.659,0,0,1,2.276,1.275,11.137,11.137,0,0,1,1.282,4.646,27.766,27.766,0,0,0,.785,4.779q.349.94,1.111.94a3,3,0,0,0,1.212-.342.486.486,0,0,1,.187-.062q.668,0,.669.777a2.063,2.063,0,0,1-.917,1.453,3.318,3.318,0,0,1-2.207.769,2.337,2.337,0,0,1-2.044-1.049q-.723-1.049-1.142-5.6-.435-4.57-1.834-4.57" transform="translate(-1402.583 -240.278)" fill="#005988"/>
    <path id="Path_30064" data-name="Path 30064" d="M2014.935,2323.162q-.187-.139-1.042.871a13.952,13.952,0,0,1-3.613,2.953,8.172,8.172,0,0,1-4.08,1.29,2.8,2.8,0,0,1-2.191-.878,3.5,3.5,0,0,1-.792-2.432,10.5,10.5,0,0,1,1.818-5.37,16.985,16.985,0,0,1,5.09-5.167,10.72,10.72,0,0,1,5.727-2.208,3.642,3.642,0,0,1,2.269.746q.233.188.4.311a1.877,1.877,0,0,1,.528.815,2.815,2.815,0,0,1,.249.988,2.422,2.422,0,0,1-.171.714,30.32,30.32,0,0,0-1.29,4.274q-.342,1.694-.746,5.7a51.12,51.12,0,0,1-.808,5.548,12.068,12.068,0,0,1-1.57,3.761,7.819,7.819,0,0,1-2.719,2.728,6.478,6.478,0,0,1-3.264.909,9.84,9.84,0,0,1-5.735-2q-2.828-2-2.828-3.217,0-.762.575-.761a5.788,5.788,0,0,1,1.663.917,12.207,12.207,0,0,0,6.574,2.44,4.186,4.186,0,0,0,3.878-2.719,24.24,24.24,0,0,0,1.811-8.129q.108-1.227.264-2.083m-.031-8.532a6.3,6.3,0,0,0-3.3,1.368,16.021,16.021,0,0,0-3.846,4.009,8.3,8.3,0,0,0-1.865,4.431,1.248,1.248,0,0,0,1.228,1.3,7.339,7.339,0,0,0,3.614-1.429,12.657,12.657,0,0,0,3.839-3.971,8.385,8.385,0,0,0,1.609-3.986q0-1.726-1.274-1.726" transform="translate(-1557.308 -232.567)" fill="#005988"/>
    <path id="Path_30065" data-name="Path 30065" d="M1217.458,2201.138a1.158,1.158,0,0,1-.181-.013c-62.734-9.385-107.5-.843-108.071-.756a1.213,1.213,0,0,1-.369-2.4c.569-.089,45.687-8.69,108.8.754a1.212,1.212,0,0,1-.177,2.412" transform="translate(-758.389 -126.997)" fill="#005988"/>
    <path id="Path_30066" data-name="Path 30066" d="M1086.014,2235.819a1.242,1.242,0,0,0-.5-.256,2.805,2.805,0,0,0-.744-.083,4.833,4.833,0,0,0-1.157.166q-.662.166-1.4.388t-1.48.455a11.382,11.382,0,0,1-1.389.347q-1.406.282-2.572.521t-2.307.571a14.109,14.109,0,0,1,.033-1.918q.083-1.009.223-2t.322-1.91c.121-.612.77-4.346.891-4.826s.234-.871.339-1.174a2.594,2.594,0,0,1,.223-.537,2.123,2.123,0,0,1,.777-.356q.611-.19,1.472-.372c.368-.078.761-.152,1.166-.222l2.194-2.462c-.079.015-3.207.032-3.286.047q-.67.124-1.29.207a8.391,8.391,0,0,1-1.1.083c-.187,0-.364-.009-.529-.025s-.331-.035-.5-.058-.339-.05-.521-.083-.383-.06-.6-.082a.851.851,0,0,0-.5.141,2.364,2.364,0,0,0-.5.4,2.285,2.285,0,0,0-.38.521.877.877,0,0,0-.116.53,4.127,4.127,0,0,0,.141.537c.061.182.118.364.174.545a4.965,4.965,0,0,1,.133.546,1.777,1.777,0,0,1,.016.537c-.132.937-.8,5.1-.957,6.107s-.306,2.026-.455,3.051-.3,2.045-.438,3.06-.271,1.991-.38,2.927q-.216,1.753-.422,3.531a30.476,30.476,0,0,0-.19,3.779,1.442,1.442,0,0,0,.256.868,2.686,2.686,0,0,0,.579.6,2.47,2.47,0,0,0,.62.348,3.957,3.957,0,0,0,.38.124,1.445,1.445,0,0,0,.918-.149,1.041,1.041,0,0,0,.405-.562,3.878,3.878,0,0,0,.091-1.042q-.025-.53-.025-1.092-.017-.413-.033-.976t-.008-1.175q.008-.611.024-1.24t.075-1.2q.058-.571.141-1.042a3.335,3.335,0,0,1,.215-.769q.066-.149.455-.314a9.2,9.2,0,0,1,1.017-.347q.629-.183,1.431-.364t1.687-.373q.885-.189,1.8-.364t1.761-.339q.248-.049.753-.133t1.034-.2a9.735,9.735,0,0,0,1-.273,1.727,1.727,0,0,0,.653-.338,3.036,3.036,0,0,1,.24-.249c.1-.1.209-.207.314-.322a2.464,2.464,0,0,0,.256-.331.42.42,0,0,0,.083-.273,4.855,4.855,0,0,0-.215-.654,1.206,1.206,0,0,0-.314-.446" transform="translate(-724.912 -151.927)" fill="#005988"/>
    <path id="Path_30067" data-name="Path 30067" d="M2118.69,2232.3a2.346,2.346,0,0,0-.355-.477,4.028,4.028,0,0,0-.462-.416,1.557,1.557,0,0,0-.431-.249,19.906,19.906,0,0,0-2.753-.686c-.823-.149-4.012-.471-4.971-.617l.389,2.5.049.009c.61.123,2.506.559,2.984.679a9.948,9.948,0,0,1,1.056.309,2.874,2.874,0,0,1,.63.229q.385.181.807.375a5.986,5.986,0,0,0,.821.31,1.188,1.188,0,0,0,.649.042,2.271,2.271,0,0,0,1.2-.688,2.347,2.347,0,0,0,.477-.878.613.613,0,0,0-.089-.439" transform="translate(-1655.385 -158.828)" fill="#005988"/>
    <path id="Path_30068" data-name="Path 30068" d="M1270.007,2253.4q-.326,0-.5-.7a4.689,4.689,0,0,0-.171-.482,4.7,4.7,0,0,1-.42-1.756,1.768,1.768,0,0,1,.738-1.267,2.435,2.435,0,0,1,1.64-.645,1.957,1.957,0,0,1,1.01.349q.559.349.559.677a6.929,6.929,0,0,1-.381,1.74,2.6,2.6,0,0,1-1.212,1.655,3.126,3.126,0,0,1-1.267.428" transform="translate(-902.629 -175.568)" fill="#005988"/>
    <path id="Path_30069" data-name="Path 30069" d="M1767.68,2253.4q-.326,0-.5-.7a4.718,4.718,0,0,0-.171-.482,4.7,4.7,0,0,1-.42-1.756,1.767,1.767,0,0,1,.738-1.267,2.435,2.435,0,0,1,1.64-.645,1.957,1.957,0,0,1,1.01.349q.559.349.559.677a6.929,6.929,0,0,1-.381,1.74,2.6,2.6,0,0,1-1.212,1.655,3.124,3.124,0,0,1-1.267.428" transform="translate(-1348.189 -175.568)" fill="#005988"/>
    <path id="Path_30070" data-name="Path 30070" d="M380.5,2526.685a.707.707,0,0,1-.076-.343.423.423,0,0,1,.223-.419,4.509,4.509,0,0,1,1.337-.124q1.367-.008,2.456-.1t3.356-.4a12.192,12.192,0,0,1,1.635-.117,5.637,5.637,0,0,1,.746.048,3.934,3.934,0,0,1,.5.093.4.4,0,0,1,.237.247.858.858,0,0,1,.089.313c0,.324-.114.488-.343.488q-.227,0-.619-.041t-1.079-.034q-.7,0-1.7.1t-1.11.326a19.308,19.308,0,0,0-.361,2.679q-.25,2.453-.251,3.656a5.679,5.679,0,0,0,.172,1.285,1.3,1.3,0,0,1,.027.165.951.951,0,0,1-.165.546.477.477,0,0,1-.4.244.7.7,0,0,1-.595-.343,4.459,4.459,0,0,1-.237-1.924,55.8,55.8,0,0,1,.57-5.847c.018-.156.028-.236.028-.24q0-.233-.255-.233-.412,0-1.573.1t-1.656.11a1.376,1.376,0,0,1-.962-.233" transform="translate(-107.177 -423.227)" fill="#00aeba"/>
    <path id="Path_30071" data-name="Path 30071" d="M380.5,2526.685a.707.707,0,0,1-.076-.343.423.423,0,0,1,.223-.419,4.509,4.509,0,0,1,1.337-.124q1.367-.008,2.456-.1t3.356-.4a12.192,12.192,0,0,1,1.635-.117,5.637,5.637,0,0,1,.746.048,3.934,3.934,0,0,1,.5.093.4.4,0,0,1,.237.247.858.858,0,0,1,.089.313c0,.324-.114.488-.343.488q-.227,0-.619-.041t-1.079-.034q-.7,0-1.7.1t-1.11.326a19.308,19.308,0,0,0-.361,2.679q-.25,2.453-.251,3.656a5.679,5.679,0,0,0,.172,1.285,1.3,1.3,0,0,1,.027.165.951.951,0,0,1-.165.546.477.477,0,0,1-.4.244.7.7,0,0,1-.595-.343,4.459,4.459,0,0,1-.237-1.924,55.8,55.8,0,0,1,.57-5.847c.018-.156.028-.236.028-.24q0-.233-.255-.233-.412,0-1.573.1t-1.656.11A1.376,1.376,0,0,1,380.5,2526.685Z" transform="translate(-107.177 -423.227)" fill="none" stroke="#00aeba" stroke-linecap="round" stroke-linejoin="round" stroke-width="2"/>
    <path id="Path_30072" data-name="Path 30072" d="M520.963,2523.8a20.594,20.594,0,0,1,2.948-.33,3.624,3.624,0,0,1,2.315.687,2.117,2.117,0,0,1,.866,1.725,2.742,2.742,0,0,1-.917,1.954,6.378,6.378,0,0,1-2.305,1.44c-.115.045-.172.094-.172.144a7.723,7.723,0,0,0,1.419,1.213,30.773,30.773,0,0,0,2.607,1.831.619.619,0,0,1,.337.543.611.611,0,0,1-.23.436.659.659,0,0,1-.43.217,2.715,2.715,0,0,1-1.3-.673q-.89-.674-1.845-1.484a12.764,12.764,0,0,0-2.308-1.752,1.424,1.424,0,0,1-.66-.13.451.451,0,0,1-.192-.419.572.572,0,0,1,.247-.457.914.914,0,0,1,.584-.2,3.045,3.045,0,0,1,.371.034,2.63,2.63,0,0,0,.378.041,4.539,4.539,0,0,0,1.879-.818,2.308,2.308,0,0,0,1.33-1.924,1.211,1.211,0,0,0-.595-1,2.565,2.565,0,0,0-1.515-.419,9.886,9.886,0,0,0-1.374.1,5.462,5.462,0,0,0-.876.165.574.574,0,0,0-.306.354,14.114,14.114,0,0,0-.391,1.817q-.275,1.533-.43,2.892a19.779,19.779,0,0,0-.155,2,4.718,4.718,0,0,0,.069.859,3.665,3.665,0,0,1,.062.584.629.629,0,0,1-.216.426.652.652,0,0,1-.471.219q-.722,0-.722-1.167a37.322,37.322,0,0,1,.969-7.332,2.656,2.656,0,0,0,.048-.281.286.286,0,0,0-.048-.124,1.516,1.516,0,0,1-.275-.577.561.561,0,0,1,.254-.454.8.8,0,0,1,.46-.192Z" transform="translate(-231.21 -421.701)" fill="#00aeba"/>
    <path id="Path_30073" data-name="Path 30073" d="M520.963,2523.8a20.594,20.594,0,0,1,2.948-.33,3.624,3.624,0,0,1,2.315.687,2.117,2.117,0,0,1,.866,1.725,2.742,2.742,0,0,1-.917,1.954,6.378,6.378,0,0,1-2.305,1.44c-.115.045-.172.094-.172.144a7.723,7.723,0,0,0,1.419,1.213,30.773,30.773,0,0,0,2.607,1.831.619.619,0,0,1,.337.543.611.611,0,0,1-.23.436.659.659,0,0,1-.43.217,2.715,2.715,0,0,1-1.3-.673q-.89-.674-1.845-1.484a12.764,12.764,0,0,0-2.308-1.752,1.424,1.424,0,0,1-.66-.13.451.451,0,0,1-.192-.419.572.572,0,0,1,.247-.457.914.914,0,0,1,.584-.2,3.045,3.045,0,0,1,.371.034,2.63,2.63,0,0,0,.378.041,4.539,4.539,0,0,0,1.879-.818,2.308,2.308,0,0,0,1.33-1.924,1.211,1.211,0,0,0-.595-1,2.565,2.565,0,0,0-1.515-.419,9.886,9.886,0,0,0-1.374.1,5.462,5.462,0,0,0-.876.165.574.574,0,0,0-.306.354,14.114,14.114,0,0,0-.391,1.817q-.275,1.533-.43,2.892a19.779,19.779,0,0,0-.155,2,4.718,4.718,0,0,0,.069.859,3.665,3.665,0,0,1,.062.584.629.629,0,0,1-.216.426.652.652,0,0,1-.471.219q-.722,0-.722-1.167a37.322,37.322,0,0,1,.969-7.332,2.656,2.656,0,0,0,.048-.281.286.286,0,0,0-.048-.124,1.516,1.516,0,0,1-.275-.577.561.561,0,0,1,.254-.454.8.8,0,0,1,.46-.192Z" transform="translate(-231.21 -421.701)" fill="none" stroke="#00aeba" stroke-linecap="round" stroke-linejoin="round" stroke-width="2"/>
    <path id="Path_30074" data-name="Path 30074" d="M662.81,2534.229a4.11,4.11,0,0,1-1.653-.453,3.07,3.07,0,0,1-1.494-1.54,5.5,5.5,0,0,1-.516-2.39,16.635,16.635,0,0,1,.344-2.632q.062-.337.179-1.072.22-1.463.306-1.759a1.028,1.028,0,0,1,.271-.471.612.612,0,0,1,.433-.175c.114,0,.232.109.354.326a1.166,1.166,0,0,1,.182.506,10.283,10.283,0,0,1-.316,1.243,15.185,15.185,0,0,0-.357,1.969,17.176,17.176,0,0,0-.193,1.989,3.131,3.131,0,0,0,.9,2.617,2.729,2.729,0,0,0,1.515.688,5.026,5.026,0,0,0,2.01-.361,2.449,2.449,0,0,0,1.254-1.309,11.807,11.807,0,0,0,.6-3.525,14.78,14.78,0,0,1,.437-3.28q.257-.651.732-.65t.467.763a13.5,13.5,0,0,1-.268,2.116,18.1,18.1,0,0,0-.254,2.123q-.076.962-.2,1.694a3.655,3.655,0,0,1-.405,1.219,4.37,4.37,0,0,1-.711.914,6.7,6.7,0,0,1-.9.749,3.773,3.773,0,0,1-1.288.511,6.512,6.512,0,0,1-1.439.189" transform="translate(-356.71 -421.935)" fill="#00aeba"/>
    <path id="Path_30075" data-name="Path 30075" d="M662.81,2534.229a4.11,4.11,0,0,1-1.653-.453,3.07,3.07,0,0,1-1.494-1.54,5.5,5.5,0,0,1-.516-2.39,16.635,16.635,0,0,1,.344-2.632q.062-.337.179-1.072.22-1.463.306-1.759a1.028,1.028,0,0,1,.271-.471.612.612,0,0,1,.433-.175c.114,0,.232.109.354.326a1.166,1.166,0,0,1,.182.506,10.283,10.283,0,0,1-.316,1.243,15.185,15.185,0,0,0-.357,1.969,17.176,17.176,0,0,0-.193,1.989,3.131,3.131,0,0,0,.9,2.617,2.729,2.729,0,0,0,1.515.688,5.026,5.026,0,0,0,2.01-.361,2.449,2.449,0,0,0,1.254-1.309,11.807,11.807,0,0,0,.6-3.525,14.78,14.78,0,0,1,.437-3.28q.257-.651.732-.65t.467.763a13.5,13.5,0,0,1-.268,2.116,18.1,18.1,0,0,0-.254,2.123q-.076.962-.2,1.694a3.655,3.655,0,0,1-.405,1.219,4.37,4.37,0,0,1-.711.914,6.7,6.7,0,0,1-.9.749,3.773,3.773,0,0,1-1.288.511A6.512,6.512,0,0,1,662.81,2534.229Z" transform="translate(-356.71 -421.935)" fill="none" stroke="#00aeba" stroke-linecap="round" stroke-linejoin="round" stroke-width="2"/>
    <path id="Path_30076" data-name="Path 30076" d="M804.818,2525.435q0-.913-.474-1.116a3.012,3.012,0,0,0-1.182-.2,5.98,5.98,0,0,0-2.642.573q-1.185.573-1.185,1.378a1.27,1.27,0,0,0,.526,1.006,7.42,7.42,0,0,0,2.291.945,8.33,8.33,0,0,1,2.436,1.02,1.534,1.534,0,0,1,.725,1.268,2.332,2.332,0,0,1-1.01,1.618,6.881,6.881,0,0,1-2.436,1.323,8.254,8.254,0,0,1-2.422.454,3.155,3.155,0,0,1-1.261-.2q-.429-.2-.429-.491a1.335,1.335,0,0,1,.127-.5q.127-.3.258-.3a.87.87,0,0,1,.282.048,4.147,4.147,0,0,0,1.457.274,5.979,5.979,0,0,0,2.755-.76q1.457-.758,1.457-1.418c0-.188-.148-.369-.443-.54a14.887,14.887,0,0,0-2.243-.828,6.077,6.077,0,0,1-2.745-1.377,2.29,2.29,0,0,1-.512-1.412,2.606,2.606,0,0,1,1.642-2.3,7.191,7.191,0,0,1,3.435-.877,3.449,3.449,0,0,1,1.828.4,1.108,1.108,0,0,1,.639.89,2.438,2.438,0,0,1-.144.68.671.671,0,0,1-.728.447" transform="translate(-480.803 -421.29)" fill="#00aeba"/>
    <path id="Path_30077" data-name="Path 30077" d="M804.818,2525.435q0-.913-.474-1.116a3.012,3.012,0,0,0-1.182-.2,5.98,5.98,0,0,0-2.642.573q-1.185.573-1.185,1.378a1.27,1.27,0,0,0,.526,1.006,7.42,7.42,0,0,0,2.291.945,8.33,8.33,0,0,1,2.436,1.02,1.534,1.534,0,0,1,.725,1.268,2.332,2.332,0,0,1-1.01,1.618,6.881,6.881,0,0,1-2.436,1.323,8.254,8.254,0,0,1-2.422.454,3.155,3.155,0,0,1-1.261-.2q-.429-.2-.429-.491a1.335,1.335,0,0,1,.127-.5q.127-.3.258-.3a.87.87,0,0,1,.282.048,4.147,4.147,0,0,0,1.457.274,5.979,5.979,0,0,0,2.755-.76q1.457-.758,1.457-1.418c0-.188-.148-.369-.443-.54a14.887,14.887,0,0,0-2.243-.828,6.077,6.077,0,0,1-2.745-1.377,2.29,2.29,0,0,1-.512-1.412,2.606,2.606,0,0,1,1.642-2.3,7.191,7.191,0,0,1,3.435-.877,3.449,3.449,0,0,1,1.828.4,1.108,1.108,0,0,1,.639.89,2.438,2.438,0,0,1-.144.68A.671.671,0,0,1,804.818,2525.435Z" transform="translate(-480.803 -421.29)" fill="none" stroke="#00aeba" stroke-linecap="round" stroke-linejoin="round" stroke-width="2"/>
    <path id="Path_30078" data-name="Path 30078" d="M919.964,2526.685a.708.708,0,0,1-.075-.343.423.423,0,0,1,.223-.419,4.51,4.51,0,0,1,1.337-.124q1.367-.008,2.456-.1t3.356-.4a12.192,12.192,0,0,1,1.635-.117,5.638,5.638,0,0,1,.746.048,3.932,3.932,0,0,1,.5.093.4.4,0,0,1,.237.247.857.857,0,0,1,.089.313c0,.324-.114.488-.344.488q-.227,0-.619-.041t-1.079-.034q-.7,0-1.7.1t-1.11.326a19.327,19.327,0,0,0-.361,2.679q-.251,2.453-.251,3.656a5.686,5.686,0,0,0,.172,1.285,1.319,1.319,0,0,1,.027.165.951.951,0,0,1-.165.546.477.477,0,0,1-.4.244.7.7,0,0,1-.595-.343,4.458,4.458,0,0,1-.237-1.924,55.812,55.812,0,0,1,.57-5.847c.018-.156.028-.236.028-.24q0-.233-.255-.233-.412,0-1.573.1t-1.656.11a1.376,1.376,0,0,1-.962-.233" transform="translate(-590.147 -423.227)" fill="#00aeba"/>
    <path id="Path_30079" data-name="Path 30079" d="M919.964,2526.685a.708.708,0,0,1-.075-.343.423.423,0,0,1,.223-.419,4.51,4.51,0,0,1,1.337-.124q1.367-.008,2.456-.1t3.356-.4a12.192,12.192,0,0,1,1.635-.117,5.638,5.638,0,0,1,.746.048,3.932,3.932,0,0,1,.5.093.4.4,0,0,1,.237.247.857.857,0,0,1,.089.313c0,.324-.114.488-.344.488q-.227,0-.619-.041t-1.079-.034q-.7,0-1.7.1t-1.11.326a19.327,19.327,0,0,0-.361,2.679q-.251,2.453-.251,3.656a5.686,5.686,0,0,0,.172,1.285,1.319,1.319,0,0,1,.027.165.951.951,0,0,1-.165.546.477.477,0,0,1-.4.244.7.7,0,0,1-.595-.343,4.458,4.458,0,0,1-.237-1.924,55.812,55.812,0,0,1,.57-5.847c.018-.156.028-.236.028-.24q0-.233-.255-.233-.412,0-1.573.1t-1.656.11A1.376,1.376,0,0,1,919.964,2526.685Z" transform="translate(-590.147 -423.227)" fill="none" stroke="#00aeba" stroke-linecap="round" stroke-linejoin="round" stroke-width="2"/>
    <path id="Path_30080" data-name="Path 30080" d="M1066.518,2524.239c-.014,0-.139,0-.375-.007a2.828,2.828,0,0,0-.724.069,4.2,4.2,0,0,1-.66.11,4.141,4.141,0,0,0-.433.055,8.084,8.084,0,0,1-1.168.062,5.268,5.268,0,0,0-1.652.179.716.716,0,0,0-.382.652,5.707,5.707,0,0,1-.144.832,9.528,9.528,0,0,0-.337,1.8l.1.007a9.322,9.322,0,0,0,1.305-.09,14.455,14.455,0,0,0,1.471-.219,7.183,7.183,0,0,1,1.532-.24q.859,0,.859.46a.65.65,0,0,1-.574.691q-.574.127-2.395.326a7.276,7.276,0,0,0-2.374.443,3.935,3.935,0,0,0-.312,1.261,12.114,12.114,0,0,0-.165,1.36v.076q.035.344.44.392l.124.007a4.366,4.366,0,0,0,.9-.062l1.319-.192q.735-.1,1.491-.241a8.1,8.1,0,0,1,1.2-.2.789.789,0,0,1,.429.161.577.577,0,0,1,.237.512.423.423,0,0,1-.123.35,4.907,4.907,0,0,1-1.807.343q-.955.035-2.982.323a11.983,11.983,0,0,1-1.347.151,2.367,2.367,0,0,1-1.006-.127q-.2-.127-.244-.622l-.027-.233v-.027a1.69,1.69,0,0,1,.124-.447,13.243,13.243,0,0,0,.4-1.855q.23-1.368.3-2.164.034-.276.11-.667a15.222,15.222,0,0,0,.3-2.6.821.821,0,0,0-.137-.254.381.381,0,0,1-.048-.069q-.048-.158-.089-.261a.5.5,0,0,1-.048-.227v-.069a.326.326,0,0,1,.185-.269.679.679,0,0,1,.357-.117h.021a6.077,6.077,0,0,1,.66.041h.027q.158,0,1.526-.131t3.264-.453c.133-.022.213-.034.241-.034l.1-.007a1.241,1.241,0,0,1,.739.106.741.741,0,0,1,.251.546.527.527,0,0,1-.179.372.608.608,0,0,1-.281.192" transform="translate(-714.416 -421.289)" fill="#00aeba"/>
    <path id="Path_30081" data-name="Path 30081" d="M1066.518,2524.239c-.014,0-.139,0-.375-.007a2.828,2.828,0,0,0-.724.069,4.2,4.2,0,0,1-.66.11,4.141,4.141,0,0,0-.433.055,8.084,8.084,0,0,1-1.168.062,5.268,5.268,0,0,0-1.652.179.716.716,0,0,0-.382.652,5.707,5.707,0,0,1-.144.832,9.528,9.528,0,0,0-.337,1.8l.1.007a9.322,9.322,0,0,0,1.305-.09,14.455,14.455,0,0,0,1.471-.219,7.183,7.183,0,0,1,1.532-.24q.859,0,.859.46a.65.65,0,0,1-.574.691q-.574.127-2.395.326a7.276,7.276,0,0,0-2.374.443,3.935,3.935,0,0,0-.312,1.261,12.114,12.114,0,0,0-.165,1.36v.076q.035.344.44.392l.124.007a4.366,4.366,0,0,0,.9-.062l1.319-.192q.735-.1,1.491-.241a8.1,8.1,0,0,1,1.2-.2.789.789,0,0,1,.429.161.577.577,0,0,1,.237.512.423.423,0,0,1-.123.35,4.907,4.907,0,0,1-1.807.343q-.955.035-2.982.323a11.983,11.983,0,0,1-1.347.151,2.367,2.367,0,0,1-1.006-.127q-.2-.127-.244-.622l-.027-.233v-.027a1.69,1.69,0,0,1,.124-.447,13.243,13.243,0,0,0,.4-1.855q.23-1.368.3-2.164.034-.276.11-.667a15.222,15.222,0,0,0,.3-2.6.821.821,0,0,0-.137-.254.381.381,0,0,1-.048-.069q-.048-.158-.089-.261a.5.5,0,0,1-.048-.227v-.069a.326.326,0,0,1,.185-.269.679.679,0,0,1,.357-.117h.021a6.077,6.077,0,0,1,.66.041h.027q.158,0,1.526-.131t3.264-.453c.133-.022.213-.034.241-.034l.1-.007a1.241,1.241,0,0,1,.739.106.741.741,0,0,1,.251.546.527.527,0,0,1-.179.372A.608.608,0,0,1,1066.518,2524.239Z" transform="translate(-714.416 -421.289)" fill="none" stroke="#00aeba" stroke-linecap="round" stroke-linejoin="round" stroke-width="2"/>
    <path id="Path_30082" data-name="Path 30082" d="M1192.5,2525.455a.351.351,0,0,0-.309-.35q-.563-.138-.564-.474a.739.739,0,0,1,.224-.5.646.646,0,0,1,.477-.244l.962.028q.674,0,1.773-.089t1.635-.089a4.3,4.3,0,0,1,3.047,1.069,3.658,3.658,0,0,1,1.151,2.813,4.761,4.761,0,0,1-1.645,3.494,10.019,10.019,0,0,1-4.689,2.3,5.362,5.362,0,0,0-1.628.584,1.8,1.8,0,0,1-.935.385.575.575,0,0,1-.464-.278.851.851,0,0,1-.2-.443,1.33,1.33,0,0,1,.137-.357,2.583,2.583,0,0,0,.2-.626,10.06,10.06,0,0,0,.1-1.133q.035-.812.251-2.621t.354-2.567a5.939,5.939,0,0,0,.124-.907m1.244-.46a49.214,49.214,0,0,0-.817,6.932,1.924,1.924,0,0,0,.089.673.333.333,0,0,0,.213.048,11.855,11.855,0,0,0,2.3-.577,6.98,6.98,0,0,0,3.023-1.78,3.831,3.831,0,0,0,1.161-2.734,2.525,2.525,0,0,0-.9-2.03,3.541,3.541,0,0,0-2.367-.759,16.893,16.893,0,0,0-2.151.165q-.282.041-.557.062" transform="translate(-833.162 -421.935)" fill="#00aeba"/>
    <path id="Path_30083" data-name="Path 30083" d="M1192.5,2525.455a.351.351,0,0,0-.309-.35q-.563-.138-.564-.474a.739.739,0,0,1,.224-.5.646.646,0,0,1,.477-.244l.962.028q.674,0,1.773-.089t1.635-.089a4.3,4.3,0,0,1,3.047,1.069,3.658,3.658,0,0,1,1.151,2.813,4.761,4.761,0,0,1-1.645,3.494,10.019,10.019,0,0,1-4.689,2.3,5.362,5.362,0,0,0-1.628.584,1.8,1.8,0,0,1-.935.385.575.575,0,0,1-.464-.278.851.851,0,0,1-.2-.443,1.33,1.33,0,0,1,.137-.357,2.583,2.583,0,0,0,.2-.626,10.06,10.06,0,0,0,.1-1.133q.035-.812.251-2.621t.354-2.567A5.939,5.939,0,0,0,1192.5,2525.455Zm1.244-.46a49.214,49.214,0,0,0-.817,6.932,1.924,1.924,0,0,0,.089.673.333.333,0,0,0,.213.048,11.855,11.855,0,0,0,2.3-.577,6.98,6.98,0,0,0,3.023-1.78,3.831,3.831,0,0,0,1.161-2.734,2.525,2.525,0,0,0-.9-2.03,3.541,3.541,0,0,0-2.367-.759,16.893,16.893,0,0,0-2.151.165Q1194.014,2524.974,1193.739,2525Z" transform="translate(-833.162 -421.935)" fill="none" stroke="#00aeba" stroke-linecap="round" stroke-linejoin="round" stroke-width="2"/>
    <path id="Path_30084" data-name="Path 30084" d="M1436.8,2527.035q.268,0,.268.33t-.763.983a6.049,6.049,0,0,1-1.762,1.016,5.229,5.229,0,0,1-1.831.378,3.454,3.454,0,0,1-2.216-.8,2.813,2.813,0,0,1-1-2.329,8.042,8.042,0,0,1,2.395-5.418q2.395-2.635,4.614-2.635a1.771,1.771,0,0,1,1.329.512,1.66,1.66,0,0,1,.5,1.192,5.372,5.372,0,0,1-.072,1,.973.973,0,0,1-.436.615,1.154,1.154,0,0,1-.584.251.351.351,0,0,1-.275-.137.553.553,0,0,1-.117-.372,3.792,3.792,0,0,1,.117-.659,3.559,3.559,0,0,0,.117-.735q0-.7-.611-.7a4.18,4.18,0,0,0-2.347,1.09,9.549,9.549,0,0,0-2.374,2.762,6.213,6.213,0,0,0-.976,3.082,2.245,2.245,0,0,0,.56,1.563,2.038,2.038,0,0,0,1.6.622,4.557,4.557,0,0,0,1.453-.3,6.372,6.372,0,0,0,1.57-.8,3.118,3.118,0,0,1,.845-.5" transform="translate(-1046.391 -417.296)" fill="#00aeba"/>
    <path id="Path_30085" data-name="Path 30085" d="M1436.8,2527.035q.268,0,.268.33t-.763.983a6.049,6.049,0,0,1-1.762,1.016,5.229,5.229,0,0,1-1.831.378,3.454,3.454,0,0,1-2.216-.8,2.813,2.813,0,0,1-1-2.329,8.042,8.042,0,0,1,2.395-5.418q2.395-2.635,4.614-2.635a1.771,1.771,0,0,1,1.329.512,1.66,1.66,0,0,1,.5,1.192,5.372,5.372,0,0,1-.072,1,.973.973,0,0,1-.436.615,1.154,1.154,0,0,1-.584.251.351.351,0,0,1-.275-.137.553.553,0,0,1-.117-.372,3.792,3.792,0,0,1,.117-.659,3.559,3.559,0,0,0,.117-.735q0-.7-.611-.7a4.18,4.18,0,0,0-2.347,1.09,9.549,9.549,0,0,0-2.374,2.762,6.213,6.213,0,0,0-.976,3.082,2.245,2.245,0,0,0,.56,1.563,2.038,2.038,0,0,0,1.6.622,4.557,4.557,0,0,0,1.453-.3,6.372,6.372,0,0,0,1.57-.8A3.118,3.118,0,0,1,1436.8,2527.035Z" transform="translate(-1046.391 -417.296)" fill="none" stroke="#00aeba" stroke-linecap="round" stroke-linejoin="round" stroke-width="2"/>
    <path id="Path_30086" data-name="Path 30086" d="M1562.289,2523.329c.041.033.062.144.062.336a1.237,1.237,0,0,1-.062.447l.09.289a11.492,11.492,0,0,0,.446,1.333q.275.7.543,1.5a23.519,23.519,0,0,0,1.275,3.164,7.242,7.242,0,0,0,1.213,1.852,3.969,3.969,0,0,1,.429.463.523.523,0,0,1,.086.3.707.707,0,0,1-.2.511.65.65,0,0,1-.484.21q-.879,0-2.13-2.769-.5-1.092-.6-1.093a10.407,10.407,0,0,0-1.419.2,18.916,18.916,0,0,0-1.989.467,3.139,3.139,0,0,1-.653.158.542.542,0,0,1-.357-.172.123.123,0,0,0-.082-.028q-.151,0-.653.893-.824,1.477-1.041,1.763a.608.608,0,0,1-.478.285.764.764,0,0,1-.447-.217.6.6,0,0,1-.261-.443,1.2,1.2,0,0,1,.247-.594q.247-.375,1.01-1.508a41.344,41.344,0,0,0,2.295-3.779,32.888,32.888,0,0,1,1.876-3.315q.4-.505.612-.505a.877.877,0,0,1,.68.248m.419,5.462q-.241-.55-.708-2.013-.509-1.56-.646-1.9-.378.8-1.168,2.26l-1.244,2.357a1.933,1.933,0,0,1,.763-.179,7.542,7.542,0,0,0,.825-.124q1.876-.377,2.178-.405" transform="translate(-1159.263 -421.348)" fill="#00aeba"/>
    <path id="Path_30087" data-name="Path 30087" d="M1562.289,2523.329c.041.033.062.144.062.336a1.237,1.237,0,0,1-.062.447l.09.289a11.492,11.492,0,0,0,.446,1.333q.275.7.543,1.5a23.519,23.519,0,0,0,1.275,3.164,7.242,7.242,0,0,0,1.213,1.852,3.969,3.969,0,0,1,.429.463.523.523,0,0,1,.086.3.707.707,0,0,1-.2.511.65.65,0,0,1-.484.21q-.879,0-2.13-2.769-.5-1.092-.6-1.093a10.407,10.407,0,0,0-1.419.2,18.916,18.916,0,0,0-1.989.467,3.139,3.139,0,0,1-.653.158.542.542,0,0,1-.357-.172.123.123,0,0,0-.082-.028q-.151,0-.653.893-.824,1.477-1.041,1.763a.608.608,0,0,1-.478.285.764.764,0,0,1-.447-.217.6.6,0,0,1-.261-.443,1.2,1.2,0,0,1,.247-.594q.247-.375,1.01-1.508a41.344,41.344,0,0,0,2.295-3.779,32.888,32.888,0,0,1,1.876-3.315q.4-.505.612-.505A.877.877,0,0,1,1562.289,2523.329Zm.419,5.462q-.241-.55-.708-2.013-.509-1.56-.646-1.9-.378.8-1.168,2.26l-1.244,2.357a1.933,1.933,0,0,1,.763-.179,7.542,7.542,0,0,0,.825-.124Q1562.406,2528.819,1562.708,2528.791Z" transform="translate(-1159.263 -421.348)" fill="none" stroke="#00aeba" stroke-linecap="round" stroke-linejoin="round" stroke-width="2"/>
    <path id="Path_30088" data-name="Path 30088" d="M1712.832,2523.8a20.593,20.593,0,0,1,2.948-.33,3.623,3.623,0,0,1,2.315.687,2.117,2.117,0,0,1,.866,1.725,2.742,2.742,0,0,1-.917,1.954,6.378,6.378,0,0,1-2.3,1.44c-.115.045-.172.094-.172.144a7.724,7.724,0,0,0,1.419,1.213,30.812,30.812,0,0,0,2.607,1.831.619.619,0,0,1,.337.543.611.611,0,0,1-.23.436.659.659,0,0,1-.43.217,2.714,2.714,0,0,1-1.295-.673q-.89-.674-1.845-1.484a12.781,12.781,0,0,0-2.308-1.752,1.423,1.423,0,0,1-.66-.13.451.451,0,0,1-.192-.419.572.572,0,0,1,.247-.457.914.914,0,0,1,.584-.2,3.046,3.046,0,0,1,.371.034,2.629,2.629,0,0,0,.378.041,4.541,4.541,0,0,0,1.879-.818,2.308,2.308,0,0,0,1.33-1.924,1.212,1.212,0,0,0-.594-1,2.565,2.565,0,0,0-1.515-.419,9.883,9.883,0,0,0-1.374.1,5.464,5.464,0,0,0-.876.165.574.574,0,0,0-.306.354,14.1,14.1,0,0,0-.392,1.817q-.275,1.533-.43,2.892a19.761,19.761,0,0,0-.154,2,4.725,4.725,0,0,0,.069.859,3.659,3.659,0,0,1,.062.584.629.629,0,0,1-.216.426.652.652,0,0,1-.47.219q-.722,0-.722-1.167a37.309,37.309,0,0,1,.969-7.332,2.685,2.685,0,0,0,.048-.281.287.287,0,0,0-.048-.124,1.516,1.516,0,0,1-.275-.577.561.561,0,0,1,.254-.454.794.794,0,0,1,.46-.192Z" transform="translate(-1298.274 -421.701)" fill="#00aeba"/>
    <path id="Path_30089" data-name="Path 30089" d="M1712.832,2523.8a20.593,20.593,0,0,1,2.948-.33,3.623,3.623,0,0,1,2.315.687,2.117,2.117,0,0,1,.866,1.725,2.742,2.742,0,0,1-.917,1.954,6.378,6.378,0,0,1-2.3,1.44c-.115.045-.172.094-.172.144a7.724,7.724,0,0,0,1.419,1.213,30.812,30.812,0,0,0,2.607,1.831.619.619,0,0,1,.337.543.611.611,0,0,1-.23.436.659.659,0,0,1-.43.217,2.714,2.714,0,0,1-1.295-.673q-.89-.674-1.845-1.484a12.781,12.781,0,0,0-2.308-1.752,1.423,1.423,0,0,1-.66-.13.451.451,0,0,1-.192-.419.572.572,0,0,1,.247-.457.914.914,0,0,1,.584-.2,3.046,3.046,0,0,1,.371.034,2.629,2.629,0,0,0,.378.041,4.541,4.541,0,0,0,1.879-.818,2.308,2.308,0,0,0,1.33-1.924,1.212,1.212,0,0,0-.594-1,2.565,2.565,0,0,0-1.515-.419,9.883,9.883,0,0,0-1.374.1,5.464,5.464,0,0,0-.876.165.574.574,0,0,0-.306.354,14.1,14.1,0,0,0-.392,1.817q-.275,1.533-.43,2.892a19.761,19.761,0,0,0-.154,2,4.725,4.725,0,0,0,.069.859,3.659,3.659,0,0,1,.062.584.629.629,0,0,1-.216.426.652.652,0,0,1-.47.219q-.722,0-.722-1.167a37.309,37.309,0,0,1,.969-7.332,2.685,2.685,0,0,0,.048-.281.287.287,0,0,0-.048-.124,1.516,1.516,0,0,1-.275-.577.561.561,0,0,1,.254-.454.794.794,0,0,1,.46-.192Z" transform="translate(-1298.274 -421.701)" fill="none" stroke="#00aeba" stroke-linecap="round" stroke-linejoin="round" stroke-width="2"/>
    <path id="Path_30090" data-name="Path 30090" d="M1857.2,2524.239c-.014,0-.139,0-.375-.007a2.833,2.833,0,0,0-.725.069,4.186,4.186,0,0,1-.66.11,4.149,4.149,0,0,0-.433.055,8.083,8.083,0,0,1-1.168.062,5.267,5.267,0,0,0-1.652.179.716.716,0,0,0-.382.652,5.722,5.722,0,0,1-.144.832,9.532,9.532,0,0,0-.337,1.8l.1.007a9.328,9.328,0,0,0,1.305-.09,14.468,14.468,0,0,0,1.47-.219,7.181,7.181,0,0,1,1.532-.24q.858,0,.859.46a.65.65,0,0,1-.574.691q-.573.127-2.394.326a7.278,7.278,0,0,0-2.374.443,3.927,3.927,0,0,0-.312,1.261,12.046,12.046,0,0,0-.166,1.36v.076c.023.229.169.36.44.392l.123.007a4.37,4.37,0,0,0,.9-.062l1.319-.192q.735-.1,1.491-.241a8.105,8.105,0,0,1,1.2-.2.789.789,0,0,1,.429.161.578.578,0,0,1,.237.512.423.423,0,0,1-.124.35,4.907,4.907,0,0,1-1.807.343q-.955.035-2.982.323a11.986,11.986,0,0,1-1.347.151,2.369,2.369,0,0,1-1.007-.127q-.2-.127-.244-.622l-.028-.233v-.027a1.7,1.7,0,0,1,.124-.447,13.225,13.225,0,0,0,.4-1.855q.23-1.368.3-2.164.034-.276.11-.667a15.239,15.239,0,0,0,.3-2.6.815.815,0,0,0-.137-.254.371.371,0,0,1-.048-.069c-.032-.105-.062-.192-.089-.261a.5.5,0,0,1-.048-.227v-.069a.327.327,0,0,1,.185-.269.68.68,0,0,1,.357-.117h.021a6.079,6.079,0,0,1,.66.041h.027q.158,0,1.526-.131t3.263-.453c.133-.022.213-.034.24-.034l.1-.007a1.242,1.242,0,0,1,.739.106.742.742,0,0,1,.25.546.528.528,0,0,1-.178.372.61.61,0,0,1-.281.192" transform="translate(-1422.305 -421.289)" fill="#00aeba"/>
    <path id="Path_30091" data-name="Path 30091" d="M1857.2,2524.239c-.014,0-.139,0-.375-.007a2.833,2.833,0,0,0-.725.069,4.186,4.186,0,0,1-.66.11,4.149,4.149,0,0,0-.433.055,8.083,8.083,0,0,1-1.168.062,5.267,5.267,0,0,0-1.652.179.716.716,0,0,0-.382.652,5.722,5.722,0,0,1-.144.832,9.532,9.532,0,0,0-.337,1.8l.1.007a9.328,9.328,0,0,0,1.305-.09,14.468,14.468,0,0,0,1.47-.219,7.181,7.181,0,0,1,1.532-.24q.858,0,.859.46a.65.65,0,0,1-.574.691q-.573.127-2.394.326a7.278,7.278,0,0,0-2.374.443,3.927,3.927,0,0,0-.312,1.261,12.046,12.046,0,0,0-.166,1.36v.076c.023.229.169.36.44.392l.123.007a4.37,4.37,0,0,0,.9-.062l1.319-.192q.735-.1,1.491-.241a8.105,8.105,0,0,1,1.2-.2.789.789,0,0,1,.429.161.578.578,0,0,1,.237.512.423.423,0,0,1-.124.35,4.907,4.907,0,0,1-1.807.343q-.955.035-2.982.323a11.986,11.986,0,0,1-1.347.151,2.369,2.369,0,0,1-1.007-.127q-.2-.127-.244-.622l-.028-.233v-.027a1.7,1.7,0,0,1,.124-.447,13.225,13.225,0,0,0,.4-1.855q.23-1.368.3-2.164.034-.276.11-.667a15.239,15.239,0,0,0,.3-2.6.815.815,0,0,0-.137-.254.371.371,0,0,1-.048-.069c-.032-.105-.062-.192-.089-.261a.5.5,0,0,1-.048-.227v-.069a.327.327,0,0,1,.185-.269.68.68,0,0,1,.357-.117h.021a6.079,6.079,0,0,1,.66.041h.027q.158,0,1.526-.131t3.263-.453c.133-.022.213-.034.24-.034l.1-.007a1.242,1.242,0,0,1,.739.106.742.742,0,0,1,.25.546.528.528,0,0,1-.178.372A.61.61,0,0,1,1857.2,2524.239Z" transform="translate(-1422.305 -421.289)" fill="none" stroke="#00aeba" stroke-linecap="round" stroke-linejoin="round" stroke-width="2"/>
  </g>
</svg>
