<svg xmlns="http://www.w3.org/2000/svg" width="260.5" height="33.135" viewBox="0 0 260.5 33.135">
  <path id="Path_30053" data-name="Path 30053" d="M246.415,269.159c-1.4,3.694-1.405,3.753-4.352,2.881-14.935-4.422-29.989-7.775-45.059-10.922-12.1-2.527-24.259-4.371-36.433-6.029a372.734,372.734,0,0,0-62.327-3.613,277.683,277.683,0,0,0-36.593,3.633,243.462,243.462,0,0,0-45.705,12.082,146.128,146.128,0,0,0-26.56,12.687c-.66.412-1.065.356-1.559-.378-.525-.779-1.145-1.416-1.912-2.345a128.867,128.867,0,0,1,16.474-8.829,216.839,216.839,0,0,1,39.263-13.447,249.537,249.537,0,0,1,35.441-6.059c8.126-.742,16.251-1.358,24.39-1.525a9.589,9.589,0,0,0,1.591-.3h12.619a4.161,4.161,0,0,0,.948.255q17.938.494,35.823,2.586c9.5,1.109,18.98,2.439,28.44,4.094q11.857,2.074,23.678,4.573c9.846,2.093,19.652,4.537,29.455,7.029q6.189,1.573,12.378,3.14Z" transform="translate(14.085 -247)" fill="#fff"/>
</svg>
