<svg xmlns="http://www.w3.org/2000/svg" width="42.461" height="30" viewBox="0 0 42.461 30">
  <g id="Group_27208" data-name="Group 27208" transform="translate(-5142 3674.128)">
    <g id="credit-card-6379" transform="translate(5142 -3670.243)">
      <g id="Group_27206" data-name="Group 27206" transform="translate(0 0)">
        <path id="Path_19905" data-name="Path 19905" d="M39.683,73.972H2.419A2.419,2.419,0,0,1,0,71.554V50.276a2.419,2.419,0,0,1,2.419-2.419H39.683A2.419,2.419,0,0,1,42.1,50.276V71.553A2.419,2.419,0,0,1,39.683,73.972Z" transform="translate(0 -47.857)" fill="#363b38"/>
        <path id="Path_19906" data-name="Path 19906" d="M40.537,47.857H39.88V58.865a13.57,13.57,0,0,1-13.57,13.57H1.025a2.415,2.415,0,0,0,2.247,1.538H40.537a2.419,2.419,0,0,0,2.419-2.419V50.276A2.419,2.419,0,0,0,40.537,47.857Z" transform="translate(-0.854 -47.857)" fill="#2e322f"/>
        <path id="Path_19907" data-name="Path 19907" d="M22.425,75.014H17.26a.993.993,0,0,1-.993-.993V71.24a.993.993,0,0,1,.993-.993h5.165a.993.993,0,0,1,.993.993v2.781A.993.993,0,0,1,22.425,75.014Z" transform="translate(-13.55 -66.507)" fill="#eaa500"/>
        <path id="Path_19908" data-name="Path 19908" d="M23.069,123.95H17.05a.523.523,0,0,1,0-1.045h6.02a.523.523,0,1,1,0,1.045Z" transform="translate(-13.767 -110.37)" fill="#545c56"/>
        <path id="Path_19909" data-name="Path 19909" d="M75.721,123.95H69.7a.523.523,0,1,1,0-1.045h6.02a.523.523,0,1,1,0,1.045Z" transform="translate(-57.625 -110.37)" fill="#545c56"/>
        <path id="Path_19910" data-name="Path 19910" d="M128.372,123.95h-6.02a.523.523,0,1,1,0-1.045h6.02a.523.523,0,0,1,0,1.045Z" transform="translate(-101.481 -110.37)" fill="#545c56"/>
        <path id="Path_19911" data-name="Path 19911" d="M181.024,123.95H175a.523.523,0,0,1,0-1.045h6.02a.523.523,0,1,1,0,1.045Z" transform="translate(-145.339 -110.37)" fill="#545c56"/>
        <path id="Path_19912" data-name="Path 19912" d="M28.293,177.117H17.05a.523.523,0,0,1,0-1.045H28.293a.523.523,0,0,1,0,1.045Z" transform="translate(-13.767 -154.658)" fill="#545c56"/>
        <path id="Path_19913" data-name="Path 19913" d="M64.765,158.352h-3.93a.523.523,0,1,1,0-1.045h3.93a.523.523,0,0,1,0,1.045Z" transform="translate(-50.239 -139.026)" fill="#545c56"/>
        <path id="Path_19914" data-name="Path 19914" d="M176.178,155.324a2.368,2.368,0,0,0-1.828.871,2.384,2.384,0,1,0,0,3.026,2.379,2.379,0,1,0,1.828-3.9Z" transform="translate(-141.721 -137.375)" fill="#545c56"/>
        <path id="Path_19915" data-name="Path 19915" d="M197.927,164.822a2.335,2.335,0,0,0,1.4.467,2.383,2.383,0,0,0,1.97-3.725A13.635,13.635,0,0,1,197.927,164.822Z" transform="translate(-164.869 -142.573)" fill="#494f4a"/>
      </g>
    </g>
    <g id="quality-3602" transform="translate(5166.746 -3674.128)">
      <g id="Group_27207" data-name="Group 27207" transform="translate(0 0)">
        <path id="Path_19916" data-name="Path 19916" d="M115.9,3.255A15.6,15.6,0,0,1,109.03.3a1.43,1.43,0,0,0-.878-.3,37.858,37.858,0,0,0,0,23.091,2.1,2.1,0,0,0,.657-.105c5.025-1.669,8.271-5.654,8.271-10.151V4.673A1.44,1.44,0,0,0,115.9,3.255Z" transform="translate(-99.366 0.006)" fill="#fff"/>
        <path id="Path_19917" data-name="Path 19917" d="M31.3,3.255A15.6,15.6,0,0,0,38.17.3a1.43,1.43,0,0,1,.878-.3V23.086a2.1,2.1,0,0,1-.657-.105c-5.025-1.669-8.271-5.654-8.271-10.151V4.673A1.44,1.44,0,0,1,31.3,3.255Z" transform="translate(-30.12 0.006)" fill="#efefef"/>
        <path id="Path_19918" data-name="Path 19918" d="M71.477,63.025c-.047,0-.094-.007-.142-.007a5.516,5.516,0,0,0,0,11.032c.048,0,.094-.006.142-.007A41.677,41.677,0,0,0,71.477,63.025Z" transform="translate(-62.549 -57.245)" fill="#cfe6db"/>
        <path id="Path_19919" data-name="Path 19919" d="M127.585,63.025c.048,0,.094-.007.142-.007a5.516,5.516,0,1,1,0,11.032c-.048,0-.094-.006-.142-.007Z" transform="translate(-118.657 -57.245)" fill="#e4f0ea"/>
        <path id="Path_19920" data-name="Path 19920" d="M94.454,110.163l-.622.622-.839-.839a.765.765,0,0,0-1.08,0l-.577.577a.765.765,0,0,0,0,1.08l1.956,1.956a.764.764,0,0,0,1.08,0l.082-.082A3.936,3.936,0,0,0,94.454,110.163Z" transform="translate(-85.526 -99.671)" fill="#165c3a"/>
        <path id="Path_19921" data-name="Path 19921" d="M130.421,100.118l-.577-.577a.782.782,0,0,0-1.08,0l-1.177,1.177v3.314l2.834-2.834A.764.764,0,0,0,130.421,100.118Z" transform="translate(-118.659 -90.226)" fill="#196942"/>
      </g>
    </g>
  </g>
</svg>
