<svg xmlns="http://www.w3.org/2000/svg" width="12.693" height="12.682" viewBox="0 0 12.693 12.682">
  <path id="favorite" d="M8.882,2.375l1.456,3.164a.669.669,0,0,0,.443.38l3.291.506a.573.573,0,0,1,.38,1.013l-2.4,2.468a.883.883,0,0,0-.19.57l.57,3.417a.635.635,0,0,1-.886.7L8.565,12.943a.475.475,0,0,0-.57,0L5.021,14.589a.611.611,0,0,1-.886-.7l.57-3.417a.638.638,0,0,0-.19-.57L2.11,7.438a.658.658,0,0,1,.38-1.076l3.291-.506a.543.543,0,0,0,.443-.38L7.679,2.312A.686.686,0,0,1,8.882,2.375Z" transform="translate(-1.956 -1.987)" fill="#ffc400"/>
</svg>
