<svg xmlns="http://www.w3.org/2000/svg" width="188.31" height="33.135" viewBox="0 0 188.31 33.135">
  <path id="Path_19923" data-name="Path 19923" d="M174.225,269.159c-1.01,3.694-1.016,3.753-3.146,2.881a317.411,317.411,0,0,0-32.572-10.922c-8.747-2.527-17.537-4.371-26.336-6.029a195.976,195.976,0,0,0-45.055-3.613,147.188,147.188,0,0,0-26.452,3.633A138.976,138.976,0,0,0,7.624,267.191a96.646,96.646,0,0,0-19.2,12.687c-.477.412-.77.356-1.127-.378-.38-.779-.827-1.416-1.382-2.345a88.918,88.918,0,0,1,11.909-8.829,130.127,130.127,0,0,1,28.382-13.447,135.639,135.639,0,0,1,25.62-6.059c5.874-.742,11.747-1.358,17.631-1.525a5.251,5.251,0,0,0,1.15-.3h9.122a2.384,2.384,0,0,0,.685.255,213.085,213.085,0,0,1,25.9,2.586c6.866,1.109,13.72,2.439,20.559,4.094q8.571,2.074,17.116,4.573c7.118,2.093,14.206,4.537,21.292,7.029q4.474,1.573,8.948,3.14Z" transform="translate(14.085 -247)" fill="#00aeba"/>
</svg>
