<svg xmlns="http://www.w3.org/2000/svg" width="387.826" height="33.135" viewBox="0 0 387.826 33.135">
  <g id="Group_27209" data-name="Group 27209" transform="translate(14.085 -247)">
    <path id="Path_19922" data-name="Path 19922" d="M373.741,269.159c-2.08,3.694-2.092,3.753-6.479,2.881-22.234-4.422-44.647-7.775-67.083-10.922-18.015-2.527-36.117-4.371-54.24-6.029a823.082,823.082,0,0,0-92.792-3.613q-27.31.59-54.478,3.633a510.269,510.269,0,0,0-68.045,12.082A275.363,275.363,0,0,0-8.917,279.879a1.8,1.8,0,0,1-2.321-.378c-.782-.779-1.7-1.416-2.847-2.345a234.777,234.777,0,0,1,24.526-8.829A439.221,439.221,0,0,1,68.9,254.881c17.483-2.815,35.063-4.973,52.764-6.059,12.1-.742,24.194-1.358,36.312-1.525a20.65,20.65,0,0,0,2.368-.3h18.787a8.7,8.7,0,0,0,1.411.255q26.706.494,53.332,2.586c14.14,1.109,28.256,2.439,42.341,4.094q17.652,2.074,35.251,4.573c14.659,2.093,29.258,4.537,43.851,7.029q9.213,1.573,18.428,3.14Z" transform="translate(0 0)" fill="#00aeba"/>
  </g>
</svg>
