<svg id="twitter-2170" xmlns="http://www.w3.org/2000/svg" width="40" height="40" viewBox="0 0 40 40">
  <g id="Group_30907" data-name="Group 30907">
    <path id="Path_30093" data-name="Path 30093" d="M20,0A20,20,0,1,0,40,20,20,20,0,0,0,20,0Zm8.836,15.468q.013.293.013.589A12.967,12.967,0,0,1,8.888,26.982a9.251,9.251,0,0,0,1.088.063,9.151,9.151,0,0,0,5.663-1.952,4.565,4.565,0,0,1-4.259-3.167,4.55,4.55,0,0,0,2.059-.078,4.561,4.561,0,0,1-3.658-4.47c0-.02,0-.039,0-.058a4.529,4.529,0,0,0,2.065.57A4.563,4.563,0,0,1,10.435,11.8a12.945,12.945,0,0,0,9.4,4.764,4.562,4.562,0,0,1,7.77-4.158A9.137,9.137,0,0,0,30.5,11.3a4.576,4.576,0,0,1-2,2.522,9.091,9.091,0,0,0,2.618-.718A9.242,9.242,0,0,1,28.836,15.468Z" fill="#2996ed"/>
  </g>
</svg>
