<svg xmlns="http://www.w3.org/2000/svg" width="14.783" height="17" viewBox="0 0 14.783 17">
  <g id="user_icon" transform="translate(-4 -1)">
    <path id="Path_31823" data-name="Path 31823" d="M17.7,8.391a3.7,3.7,0,1,1,3.7-3.7,3.7,3.7,0,0,1-3.7,3.7Zm0-5.913A2.217,2.217,0,1,0,19.913,4.7,2.217,2.217,0,0,0,17.7,2.478Z" transform="translate(-6.304)" fill="#333"/>
    <path id="Path_31824" data-name="Path 31824" d="M18.043,31.87H4.739A.739.739,0,0,1,4,31.13V28.913A5.913,5.913,0,0,1,9.913,23H12.87a5.913,5.913,0,0,1,5.913,5.913V31.13A.739.739,0,0,1,18.043,31.87ZM5.478,30.391H17.3V28.913a4.435,4.435,0,0,0-4.435-4.435H9.913a4.435,4.435,0,0,0-4.435,4.435Z" transform="translate(0 -13.87)" fill="#333"/>
  </g>
</svg>
