<svg xmlns="http://www.w3.org/2000/svg" width="252.139" height="269.08" viewBox="0 0 252.139 269.08">
  <path id="Path_32023" data-name="Path 32023" d="M294.518,144.553c25.5,5.921,40.046,31.492,58.157,50.4,14.01,14.627,26.194,29.748,35.727,47.619,10.117,18.966,20.636,37.967,21.39,59.449.843,24.046-2.884,49.112-16.9,68.671-14.592,20.368-36.61,37.1-61.415,40.64-23.9,3.409-44.183-15.592-67.387-22.269-23.377-6.727-50.516-1.792-69.423-17.1-19.992-16.183-30.005-41.884-34.682-67.176-4.8-25.941-1.7-52.593,8-77.126,10.051-25.42,25.129-49.439,47.976-64.446,22.959-15.081,51.794-24.877,78.552-18.665" transform="translate(-157.766 -142.658)" fill="#e3f1f9"/>
</svg>
