<svg xmlns="http://www.w3.org/2000/svg" width="246.138" height="262.677" viewBox="0 0 246.138 262.677">
  <path id="Path_32024" data-name="Path 32024" d="M291.263,144.508c24.9,5.78,39.093,30.742,56.773,49.2,13.676,14.279,25.571,29.04,34.877,46.485,9.877,18.514,20.145,37.064,20.881,58.035.823,23.473-2.815,47.943-16.494,67.037-14.244,19.883-35.739,36.219-59.953,39.673-23.335,3.328-43.131-15.221-65.784-21.739-22.82-6.566-49.314-1.75-67.771-16.691-19.516-15.8-29.291-40.887-33.856-65.577-4.682-25.324-1.658-51.341,7.811-75.29,9.812-24.815,24.531-48.262,46.834-62.912,22.413-14.722,50.561-24.285,76.683-18.221" transform="translate(-157.766 -142.658)" fill="#e0f8f7"/>
</svg>
