<svg xmlns="http://www.w3.org/2000/svg" xmlns:xlink="http://www.w3.org/1999/xlink" width="169.668" height="183.676" viewBox="0 0 169.668 183.676">
  <defs>
    <clipPath id="clip-path">
      <rect id="Rectangle_17695" data-name="Rectangle 17695" width="156.724" height="154.741" fill="none"/>
    </clipPath>
    <clipPath id="clip-path-3">
      <rect id="Rectangle_17657" data-name="Rectangle 17657" width="132.931" height="154.741" fill="none"/>
    </clipPath>
    <clipPath id="clip-path-4">
      <rect id="Rectangle_17662" data-name="Rectangle 17662" width="61.221" height="58.892" fill="none"/>
    </clipPath>
    <clipPath id="clip-path-6">
      <rect id="Rectangle_17663" data-name="Rectangle 17663" width="25.42" height="66.223" fill="none"/>
    </clipPath>
    <clipPath id="clip-path-7">
      <rect id="Rectangle_17664" data-name="Rectangle 17664" width="42.581" height="96.966" fill="none"/>
    </clipPath>
    <clipPath id="clip-path-8">
      <rect id="Rectangle_17665" data-name="Rectangle 17665" width="23.453" height="31.812" fill="none"/>
    </clipPath>
    <clipPath id="clip-path-9">
      <rect id="Rectangle_17673" data-name="Rectangle 17673" width="44.516" height="42.459" fill="none"/>
    </clipPath>
    <clipPath id="clip-path-10">
      <rect id="Rectangle_17687" data-name="Rectangle 17687" width="6.346" height="24.791" fill="none"/>
    </clipPath>
    <clipPath id="clip-path-11">
      <rect id="Rectangle_17688" data-name="Rectangle 17688" width="9.929" height="45.599" fill="none"/>
    </clipPath>
    <clipPath id="clip-path-12">
      <rect id="Rectangle_17690" data-name="Rectangle 17690" width="31.009" height="86.165" fill="none"/>
    </clipPath>
    <clipPath id="clip-path-14">
      <rect id="Rectangle_17691" data-name="Rectangle 17691" width="34.187" height="53.936" fill="none"/>
    </clipPath>
    <clipPath id="clip-path-15">
      <rect id="Rectangle_17692" data-name="Rectangle 17692" width="10.322" height="10.349" fill="none"/>
    </clipPath>
    <clipPath id="clip-path-16">
      <rect id="Rectangle_17693" data-name="Rectangle 17693" width="23.256" height="83.197" fill="none"/>
    </clipPath>
  </defs>
  <g id="Group_31013" data-name="Group 31013" transform="translate(-1157.39 -3218)">
    <path id="Path_32029" data-name="Path 32029" d="M314.515,175.567c20.722,4.441,32.675,23.99,48.439,38.155,14.962,13.445,37.77,22.107,40.761,42,2.978,19.811-16.482,34.579-26.656,51.838-10.031,17.018-13.17,41.851-32.031,47.723-18.826,5.86-34.975-13.94-53.326-21.153-17.58-6.91-40.263-4.549-51.214-19.94-11.241-15.8-3.727-36.954-3.058-56.332.829-23.991-9.007-51.931,7.4-69.45,16.648-17.773,45.869-17.943,69.681-12.84" transform="translate(923.037 3045.325)" fill="#b7e8e6"/>
    <g id="Group_30993" data-name="Group 30993" transform="translate(1157.39 3246.935)">
      <g id="Group_30992" data-name="Group 30992" clip-path="url(#clip-path)">
        <g id="Group_30991" data-name="Group 30991">
          <g id="Group_30990" data-name="Group 30990" clip-path="url(#clip-path)">
            <path id="Path_32282" data-name="Path 32282" d="M63.292,96.915l16.75,5.06a1.229,1.229,0,0,1,.822,1.532l-2.979,9.863a1.23,1.23,0,0,1-1.533.821l-16.75-5.06a1.229,1.229,0,0,1-.821-1.533l2.979-9.862A1.229,1.229,0,0,1,63.292,96.915Z" transform="translate(-38.213 -63.027)" fill="none" stroke="#263238" stroke-miterlimit="10.028" stroke-width="1.003"/>
            <line id="Line_240" data-name="Line 240" x2="19.041" y2="5.771" transform="translate(22.955 36.232)" fill="none" stroke="#263238" stroke-miterlimit="10" stroke-width="1"/>
            <line id="Line_241" data-name="Line 241" x2="19.045" y2="5.771" transform="translate(22.375 38.143)" fill="none" stroke="#263238" stroke-miterlimit="10" stroke-width="1"/>
            <path id="Path_32283" data-name="Path 32283" d="M98.834,133.375a1.245,1.245,0,0,0,.108.971,1.257,1.257,0,0,1-.919.077,1.24,1.24,0,1,1,1.439-1.8A1.257,1.257,0,0,0,98.834,133.375Z" transform="translate(-63.209 -85.888)" fill="none" stroke="#263238" stroke-miterlimit="10" stroke-width="1"/>
            <path id="Path_32284" data-name="Path 32284" d="M104.256,135.021a1.24,1.24,0,1,1-.825-1.547h0A1.24,1.24,0,0,1,104.256,135.021Z" transform="translate(-66.259 -86.814)" fill="none" stroke="#263238" stroke-miterlimit="10" stroke-width="1"/>
            <path id="Path_32285" data-name="Path 32285" d="M398.553,167.536l13.85,4.2a1.226,1.226,0,0,1,.818,1.529l-2.427,8.01a1.226,1.226,0,0,1-1.529.818l-13.85-4.2a1.226,1.226,0,0,1-.818-1.529l2.427-8.01A1.226,1.226,0,0,1,398.553,167.536Z" transform="translate(-256.724 -108.979)" fill="none" stroke="#263238" stroke-miterlimit="10" stroke-width="1"/>
            <line id="Line_242" data-name="Line 242" x2="16.198" y2="4.908" transform="translate(139.926 60.608)" fill="none" stroke="#263238" stroke-miterlimit="10" stroke-width="1"/>
            <line id="Line_243" data-name="Line 243" x2="16.194" y2="4.908" transform="translate(139.434 62.235)" fill="none" stroke="#263238" stroke-miterlimit="10" stroke-width="1"/>
            <path id="Path_32286" data-name="Path 32286" d="M428.789,198.713a1.047,1.047,0,0,0,.091.824,1.053,1.053,0,1,1,.444-1.46A1.048,1.048,0,0,0,428.789,198.713Z" transform="translate(-278.086 -128.541)" fill="none" stroke="#263238" stroke-miterlimit="10" stroke-width="1"/>
            <path id="Path_32287" data-name="Path 32287" d="M433.38,200.129a1.061,1.061,0,1,1,0-.012Z" transform="translate(-280.662 -129.335)" fill="none" stroke="#263238" stroke-miterlimit="10" stroke-width="1"/>
            <rect id="Rectangle_17659" data-name="Rectangle 17659" width="22.237" height="11.569" transform="translate(113.294 33.743) rotate(-24.6)" fill="none" stroke="#263238" stroke-miterlimit="10" stroke-width="1"/>
            <path id="Path_32288" data-name="Path 32288" d="M350.866,82.351l-3.06-6.682a1.188,1.188,0,0,1-1.572-.583l-16.344,7.482a1.188,1.188,0,0,1-.583,1.572l3.06,6.682a1.184,1.184,0,0,1,1.57.583l0,0,16.341-7.486a1.184,1.184,0,0,1,.583-1.57Z" transform="translate(-214.275 -48.857)" fill="none" stroke="#263238" stroke-miterlimit="10" stroke-width="1"/>
            <path id="Path_32289" data-name="Path 32289" d="M352.655,90.343A3.039,3.039,0,1,1,352.1,94.6,3.039,3.039,0,0,1,352.655,90.343Z" transform="translate(-228.695 -58.376)" fill="none" stroke="#263238" stroke-miterlimit="10" stroke-width="1"/>
            <path id="Path_32290" data-name="Path 32290" d="M358.283,95.995l.227.5-.217.1-.224-.489a1.783,1.783,0,0,1-1.212.077v-.3a1.6,1.6,0,0,0,1.076-.052l-.513-1.132c-.531.1-1.079.178-1.341-.395-.189-.412-.056-.908.58-1.261l-.227-.5.217-.1.238.507a1.841,1.841,0,0,1,1-.133v.3a1.749,1.749,0,0,0-.884.1l.524,1.146c.541-.108,1.118-.206,1.4.374.175.4.024.908-.639,1.261m-1-1.61-.5-1.093c-.43.241-.524.562-.4.835.147.342.5.328.891.258Zm1.317.493c-.154-.349-.524-.314-.936-.234l.493,1.079c.475-.252.566-.569.44-.845Z" transform="translate(-231.644 -60.146)" fill="#263238"/>
            <rect id="Rectangle_17660" data-name="Rectangle 17660" width="15.611" height="8.119" transform="translate(6.382 73.804) rotate(-5.143)" fill="none" stroke="#263238" stroke-miterlimit="10.04" stroke-width="1.004"/>
            <path id="Path_32291" data-name="Path 32291" d="M34.068,214.807l-.44-5.117a.831.831,0,0,1-.9-.755l-12.519,1.083a.835.835,0,0,1-.755.9l.44,5.117a.828.828,0,0,1,.9.752v0L33.313,215.7A.835.835,0,0,1,34.068,214.807Z" transform="translate(-12.66 -135.951)" fill="none" stroke="#263238" stroke-miterlimit="10" stroke-width="1"/>
            <path id="Path_32292" data-name="Path 32292" d="M38.525,216.035a2.127,2.127,0,1,1-2.3-1.935h0a2.124,2.124,0,0,1,2.3,1.93Z" transform="translate(-22.305 -139.306)" fill="none" stroke="#263238" stroke-miterlimit="10" stroke-width="1"/>
            <path id="Path_32293" data-name="Path 32293" d="M38.979,218.427l.031.381h-.164l-.035-.377A1.248,1.248,0,0,1,38,218.2l.077-.2a1.139,1.139,0,0,0,.72.217l-.073-.87c-.374-.056-.755-.136-.789-.573-.028-.318.175-.615.678-.7l-.031-.381h.164l.031.374a1.315,1.315,0,0,1,.7.15l-.066.2a1.245,1.245,0,0,0-.6-.14l.073.877c.381.056.786.129.824.573.021.325-.2.622-.72.7m-.279-1.3-.073-.828c-.349.059-.475.248-.458.458s.252.325.531.37m.751.636c-.024-.262-.272-.349-.562-.377l.07.828c.363-.059.51-.241.493-.451" transform="translate(-24.68 -140.35)" fill="#263238"/>
            <circle id="Ellipse_1140" data-name="Ellipse 1140" cx="3.039" cy="3.039" r="3.039" transform="translate(144.226 28.675) rotate(-80.783)" fill="none" stroke="#263238" stroke-miterlimit="10" stroke-width="1"/>
            <path id="Path_32294" data-name="Path 32294" d="M420.673,72.424v.545h-.251v-.541a1.81,1.81,0,0,1-1.135-.43l.136-.272a1.639,1.639,0,0,0,1,.405V70.884c-.524-.129-1.048-.29-1.048-.919,0-.454.328-.849,1.048-.9V68.5h.237v.541a1.841,1.841,0,0,1,.964.3l-.119.279a1.745,1.745,0,0,0-.845-.276V70.6c.534.129,1.1.279,1.1.919.014.458-.332.859-1.086.9m-.238-1.883V69.357c-.489.042-.7.293-.7.594-.014.36.307.493.685.59Zm.992,1c0-.374-.349-.5-.754-.6v1.195c.52-.045.754-.286.754-.59" transform="translate(-272.824 -44.575)" fill="#263238"/>
            <path id="Path_32295" data-name="Path 32295" d="M357.209,174.2a3.039,3.039,0,1,1-2.261,3.655A3.039,3.039,0,0,1,357.209,174.2Z" transform="translate(-230.907 -113.295)" fill="none" stroke="#263238" stroke-miterlimit="10" stroke-width="1"/>
            <path id="Path_32296" data-name="Path 32296" d="M359.619,180.67l-.283.465-.2-.126.283-.461a1.777,1.777,0,0,1-.741-.961l.258-.161a1.627,1.627,0,0,0,.639.863l.657-1.065c-.381-.381-.748-.8-.419-1.331.238-.388.723-.552,1.373-.22l.286-.468.2.126-.283.461a1.893,1.893,0,0,1,.667.755l-.248.178a1.782,1.782,0,0,0-.576-.678l-.66,1.072c.391.391.793.814.458,1.359-.241.391-.744.548-1.411.192m.786-1.747.618-1.01c-.437-.22-.755-.122-.912.133-.189.325.01.608.293.894Zm.321,1.369c.2-.318-.031-.608-.328-.908l-.622,1.013c.465.258.789.189.947-.087Z" transform="translate(-233.386 -115.305)" fill="#263238"/>
            <path id="Path_32297" data-name="Path 32297" d="M227.9,11.571a3.091,3.091,0,1,1,0-.007Z" transform="translate(-144.517 -6.372)" fill="none" stroke="#263238" stroke-miterlimit="10" stroke-width="1"/>
            <path id="Path_32298" data-name="Path 32298" d="M228.887,16.078l.227.5-.217.1-.231-.493a1.783,1.783,0,0,1-1.212.077v-.3a1.613,1.613,0,0,0,1.072-.049l-.517-1.139c-.531.1-1.079.175-1.341-.395-.189-.416-.056-.908.583-1.261l-.227-.5.213-.1.227.493a1.841,1.841,0,0,1,1-.133v.3a1.765,1.765,0,0,0-.884.1l.524,1.146c.541-.108,1.118-.2,1.4.374.213.419.052.926-.615,1.278m-1-1.61-.493-1.079c-.43.241-.524.562-.4.831.15.328.5.318.891.248m1.317.493c-.157-.349-.524-.311-.936-.234l.493,1.079C229.219,15.554,229.331,15.24,229.205,14.96Z" transform="translate(-147.439 -8.143)" fill="#263238"/>
            <path id="Path_32299" data-name="Path 32299" d="M193.173,362.241a4.566,4.566,0,1,1-6.05-2.257,4.566,4.566,0,0,1,6.05,2.257Z" transform="translate(-120.021 -233.968)" fill="none" stroke="#263238" stroke-miterlimit="10" stroke-width="1"/>
            <path id="Path_32300" data-name="Path 32300" d="M194.687,369.026l.349.748-.325.147-.349-.741a2.676,2.676,0,0,1-1.82.119l.021-.454a2.422,2.422,0,0,0,1.61-.08l-.779-1.7c-.793.15-1.621.262-2.012-.594-.286-.622-.084-1.366.873-1.9l-.349-.744.321-.15.349.741a2.794,2.794,0,0,1,1.5-.2v.454a2.633,2.633,0,0,0-1.324.154l.782,1.719c.814-.161,1.68-.3,2.078.562.3.632.077,1.394-.929,1.921m-1.5-2.421-.744-1.621c-.639.349-.782.842-.594,1.254.224.493.741.475,1.338.367m1.977.744c-.234-.513-.789-.472-1.4-.349l.741,1.621c.688-.381.845-.856.657-1.272" transform="translate(-124.452 -236.638)" fill="#263238"/>
            <path id="Path_32301" data-name="Path 32301" d="M8.079,149.221a4.565,4.565,0,1,1,.416-6.445,4.565,4.565,0,0,1-.416,6.445Z" transform="translate(-0.326 -91.893)" fill="none" stroke="#263238" stroke-miterlimit="10" stroke-width="1"/>
            <path id="Path_32302" data-name="Path 32302" d="M6.9,151.66l-.615.541-.238-.269.611-.534a2.709,2.709,0,0,1-.639-1.712l.444-.112a2.447,2.447,0,0,0,.527,1.516l1.4-1.237c-.374-.716-.72-1.478,0-2.1.517-.451,1.285-.472,2.068.29l.636-.538.234.265-.611.538a2.794,2.794,0,0,1,.608,1.38l-.433.143a2.68,2.68,0,0,0-.527-1.226l-1.422,1.247c.388.73.775,1.52.059,2.152-.52.454-1.313.479-2.1-.349m1.886-2.131,1.338-1.177c-.531-.51-1.048-.507-1.369-.21-.419.356-.252.852.021,1.387Zm-.143,2.1c.426-.37.227-.891-.066-1.45l-1.338,1.177c.548.562,1.058.583,1.408.283Z" transform="translate(-3.915 -95.939)" fill="#263238"/>
            <path id="Path_32303" data-name="Path 32303" d="M69.4,271.144a2.206,2.206,0,1,1,2.116,2.292A2.206,2.206,0,0,1,69.4,271.144Z" transform="translate(-45.16 -175.052)" fill="none" stroke="#263238" stroke-miterlimit="10.008" stroke-width="1.001"/>
            <path id="Path_32304" data-name="Path 32304" d="M73.8,272.5l.251.3-.129.108-.252-.3a1.3,1.3,0,0,1-.835.286l-.049-.217a1.178,1.178,0,0,0,.741-.238l-.58-.7c-.349.171-.72.328-1.013-.021-.21-.252-.21-.625.168-1l-.255-.3.133-.108.252.3a1.354,1.354,0,0,1,.674-.283l.063.21a1.327,1.327,0,0,0-.6.241l.583.7c.349-.178.744-.349,1.048,0,.213.258.206.643-.2,1.016m-1-.936-.552-.66c-.251.251-.255.493-.119.66s.409.122.671,0m1.016.094c-.175-.206-.426-.119-.7.017l.552.66c.269-.265.286-.51.147-.681Z" transform="translate(-46.715 -175.89)" fill="#263238"/>
            <path id="Path_32305" data-name="Path 32305" d="M268.864,398.578a2.2,2.2,0,1,1-3.105-.283A2.2,2.2,0,0,1,268.864,398.578Z" transform="translate(-172.41 -258.834)" fill="none" stroke="#263238" stroke-miterlimit="10" stroke-width="1"/>
            <path id="Path_32306" data-name="Path 32306" d="M269.99,402.538l.255.3-.133.108-.252-.3a1.289,1.289,0,0,1-.831.286l-.049-.217a1.156,1.156,0,0,0,.741-.237l-.58-.7c-.349.171-.723.328-1.013-.021-.213-.252-.213-.625.164-1l-.251-.3.133-.108.252.3a1.322,1.322,0,0,1,.674-.283l.063.21a1.34,1.34,0,0,0-.6.241l.587.7c.349-.178.744-.349,1.048,0,.2.258.2.643-.206,1.016m-1-.95-.552-.66c-.255.251-.258.492-.119.66s.405.136.671,0m1.013.1c-.175-.21-.426-.122-.7,0l.552.66c.272-.238.29-.482.147-.65Z" transform="translate(-174.374 -260.506)" fill="#263238"/>
            <path id="Path_32307" data-name="Path 32307" d="M90.839,35.685a2.2,2.2,0,1,1,1.994,2.4A2.2,2.2,0,0,1,90.839,35.685Z" transform="translate(-59.101 -21.917)" fill="none" stroke="#263238" stroke-miterlimit="10" stroke-width="1"/>
            <path id="Path_32308" data-name="Path 32308" d="M95.867,38.438l.252.3-.133.108-.252-.3a1.283,1.283,0,0,1-.831.286l-.049-.217a1.178,1.178,0,0,0,.741-.238l-.58-.7c-.349.171-.723.328-1.013-.021-.21-.252-.213-.625.168-1l-.255-.3.133-.108.252.3a1.34,1.34,0,0,1,.674-.283l.063.21a1.327,1.327,0,0,0-.6.241l.583.7c.349-.178.744-.349,1.048,0,.206.258.2.643-.2,1.017m-1.006-.94-.552-.674c-.252.252-.258.493-.119.66s.405.14.671.014m1.017.094c-.175-.206-.43-.119-.7,0l.552.66c.269-.245.286-.489.147-.66" transform="translate(-61.073 -23.591)" fill="#263238"/>
            <g id="Group_30956" data-name="Group 30956" transform="translate(22.386 86.094)" opacity="0.2" style="isolation: isolate">
              <g id="Group_30955" data-name="Group 30955">
                <g id="Group_30954" data-name="Group 30954" clip-path="url(#clip-path-4)">
                  <g id="Group_30953" data-name="Group 30953" opacity="0.7">
                    <g id="Group_30952" data-name="Group 30952">
                      <g id="Group_30951" data-name="Group 30951" clip-path="url(#clip-path-4)">
                        <path id="Path_32309" data-name="Path 32309" d="M125.307,264.71s-2.693,13.669-19.212,16.767c0,0-4.314,3.441-5.75,5.477s-9.082,5.5-16.872,16.3-19.387-23.5-19.387-23.5l25.633-33.29Z" transform="translate(-64.086 -246.465)"/>
                      </g>
                    </g>
                  </g>
                </g>
              </g>
            </g>
            <path id="Path_32310" data-name="Path 32310" d="M255.745,108.088s8.907-4.356,10.867-3.6,3.842,5.257-3.65,9.571-5.257,12.352-5.257,12.352h5.344s3.207,1.306,4.454,2.987,2.138,7.409,2.85,9.351.349,3.888-1.6,4.52c0,0-1.247,5.435-.891,7.846s.178,3.961-2.138,4.255a4.042,4.042,0,0,1-4.454-4.255l-1.781,6.455,1.247,2.48a16.126,16.126,0,0,1,4.81,2.913c2.494,2.138,4.988,2.721,4.276,5.1s-2.138,4.95-9.62,1.974-13.718-14.671-13.718-14.671l-4.5-40.779Z" transform="translate(-157.457 -67.929)" fill="#fff"/>
            <g id="Group_30959" data-name="Group 30959" transform="translate(84.529 36.84)" opacity="0.4" style="isolation: isolate">
              <g id="Group_30958" data-name="Group 30958">
                <g id="Group_30957" data-name="Group 30957" clip-path="url(#clip-path-6)">
                  <path id="Path_32311" data-name="Path 32311" d="M265.121,132.208c-4.038,5.505.43,11.845.43,11.845a6.475,6.475,0,0,0-2.875,5.533,27.92,27.92,0,0,0,.88,6.1,4,4,0,0,1-2.284-3.881l-1.785,6.455,1.247,2.477a15.3,15.3,0,0,1,3.675,2.023,21.178,21.178,0,0,0-1.348,8.928,23.82,23.82,0,0,1-2.861-.957c-7.482-2.98-13.718-14.671-13.718-14.671l-4.5-40.782,13.759-6.494a62.969,62.969,0,0,1,8.2-3.318,26.868,26.868,0,0,0,.789,8.136,18.8,18.8,0,0,1-1.771,1.149c-7.482,4.314-5.257,12.352-5.257,12.352h5.348a13.245,13.245,0,0,1,4.352,2.861,8.736,8.736,0,0,0-2.285,2.246" transform="translate(-241.986 -105.465)" fill="#005988"/>
                </g>
              </g>
            </g>
            <path id="Path_32312" data-name="Path 32312" d="M101.274,183.271s-9.69,19-27.156,23.31c0,0-.667,3.759-3.622,5.372-1.579.859-7.95,10.406-13.543,19.121l-30.977-19c1.907-1.886,4.08-4.059,6.288-6.326,6.462-6.588,13.358-13.973,15.468-17.626a120.6,120.6,0,0,0,6.351-14.186c2.662-6.777,4.828-13,4.828-13l10.326-11.478L85.468,131.4l.7,2.309Z" transform="translate(-16.902 -85.503)" fill="#fff"/>
            <g id="Group_30962" data-name="Group 30962" transform="translate(41.79 45.902)" opacity="0.4" style="isolation: isolate">
              <g id="Group_30961" data-name="Group 30961">
                <g id="Group_30960" data-name="Group 30960" clip-path="url(#clip-path-7)">
                  <path id="Path_32313" data-name="Path 32313" d="M146.425,131.4l15.792,51.866s-9.69,19-27.156,23.31c0,0-.667,3.759-3.622,5.372-1.418.772-6.7,8.544-11.8,16.418,1.893-6.5,7.374-16.854,7.374-16.854-3.518-4.167-2.491-8.558-1.083-7.308s4.946,4.765,5.17,4.985a10.329,10.329,0,0,1-1.914-4.7s4.359,2.9,4.712-1.747-2.613-16-2.613-16L123.5,156.9Z" transform="translate(-119.636 -131.405)" fill="#005988"/>
                </g>
              </g>
            </g>
            <path id="Path_32314" data-name="Path 32314" d="M241.986,114.585l13.759-6.5s8.907-4.356,10.867-3.6,3.842,5.257-3.65,9.571-5.257,12.352-5.257,12.352h5.344s3.207,1.306,4.454,2.987,2.138,7.409,2.85,9.351.349,3.888-1.6,4.52c0,0-1.247,5.435-.891,7.846s.178,3.961-2.138,4.255a4.042,4.042,0,0,1-4.454-4.255l-1.781,6.455,1.247,2.48a16.126,16.126,0,0,1,4.81,2.913c2.494,2.138,4.988,2.721,4.276,5.1s-2.138,4.95-9.62,1.974-13.718-14.671-13.718-14.671" transform="translate(-157.457 -67.929)" fill="none" stroke="#263238" stroke-linecap="round" stroke-linejoin="round" stroke-width="1"/>
            <path id="Path_32315" data-name="Path 32315" d="M305.08,188.121c-2.672.723-5.788.189-6.948-4.541s1.16-9.781,2.672-10.245" transform="translate(-193.786 -112.787)" fill="none" stroke="#263238" stroke-linecap="round" stroke-linejoin="round" stroke-width="1"/>
            <path id="Path_32316" data-name="Path 32316" d="M297.18,224s-.178-6.082,2.05-7.584" transform="translate(-193.369 -140.818)" fill="none" stroke="#263238" stroke-linecap="round" stroke-linejoin="round" stroke-width="1"/>
            <g id="Group_30965" data-name="Group 30965" transform="translate(15.375 88.43)" opacity="0.4" style="isolation: isolate">
              <g id="Group_30964" data-name="Group 30964">
                <g id="Group_30963" data-name="Group 30963" clip-path="url(#clip-path-8)">
                  <path id="Path_32317" data-name="Path 32317" d="M67.469,278.11s-6.529-.814-7.985-3.734c-1.205-2.417-7.737,6.637-15.468,10.591,6.462-6.588,13.358-13.973,15.468-17.626a120.593,120.593,0,0,0,6.351-14.186c-.1,4.394-2.445,11.122-1.778,14.626a2.812,2.812,0,0,0-2.009,3.4c.5,2.784,5.421,6.927,5.421,6.927" transform="translate(-44.016 -253.155)" fill="#005988"/>
                </g>
              </g>
            </g>
            <path id="Path_32318" data-name="Path 32318" d="M158.97,279.885s-9.69,19-27.159,23.31c0,0-.664,3.759-3.619,5.372-1.579.859-7.947,10.406-13.546,19.121" transform="translate(-74.599 -182.117)" fill="none" stroke="#263238" stroke-linecap="round" stroke-linejoin="round" stroke-width="1"/>
            <path id="Path_32319" data-name="Path 32319" d="M25.976,212.072c7.461-7.374,18.929-19.066,21.769-23.952,4.3-7.395,11.178-27.191,11.178-27.191L85.471,131.4" transform="translate(-16.902 -85.503)" fill="none" stroke="#263238" stroke-linecap="round" stroke-linejoin="round" stroke-width="1"/>
            <path id="Path_32320" data-name="Path 32320" d="M152.926,195.955s4.08,3.654,5.24,6.986" transform="translate(-99.507 -127.505)" fill="none" stroke="#263238" stroke-linecap="round" stroke-linejoin="round" stroke-width="1"/>
            <path id="Path_32321" data-name="Path 32321" d="M160.747,43.6h43.9A2.351,2.351,0,0,1,207,45.956v93.452a2.351,2.351,0,0,1-2.351,2.351h-43.9a2.351,2.351,0,0,1-2.351-2.351V45.956a2.351,2.351,0,0,1,2.351-2.351" transform="translate(-103.066 -28.373)" fill="#263238"/>
            <path id="Path_32322" data-name="Path 32322" d="M195.588,50.136l-.929,1.7a1.16,1.16,0,0,1-1.017.615h-15.37a1.17,1.17,0,0,1-1.02-.608l-.926-1.7a1.16,1.16,0,0,0-1.02-.608H164.566a1.163,1.163,0,0,0-1.16,1.167v91.873a1.163,1.163,0,0,0,1.16,1.163h42.777a1.163,1.163,0,0,0,1.17-1.156V50.705a1.163,1.163,0,0,0-1.163-1.163H196.612a1.159,1.159,0,0,0-1.023.594" transform="translate(-106.326 -32.232)" fill="#e56d13"/>
            <path id="Path_32323" data-name="Path 32323" d="M195.588,50.136l-.929,1.7a1.16,1.16,0,0,1-1.017.615h-15.37a1.17,1.17,0,0,1-1.02-.608l-.926-1.7a1.16,1.16,0,0,0-1.02-.608H164.566a1.163,1.163,0,0,0-1.16,1.167v91.873a1.163,1.163,0,0,0,1.16,1.163h42.777a1.163,1.163,0,0,0,1.17-1.156V50.705a1.163,1.163,0,0,0-1.163-1.163H196.612A1.159,1.159,0,0,0,195.588,50.136Z" transform="translate(-106.326 -32.232)" fill="none" stroke="#263238" stroke-linecap="round" stroke-linejoin="round" stroke-width="1"/>
            <circle id="Ellipse_1141" data-name="Ellipse 1141" cx="0.625" cy="0.625" r="0.625" transform="matrix(0.16, -0.987, 0.987, 0.16, 75.578, 18.62)" fill="none" stroke="#fff" stroke-miterlimit="10" stroke-width="1"/>
            <path id="Path_32324" data-name="Path 32324" d="M237.841,51.1a.388.388,0,1,1-.388-.391.388.388,0,0,1,.388.391Z" transform="translate(-154.256 -32.993)" fill="none" stroke="#fff" stroke-miterlimit="10" stroke-width="1"/>
            <path id="Path_32325" data-name="Path 32325" d="M226.778,51.125h-3.8a.241.241,0,0,0-.241.241v0a.241.241,0,0,0,.241.241h3.8a.243.243,0,0,0,0-.486h0" transform="translate(-144.931 -33.266)" fill="#fff"/>
            <rect id="Rectangle_17666" data-name="Rectangle 17666" width="4.097" height="1.74" transform="translate(60.936 19.633)" fill="none" stroke="#263238" stroke-linecap="round" stroke-linejoin="round" stroke-width="1"/>
            <rect id="Rectangle_17667" data-name="Rectangle 17667" width="0.636" height="1.156" transform="translate(65.03 19.927)" fill="none" stroke="#263238" stroke-linecap="round" stroke-linejoin="round" stroke-width="1"/>
            <rect id="Rectangle_17668" data-name="Rectangle 17668" width="0.727" height="0.632" transform="translate(93.342 20.744)" fill="none" stroke="#263238" stroke-linecap="round" stroke-linejoin="round" stroke-width="1"/>
            <rect id="Rectangle_17669" data-name="Rectangle 17669" width="0.727" height="1.268" transform="translate(94.76 20.108)" fill="none" stroke="#263238" stroke-linecap="round" stroke-linejoin="round" stroke-width="1"/>
            <rect id="Rectangle_17670" data-name="Rectangle 17670" width="0.727" height="1.9" transform="translate(96.179 19.472)" fill="none" stroke="#263238" stroke-linecap="round" stroke-linejoin="round" stroke-width="1"/>
            <rect id="Rectangle_17671" data-name="Rectangle 17671" width="0.727" height="2.536" transform="translate(97.593 18.837)" fill="none" stroke="#263238" stroke-linecap="round" stroke-linejoin="round" stroke-width="1"/>
            <g id="Group_30968" data-name="Group 30968" transform="translate(57.37 37.602)" opacity="0.5" style="isolation: isolate">
              <g id="Group_30967" data-name="Group 30967">
                <g id="Group_30966" data-name="Group 30966" clip-path="url(#clip-path-9)">
                  <rect id="Rectangle_17672" data-name="Rectangle 17672" width="44.516" height="42.459" fill="#fff"/>
                </g>
              </g>
            </g>
            <path id="Path_32326" data-name="Path 32326" d="M194.5,85.613v.737c0,.912-.437,1.4-1.331,1.4h-.423v2.134h-.894V84.205h1.317c.894,0,1.331.5,1.331,1.408m-1.747-.594v1.925h.423c.283,0,.437-.129.437-.534v-.856c0-.405-.154-.534-.437-.534Z" transform="translate(-124.838 -54.791)" fill="#263238"/>
            <path id="Path_32327" data-name="Path 32327" d="M202.776,89.892h-.9l-.157-1.03h-1.093l-.157,1.03h-.821l.912-5.687h1.306Zm-2.04-1.8h.863l-.423-2.875h-.017Z" transform="translate(-129.907 -54.791)" fill="#263238"/>
            <path id="Path_32328" data-name="Path 32328" d="M208.944,88.009l-1.128-3.8h.95l.674,2.592h.017l.674-2.592h.852l-1.128,3.8v1.883h-.894Z" transform="translate(-135.223 -54.791)" fill="#263238"/>
            <path id="Path_32329" data-name="Path 32329" d="M219.729,88.243h.017l.6-4.038h1.244v5.687h-.845V85.815l-.6,4.076H219.3l-.65-4.021v4.021h-.814V84.2h1.244Z" transform="translate(-141.743 -54.791)" fill="#263238"/>
            <path id="Path_32330" data-name="Path 32330" d="M231.34,86.6h1.233v.814h-1.226v1.666h1.544v.81h-2.445V84.2h2.445v.814h-1.544Z" transform="translate(-149.948 -54.791)" fill="#263238"/>
            <path id="Path_32331" data-name="Path 32331" d="M239.806,85.773h-.017v4.118h-.8V84.2h1.121l.9,3.406V84.2h.8v5.687h-.915Z" transform="translate(-155.505 -54.791)" fill="#263238"/>
            <path id="Path_32332" data-name="Path 32332" d="M248.2,84.2h2.763v.814h-.936v4.873h-.894V85.019H248.2Z" transform="translate(-161.498 -54.791)" fill="#263238"/>
            <path id="Path_32333" data-name="Path 32333" d="M258.167,84.025c.866,0,1.313.52,1.313,1.429v.178h-.845V85.4c0-.409-.161-.562-.447-.562s-.444.154-.444.562.178.723.762,1.233a2.209,2.209,0,0,1,.985,1.778c0,.912-.458,1.432-1.334,1.432s-1.331-.52-1.331-1.432V88.06h.845v.409c0,.405.178.552.461.552s.465-.147.465-.552-.178-.723-.765-1.237a2.2,2.2,0,0,1-.982-1.778c0-.908.447-1.429,1.317-1.429" transform="translate(-167.113 -54.674)" fill="#263238"/>
            <rect id="Rectangle_17674" data-name="Rectangle 17674" width="37.384" height="5.586" transform="translate(60.936 42.747)" fill="#fff"/>
            <rect id="Rectangle_17675" data-name="Rectangle 17675" width="37.384" height="5.586" transform="translate(60.936 42.747)" fill="none" stroke="#263238" stroke-linecap="round" stroke-linejoin="round" stroke-width="1"/>
            <rect id="Rectangle_17676" data-name="Rectangle 17676" width="37.384" height="5.586" transform="translate(60.936 53.223)" fill="#fff"/>
            <rect id="Rectangle_17677" data-name="Rectangle 17677" width="37.384" height="5.586" transform="translate(60.936 53.223)" fill="none" stroke="#263238" stroke-linecap="round" stroke-linejoin="round" stroke-width="1"/>
            <rect id="Rectangle_17678" data-name="Rectangle 17678" width="37.384" height="5.586" transform="translate(60.936 62.749)" fill="#fff"/>
            <rect id="Rectangle_17679" data-name="Rectangle 17679" width="37.384" height="5.586" transform="translate(60.936 62.749)" fill="none" stroke="#263238" stroke-linecap="round" stroke-linejoin="round" stroke-width="1"/>
            <rect id="Rectangle_17680" data-name="Rectangle 17680" width="17.7" height="6.539" transform="translate(60.936 70.371)" fill="#fff"/>
            <rect id="Rectangle_17681" data-name="Rectangle 17681" width="17.7" height="6.539" transform="translate(60.936 70.371)" fill="none" stroke="#263238" stroke-linecap="round" stroke-linejoin="round" stroke-width="1"/>
            <rect id="Rectangle_17682" data-name="Rectangle 17682" width="17.7" height="6.539" transform="translate(80.624 70.371)" fill="#fff"/>
            <rect id="Rectangle_17683" data-name="Rectangle 17683" width="17.7" height="6.539" transform="translate(80.624 70.371)" fill="none" stroke="#263238" stroke-linecap="round" stroke-linejoin="round" stroke-width="1"/>
            <path id="Path_32334" data-name="Path 32334" d="M178.936,116.787v.15h-1.17v-1.652H178.9v.15h-.957v.59h.852v.147h-.852v.615Z" transform="translate(-115.67 -75.014)" fill="#263238"/>
            <path id="Path_32335" data-name="Path 32335" d="M184.243,116.976v.72h-.182V117c0-.262-.133-.4-.349-.4a.4.4,0,0,0-.418.384.418.418,0,0,0,0,.066v.65h-.168V117c0-.262-.133-.4-.349-.4a.4.4,0,0,0-.418.384.422.422,0,0,0,0,.066v.65H182.2v-1.24h.161v.227a.5.5,0,0,1,.458-.238.44.44,0,0,1,.44.262.545.545,0,0,1,.493-.262.468.468,0,0,1,.5.524" transform="translate(-118.553 -75.773)" fill="#263238"/>
            <path id="Path_32336" data-name="Path 32336" d="M190.107,116.932v.768h-.161v-.192a.475.475,0,0,1-.43.206c-.279,0-.451-.147-.451-.349s.122-.349.479-.349h.384v-.077a.3.3,0,0,0-.349-.328.624.624,0,0,0-.412.147l-.077-.126a.8.8,0,0,1,.507-.168.44.44,0,0,1,.51.468m-.168.4v-.206h-.391c-.241,0-.318.094-.318.224s.115.234.314.234a.4.4,0,0,0,.384-.252Z" transform="translate(-123.023 -75.778)" fill="#263238"/>
            <path id="Path_32337" data-name="Path 32337" d="M193.236,115.124a.122.122,0,0,1,.122-.119.119.119,0,0,1,0,.238h0a.122.122,0,0,1-.122-.119m.038.391h.168v1.24h-.168Z" transform="translate(-125.736 -74.832)" fill="#263238"/>
            <rect id="Rectangle_17684" data-name="Rectangle 17684" width="0.168" height="1.747" transform="translate(68.174 40.173)" fill="#263238"/>
            <path id="Path_32338" data-name="Path 32338" d="M182.246,129.087v.15h-1.17v-1.652h1.135v.15h-.975v.587h.856v.15h-.856v.615Z" transform="translate(-117.823 -83.018)" fill="#263238"/>
            <path id="Path_32339" data-name="Path 32339" d="M187.572,129.257v.72H187.4v-.7c0-.262-.133-.4-.349-.4a.4.4,0,0,0-.418.377.387.387,0,0,0,0,.07v.653h-.168v-.7c0-.262-.133-.4-.349-.4a.4.4,0,0,0-.418.377.388.388,0,0,0,0,.07v.653h-.171V128.74h.161v.227a.507.507,0,0,1,.458-.234.447.447,0,0,1,.44.262.541.541,0,0,1,.493-.262.468.468,0,0,1,.488.447.437.437,0,0,1,0,.077" transform="translate(-120.726 -83.764)" fill="#263238"/>
            <path id="Path_32340" data-name="Path 32340" d="M193.407,129.216v.768h-.161v-.192a.464.464,0,0,1-.426.2c-.279,0-.454-.147-.454-.349s.126-.349.482-.349h.395v-.073a.3.3,0,0,0-.349-.328.637.637,0,0,0-.416.147l-.073-.126a.775.775,0,0,1,.507-.168.44.44,0,0,1,.5.468m-.164.395v-.2h-.391c-.241,0-.318.094-.318.224s.115.234.314.234A.4.4,0,0,0,193.243,129.611Z" transform="translate(-125.17 -83.772)" fill="#263238"/>
            <path id="Path_32341" data-name="Path 32341" d="M196.536,127.394a.122.122,0,0,1,.122-.119.118.118,0,0,1,.122.115v0a.122.122,0,0,1-.245,0Zm.038.391h.168v1.244h-.168Z" transform="translate(-127.883 -82.816)" fill="#263238"/>
            <rect id="Rectangle_17685" data-name="Rectangle 17685" width="0.164" height="1.747" transform="translate(69.33 44.459)" fill="#263238"/>
            <path id="Path_32342" data-name="Path 32342" d="M201.408,129.25v.72h-.168v-.7a.349.349,0,0,0-.3-.4.354.354,0,0,0-.074,0,.4.4,0,0,0-.437.447v.653h-.168v-1.244h.161v.231a.524.524,0,0,1,.472-.238.476.476,0,0,1,.51.527" transform="translate(-130.31 -83.757)" fill="#263238"/>
            <path id="Path_32343" data-name="Path 32343" d="M205.6,129.215v.768h-.161v-.192a.464.464,0,0,1-.426.2c-.283,0-.454-.147-.454-.349s.122-.349.479-.349h.395v-.073c0-.213-.119-.328-.349-.328a.624.624,0,0,0-.412.147l-.077-.126a.782.782,0,0,1,.507-.168.44.44,0,0,1,.5.376.432.432,0,0,1,0,.093m-.168.395v-.2h-.388c-.241,0-.321.094-.321.224s.115.234.314.234a.4.4,0,0,0,.4-.255Z" transform="translate(-133.102 -83.771)" fill="#263238"/>
            <path id="Path_32344" data-name="Path 32344" d="M210.909,129.256v.72h-.168v-.7c0-.262-.133-.4-.349-.4a.4.4,0,0,0-.418.377.387.387,0,0,0,0,.07v.653H209.8v-.7c0-.262-.133-.4-.349-.4a.4.4,0,0,0-.418.377.387.387,0,0,0,0,.07v.653h-.168v-1.244h.161v.227a.507.507,0,0,1,.458-.234.44.44,0,0,1,.44.262.545.545,0,0,1,.493-.262.468.468,0,0,1,.495.439.457.457,0,0,1,0,.085" transform="translate(-135.906 -83.763)" fill="#263238"/>
            <path id="Path_32345" data-name="Path 32345" d="M216.867,129.383h-1.048a.461.461,0,0,0,.493.426.493.493,0,0,0,.381-.164l.094.108a.657.657,0,0,1-1.132-.43.6.6,0,0,1,.565-.628h.043a.59.59,0,0,1,.6.578q0,.025,0,.05s0,.042,0,.059m-1.048-.126h.88a.44.44,0,0,0-.88,0" transform="translate(-140.323 -83.74)" fill="#263238"/>
            <path id="Path_32346" data-name="Path 32346" d="M222.056,128.574c0,.4-.15.636-.395.636a.252.252,0,0,1-.265-.237c0-.006,0-.012,0-.018a.527.527,0,0,1-.472.255.608.608,0,0,1,0-1.216.524.524,0,0,1,.468.248v-.234h.154v.894c0,.133.066.182.147.182.143,0,.238-.182.238-.5a.9.9,0,0,0-.874-.928.837.837,0,0,0-.094,0,.95.95,0,1,0,0,1.9,1.048,1.048,0,0,0,.454-.1l.038.115a1.143,1.143,0,0,1-.493.108,1.069,1.069,0,1,1,0-2.138h0a1.02,1.02,0,0,1,1.091.944c0,.03,0,.06,0,.09m-.664.024a.451.451,0,0,0-.9-.079.43.43,0,0,0,0,.079.451.451,0,0,0,.9.079.43.43,0,0,0,0-.079" transform="translate(-143.081 -82.987)" fill="#263238"/>
            <path id="Path_32347" data-name="Path 32347" d="M227.92,129.4h-1.048a.461.461,0,0,0,.487.433h0a.493.493,0,0,0,.381-.164l.094.108a.657.657,0,0,1-1.132-.43.6.6,0,0,1,.565-.628h.043a.59.59,0,0,1,.6.578q0,.025,0,.05a.379.379,0,0,1,.007.052m-1.048-.126h.88a.44.44,0,1,0-.88,0" transform="translate(-147.513 -83.753)" fill="#263238"/>
            <path id="Path_32348" data-name="Path 32348" d="M233.239,129.257v.72h-.178v-.7c0-.262-.133-.4-.349-.4a.4.4,0,0,0-.418.377.389.389,0,0,0,0,.07v.653h-.168v-.7c0-.262-.133-.4-.349-.4a.4.4,0,0,0-.418.377.387.387,0,0,0,0,.07v.653H231.2V128.74h.161v.227a.5.5,0,0,1,.454-.234.45.45,0,0,1,.444.262.534.534,0,0,1,.489-.262.468.468,0,0,1,.5.524" transform="translate(-150.436 -83.764)" fill="#263238"/>
            <path id="Path_32349" data-name="Path 32349" d="M239.067,129.214v.768H238.9v-.192a.468.468,0,0,1-.426.2c-.283,0-.454-.147-.454-.349s.122-.349.479-.349h.4v-.073c0-.213-.119-.328-.349-.328a.624.624,0,0,0-.412.147l-.077-.126a.782.782,0,0,1,.507-.168.44.44,0,0,1,.5.371.427.427,0,0,1,0,.1m-.168.395v-.2h-.388c-.241,0-.321.094-.321.224s.115.234.314.234a.4.4,0,0,0,.391-.255Z" transform="translate(-154.874 -83.77)" fill="#263238"/>
            <path id="Path_32350" data-name="Path 32350" d="M242.226,127.387a.122.122,0,1,1,.122.122.122.122,0,0,1-.122-.122m.035.391h.168v1.244h-.168Z" transform="translate(-157.613 -82.81)" fill="#263238"/>
            <rect id="Rectangle_17686" data-name="Rectangle 17686" width="0.168" height="1.747" transform="translate(85.283 44.459)" fill="#263238"/>
            <path id="Path_32351" data-name="Path 32351" d="M245.656,131.721a.122.122,0,0,1,.119-.126h.007a.126.126,0,0,1,.126.126.129.129,0,0,1-.126.129.126.126,0,0,1-.126-.126v0" transform="translate(-159.845 -85.627)" fill="#263238"/>
            <path id="Path_32352" data-name="Path 32352" d="M246.935,129.342a.611.611,0,0,1,.593-.629h.046a.541.541,0,0,1,.489.245l-.126.084a.426.426,0,0,0-.349-.182.486.486,0,0,0,0,.968.419.419,0,0,0,.349-.182l.126.084a.548.548,0,0,1-.489.245.611.611,0,0,1-.639-.582c0-.017,0-.033,0-.05" transform="translate(-160.677 -83.751)" fill="#263238"/>
            <path id="Path_32353" data-name="Path 32353" d="M250.686,129.337a.632.632,0,1,1,.632.632.611.611,0,0,1-.632-.59c0-.014,0-.028,0-.043m1.093,0a.465.465,0,1,0-.45.479h0a.454.454,0,0,0,.448-.46c0-.006,0-.012,0-.018" transform="translate(-163.118 -83.747)" fill="#263238"/>
            <path id="Path_32354" data-name="Path 32354" d="M257.359,129.257v.72h-.168v-.7c0-.262-.133-.4-.349-.4a.4.4,0,0,0-.418.377.384.384,0,0,0,0,.07v.653h-.168v-.7c0-.262-.133-.4-.349-.4a.4.4,0,0,0-.418.377.392.392,0,0,0,0,.07v.653h-.168V128.74h.161v.227a.5.5,0,0,1,.454-.234.451.451,0,0,1,.444.262.537.537,0,0,1,.489-.262.468.468,0,0,1,.488.447.437.437,0,0,1,0,.077" transform="translate(-166.137 -83.764)" fill="#263238"/>
            <path id="Path_32355" data-name="Path 32355" d="M180.963,159.625l.293.168-.052.1-.3-.171v.349H180.8v-.349l-.3.171-.056-.1.3-.168-.3-.164.056-.1.3.175v-.349h.108v.349l.3-.175.052.1Z" transform="translate(-117.414 -103.579)" fill="#263238"/>
            <path id="Path_32356" data-name="Path 32356" d="M183.706,159.625l.293.168-.056.1-.293-.171v.349h-.112v-.349l-.293.171-.059-.1.3-.168-.3-.164.059-.1.293.175v-.349h.119v.349l.293-.175.056.1Z" transform="translate(-119.196 -103.579)" fill="#263238"/>
            <path id="Path_32357" data-name="Path 32357" d="M186.459,159.625l.293.168-.056.1-.293-.171v.349h-.108v-.349l-.293.171-.056-.1.293-.168-.293-.164.056-.1.293.175v-.349h.108v.349l.293-.175.056.1Z" transform="translate(-120.992 -103.579)" fill="#263238"/>
            <path id="Path_32358" data-name="Path 32358" d="M189.193,159.625l.293.168-.052.1-.3-.171v.349h-.108v-.349l-.3.171-.056-.1.3-.168-.3-.164.056-.1.3.175v-.349h.108v.349l.3-.175.052.1Z" transform="translate(-122.769 -103.579)" fill="#263238"/>
            <path id="Path_32359" data-name="Path 32359" d="M191.936,159.625l.293.168-.056.1-.293-.171v.349h-.112v-.349l-.293.171-.059-.1.3-.168-.3-.164.059-.1.293.175v-.349h.112v.349l.293-.175.056.1Z" transform="translate(-124.552 -103.579)" fill="#263238"/>
            <path id="Path_32360" data-name="Path 32360" d="M194.689,159.625l.293.168-.056.1-.293-.171v.349h-.108v-.349l-.293.171-.056-.1.293-.168-.293-.164.056-.1.293.175v-.349h.126v.349l.293-.175.056.1Z" transform="translate(-126.347 -103.579)" fill="#263238"/>
            <path id="Path_32361" data-name="Path 32361" d="M197.423,159.625l.293.168-.052.1-.3-.171v.349h-.108v-.349l-.3.171-.056-.1.3-.168-.3-.164.056-.1.3.175v-.349h.108v.349l.3-.175.052.1Z" transform="translate(-128.124 -103.579)" fill="#263238"/>
            <path id="Path_32362" data-name="Path 32362" d="M200.166,159.625l.293.168-.056.1-.3-.171v.349H200v-.349l-.293.171-.059-.1.3-.168-.3-.164.059-.1.293.175v-.349h.108v.349l.3-.175.056.1Z" transform="translate(-129.907 -103.579)" fill="#263238"/>
            <path id="Path_32363" data-name="Path 32363" d="M202.919,159.625l.293.168-.056.1-.293-.171v.349h-.108v-.349l-.293.171-.056-.1.293-.168-.293-.164.056-.1.293.175v-.349h.108v.349l.293-.175.056.1Z" transform="translate(-131.703 -103.579)" fill="#263238"/>
            <path id="Path_32364" data-name="Path 32364" d="M205.653,159.625l.293.168-.052.1-.3-.171v.349h-.108v-.349l-.3.171-.056-.1.293-.168-.293-.164.056-.1.3.175v-.349h.108v.349l.3-.175.052.1Z" transform="translate(-133.479 -103.579)" fill="#263238"/>
            <path id="Path_32365" data-name="Path 32365" d="M208.4,159.625l.29.168-.052.1-.3-.171v.349h-.108v-.349l-.293.171-.059-.1.3-.168-.3-.164.059-.1.293.175v-.349h.108v.349l.3-.175.052.1Z" transform="translate(-135.262 -103.579)" fill="#263238"/>
            <path id="Path_32366" data-name="Path 32366" d="M179.062,145.844c0,.349-.255.566-.674.566h-.444v.52h-.178v-1.645h.618c.423,0,.678.21.678.559m-.175,0c0-.265-.175-.416-.507-.416h-.437v.828h.44c.328.007.5-.143.5-.412" transform="translate(-115.67 -94.535)" fill="#263238"/>
            <path id="Path_32367" data-name="Path 32367" d="M183.167,146.935v.768h-.161v-.192a.472.472,0,0,1-.43.2c-.279,0-.451-.143-.451-.349s.122-.349.479-.349H183v-.073a.3.3,0,0,0-.349-.328.624.624,0,0,0-.412.147l-.077-.126a.782.782,0,0,1,.507-.168.44.44,0,0,1,.5.376.433.433,0,0,1,0,.093m-.168.395v-.2h-.381c-.241,0-.318.094-.318.224s.115.234.314.234A.4.4,0,0,0,183,147.33Z" transform="translate(-118.507 -95.301)" fill="#263238"/>
            <path id="Path_32368" data-name="Path 32368" d="M185.916,147.552l.073-.133a.77.77,0,0,0,.444.14c.234,0,.332-.08.332-.206,0-.321-.8-.066-.8-.559,0-.2.175-.349.489-.349a.854.854,0,0,1,.44.115l-.073.133a.65.65,0,0,0-.367-.1c-.224,0-.321.087-.321.206,0,.349.8.084.8.559,0,.217-.189.349-.513.349a.827.827,0,0,1-.5-.15" transform="translate(-120.973 -95.29)" fill="#263238"/>
            <path id="Path_32369" data-name="Path 32369" d="M189.216,147.552l.077-.133a.753.753,0,0,0,.44.14c.238,0,.349-.08.349-.206,0-.321-.8-.066-.8-.559,0-.2.175-.349.493-.349a.833.833,0,0,1,.437.115l-.073.133a.647.647,0,0,0-.349-.1c-.227,0-.325.087-.325.206,0,.349.8.084.8.559,0,.217-.189.349-.51.349a.829.829,0,0,1-.538-.15" transform="translate(-123.12 -95.29)" fill="#263238"/>
            <path id="Path_32370" data-name="Path 32370" d="M194.372,146.465l-.472,1.24h-.157l-.391-1.017-.391,1.017H192.8l-.465-1.24h.161l.388,1.048.4-1.048h.147l.395,1.048.395-1.048Z" transform="translate(-125.15 -95.303)" fill="#263238"/>
            <path id="Path_32371" data-name="Path 32371" d="M198.426,147.057a.632.632,0,1,1,.632.632.611.611,0,0,1-.632-.59c0-.014,0-.028,0-.043m1.093,0a.461.461,0,0,0-.922,0h0a.461.461,0,0,0,.922,0Z" transform="translate(-129.113 -95.277)" fill="#263238"/>
            <path id="Path_32372" data-name="Path 32372" d="M203.651,146.432v.157h-.042a.4.4,0,0,0-.419.383.409.409,0,0,0,0,.074v.632h-.168v-1.24h.178v.241a.464.464,0,0,1,.447-.248" transform="translate(-132.106 -95.281)" fill="#263238"/>
            <path id="Path_32373" data-name="Path 32373" d="M206.6,145v1.747h-.161V146.5a.534.534,0,0,1-.479.255.632.632,0,0,1,0-1.261.537.537,0,0,1,.472.245v-.744Zm-.164,1.128a.461.461,0,1,0-.461.486.454.454,0,0,0,.462-.446.373.373,0,0,0,0-.039" transform="translate(-133.638 -94.346)" fill="#263238"/>
            <path id="Path_32374" data-name="Path 32374" d="M214.968,185.885v1.656h-.161v-1.5h-.391v-.154Z" transform="translate(-139.517 -120.953)" fill="#263238"/>
            <path id="Path_32375" data-name="Path 32375" d="M218.124,187.339v.154h-1.16v-.122l.7-.674c.185-.182.224-.293.224-.405,0-.192-.136-.311-.388-.311a.555.555,0,0,0-.451.185l-.122-.1a.749.749,0,0,1,.587-.238c.349,0,.548.171.548.447a.7.7,0,0,1-.272.517l-.562.552Z" transform="translate(-141.151 -120.912)" fill="#263238"/>
            <path id="Path_32376" data-name="Path 32376" d="M221.871,187.059c0,.276-.2.489-.6.489a.858.858,0,0,1-.594-.213l.08-.136a.73.73,0,0,0,.513.192c.276,0,.426-.126.426-.332s-.14-.328-.447-.328h-.119V186.6l.458-.573h-.845v-.147h1.048v.122l-.465.576c.367.024.545.21.545.475" transform="translate(-143.591 -120.953)" fill="#263238"/>
            <path id="Path_32377" data-name="Path 32377" d="M226.128,187.084H225.8v.437h-.168v-.437H224.7v-.122l.877-1.1h.189l-.845,1.055h.716v-.384h.164v.384h.332Z" transform="translate(-146.206 -120.94)" fill="#263238"/>
            <path id="Path_32378" data-name="Path 32378" d="M232,187c0,.283-.2.5-.6.5a.862.862,0,0,1-.594-.213l.084-.136a.7.7,0,0,0,.507.192c.283,0,.43-.136.43-.349s-.133-.349-.552-.349h-.349l.087-.831h.9v.154h-.758l-.056.524h.213c.5.017.685.217.685.507" transform="translate(-150.182 -120.907)" fill="#263238"/>
            <path id="Path_32379" data-name="Path 32379" d="M236.08,187a.517.517,0,0,1-.522.512l-.044,0c-.44,0-.678-.307-.678-.828a.764.764,0,0,1,.755-.856.776.776,0,0,1,.395.091l-.07.136a.588.588,0,0,0-.321-.077c-.349,0-.587.227-.587.678v.133a.534.534,0,0,1,.507-.283.5.5,0,0,1,.562.436.49.49,0,0,1,0,.06m-.168,0c0-.22-.161-.349-.416-.349a.381.381,0,0,0-.424.331c0,.006,0,.012,0,.018,0,.182.15.349.437.349a.35.35,0,0,0,.405-.342Z" transform="translate(-152.805 -120.913)" fill="#263238"/>
            <path id="Path_32380" data-name="Path 32380" d="M239.965,185.885v.122l-.7,1.534h-.185l.681-1.5h-.849v.307h-.168v-.461Z" transform="translate(-155.349 -120.953)" fill="#263238"/>
            <path id="Path_32381" data-name="Path 32381" d="M244,187.06c0,.293-.248.475-.643.475s-.636-.182-.636-.475a.416.416,0,0,1,.318-.409.349.349,0,0,1-.258-.349c0-.269.227-.437.576-.437s.583.168.583.437a.37.37,0,0,1-.265.349.419.419,0,0,1,.325.409m-.175,0c0-.2-.175-.332-.468-.332s-.465.129-.465.332.171.349.465.349.468-.14.468-.353Zm-.472-.468c.258,0,.412-.115.412-.3s-.164-.3-.412-.3-.409.112-.409.3.154.3.409.3" transform="translate(-157.939 -120.94)" fill="#263238"/>
            <path id="Path_32382" data-name="Path 32382" d="M249.943,186.648c0,.562-.307.856-.758.856a.771.771,0,0,1-.391-.091l.07-.136a.588.588,0,0,0,.321.077c.349,0,.583-.231.583-.678a.935.935,0,0,0,0-.133.524.524,0,0,1-.5.283.5.5,0,0,1-.556-.444.431.431,0,0,1,0-.052.517.517,0,0,1,.522-.512l.044,0c.423,0,.671.307.671.828m-.234-.328c0-.182-.15-.349-.437-.349a.35.35,0,0,0-.405.349c0,.22.161.349.416.349a.384.384,0,0,0,.412-.349Z" transform="translate(-161.83 -120.909)" fill="#263238"/>
            <path id="Path_32383" data-name="Path 32383" d="M253.2,185.885v1.656h-.171v-1.5h-.391v-.154Z" transform="translate(-164.387 -120.953)" fill="#263238"/>
            <path id="Path_32384" data-name="Path 32384" d="M255.366,186.667c0-.527.279-.842.66-.842s.66.314.66.842-.276.842-.66.842-.66-.314-.66-.842m1.146,0c0-.44-.2-.7-.486-.7s-.486.245-.486.7.2.7.486.7.486-.258.486-.7" transform="translate(-166.163 -120.914)" fill="#263238"/>
            <path id="Path_32385" data-name="Path 32385" d="M260.1,185.885v1.656h-.171v-1.5h-.391v-.154Z" transform="translate(-168.876 -120.953)" fill="#263238"/>
            <path id="Path_32386" data-name="Path 32386" d="M264.308,185.885v1.656h-.171v-1.5h-.391v-.154Z" transform="translate(-171.616 -120.953)" fill="#263238"/>
            <path id="Path_32387" data-name="Path 32387" d="M266.745,185.885v1.656h-.168v-1.5h-.391v-.154Z" transform="translate(-173.203 -120.953)" fill="#263238"/>
            <path id="Path_32388" data-name="Path 32388" d="M269.914,187.339v.154h-1.16v-.122l.7-.674c.185-.182.224-.293.224-.405,0-.192-.136-.311-.388-.311a.555.555,0,0,0-.451.185l-.122-.1a.754.754,0,0,1,.587-.238c.349,0,.548.171.548.447a.7.7,0,0,1-.272.517l-.576.552Z" transform="translate(-174.85 -120.912)" fill="#263238"/>
            <path id="Path_32389" data-name="Path 32389" d="M273,185.885v1.656h-.185v-1.5h-.388v-.154Z" transform="translate(-177.264 -120.953)" fill="#263238"/>
            <path id="Path_32390" data-name="Path 32390" d="M184.377,183.5v-.252a.44.44,0,0,0-.44-.44h-4.461a.44.44,0,0,0-.44.44v.252Z" transform="translate(-116.496 -118.949)" fill="#263238"/>
            <path id="Path_32391" data-name="Path 32391" d="M179.036,185.775v1.851a.44.44,0,0,0,.44.44h4.461a.44.44,0,0,0,.44-.44v-1.851Z" transform="translate(-116.496 -120.881)" fill="#263238"/>
            <path id="Path_32392" data-name="Path 32392" d="M179.226,212.123c0-.527.276-.838.66-.838s.66.311.66.838-.279.842-.66.842-.66-.314-.66-.842m1.146,0c0-.44-.2-.7-.486-.7s-.486.245-.486.7.2.7.486.7.5-.255.5-.7Z" transform="translate(-116.62 -137.48)" fill="#263238"/>
            <path id="Path_32393" data-name="Path 32393" d="M184.954,212.516c0,.293-.248.475-.643.475s-.636-.182-.636-.475a.409.409,0,0,1,.318-.405.374.374,0,0,1-.258-.349c0-.269.227-.437.576-.437s.583.168.583.437a.377.377,0,0,1-.262.349.412.412,0,0,1,.321.405m-.175,0c0-.2-.175-.328-.468-.328s-.465.126-.465.328.175.349.465.349.468-.147.468-.353Zm-.454-.468c.258,0,.412-.115.412-.293s-.164-.3-.412-.3-.409.112-.409.3.14.3.409.3" transform="translate(-119.515 -137.506)" fill="#263238"/>
            <path id="Path_32394" data-name="Path 32394" d="M188.3,210.365h.154l-.782,2.222h-.136Z" transform="translate(-122.027 -136.882)" fill="#263238"/>
            <path id="Path_32395" data-name="Path 32395" d="M191.3,212.795v.154h-1.16v-.122l.7-.671c.185-.185.22-.3.22-.409,0-.192-.133-.311-.384-.311a.562.562,0,0,0-.454.185l-.119-.1a.74.74,0,0,1,.587-.234c.349,0,.545.168.545.444a.678.678,0,0,1-.269.517l-.562.552Z" transform="translate(-123.699 -137.478)" fill="#263238"/>
            <path id="Path_32396" data-name="Path 32396" d="M195.1,212.456c0,.283-.2.5-.6.5a.862.862,0,0,1-.594-.213l.084-.136a.7.7,0,0,0,.507.192c.283,0,.43-.136.43-.349s-.129-.349-.552-.349h-.349l.084-.828h.9v.15h-.758l-.056.527h.213c.5.017.688.213.688.5" transform="translate(-126.172 -137.474)" fill="#263238"/>
            <path id="Path_32397" data-name="Path 32397" d="M180.082,206.537v.094h-.727V205.6h.7v.1h-.594v.349h.531v.094h-.531v.381Z" transform="translate(-116.704 -133.784)" fill="#263238"/>
            <path id="Path_32398" data-name="Path 32398" d="M182.469,206.632l-.328-.454-.349.454h-.126l.391-.527-.349-.5h.122l.311.419.307-.419h.115l-.349.5.391.531Z" transform="translate(-118.207 -133.784)" fill="#263238"/>
            <path id="Path_32399" data-name="Path 32399" d="M185.589,205.958c0,.217-.161.349-.419.349h-.276v.325h-.108v-1.027h.384c.259,0,.419.133.419.353m-.108,0c0-.164-.108-.259-.314-.259h-.272v.513h.272c.206,0,.314-.094.314-.255" transform="translate(-120.238 -133.784)" fill="#263238"/>
            <path id="Path_32400" data-name="Path 32400" d="M188.906,205.605h.416a.513.513,0,1,1,0,1.027h-.416Zm.409.933a.419.419,0,1,0,0-.838h-.3v.838Z" transform="translate(-122.919 -133.784)" fill="#263238"/>
            <path id="Path_32401" data-name="Path 32401" d="M192.772,206.61v.479h-.1v-.122a.287.287,0,0,1-.265.129c-.171,0-.279-.091-.279-.224s.077-.22.3-.22h.245v-.045a.189.189,0,0,0-.217-.206.4.4,0,0,0-.258.091l-.045-.077a.486.486,0,0,1,.314-.1.272.272,0,0,1,.311.3m-.1.245v-.126h-.241c-.15,0-.2.059-.2.14s.073.143.2.143a.244.244,0,0,0,.245-.154Z" transform="translate(-125.014 -134.241)" fill="#263238"/>
            <path id="Path_32402" data-name="Path 32402" d="M194.97,206.765a.231.231,0,0,1-.161.056.206.206,0,0,1-.227-.183.222.222,0,0,1,0-.041v-.468h-.136v-.087h.136v-.157h.1v.168h.234v.087h-.234v.444a.122.122,0,0,0,.133.14.183.183,0,0,0,.115-.038Z" transform="translate(-126.523 -133.967)" fill="#263238"/>
            <path id="Path_32403" data-name="Path 32403" d="M196.975,206.739h-.629a.286.286,0,0,0,.3.265.3.3,0,0,0,.238-.1l.059.07a.392.392,0,0,1-.3.126.38.38,0,0,1-.4-.359c0-.012,0-.024,0-.036a.37.37,0,0,1,.349-.391h.025a.349.349,0,0,1,.376.321.364.364,0,0,1,0,.07Zm-.646-.08h.548a.276.276,0,0,0-.548,0" transform="translate(-127.694 -134.244)" fill="#263238"/>
            <path id="Path_32404" data-name="Path 32404" d="M234.035,211.325v1.652h-.168v-1.5h-.391v-.15Z" transform="translate(-151.919 -137.506)" fill="#263238"/>
            <path id="Path_32405" data-name="Path 32405" d="M237.2,212.8v.154h-1.16v-.122l.7-.671c.185-.185.224-.3.224-.409,0-.192-.136-.311-.388-.311a.555.555,0,0,0-.451.185l-.122-.1a.746.746,0,0,1,.587-.234c.349,0,.548.168.548.444a.7.7,0,0,1-.272.517l-.562.552Z" transform="translate(-153.566 -137.478)" fill="#263238"/>
            <path id="Path_32406" data-name="Path 32406" d="M240.951,212.5c0,.276-.2.489-.6.489a.858.858,0,0,1-.594-.213l.084-.136a.7.7,0,0,0,.51.192c.276,0,.426-.126.426-.332s-.14-.328-.447-.328h-.119v-.126l.458-.573h-.845v-.15h1.048v.119l-.468.587c.37.021.548.206.548.472" transform="translate(-156.006 -137.506)" fill="#263238"/>
            <path id="Path_32407" data-name="Path 32407" d="M233.636,206.1a.517.517,0,0,1,.51-.524h.028a.5.5,0,0,1,.374.15l-.066.07a.416.416,0,0,0-.3-.122.426.426,0,0,0-.077.849.408.408,0,0,0,.077,0,.4.4,0,0,0,.3-.122l.066.07a.489.489,0,0,1-.377.15.513.513,0,0,1-.534-.492c0-.009,0-.019,0-.028" transform="translate(-152.024 -133.764)" fill="#263238"/>
            <path id="Path_32408" data-name="Path 32408" d="M238.066,205.6l-.349,1.027H237.6l-.3-.877-.3.877h-.115l-.349-1.027h.112l.3.884.307-.884h.1l.3.887.3-.887Z" transform="translate(-153.911 -133.784)" fill="#263238"/>
            <path id="Path_32409" data-name="Path 32409" d="M206.419,239.214H205.5l-.2.444h-.182l.755-1.652h.175l.755,1.652h-.185Zm-.066-.14-.391-.887-.4.887Z" transform="translate(-133.466 -154.867)" fill="#263238"/>
            <path id="Path_32410" data-name="Path 32410" d="M210.225,239.776a.611.611,0,0,1,.589-.633h.05a.538.538,0,0,1,.486.248l-.122.084a.429.429,0,0,0-.349-.185.486.486,0,0,0,0,.971.433.433,0,0,0,.349-.182l.122.084a.545.545,0,0,1-.486.245.611.611,0,0,1-.639-.582c0-.017,0-.033,0-.05" transform="translate(-136.791 -155.607)" fill="#263238"/>
            <path id="Path_32411" data-name="Path 32411" d="M214.747,239.834a.386.386,0,0,1-.262.087.328.328,0,0,1-.349-.306.293.293,0,0,1,0-.043v-.762h-.22v-.143h.217V238.4h.168v.272h.381v.143H214.3v.741a.2.2,0,0,0,.168.226.205.205,0,0,0,.049,0,.29.29,0,0,0,.185-.063Z" transform="translate(-139.192 -155.12)" fill="#263238"/>
            <path id="Path_32412" data-name="Path 32412" d="M217.066,237.828a.122.122,0,1,1,.122.122.122.122,0,0,1-.122-.122m.038.391h.168v1.244H217.1Z" transform="translate(-141.242 -154.672)" fill="#263238"/>
            <path id="Path_32413" data-name="Path 32413" d="M218.626,239.777a.632.632,0,1,1,.636.632.615.615,0,0,1-.636-.593c0-.013,0-.026,0-.039m1.093,0a.461.461,0,1,0-.458.486.454.454,0,0,0,.459-.45c0-.012,0-.024,0-.036" transform="translate(-142.257 -155.608)" fill="#263238"/>
            <path id="Path_32414" data-name="Path 32414" d="M224.408,239.71v.72h-.168v-.7a.349.349,0,0,0-.3-.393.328.328,0,0,0-.074,0,.4.4,0,0,0-.434.374.4.4,0,0,0,0,.073v.653h-.168v-1.244h.161v.241a.527.527,0,0,1,.472-.241.478.478,0,0,1,.51.444.455.455,0,0,1,0,.073" transform="translate(-145.276 -155.639)" fill="#263238"/>
            <path id="Path_32415" data-name="Path 32415" d="M229.85,238.148v.65h.852v.15h-.852v.7h-.175v-1.652h1.132v.15Z" transform="translate(-149.447 -154.86)" fill="#263238"/>
            <path id="Path_32416" data-name="Path 32416" d="M233.676,237.828a.122.122,0,1,1,.122.122.122.122,0,0,1-.122-.122m.035.391h.168v1.244h-.168Z" transform="translate(-152.05 -154.672)" fill="#263238"/>
            <path id="Path_32417" data-name="Path 32417" d="M236.465,239.139v1.093a.541.541,0,0,1-.452.618.532.532,0,0,1-.167,0,.871.871,0,0,1-.58-.189l.084-.129a.747.747,0,0,0,.489.171c.314,0,.458-.147.458-.451v-.168a.548.548,0,0,1-.482.241.6.6,0,0,1-.092-1.205.577.577,0,0,1,.092,0,.562.562,0,0,1,.489.248v-.238Zm-.161.59a.472.472,0,1,0-.485.457h.014a.444.444,0,0,0,.471-.415c0-.012,0-.024,0-.036Z" transform="translate(-153.019 -155.592)" fill="#263238"/>
            <path id="Path_32418" data-name="Path 32418" d="M241.322,239.162v1.244h-.161v-.227a.5.5,0,0,1-.447.238.482.482,0,0,1-.525-.435.474.474,0,0,1,0-.1v-.72h.168v.7a.349.349,0,0,0,.3.4.345.345,0,0,0,.078,0,.405.405,0,0,0,.425-.385.419.419,0,0,0,0-.066v-.653Z" transform="translate(-156.286 -155.615)" fill="#263238"/>
            <path id="Path_32419" data-name="Path 32419" d="M245.365,239.142v.164h-.042a.405.405,0,0,0-.419.461v.632h-.168v-1.244h.161v.245a.479.479,0,0,1,.468-.258" transform="translate(-159.246 -155.605)" fill="#263238"/>
            <path id="Path_32420" data-name="Path 32420" d="M248.27,239.829h-1.048a.461.461,0,0,0,.487.433h0a.493.493,0,0,0,.381-.164l.094.108a.657.657,0,0,1-1.132-.43.6.6,0,0,1,.568-.632h.039a.59.59,0,0,1,.6.578c0,.018,0,.036,0,.054a.307.307,0,0,1,.007.052m-1.048-.126h.88a.44.44,0,0,0-.88,0" transform="translate(-160.754 -155.608)" fill="#263238"/>
            <path id="Path_32421" data-name="Path 32421" d="M206.75,251.71v.727H206.1v-.7a3.07,3.07,0,0,1-1.617-.52l.349-.789a2.62,2.62,0,0,0,1.261.461v-1.083c-.723-.178-1.527-.416-1.527-1.345,0-.7.5-1.279,1.527-1.4v-.72h.646v.7a2.928,2.928,0,0,1,1.317.4l-.325.8a2.687,2.687,0,0,0-.992-.349v1.1c.72.168,1.513.409,1.513,1.324.007.688-.486,1.271-1.506,1.394m-.646-2.864v-.915c-.349.077-.482.265-.482.479S205.817,248.755,206.1,248.846Zm1.114,1.561c0-.227-.189-.349-.468-.447v.894C207.074,250.785,207.218,250.617,207.218,250.408Z" transform="translate(-133.056 -160.293)" fill="#263238"/>
            <path id="Path_32422" data-name="Path 32422" d="M219.466,252.091v.859h-3.43v-.681l1.747-1.656c.405-.384.475-.615.475-.838,0-.349-.248-.562-.727-.562a1.111,1.111,0,0,0-.94.454l-.765-.493a2.1,2.1,0,0,1,1.8-.845c1.013,0,1.687.52,1.687,1.345a1.815,1.815,0,0,1-.762,1.432l-1.048.985Z" transform="translate(-140.435 -161.582)" fill="#263238"/>
            <path id="Path_32423" data-name="Path 32423" d="M227.456,250.686c0-1.5.831-2.351,1.946-2.351s1.946.852,1.946,2.351-.824,2.347-1.946,2.347-1.946-.849-1.946-2.347m2.836,0c0-1.048-.349-1.46-.891-1.46s-.88.426-.88,1.46.349,1.457.88,1.457.877-.426.877-1.457Z" transform="translate(-148.003 -161.588)" fill="#263238"/>
            <path id="Path_32424" data-name="Path 32424" d="M240.066,250.686c0-1.5.831-2.351,1.946-2.351s1.946.852,1.946,2.351-.824,2.347-1.946,2.347-1.946-.849-1.946-2.347m2.833,0c0-1.048-.349-1.46-.887-1.46s-.884.426-.884,1.46.349,1.457.884,1.457S242.9,251.716,242.9,250.686Z" transform="translate(-156.208 -161.588)" fill="#263238"/>
            <path id="Path_32425" data-name="Path 32425" d="M215.4,282.035H200.914a3.39,3.39,0,0,1,0-6.78H215.4a3.388,3.388,0,0,1,3.388,3.388v0A3.388,3.388,0,0,1,215.4,282.035Z" transform="translate(-128.528 -179.105)" fill="#263238"/>
            <path id="Path_32426" data-name="Path 32426" d="M211.747,282.616c0,.426-.307.681-.814.681H210.4v.629h-.21v-1.991h.748c.507.014.814.269.814.681m-.213,0c0-.318-.21-.5-.608-.5H210.4v1h.531c.4.014.608-.168.608-.5" transform="translate(-136.765 -183.451)" fill="#fff"/>
            <path id="Path_32427" data-name="Path 32427" d="M216.69,283.925v.929H216.5v-.234a.566.566,0,0,1-.517.248c-.349,0-.545-.175-.545-.437s.147-.423.576-.423h.475v-.091c0-.255-.143-.395-.423-.395a.768.768,0,0,0-.5.175l-.091-.15a.947.947,0,0,1,.611-.2.531.531,0,0,1,.6.58m-.2.479v-.245h-.468c-.29,0-.384.115-.384.269s.14.283.377.283a.475.475,0,0,0,.475-.307" transform="translate(-140.181 -184.365)" fill="#fff"/>
            <path id="Path_32428" data-name="Path 32428" d="M221.136,283.372l-.748,1.677c-.126.293-.283.388-.5.388a.517.517,0,0,1-.356-.143l.094-.15a.374.374,0,0,0,.272.115c.136,0,.227-.063.311-.251l.066-.147-.671-1.5h.213l.562,1.275.548-1.268Z" transform="translate(-142.849 -184.382)" fill="#fff"/>
            <path id="Path_32429" data-name="Path 32429" d="M227.47,283.342v.328h-.143v-.325a1.047,1.047,0,0,1-.681-.259l.084-.164a.955.955,0,0,0,.6.241v-.748c-.314-.077-.632-.175-.632-.552,0-.272.2-.51.632-.541v-.328h.143v.311a1.1,1.1,0,0,1,.576.175l-.07.168a1.1,1.1,0,0,0-.507-.164v.755c.321.077.66.168.66.548,0,.29-.21.531-.66.555m-.143-1.125v-.7c-.293.024-.426.175-.426.349s.192.286.426.349m.594.6c0-.227-.206-.3-.451-.349v.7C227.781,283.14,227.921,283,227.921,282.815Z" transform="translate(-147.476 -182.84)" fill="#fff"/>
            <path id="Path_32430" data-name="Path 32430" d="M232.876,283.75v.182h-1.4v-.143l.828-.814c.224-.22.265-.349.265-.493,0-.231-.161-.37-.465-.37a.7.7,0,0,0-.545.22l-.147-.126a.9.9,0,0,1,.7-.283c.4,0,.66.206.66.538a.816.816,0,0,1-.328.622l-.678.667Z" transform="translate(-150.579 -183.443)" fill="#fff"/>
            <path id="Path_32431" data-name="Path 32431" d="M236.3,282.938c0-.636.332-1.013.793-1.013s.8.377.8,1.013-.349,1.013-.8,1.013-.793-.377-.793-1.013m1.38,0c0-.531-.238-.824-.587-.824s-.587.293-.587.824.241.824.587.824S237.676,283.469,237.676,282.938Z" transform="translate(-153.755 -183.445)" fill="#fff"/>
            <path id="Path_32432" data-name="Path 32432" d="M241.686,282.938c0-.636.349-1.013.8-1.013s.8.377.8,1.013-.349,1.013-.8,1.013-.8-.377-.8-1.013m1.4,0c0-.531-.238-.824-.583-.824s-.587.293-.587.824.238.824.587.824.566-.293.566-.824Z" transform="translate(-157.262 -183.445)" fill="#fff"/>
            <path id="Path_32433" data-name="Path 32433" d="M115.169,153.387c.524,8.052-3.207,17.019-3.207,17.019L91.81,164.733l-3.514-.992c3.493-4.852,5.156-14.409,4.244-22.143-.07-.583-.112-1.132-.143-1.656-.349-6.378,2.3-8.244,4.541-11.063,2.445-3.053,7.887-14.58,7.887-17.308s6.829-9.407,5.31-16.987a4.546,4.546,0,0,1,4.139-.231,5.972,5.972,0,0,1,2.641,3.2c1.778,4.153-.72,15.894-2.843,18.772l-4.09,16.935a36.177,36.177,0,0,1,2.735,6.7,57.6,57.6,0,0,1,2.452,13.435" transform="translate(-57.453 -61.125)" fill="#fff"/>
            <g id="Group_30971" data-name="Group 30971" transform="translate(30.853 78.817)" opacity="0.4" style="isolation: isolate">
              <g id="Group_30970" data-name="Group 30970">
                <g id="Group_30969" data-name="Group 30969" clip-path="url(#clip-path-10)">
                  <path id="Path_32434" data-name="Path 32434" d="M92.416,225.635c1.142,3.126,2.354,5.24,2.25,9.62s-2.445,11.122-1.778,14.626a3.087,3.087,0,0,0-1.048.545l-3.514-.992c3.493-4.852,5.156-14.409,4.244-22.143-.08-.583-.122-1.132-.154-1.656" transform="translate(-88.326 -225.635)" fill="#005988"/>
                </g>
              </g>
            </g>
            <g id="Group_30974" data-name="Group 30974" transform="translate(50.139 33.228)" opacity="0.4" style="isolation: isolate">
              <g id="Group_30973" data-name="Group 30973">
                <g id="Group_30972" data-name="Group 30972" clip-path="url(#clip-path-11)">
                  <path id="Path_32435" data-name="Path 32435" d="M150.016,117.093l-4.09,16.935a36.176,36.176,0,0,1,2.735,6.7c-2.77-4.464-5.124-5.8-5.124-5.8,1.844-2.211,3.266-18.384,3.266-18.384s5.781-6.794,5.24-13.9a22.7,22.7,0,0,0-1.823-7.514,5.972,5.972,0,0,1,2.641,3.2c1.778,4.153-.72,15.894-2.843,18.772" transform="translate(-143.536 -95.125)" fill="#005988"/>
                </g>
              </g>
            </g>
            <path id="Path_32436" data-name="Path 32436" d="M88.3,163.744c3.493-4.852,5.156-14.409,4.248-22.143s1.97-9.669,4.4-12.722,7.884-14.577,7.884-17.308,6.826-9.4,5.31-16.984c0,0,4.356-2.7,6.78,2.966,1.778,4.157-.72,15.894-2.843,18.776l-4.087,16.931s4.363,7.528,5.184,20.131c.524,8.052-3.207,17.022-3.207,17.022" transform="translate(-57.453 -61.128)" fill="none" stroke="#263238" stroke-linecap="round" stroke-linejoin="round" stroke-width="1"/>
            <path id="Path_32437" data-name="Path 32437" d="M126.856,331.3a24.585,24.585,0,0,1,7.262,7.287" transform="translate(-82.544 -215.569)" fill="none" stroke="#263238" stroke-linecap="round" stroke-linejoin="round" stroke-width="1"/>
            <path id="Path_32438" data-name="Path 32438" d="M129.555,318.95s-3.951.562-7.521-3.71c-2.288-2.735-9.236-3.972-10.829-11.126" transform="translate(-72.36 -197.884)" fill="none" stroke="#263238" stroke-linecap="round" stroke-linejoin="round" stroke-width="1"/>
            <g id="Group_30980" data-name="Group 30980" transform="translate(83.606 56.056)" opacity="0.2" style="isolation: isolate">
              <g id="Group_30979" data-name="Group 30979">
                <g id="Group_30978" data-name="Group 30978" clip-path="url(#clip-path-12)">
                  <g id="Group_30977" data-name="Group 30977" opacity="0.7">
                    <g id="Group_30976" data-name="Group 30976">
                      <g id="Group_30975" data-name="Group 30975" clip-path="url(#clip-path-12)">
                        <path id="Path_32439" data-name="Path 32439" d="M270.354,246.64c-10.113-4.838-3.989-8.715-17.9-14.72s-14.053-11.136-12.376-22.936.349-24.351,4.394-25.416-3.165-17.34,1.551-23.093L269.23,205.62Z" transform="translate(-239.345 -160.475)"/>
                      </g>
                    </g>
                  </g>
                </g>
              </g>
            </g>
            <path id="Path_32440" data-name="Path 32440" d="M317.6,242c-.475-1.359-.957-2.843-1.331-4.192a20.422,20.422,0,0,0-1.747-4.768c-.14-.258-.29-.531-.458-.824a29.083,29.083,0,0,1-3-6.833c-.51-1.911,0-6.616.475-11.178a64.612,64.612,0,0,0,.573-8.122l-.028-.622c-.238-4.586-.734-14.13-1.747-16.767-1-2.543-1.925-2.924-3.619-3.6-.175-.077-.349-.147-.552-.231-.636-.265-1.719-.824-2.966-1.471-2.812-1.457-6.312-3.27-8.09-3.493a15.848,15.848,0,0,0-4.985.231c-2.19-1.68-5.917-3.842-7.028-3.888a15.839,15.839,0,0,0-3.842.821l-.479.154a14.374,14.374,0,0,0-1.907-1.251c-.045-.024-.091-.042-.129-.059a11.394,11.394,0,0,0-4.111-.5,5.924,5.924,0,0,0-.657.042c-1.918-2.952-3.8-5.889-4.625-7.178-1.712-2.711-7.011-13.864-7.063-13.973a.094.094,0,0,0-.07-.056.19.19,0,0,0-.049,0c-.412-.119-3.448-.891-4.667,2.05-1.334,3.2.569,10.235,2.428,12.788.894,1.23,3.336,6.246,5.813,11.437-.636.59-5.722,5.289-8.191,6.165-2.023.716-1.547,11.084-1.167,19.408.143,3.074.262,5.718.227,7.308-.07,3.074,5.523,7.308,10.944,11.4,4.89,3.71,9.962,7.542,10.556,10.326a5.344,5.344,0,0,0,1.191,2.134,11.052,11.052,0,0,1,2.644,5.24c.15.8,1.429,1.837,2.445,3.539h36.692c-.307-.828-.887-2.337-1.481-4.042M266.711,186.77a59.135,59.135,0,0,0,3.144,6.186c.265.248.248,1.429.241,2.578a20.733,20.733,0,0,0,.1,3.015c-.433.381-3.168,2.871-3.72,4.89l-2.323-2.735-.587-8.583c.349-.37,2.739-2.9,3.14-5.352" transform="translate(-165.3 -100.247)" fill="#fff"/>
            <g id="Group_30983" data-name="Group 30983" transform="translate(113.463 75.993)" opacity="0.4" style="isolation: isolate">
              <g id="Group_30982" data-name="Group 30982">
                <g id="Group_30981" data-name="Group 30981" clip-path="url(#clip-path-14)">
                  <path id="Path_32441" data-name="Path 32441" d="M353.121,252.007c.863,8.052.873,12.418,1.841,14.748,1.635,3.933,4.042,4.73,4.042,4.73a24.259,24.259,0,0,1-1.9-4.789c-.506-1.911,0-6.616.475-11.178a65.6,65.6,0,0,0,.58-8.125l-.031-.622c-.238-4.583-.734-14.126-1.747-16.767a5.074,5.074,0,0,0-3.619-3.6c-.175-.073-.349-.143-.552-.227-.636-.265-1.715-.824-2.966-1.471-2.812-1.457-6.312-3.27-8.09-3.493a15.725,15.725,0,0,0-4.985.231c-2.19-1.68-5.917-3.842-7.028-3.888a19.931,19.931,0,0,0-4.328.975c4.192,3.42,10.228,7.685,10.228,7.685,4.775.95,4.164,3.022,6.1,4.192,1.747,1.048,3.416-2.019,4.89-2.288,1.928-.349,4.118,1.684,4.021,4.15-.3,6.794,2.33,12.83,3.07,19.743" transform="translate(-324.816 -217.549)" fill="#005988"/>
                </g>
              </g>
            </g>
            <g id="Group_30986" data-name="Group 30986" transform="translate(107.308 75.151)" opacity="0.4" style="isolation: isolate">
              <g id="Group_30985" data-name="Group 30985">
                <g id="Group_30984" data-name="Group 30984" clip-path="url(#clip-path-15)">
                  <path id="Path_32442" data-name="Path 32442" d="M317.518,225.487a63.107,63.107,0,0,0-5.589-4.192c-1.806-1.048-2.1-4.66-.671-5.537a.4.4,0,0,1,.178-.056l-.129-.059a11.317,11.317,0,0,0-4.111-.5c2.1,3.9,3.769,6.9,4.22,7.552,1.52,2.194,6.1,2.788,6.1,2.788" transform="translate(-307.196 -215.138)" fill="#005988"/>
                </g>
              </g>
            </g>
            <g id="Group_30989" data-name="Group 30989" transform="translate(88.729 53.795)" opacity="0.4" style="isolation: isolate">
              <g id="Group_30988" data-name="Group 30988">
                <g id="Group_30987" data-name="Group 30987" clip-path="url(#clip-path-16)">
                  <path id="Path_32443" data-name="Path 32443" d="M277.171,234.6c.161-.835-1.216-3.28-1.82-4.272-1.373-2.264-17.312-16.348-15-20.107s4.419-.978,5.879-.734c1.048.175,3.926-1.54,3.912-1.684-.328-2.9,2.344-4.779,2.344-4.779s-.245-11.527-.859-11.332-7.971-17.309-7.971-17.309-7.776-10.34-7.336-15.164,3.815-4.908,3.815-4.908v-.129c-.412-.119-3.448-.891-4.667,2.05-1.334,3.2.569,10.235,2.428,12.788.894,1.23,3.336,6.246,5.813,11.437-.636.59-5.722,5.289-8.191,6.165-2.023.716-1.547,11.084-1.167,19.408.143,3.074.262,5.718.227,7.308-.07,3.074,5.523,7.308,10.944,11.4,4.89,3.71,9.962,7.542,10.556,10.326a5.343,5.343,0,0,0,1.191,2.134,14.154,14.154,0,0,1-.094-2.6m-10.479-47.856a59.147,59.147,0,0,0,3.144,6.186c.266.248.248,1.429.241,2.578a20.738,20.738,0,0,0,.1,3.015c-.433.381-3.168,2.871-3.72,4.89l-2.323-2.735-.587-8.583c.349-.381,2.739-2.906,3.14-5.362Z" transform="translate(-254.009 -154.002)" fill="#005988"/>
                </g>
              </g>
            </g>
            <path id="Path_32444" data-name="Path 32444" d="M282.835,185.878a7.941,7.941,0,0,1-3.926-2.753c-1.6-2.138-7.867-11.877-9.6-14.622s-7.081-13.976-7.081-13.976-3.284-1.1-4.562,1.967.472,10,2.417,12.666,11.192,23.219,11.926,23.883-.367,6.148,1.1,7.475" transform="translate(-167.374 -100.424)" fill="none" stroke="#263238" stroke-linecap="round" stroke-linejoin="round" stroke-width="1"/>
            <path id="Path_32445" data-name="Path 32445" d="M287.831,258.709s-3.388,2.952-3.787,5.107l-2.515-2.959-.594-8.67s3.036-3.039,3.2-5.743" transform="translate(-182.801 -160.358)" fill="none" stroke="#263238" stroke-linecap="round" stroke-linejoin="round" stroke-width="1"/>
            <path id="Path_32446" data-name="Path 32446" d="M264.054,229.765s-5.627,5.31-8.3,6.256-.723,20.84-.856,26.6,20.243,15.8,21.493,21.692c.5,2.347,2.55,2.826,3.8,7.336" transform="translate(-165.49 -149.505)" fill="none" stroke="#263238" stroke-linecap="round" stroke-linejoin="round" stroke-width="1"/>
            <path id="Path_32447" data-name="Path 32447" d="M305.1,215.518a12.885,12.885,0,0,1,4.789.444c1.726.72,8.733,6.738,10.424,7.888s4.234,1.586,4.716,2.826" transform="translate(-198.522 -140.201)" fill="none" stroke="#263238" stroke-linecap="round" stroke-linejoin="round" stroke-width="1"/>
            <path id="Path_32448" data-name="Path 32448" d="M324.706,218.849a19.694,19.694,0,0,1,4.345-.989c1.2.059,5.722,2.725,7.748,4.506a17.27,17.27,0,0,0,5.278,3.207" transform="translate(-211.282 -141.757)" fill="none" stroke="#263238" stroke-linecap="round" stroke-linejoin="round" stroke-width="1"/>
            <path id="Path_32449" data-name="Path 32449" d="M357.216,228.4a15.335,15.335,0,0,1,5-.241c2.557.349,8.977,4.122,11.024,4.974s3.025,1.01,4.1,3.762,1.568,13.218,1.785,17.354-1.939,15.981-1.048,19.314a32.8,32.8,0,0,0,3.472,7.685" transform="translate(-232.436 -148.39)" fill="none" stroke="#263238" stroke-linecap="round" stroke-linejoin="round" stroke-width="1"/>
            <path id="Path_32450" data-name="Path 32450" d="M278.724,258.59s-.489-2.043-1.188-2.305" transform="translate(-180.589 -166.761)" fill="none" stroke="#263238" stroke-linecap="round" stroke-linejoin="round" stroke-width="1"/>
            <path id="Path_32451" data-name="Path 32451" d="M282.636,287.7a26.062,26.062,0,0,0,.954,3.511,4.745,4.745,0,0,1-.279,3.036" transform="translate(-183.907 -187.206)" fill="none" stroke="#263238" stroke-linecap="round" stroke-linejoin="round" stroke-width="1"/>
            <path id="Path_32452" data-name="Path 32452" d="M289.832,296.175c-.08,1.984,1.893,4.3,2.372,3.975" transform="translate(-188.588 -192.717)" fill="none" stroke="#263238" stroke-linecap="round" stroke-linejoin="round" stroke-width="1"/>
            <path id="Path_32453" data-name="Path 32453" d="M318.606,252.227s2.12-3.43,4.153-3.6,4.38,2.718,5.634,2.445,2.833-2.117,4.943-2.445,3.1.678,4.772.762,1.844-2.152,3.842-2.445,2.679.7,4.021.957,1.677-.8,2.763-1.4" transform="translate(-207.313 -160.398)" fill="none" stroke="#263238" stroke-linecap="round" stroke-linejoin="round" stroke-width="1"/>
          </g>
        </g>
      </g>
    </g>
  </g>
</svg>
