<svg xmlns="http://www.w3.org/2000/svg" xmlns:xlink="http://www.w3.org/1999/xlink" width="169.668" height="183.676" viewBox="0 0 169.668 183.676">
  <defs>
    <clipPath id="clip-path">
      <rect id="Rectangle_17655" data-name="Rectangle 17655" width="132.908" height="152.203" fill="none"/>
    </clipPath>
  </defs>
  <g id="Group_31011" data-name="Group 31011" transform="translate(-276.39 -3218)">
    <path id="Path_32025" data-name="Path 32025" d="M314.515,175.567c20.722,4.441,32.675,23.99,48.439,38.155,14.962,13.445,37.77,22.107,40.761,42,2.978,19.811-16.482,34.579-26.656,51.838-10.031,17.018-13.17,41.851-32.031,47.723-18.826,5.86-34.975-13.94-53.326-21.153-17.58-6.91-40.263-4.549-51.214-19.94-11.241-15.8-3.727-36.954-3.058-56.332.829-23.991-9.007-51.931,7.4-69.45,16.648-17.773,45.869-17.943,69.681-12.84" transform="translate(42.037 3045.325)" fill="#b7e8e6"/>
    <g id="Group_30942" data-name="Group 30942" transform="translate(284.082 3238.737)">
      <g id="Group_30941" data-name="Group 30941" clip-path="url(#clip-path)">
        <path id="Path_32124" data-name="Path 32124" d="M68.013,272.3c-.629-9.74-1.235-19.483-1.894-29.221-.718-10.606-1.37-21.218-2.381-31.8a.959.959,0,0,0-.273-.655c-.307,3.1-.577,6.194-.928,9.285-.616,5.416-1.158,10.844-1.962,16.233-.743,4.974-3.505,9.009-6.743,12.695A77.625,77.625,0,0,1,36.763,263c-.82-.674-1-1.793-1.719-2.521-.981-.992-1.177-2.724-2.865-3.044C36.972,250.983,41.2,244.082,47.1,238.5a7.7,7.7,0,0,0,2.564-6.471c-.417-7.368-1.43-14.66-2.326-21.973a47.044,47.044,0,0,1,.9-18.262c.083-.306.216-.6.326-.9,1.037.072,1.277,1.591,2.479,1.363l-.014-.016a1.139,1.139,0,0,0,1.391,1.114l-.024-.016c.1.275.313.318.566.294l-.005-.011c-.058.586.406.754.787,1a26.087,26.087,0,0,0,12.33,3.98c.345.029.8-.177,1,.218.18.365-.154.68-.361.969a24.5,24.5,0,0,0-3.5,8.284c-.107.41-.354,1.014.275,1.15.563.122.58-.552.63-.882.507-3.318,2.286-6.1,3.7-9.045.144-.3.348-.484.618-.4a13.346,13.346,0,0,1,2.843.752c2.339,1.274,3.816,4.113,6.971,3.9-.019,1.491,1.026,2.363,1.929,3.317-.013.687-.032,1.374-.038,2.061-.084,10.229-.905,20.411-1.989,30.573-1.171,10.975-2.751,21.9-4.447,32.8l-5.684-.006" transform="translate(-23.326 -138.375)" fill="#454a5a"/>
        <path id="Path_32125" data-name="Path 32125" d="M239.419,229.394c-1.5-3.527-3.057-7.031-4.305-10.66a2.828,2.828,0,0,1,1.6.287c5.814,1.711,11.717,1.655,17.643.834,2.162-.3,4.3-.787,6.446-1.188a2.262,2.262,0,0,0,1.482-.642c3.381-3.25,6.733-6.531,10.094-9.8a17.642,17.642,0,0,0,2.763-2.74,2.4,2.4,0,0,0,1.642-1.381c.212-.235.378-.562.642-.689,2.145-1.04,3.835-2.735,5.826-3.992a27.43,27.43,0,0,1,8.465-4.022c3.548-.806,6.741-.224,8.231,2.639l-.02-.039c-.026.264.011.494.315.578l-.051-.035.246.344.051.049-.034.062a3.012,3.012,0,0,0,.869,2.068l-.029-.033c-.2,1.012.58,1.843.522,2.829a6.884,6.884,0,0,0-6.576-2.2,30.5,30.5,0,0,0-4.381,1.042,25.67,25.67,0,0,0-14.971,12.438c-1.368,2.491-2.687,5.078-2.738,8.083a31.218,31.218,0,0,1-.511,4.191c-.34,2.2-1.141,4.139-3.376,5.234,2.855-.357,5.636-.2,8.408-.434a81.051,81.051,0,0,0,10.65-1.6c4.99-1.105,9.909-2.478,13.762-6.171l.308,1.434.006-.038-.294.4a.107.107,0,0,1-.084.154c-.889.11-1.09,1.046-1.746,1.45a31.378,31.378,0,0,1-8.154,3.425,87.037,87.037,0,0,1-10.572,2.022c-2.572.379-5.162.549-7.74.681a100.16,100.16,0,0,1-11.109,0,79.952,79.952,0,0,1-10.273-1.256c-1.82-.349-3.668-.587-5.456-1.055-2.539-.666-5.034-1.5-7.548-2.258" transform="translate(-170.427 -141.398)" fill="#fc5f4c"/>
        <path id="Path_32126" data-name="Path 32126" d="M120.467,61.107a.194.194,0,0,1,.04-.18c1.049-.111.925-1.263,1.549-1.747.882-.684.832-2.265,2.544-2.113.273.007.209-.154.01-.2-.065-.015-.259-.231-.25.066.006.209-.039.467.233.545.074.021.189-.105.007-.41a2.723,2.723,0,0,1,1.063-3.083,11.336,11.336,0,0,0,3.084-3.8l0,0c1.015-.114,1.835-1.075,2.975-.686.068.023.225-.143.307-.247.686-.869,1.246-1.979,2.695-1.334.059.026.256-.2.359-.337.478-.619.915-.6,1.395.019s.9.582,1.087-.235a.605.605,0,0,1,.568-.489h-.007a11.805,11.805,0,0,1,.026,1.991,1.947,1.947,0,0,0,1.887,2.409,2.719,2.719,0,0,1,1.316.594c.5.322,1.184.6,1.395-.273.357-1.491.99-.89,1.672-.312,0,1.784-.06,3.571.03,5.351.063,1.239-.423,1.574-1.595,1.553-1.6-.028-3.164-.371-4.773-.315-2.042.071-2.151-.08-2.592-1.953-.007-.031-.157-.029-.311-.053-.489,4.79-1.017,9.57-1.429,14.36a1.325,1.325,0,0,1-1.142,1.386,6.562,6.562,0,0,0-3.575,2.863c1.309-.334,1.812-1.3,2.643-1.812,1.056-.647,1.956-1.148,3,.028a2.537,2.537,0,0,0,1.494.9,2.4,2.4,0,0,0,1.649,1.653c.224,1.326,1.419,1.871,2.207,2.743a.839.839,0,0,0,.812.838,4.377,4.377,0,0,0,2.187,2.839c-.1-.223-.159-.379-.238-.524-.108-.2-.253-.38-.343-.586a2.325,2.325,0,0,1,2.079-3.4,19.535,19.535,0,0,0,4.874-.3q-.005.694-.011,1.387a.539.539,0,0,0-.244.561c-.089,1.7-.818,3.257-1.137,4.9a2.1,2.1,0,0,1-2.19,1.946c-.136-1.454-1.127-1.841-2.6-.985.486.27,1.257.194,1.238,1.025.3.965,1.094.328,1.636.508-.153.668-.9,1.1-1.234.953a10.179,10.179,0,0,0-4.384-1.032c-.572.018-1.126-.631-1.718.127-.415.532-1,.918-.925,1.729a.814.814,0,0,1-.991.981,14.179,14.179,0,0,0-2.287.291c-.12-1.143-1.213-1.271-1.924-1.709-1.359-.836-2.482-2.1-4.138-2.42l0,0c-.7-1.223-1.876-2.019-2.753-3.1-3.445-4.247-4.4-9.079-3.653-14.352a41.1,41.1,0,0,1,2.274-7.843c-.058-.715-.495-.961-1.116-.763s-.573.711-.424,1.232c.086.3.122.612.181.918a3.2,3.2,0,0,1-.554,2.177,2.906,2.906,0,0,1-1.972-2.3m17.175,23.764a1.94,1.94,0,0,0-1.246.3.867.867,0,0,0-.44,1.038.527.527,0,0,0,.436.462c.478.048.568-.376.732-.682a2.5,2.5,0,0,0,.329-1.11c.573-.079,1.165.15,1.362-.522a.5.5,0,0,0-.226-.43c-.672-.194-.816.348-.946.945m2.092.318c.6.248.974.343,1.355-.193a1.238,1.238,0,0,0-1.355.193" transform="translate(-87.318 -33.981)" fill="#fde064"/>
        <path id="Path_32127" data-name="Path 32127" d="M250.762,311.919c2.514.761,5.009,1.592,7.548,2.258,1.788.469,3.636.707,5.456,1.055a79.95,79.95,0,0,0,10.273,1.256,100.153,100.153,0,0,0,11.109,0c2.578-.133,5.168-.3,7.74-.681a87.04,87.04,0,0,0,10.572-2.022,31.378,31.378,0,0,0,8.154-3.425c.656-.4.856-1.34,1.746-1.45-.5,1.941-.911,3.9-1.506,5.823a10.163,10.163,0,0,1-5.457,6.329c-1.965.988-4.076,1.568-6.086,2.418a13.448,13.448,0,0,0-3.867.822c-3.493.43-6.971.985-10.491,1.178a9.82,9.82,0,0,0-3.034.2l-12.688-.236-2.037-.188q-5.619-.6-11.173-1.639c-2.792-3.521-4.564-7.589-6.26-11.7" transform="translate(-181.77 -223.923)" fill="#ce494b"/>
        <path id="Path_32128" data-name="Path 32128" d="M354.229,163.989a25.686,25.686,0,0,1,9.9,4.351c-.2.327-.536.261-.843.314a18.885,18.885,0,0,0-8.511,3.842,3.339,3.339,0,0,0-1.535.852,87.42,87.42,0,0,0-15.008,13.981,44.324,44.324,0,0,0-4.414,5.4.829.829,0,0,1-.975.5,45.286,45.286,0,0,1,5.489-15.737,30.919,30.919,0,0,1,15.9-13.506" transform="translate(-241.264 -118.871)" fill="#fc5f4c"/>
        <path id="Path_32129" data-name="Path 32129" d="M254.548,260.5c-2.148.4-4.284.889-6.446,1.188-5.926.82-11.829.877-17.643-.834a2.827,2.827,0,0,0-1.6-.288q-1.187-2.5-2.373-4.994a12.429,12.429,0,0,1,4.472-1.651,64.531,64.531,0,0,1,17.327-.984l2.082.313a9.114,9.114,0,0,1,2.252.348l1.37.575c.13.643-.22,1.365.319,1.941a25.382,25.382,0,0,1,.238,4.385" transform="translate(-164.174 -183.235)" fill="#fcac45"/>
        <path id="Path_32130" data-name="Path 32130" d="M327.848,191.221a25.384,25.384,0,0,0-.238-4.385,2.065,2.065,0,0,0,.512-1.38,46.427,46.427,0,0,1,1.378-9.02,26.6,26.6,0,0,1,9.154-14.4c1.393-1.17,3.087-1.924,4.348-3.259l1.354-.465.338-.084a.431.431,0,0,0,.466-.23c2.692-1.282,3.741-1.069,5.279,1.074a30.921,30.921,0,0,0-15.9,13.506,45.291,45.291,0,0,0-5.489,15.738.83.83,0,0,0,.975-.5,44.322,44.322,0,0,1,4.414-5.4,87.4,87.4,0,0,1,15.008-13.981,3.332,3.332,0,0,1,1.535-.852c-.4,1.543-1.827,2.246-2.788,3.321-1.066,1.193-2.334,2.2-3.421,3.38-.442.478-.651,1.026-1.349.342-.347-.34-.67-.032-.94.232-.4.389-.038.6.162.91a2.648,2.648,0,0,0,1.185.892,2.4,2.4,0,0,1-1.642,1.381c-.546-.36-.351-1.922-1.474-1.172a5.439,5.439,0,0,0-1.949,1.994c-.57,1.1-.8,1.687.66,1.918-3.36,3.272-6.712,6.553-10.094,9.8a2.262,2.262,0,0,1-1.482.642" transform="translate(-237.474 -113.951)" fill="#cf484a"/>
        <path id="Path_32131" data-name="Path 32131" d="M8.853,432.753c1.688.321,1.884,2.052,2.865,3.044.72.728.9,1.847,1.718,2.521a1.516,1.516,0,0,1-.913,1.62c-1.4.863-2.711,1.87-4.1,2.758a2.591,2.591,0,0,0-1.2,3.492,12.717,12.717,0,0,1,.539,2.267,4.235,4.235,0,0,1-.064,2.038c-.3,1.006-.78,1.3-1.643.511a41.425,41.425,0,0,1-4.71-5.531c-1.832-2.373-1.816-2.383.167-4.744,2.326-2.77,4.849-5.358,7.339-7.976" transform="translate(0 -313.689)" fill="#7f655f"/>
        <path id="Path_32132" data-name="Path 32132" d="M92.8,172.667q.007-1.243.013-2.487l2.154-.284a4.839,4.839,0,0,1,1.912.566c.075.681-.177,1.411.243,2.156a2.593,2.593,0,0,0,.58-1.882c3.556,1.253,7.308,1.915,10.73,3.568l0,0a2.814,2.814,0,0,0,1.136,1.112,12.012,12.012,0,0,1,2.736,1.9c-.131.77.463.489.814.562a.877.877,0,0,1,.832.547c-.9.374-1.692,1.162-2.81.617-.259-.126-.535.078-.668.349-.142.288-.051.488.233.674.723.476.27.739-.233.8-.533.065-1.353.183-1.584-.1-1.065-1.308-3.37.408-4.02-1.718-.017-.055-.256-.055-.391-.057a2.153,2.153,0,0,1-1.556-.379.531.531,0,0,0-.734.045c-1,.761-3.326.457-3.857-.574-.642-1.247-1.159-2.562-1.687-3.864-.162-.4-.065-1.066-.743-.859-.661.2-.635.714-.37,1.331.365.847,1.114,1.517,1.158,2.557a10.134,10.134,0,0,1-1.525-1.048,16.007,16.007,0,0,1-2.361-3.527m11.115,5.442a25.212,25.212,0,0,1,2.426.8,2.19,2.19,0,0,0,1.334-.019c.334-.065.751-.207.692-.693a.612.612,0,0,0-.786-.566,23.735,23.735,0,0,1-3.666.475m1.01-.955c.5.193.894.32,1.2-.086a.3.3,0,0,0-.132-.458c-.436-.144-.773.034-1.072.543" transform="translate(-67.27 -123.152)" fill="#fde064"/>
        <path id="Path_32133" data-name="Path 32133" d="M170.542,500.8a2.348,2.348,0,0,1-1.9.551c-2.831.059-5.624-.418-8.438-.6-.456-.029-.72-.355-1.093-.5-.074-4-.122-8-.244-11.991-.025-.819.175-1.307.977-1.5l5.684.006a20.516,20.516,0,0,1-.536,5.672c-.442,2.651.246,4.343,2.82,5.348a3.989,3.989,0,0,1,2.73,3" transform="translate(-115.155 -352.842)" fill="#7f655f"/>
        <path id="Path_32134" data-name="Path 32134" d="M191.384,5.672c.314-.02.629-.025.941-.061a2.169,2.169,0,0,1,2.747,1.757,9.81,9.81,0,0,1,.379,2.676c-.631.5-1.381.936-.6,1.91.209.261-.02.623-.151.9-.9,1.9-.542,4.043-1.135,6a2.077,2.077,0,0,0-.841,1.381l-.28.265a8.054,8.054,0,0,1-2.035-.125,10.159,10.159,0,0,1-5.9-3.437l.007,0c-.021-.18-.042-.36-.064-.54a3.123,3.123,0,0,1,.7-1.71c.435-.708,1.276-1.189,1.254-2.16l-.017.017a3.188,3.188,0,0,1,2.355.059c.524.291.8-.078.867-.5.083-.517.408-1.005.236-1.65a7.611,7.611,0,0,1-2.3.751c-1.164-1.387-.214-2.465.524-3.574.964-.886,2.384-1,3.3-1.957m1.727,8.195c.431,0,.936-.279.863-.643-.147-.732-.985-.663-1.537-.9-.321-.138-.474.159-.432.479a1.2,1.2,0,0,0,1.106,1.064" transform="translate(-133.704 -4.042)" fill="#f35d73"/>
        <path id="Path_32135" data-name="Path 32135" d="M212.57,147.148q.006-.694.011-1.387,0-.12,0-.24c.49-.48.195-1.1.3-1.652.414-.407.183-.925.238-1.394l.023-.536.508-.013a38.914,38.914,0,0,1,6.857,8.09c.808,1.293,1.677,2.622,1.449,4.291-.794-.531-1.769-1.343-2.574-.67a24.289,24.289,0,0,0-3.242,2.739c-1.484.137-2.966.285-4.452.4-.422.034-.906.276-1.242-.223a3.843,3.843,0,0,1-.231-1.024c.053-1.028-.437-.714-.943-.424-.542-.18-1.338.457-1.636-.508l1.365-.04a2.1,2.1,0,0,0,2.19-1.946c.319-1.647,1.048-3.2,1.137-4.9.351-.069.668-.154.245-.561" transform="translate(-150.507 -102.878)" fill="#fcac45"/>
        <path id="Path_32136" data-name="Path 32136" d="M382.539,193.038a2.651,2.651,0,0,1-1.185-.892c-.2-.306-.559-.521-.162-.91.27-.264.593-.571.94-.232.7.683.907.136,1.349-.342,1.088-1.176,2.355-2.188,3.422-3.38.961-1.075,2.384-1.778,2.788-3.321a18.885,18.885,0,0,1,8.511-3.842c.308-.053.644.013.843-.314a1.883,1.883,0,0,0,1.415.256,5.719,5.719,0,0,1,4.785,2.151,3.069,3.069,0,0,1,.609,3.307,2.73,2.73,0,0,0-.151,1.455c-1.489-2.862-4.683-3.444-8.231-2.638a27.428,27.428,0,0,0-8.465,4.022c-1.992,1.257-3.682,2.952-5.826,3.992-.263.128-.43.455-.642.689" transform="translate(-276.185 -130.334)" fill="#ce494b"/>
        <path id="Path_32137" data-name="Path 32137" d="M340.939,162.855c-1.262,1.335-2.956,2.09-4.348,3.259a26.606,26.606,0,0,0-9.154,14.4,46.419,46.419,0,0,0-1.378,9.02,2.063,2.063,0,0,1-.512,1.38c-.539-.576-.189-1.3-.319-1.941s.458-1.439-.417-1.918q-.024-.287-.048-.574c.378-.431.193-.952.209-1.433a44.092,44.092,0,0,1,.257-6.623c.1-.566.635-1.179.075-1.793l.135-.573a18.106,18.106,0,0,0,1.975-4.71v-.007a.644.644,0,0,0,.522-.844l.006,0a.6.6,0,0,0,.529-.829l.017-.011a4.312,4.312,0,0,0,2.208-2.484l-.008,0c1.453-.393,2.368-1.516,3.39-2.495l.453-.213c.52-.146,1.05-.262,1.557-.444,1.575-.566,3.1-1.337,4.849-1.168" transform="translate(-235.411 -118.032)" fill="#fc5f4c"/>
        <path id="Path_32138" data-name="Path 32138" d="M214.276,78.076l-.508.013c-.1-.1-.213-.153-.258.024a.439.439,0,0,0,.235.512c-.055.469.175.986-.239,1.393-.716-.8-1.612-1.573-.324-2.635a.871.871,0,0,0,.228-1.124c-.809-1.072-.349-2.276-.482-3.414.175-.423.831-.066,1-.724-1.465.155-2.865.292-4.263.455-.913.106-1.139-.3-1.16-1.174-.056-2.369.21-4.72.28-7.08.021-.693.37-.836.954-.827a15.163,15.163,0,0,0,3.754-.56c.64-.153.553-.382-.016-.551.277-.827.622-1.879.183-2.492a6.477,6.477,0,0,1-.811-3.011,2.024,2.024,0,0,0-2.665-1.625l-.035-.035a2.076,2.076,0,0,1,.841-1.381,7.933,7.933,0,0,1,3.138,5.952c.216,2.685.2,5.368.267,8.052.012.488-.149,1.008.2,1.454-.1,1.727-.274,3.454-.289,5.182-.01,1.2-.585,2.395-.034,3.595" transform="translate(-151.135 -39.028)" fill="#fbde6a"/>
        <path id="Path_32139" data-name="Path 32139" d="M221.168,46.086c-.348-.445-.187-.966-.2-1.454-.066-2.684-.051-5.367-.267-8.052a7.933,7.933,0,0,0-3.139-5.952c.593-1.959.233-4.1,1.135-6,.13-.276.359-.637.15-.9-.778-.973-.028-1.411.6-1.91a6.167,6.167,0,0,1,1.027,5.577,5.993,5.993,0,0,0,.978,5.306,37.347,37.347,0,0,1,2.449,3.956c2.327,4.313,1.539,6.958-2.738,9.431" transform="translate(-157.705 -15.814)" fill="#7f655f"/>
        <path id="Path_32140" data-name="Path 32140" d="M95,118.211l-2.154.284a27.632,27.632,0,0,1,2.123-9.273,65.127,65.127,0,0,1,4.851-9.947c.162-.279.291-.573.63-.682a2.905,2.905,0,0,0,1.971,2.3c-.01.494-.062.916-.758.724a9.593,9.593,0,0,0-1.177-.179c-.083-.415.227-.93-.278-1.224-.075-.044-.379.113-.422.232-.841,2.358-3.208,4.155-2.6,7.044-.179.016-.427-.036-.525.062-.277.274.058.391.221.463,1.162.514,2.34.992,3.5,1.51.344.154.832.12.921.675.165,1.026.366,2.046.551,3.068a1.572,1.572,0,0,1-.513-.163c-1.664-1.3-2.509-1.091-3.652.72a5.927,5.927,0,0,0-.6,1.983c-.56.2-.7-.919-1.153-.343a1.206,1.206,0,0,0-.153,1.629,2.791,2.791,0,0,1,.3.59c-.42.057-1.018-.251-1.084.53m.061-8.134c.065,1.419-1.117,2.373-.36,3.7.491-.553.011-1.3.612-1.594,1.284-.631.571-1.2-.251-2.1" transform="translate(-67.303 -71.468)" fill="#fbde6a"/>
        <path id="Path_32141" data-name="Path 32141" d="M125.973,182.681c.506-.289,1-.6.943.425a3.851,3.851,0,0,0,.231,1.024l-.011.039c-1.954.37-3.721-.352-5.52-.926-2.471-.787-3.292-.1-2.816,2.3a34.475,34.475,0,0,0-5.457,1.257c-.6.222-1.4.4-1.518,1.044-.2,1.124-.9.9-1.608.84A42.466,42.466,0,0,1,96.839,185.7l0,.01c-.071-.325-.342-.263-.566-.294l.024.016a2.9,2.9,0,0,0-1.391-1.114l.014.016-2.2-2.486q.011-.942.022-1.884a16,16,0,0,0,2.361,3.527,10.108,10.108,0,0,0,1.525,1.048c-.044-1.039-.793-1.71-1.158-2.557-.266-.617-.291-1.129.37-1.331.677-.207.581.461.743.859.529,1.3,1.045,2.617,1.688,3.864.53,1.031,2.86,1.335,3.857.574a.532.532,0,0,1,.734-.045,2.152,2.152,0,0,0,1.555.379c.136,0,.375,0,.392.057.65,2.126,2.955.411,4.02,1.718.231.283,1.051.166,1.584.1.5-.062.957-.325.233-.8-.283-.187-.375-.386-.233-.674.133-.27.409-.475.668-.348,1.118.544,1.913-.243,2.81-.617l.544.009a14.2,14.2,0,0,1,2.287-.291.814.814,0,0,0,.991-.981c-.079-.811.51-1.2.925-1.729.591-.758,1.145-.109,1.718-.127a10.179,10.179,0,0,1,4.384,1.032c.338.142,1.08-.285,1.234-.953" transform="translate(-67.211 -130.452)" fill="#fbde6a"/>
        <path id="Path_32142" data-name="Path 32142" d="M277.934,210.629l-2.081-.311c-3.055-4.636-6.265-9.164-9.534-13.651a2.948,2.948,0,0,0-1.8-1.139q.032-.774.064-1.549a3.779,3.779,0,0,1,2.7,1.431q5.556,7.448,10.65,15.221" transform="translate(-191.74 -140.609)" fill="#373b42"/>
        <path id="Path_32143" data-name="Path 32143" d="M245.752,186.427q-.032.775-.064,1.549a5.225,5.225,0,0,1-4.19-.064c.059-.98-.392-1.382-1.367-1.244a3.126,3.126,0,0,1-1.591-.113,24.282,24.282,0,0,1,3.242-2.739c.8-.673,1.781.139,2.574.67l1.394,1.941" transform="translate(-172.911 -133.058)" fill="#f35d73"/>
        <path id="Path_32144" data-name="Path 32144" d="M476.66,241.588l-.308-1.433c-.629-1.073.316-2.011.265-3.018-.191-3.8.8-7.539.347-11.367a42.767,42.767,0,0,0-.878-6.2c.058-.986-.721-1.817-.522-2.829a23.132,23.132,0,0,1,1.874,8.079,63.856,63.856,0,0,1-.645,13.828c-.08.674-.291,1.315.222,1.955.3.367.131.784-.354.982" transform="translate(-344.697 -157.112)" fill="#ce494b"/>
        <path id="Path_32145" data-name="Path 32145" d="M159.9,44.131l.063.54a.6.6,0,0,0-.568.489c-.19.817-.6.858-1.087.235s-.916-.639-1.395-.019c-.1.133-.3.363-.359.337-1.449-.645-2.008.464-2.695,1.334-.082.1-.239.27-.307.247-1.14-.389-1.96.572-2.975.686,1.543-1.885,3.728-2.706,5.9-3.524.721-.271,1.488-.42,2.234-.625.4.065.86-.078,1.183.3" transform="translate(-109.148 -31.771)" fill="#fbde6a"/>
        <path id="Path_32146" data-name="Path 32146" d="M128.872,58.9a11.336,11.336,0,0,1-3.084,3.8,3.065,3.065,0,0,0-1.308,2.815c-1.467.115-1.418,1.7-2.3,2.38-.624.484-.5,1.635-1.549,1.747a33.668,33.668,0,0,1,7.535-10.372,3.038,3.038,0,0,1,.705-.368" transform="translate(-87.442 -42.693)" fill="#fbde6a"/>
        <path id="Path_32147" data-name="Path 32147" d="M199.654,1.63c-.92.959-2.341,1.072-3.3,1.957-.088-.768-.788-1.392-.337-2.311A1.906,1.906,0,0,1,198.021.014c.9.1,1.659.5,1.634,1.617" transform="translate(-141.975 0)" fill="#e9f0f2"/>
        <path id="Path_32148" data-name="Path 32148" d="M324.576,213c.56.614.029,1.227-.075,1.793a44.1,44.1,0,0,0-.257,6.623c-.016.481.169,1-.209,1.433a23.643,23.643,0,0,1,.541-9.849" transform="translate(-234.683 -154.396)" fill="#f35d73"/>
        <path id="Path_32149" data-name="Path 32149" d="M192.669,24.052a7.611,7.611,0,0,0,2.3-.751c.172.645-.153,1.133-.236,1.65-.068.426-.343.795-.867.5a3.188,3.188,0,0,0-2.355-.059l1.162-1.344" transform="translate(-138.818 -16.89)" fill="#7f655f"/>
        <path id="Path_32150" data-name="Path 32150" d="M366.679,161.638c-1.751-.169-3.274.6-4.849,1.168-.507.182-1.037.3-1.557.444a12.69,12.69,0,0,1,7.76-2.077l-1.354.465" transform="translate(-261.151 -116.815)" fill="#f35d73"/>
        <path id="Path_32151" data-name="Path 32151" d="M181.338,34.725c-.324-.379-.78-.236-1.184-.3a22.08,22.08,0,0,1,3.14-3.57c.021.971-.82,1.452-1.254,2.16a3.121,3.121,0,0,0-.7,1.71" transform="translate(-130.588 -22.365)" fill="#7f655f"/>
        <path id="Path_32152" data-name="Path 32152" d="M329.194,193.8a18.107,18.107,0,0,1-1.975,4.71,11,11,0,0,1,1.975-4.71" transform="translate(-237.191 -140.479)" fill="#f35d73"/>
        <path id="Path_32153" data-name="Path 32153" d="M349.695,169.551c-1.022.979-1.937,2.1-3.39,2.495a8.422,8.422,0,0,1,3.39-2.495" transform="translate(-251.026 -122.902)" fill="#f35d73"/>
        <path id="Path_32154" data-name="Path 32154" d="M92,186.814l2.2,2.486c-1.2.228-1.442-1.291-2.479-1.363l.1-.558.136-.279.042-.287" transform="translate(-66.489 -135.416)" fill="#373b42"/>
        <path id="Path_32155" data-name="Path 32155" d="M340.514,178.629a4.312,4.312,0,0,1-2.209,2.484,5.8,5.8,0,0,1,2.209-2.484" transform="translate(-245.227 -129.483)" fill="#f35d73"/>
        <path id="Path_32156" data-name="Path 32156" d="M322.425,250.883c.875.48.273,1.28.417,1.918l-1.37-.575c.985.023.908-.7.954-1.343" transform="translate(-233.024 -181.857)" fill="#f35d73"/>
        <path id="Path_32157" data-name="Path 32157" d="M473.463,211.414a3.011,3.011,0,0,1-.869-2.068,3.546,3.546,0,0,1,.869,2.068" transform="translate(-342.569 -151.748)" fill="#ce494b"/>
        <path id="Path_32158" data-name="Path 32158" d="M336.848,187.7a.6.6,0,0,1-.529.829.923.923,0,0,1,.529-.829" transform="translate(-243.787 -136.056)" fill="#f35d73"/>
        <path id="Path_32159" data-name="Path 32159" d="M334.922,190.7a.644.644,0,0,1-.523.844.881.881,0,0,1,.523-.844" transform="translate(-242.396 -138.235)" fill="#f35d73"/>
        <path id="Path_32160" data-name="Path 32160" d="M390.171,160.061a.431.431,0,0,1-.466.23.455.455,0,0,1,.466-.23" transform="translate(-282.485 -116.017)" fill="#f35d73"/>
        <path id="Path_32161" data-name="Path 32161" d="M470.977,206.3c-.3-.084-.341-.314-.315-.578a.505.505,0,0,1,.315.578" transform="translate(-341.164 -149.12)" fill="#ce494b"/>
        <path id="Path_32162" data-name="Path 32162" d="M92.109,187.858l-.136.279c-.1-.163.006-.227.136-.279" transform="translate(-66.64 -136.172)" fill="#454a5a"/>
        <path id="Path_32163" data-name="Path 32163" d="M471.884,208.036l-.246-.344c.2.028.238.176.246.344" transform="translate(-341.876 -150.55)" fill="#ce494b"/>
        <path id="Path_32164" data-name="Path 32164" d="M478.589,307.3l.294-.4-.294.4" transform="translate(-346.914 -222.465)" fill="#ce494b"/>
        <path id="Path_32165" data-name="Path 32165" d="M107.674,200.4a42.466,42.466,0,0,0,13.377,2.984c.708.059,1.405.284,1.608-.84.116-.643.92-.822,1.518-1.044a34.483,34.483,0,0,1,5.457-1.257,5.808,5.808,0,0,1,1.682,1.27c-2.284.55-4.706.568-6.84,1.813a25.715,25.715,0,0,0,9.791-.139q.12,1.639.239,3.278c-1.8-.507-3.621-.175-5.587-.256a6.39,6.39,0,0,0,1.909,1.975c.745.675,1.909.953,2.133,2.146l0,0c-3.155.213-4.632-2.625-6.971-3.9a13.328,13.328,0,0,0-2.843-.752c-.27-.083-.474.1-.618.4-1.412,2.941-3.191,5.727-3.7,9.045-.05.33-.067,1-.63.882-.629-.136-.382-.74-.275-1.149a24.5,24.5,0,0,1,3.5-8.284c.207-.289.541-.6.361-.969-.2-.4-.655-.19-1-.218a26.084,26.084,0,0,1-12.33-3.981c-.381-.248-.844-.417-.787-1" transform="translate(-78.046 -145.149)" fill="#373b42"/>
        <path id="Path_32166" data-name="Path 32166" d="M100.684,195.792a2.9,2.9,0,0,1,1.391,1.113,1.139,1.139,0,0,1-1.391-1.113" transform="translate(-72.983 -141.924)" fill="#373b42"/>
        <path id="Path_32167" data-name="Path 32167" d="M105.65,199.78c.223.031.495-.031.566.294-.252.024-.469-.018-.566-.294" transform="translate(-76.582 -144.814)" fill="#373b42"/>
        <path id="Path_32168" data-name="Path 32168" d="M233.368,321.91a11.02,11.02,0,0,1-8.091-5.507,25.631,25.631,0,0,1-3.012-8.489,19.362,19.362,0,0,0,4.306,1.988c.406.113.772.318,1.09-.128q1.867,4.077,3.733,8.154c.614,1.35,1.665,2.483,1.975,3.983" transform="translate(-161.113 -223.197)" fill="#ce494b"/>
        <path id="Path_32169" data-name="Path 32169" d="M225.279,285.818c-.318.446-.684.241-1.09.128a19.362,19.362,0,0,1-4.306-1.988c-.747-.28-1.229-.674-.644-1.517.411-.591.086-1.249.176-1.867a.213.213,0,0,0-.015-.154,4.719,4.719,0,0,1-.158-1.766c.346-.733.056-1.512.161-2.261.07-.5-.29-1.172.353-1.462.678-.306.83.548,1.3.751,1.649,3.278,2.888,6.728,4.227,10.136" transform="translate(-158.731 -199.242)" fill="#fc5f4c"/>
        <path id="Path_32170" data-name="Path 32170" d="M190.494,222.1a19.478,19.478,0,0,1,.133,3.579c-.388,1.1-1.073.464-1.679.286-.224-1.193-1.388-1.471-2.132-2.146a6.387,6.387,0,0,1-1.909-1.975c1.967.081,3.782-.25,5.587.256" transform="translate(-134.033 -160.782)" fill="#454a5a"/>
        <path id="Path_32171" data-name="Path 32171" d="M221.42,269.908c-.467-.2-.618-1.057-1.3-.751-.643.29-.282.961-.353,1.462-.105.749.185,1.528-.161,2.261a34.154,34.154,0,0,1-.065-4.934,1.185,1.185,0,0,1,.543-1.046,8.231,8.231,0,0,1,1.333,3.009" transform="translate(-159.098 -193.467)" fill="#fcac45"/>
        <path id="Path_32172" data-name="Path 32172" d="M199.6,236.9h0a.013.013,0,0,1,0,0l0,0" transform="translate(-144.682 -171.717)" fill="#373b42"/>
        <path id="Path_32173" data-name="Path 32173" d="M250.177,297.643c-.694-.072-.793-.48-1-.912a40.86,40.86,0,0,0-3.631-6.121,6.858,6.858,0,0,0-1.269-1.95c-.232-1.014-1.561-1.54-.759-3.116a6.6,6.6,0,0,1,2.182-2.555l17.534-12.455a13.459,13.459,0,0,0-3.868.822q-8.444,5.988-16.887,11.978a1.236,1.236,0,0,1-2.04-.428,16.387,16.387,0,0,0-1.567-2.248c-.611-.7-.364-1,.3-1.444,3.255-2.2,6.475-4.448,9.708-6.68a9.811,9.811,0,0,0-3.034.2c-2.588,1.788-5.191,3.557-7.755,5.379-.571.406-.8.276-1.155-.24-1.233-1.81-2.515-3.586-3.778-5.375l-2.037-.187c1.476,2.092,2.924,4.2,4.443,6.265.51.691.424,1.019-.287,1.475-1.616,1.037-3.17,2.172-4.75,3.266-.671.464-1.284.652-1.868-.177q-4.307-6.114-8.644-12.206a.787.787,0,0,1-.067-.262c-2.792-3.522-4.564-7.589-6.26-11.7-1.5-3.527-3.057-7.031-4.306-10.66L207,243.314a16.545,16.545,0,0,0-5.178-5.641c-.847-.657-.048-1.329-.541-1.808-.388,1.1-1.071.466-1.676.286-.017,1.488,1.026,2.36,1.928,3.314,1.65,1.42,3.383,2.771,4.142,4.938a8.231,8.231,0,0,1,1.333,3.008c1.649,3.279,2.887,6.728,4.226,10.136q1.867,4.076,3.733,8.154c.614,1.35,1.665,2.483,1.975,3.983a37.277,37.277,0,0,1,3.907,5.112c2,2.736,3.928,5.523,5.874,8.3a2.574,2.574,0,0,1-.525,3.258q-3.324,2.437-6.647,4.877a17.85,17.85,0,0,0-5.1,6.039c-.231.427-.358.917-1.092.694-4.331-1.313-9.246,1.026-11.559,6.143a14.811,14.811,0,0,0,1.045,14.558,12.205,12.205,0,0,0,5.96,4.342,10.785,10.785,0,0,0,3.174.056l1.26-.057,1.225-.57c1.876-1.623,3.659-1.018,5.414.228a.567.567,0,0,1,.089.1,11.363,11.363,0,0,0,5.767.066,11.635,11.635,0,0,0,4.436-3.048c.355-.425.58-.423.941,0a10.822,10.822,0,0,0,4.838,3.145,11.3,11.3,0,0,0,5.188-.107c.073-.053.139-.139.219-.155,1.186-.245,2.049-1.737,3.181-1.386,1.1.34,2.115,1.153,3.244,1.615A9.644,9.644,0,0,0,259,317.812a15.935,15.935,0,0,0,1.693-9.835c-.911-5.913-4.714-9.729-10.519-10.334m-43.116,4.952a6,6,0,0,1,4.814-1.482c.491.069.726.214.5.8a51.006,51.006,0,0,0-1.839,6.25c-1.294-1.672-2.4-3.117-3.526-4.544-.306-.387-.377-.668.054-1.022m-3.009,5.6A9.546,9.546,0,0,1,205.84,304l3.951,5.136c-1.994,0-3.688.025-5.381-.012-.7-.015-.425-.6-.359-.929m-.215,2.811c-.048-.488.145-.655.608-.653,1.673.01,3.346,0,5.336,0l-4.43,5.67a10.835,10.835,0,0,1-1.514-5.021m5.409,8.34a5.518,5.518,0,0,1-2.815-1.751c-.371-.375-.307-.653.007-1.043a51.649,51.649,0,0,1,3.667-4.315l-.86,7.109m4.435-.379c-.363.445-.972.393-1.4.7h0l-1.4.04a.549.549,0,0,0-.366-.525l.074-.511q.323-3.168.646-6.335l.237-.053,2.853,6.107a.747.747,0,0,1-.643.581m31.452-28.18a2.061,2.061,0,0,1-.341.075,2.061,2.061,0,0,0,.341-.075m-13.805-4.674c.654-2.852,3.388-3.526,5.259-5.1a.713.713,0,0,1,.479-.142,13.844,13.844,0,0,1,2.065,3.1c-.158,1.1-.24,2.141-1.45,2.791a34.656,34.656,0,0,0-3.674,2.608c-.22.159-.453.4-.691.413-.53.032-2.105-3.15-1.986-3.667M215.66,319.634q.082-.073.172-.143h0c-.06.046-.117.094-.172.143m.329-21.881a15.479,15.479,0,0,1,4.4-5.2c2.215-1.622,4.423-3.256,6.644-4.869a2.887,2.887,0,0,1,3.251.605c1.669,2.349,1.667,2.348-.363,4.287a19.553,19.553,0,0,0-3.519,4.711c-.185.332-.258.837-.9.711-.073-.021-.2-.065-.337-.1a8.641,8.641,0,0,0-7.429,1.435c-.883.654-1.323.061-1.885-.318-.7-.47-.059-.907.139-1.269m7.94,5.33c-.5,1.591-.937,3.2-1.45,4.972a7.4,7.4,0,0,1-1.643-2.382,19.148,19.148,0,0,0-.774-1.9c-.793-1.622-.777-1.706.915-2.346a6.009,6.009,0,0,1,1.186-.322c2.158-.338,2.4-.037,1.765,1.976m-6.972,6.118c-.331-.192-1.057.34-1.037-.585a1.467,1.467,0,0,1,1.508-1.438c.611-.044.49.8.592,1.277.211.99-.589.623-1.063.747m.007,6.16a6.329,6.329,0,0,1-.9-2.707c2.038.51,2.071.611.9,2.707m1.058-3.327a4,4,0,0,1-.871-.332c-.448-.32-1.445-.235-1.275-.971.187-.808,1.112-.408,1.643-.348,1.33.15.385,1.03.5,1.652m3.283,6.569c-.039.3.1.915-.513.667-.531-.217-1.639-.491-1.3-1.063,1.11-1.872,1.446-3.994,2.276-5.941.025-.058.157-.069.33-.139-.266,2.192-.519,4.336-.794,6.477m3.882.6a.993.993,0,0,1-.828.275,4.154,4.154,0,0,1-.637.237c-.891.18-1.494.09-1.3-1.109.334-2.1.575-4.209.9-6.667,1.024,2.27,1.909,4.214,2.777,6.166.422.949-.452.86-.912,1.1m2.021-1.5-2.943-6.52c1.275.609,3.153.235,3.617,1.855.439,1.532,1.7,3.371-.674,4.665m-2.735-7.966a18.633,18.633,0,0,1,3.394-1.8c-.078,1.036-.149,1.985-.234,3.122l-3.16-1.321m3.174-3.076c-1.115.622-2.266,1.181-3.658,1.9l2.1-6.5a6.336,6.336,0,0,1,2.131,1.982,1.679,1.679,0,0,1-.574,2.619m3.457-5.623a1,1,0,0,0-.179.32c-.524.052-.6-.209-.759-.352-.439-.4-.844-.841-1.3-1.22-1.455-1.21-1.455-1.2-.414-2.891a15.979,15.979,0,0,1,3.809-4.287c.41-.319.646-.382.932.135.818,1.48,1.682,2.934,2.51,4.409.192.341.482.708-.214.931a9.857,9.857,0,0,0-4.384,2.955m1.928,3.237c.576-.278,1.055,1.022,1.556,1.622.76.91,1.456,1.874,2.176,2.818a1.608,1.608,0,0,1,.132.291c-.13.069-.17.108-.21.108-.958.007-2.044.295-2.838-.064-.828-.374-.487-1.621-.723-2.467-.214-.769-1.09-1.828-.094-2.309m-.313,11.023a10.361,10.361,0,0,0,.782-3.935c0-.874.348-1.1,1.152-1.033.718.063,1.446.013,2.447.013l-4.062,5.174-.319-.22m3.908,3.455c-.07.609-.377.636-.831.4-.121-.062-.237-.134-.356-.2-2.205-1.234-2.3-1.658-.784-3.58q1.211-1.537,2.417-3.078l.315.111c-.256,2.115-.518,4.23-.762,6.346m.593-11.4c-.992-1.285-1.968-2.583-2.984-3.848-.313-.39-.236-.635.113-.894.22-.163.43-.339.655-.493,1.687-1.148,1.825-1.091,2.039.881.152,1.4.282,2.811.422,4.217Zm3.371,11.836c-.9.346-1.77.924-2.773.3.192-.089.213-.182.007-.281l.041-.55a33.345,33.345,0,0,1,.975-6.348c.8,1.819,1.581,3.649,2.415,5.454.368.8,0,1.156-.665,1.423M238.61,301.1a2.39,2.39,0,0,1,1.452.257c.351.143.248.428.161.69q-.555,1.673-1.111,3.347l-.214,0c-.158-1.2-.321-2.4-.47-3.605-.031-.248-.172-.606.183-.691m1.137-3.314c-1.783.173-2.546-.812-3.184-2.26a26.165,26.165,0,0,0-2.063-3.561c-.352-.545-.319-.837.215-1.208,1.5-1.044,2.969-2.146,4.463-3.2a3.635,3.635,0,0,1,2.976.587c.376.516.74,1.041,1.11,1.562l.735,1.151c1.162,1.97,2.312,3.948,3.491,5.908.449.745.369,1-.473,1.568-1.931,1.291-3.6,1.345-5.45-.043a2.838,2.838,0,0,0-1.821-.5m5.55,10.725c.212.908-.556.549-.972.7-.347-.218-1.048.322-1.07-.6a1.37,1.37,0,0,1,1.372-1.414c.894-.1.557.828.67,1.316m-1,6.871a9.5,9.5,0,0,1-1.013-2.646c2.021.2,2.119.448,1.013,2.646m.69-3.508c-.675-.226-1.721-.26-1.833-1.111-.1-.756.764-.238,1.131-.445.491.146,1.362-.327,1.183.751-.049.294.231,1.044-.481.805m3.265-10.412c.692-.349.571.309.626.656a36.784,36.784,0,0,1,.506,5.418c-1.476-1.531-1.729-3.337-2.537-4.855-.417-.784.832-.929,1.405-1.219m.26,17.872c-1.978-.564-1.994-.609-1.169-2.262a13.851,13.851,0,0,0,1.24-3.6,1.754,1.754,0,0,1,.848-1.451c-.319,2.539-.618,4.919-.919,7.311m5.526-16.876c.17.153.344.3.508.46,2.369,2.307,2.31,2.774-.562,4.241-.767.392-1.556.743-2.334,1.113l-.144-.146c.566-1.827,1.153-3.647,1.69-5.482.2-.68.477-.514.843-.186m-3.489-1.347a2.273,2.273,0,0,1,1.451.226c.478.173.232.519.146.792-.349,1.112-.719,2.217-1.081,3.325l-.223-.013c-.135-1.169-.284-2.336-.4-3.507-.026-.273-.353-.675.1-.822M253,318.957a2.492,2.492,0,0,1-1.646.607c-1.6.4-1.805.184-1.568-1.324.309-1.964.525-3.942.831-6.307,1.044,2.3,1.94,4.277,2.831,6.252.2.451.007.692-.448.771m3.879-4.906a1.8,1.8,0,0,0-.083.259c-.482,1.235-.952,2.929-2.09,3.15-.765.149-1.062-1.837-1.58-2.86-.569-1.123-1.048-2.292-1.7-3.732,1.871.777,3.415,1.429,4.967,2.059.558.226.834.526.483,1.124m-.438-2.335c-1.5-.653-3.009-1.283-4.754-2.024,1.65-.858,3.111-1.582,4.535-2.374.7-.39.813-.076.953.526a15.317,15.317,0,0,1,.248,3.256c.014.837-.321.9-.981.615" transform="translate(-144.689 -170.971)" fill="#373b42"/>
        <path id="Path_32174" data-name="Path 32174" d="M391.781,220.9a42.772,42.772,0,0,1,.878,6.2c.454,3.828-.538,7.571-.347,11.367.051,1.006-.894,1.945-.265,3.018-3.852,3.692-8.772,5.065-13.762,6.17a81.05,81.05,0,0,1-10.65,1.6c-2.771.236-5.553.077-8.408.434,2.235-1.094,3.036-3.03,3.376-5.234a31.174,31.174,0,0,0,.511-4.191c.051-3.005,1.369-5.592,2.737-8.083a25.67,25.67,0,0,1,14.971-12.438,30.53,30.53,0,0,1,4.381-1.042,6.885,6.885,0,0,1,6.576,2.2" transform="translate(-260.394 -158.433)" fill="#cf484a"/>
        <path id="Path_32175" data-name="Path 32175" d="M367.651,232.046c-1.458-.23-1.23-.816-.66-1.918a5.441,5.441,0,0,1,1.949-1.994c1.123-.75.929.813,1.474,1.172a17.644,17.644,0,0,1-2.763,2.74" transform="translate(-265.702 -165.222)" fill="#ce494b"/>
        <path id="Path_32176" data-name="Path 32176" d="M172.248,68.955c.569.169.656.4.016.551a15.162,15.162,0,0,1-3.754.56c-.585-.009-.934.134-.954.827-.07,2.36-.336,4.711-.28,7.08.021.875.246,1.28,1.16,1.174,1.4-.163,2.8-.3,4.263-.455-.172.658-.828.3-1,.724-1.476-.007-2.922.431-4.407.3l-.24.245a58,58,0,0,1-1.4,7.988l.273.278a27.736,27.736,0,0,1,3.156.026c.977.112,1.933-.448,2.894-.011q0,.121,0,.24a19.522,19.522,0,0,1-4.874.3,2.325,2.325,0,0,0-2.079,3.4c.09.206.235.387.343.586.079.146.138.3.238.524a4.378,4.378,0,0,1-2.187-2.839l.048-.043c.329.084.643.718.883.364a2.665,2.665,0,0,0,.358-1.653c-.054-.529-.658-.3-1.031-.335-.577-.055-1.131-.033-1.041.8l-.029.029c-.788-.872-1.984-1.417-2.207-2.744l.035-.035a3.929,3.929,0,0,0,3.719,1.4c.4-.075.784.008.946-.552a61.941,61.941,0,0,0,1.36-6.964c.088-.519.031-1.032-.727-1.022a61.77,61.77,0,0,1-7.63-.543c-.387-.043-.871-.1-.962.5-.288,1.894-.787,3.845,1.4,5.061.127.071.162.309.239.469l-.032.032a2.539,2.539,0,0,1-1.494-.9c-1.039-1.176-1.939-.675-3-.028-.831.51-1.334,1.478-2.643,1.812a6.561,6.561,0,0,1,3.575-2.862,1.325,1.325,0,0,0,1.142-1.387c.412-4.79.94-9.57,1.429-14.36.154.024.3.022.311.053.441,1.873.55,2.025,2.592,1.954,1.609-.056,3.174.287,4.773.315,1.172.021,1.658-.314,1.595-1.553-.091-1.78-.028-3.567-.03-5.351l.553.015q0,1.3,0,2.6c0,4.633.109,4.711,4.684,3.431m-5.234,4.3a10.634,10.634,0,0,1,.01-1.447c.2-1.261-.384-1.49-1.541-1.509-2.22-.035-4.438-.273-6.655-.448-.461-.036-.851-.036-.867.552-.065,2.41-.637,4.778-.574,7.2.012.461-.039.921.637.989a55.084,55.084,0,0,0,7.746.571c.681-.027,1.044-.217.976-.945-.162-1.738.442-3.437.268-4.961" transform="translate(-109.903 -45.599)" fill="#eebd48"/>
        <path id="Path_32177" data-name="Path 32177" d="M100.678,114.867c.065-.781.664-.473,1.084-.531a16.915,16.915,0,0,0,5.5,1.914c.382.448.91.212,1.37.294a1.649,1.649,0,0,0,1.383.527,3.742,3.742,0,0,0,1.615.44,3.2,3.2,0,0,0-1.332-1.55c-.351-.556-.455-1.276-1.09-1.645a1.033,1.033,0,0,0-.567-1.1c-.122-1.183-.888-2.148-1.11-3.3-.186-1.022-.387-2.042-.552-3.068-.089-.554-.576-.521-.921-.675-1.16-.518-2.338-1-3.5-1.51-.163-.072-.5-.188-.221-.463.1-.1.346-.046.525-.062a2.1,2.1,0,0,0,1.624.566,2.608,2.608,0,0,0,2.256.932c.441-.048.178-.79.226-1.22a10.31,10.31,0,0,1,.284-3.028,4.6,4.6,0,0,0,.281-1.648q.01-.272.021-.543c.225-.425-.168-.224-.295-.292l-.818-.274-.283-.543,0,0a9.542,9.542,0,0,1,1.177.179c.7.192.749-.229.758-.724a3.2,3.2,0,0,0,.554-2.178c.686-.234.5-1.321,1.358-1.387a41.076,41.076,0,0,0-2.274,7.843c-.752,5.273.207,10.105,3.652,14.352.877,1.081,2.054,1.877,2.753,3.1-3.423-1.653-7.175-2.315-10.73-3.568-.2-.323-.52-.268-.823-.273a4.835,4.835,0,0,0-1.912-.566" transform="translate(-72.978 -68.123)" fill="#eebd48"/>
        <path id="Path_32178" data-name="Path 32178" d="M191.484,51.3l-.553-.015c-.682-.579-1.315-1.179-1.672.311-.21.877-.9.6-1.394.273a2.717,2.717,0,0,0-1.316-.595,1.947,1.947,0,0,1-1.887-2.409,11.747,11.747,0,0,0-.026-1.991,10.161,10.161,0,0,0,5.9,3.437,8.055,8.055,0,0,0,2.035.125l.042.041c-.059.7-.533.843-1.123.821" transform="translate(-133.828 -33.982)" fill="#fbde6a"/>
        <path id="Path_32179" data-name="Path 32179" d="M155.671,190.036l-.544-.009a43.324,43.324,0,0,1-1.646-1.108,12.011,12.011,0,0,0-2.736-1.9,2.814,2.814,0,0,1-1.136-1.112c1.656.326,2.779,1.585,4.138,2.42.711.437,1.8.565,1.924,1.709" transform="translate(-108.447 -134.758)" fill="#eebd48"/>
        <path id="Path_32180" data-name="Path 32180" d="M205.736,184.062l-1.365.04c.018-.831-.752-.754-1.238-1.025,1.476-.856,2.467-.469,2.6.985" transform="translate(-147.244 -132.381)" fill="#fbde6a"/>
        <path id="Path_32181" data-name="Path 32181" d="M130.3,91.8c-.857.067-.672,1.154-1.358,1.387-.059-.306-.1-.619-.181-.918-.149-.521-.187-1.037.424-1.232s1.058.048,1.116.763" transform="translate(-93.269 -65.939)" fill="#fbde6a"/>
        <path id="Path_32182" data-name="Path 32182" d="M178.38,184.932c-.214.464-.349.8-.519,1.117s-.253.729-.732.682a.527.527,0,0,1-.436-.462.867.867,0,0,1,.44-1.038,1.936,1.936,0,0,1,1.246-.3" transform="translate(-128.056 -134.043)" fill="#fbde6a"/>
        <path id="Path_32183" data-name="Path 32183" d="M179.19,145.557a2.4,2.4,0,0,1-1.649-1.653l.032-.032a2.416,2.416,0,0,1,1.651,1.65Z" transform="translate(-128.694 -104.288)" fill="#eebd48"/>
        <path id="Path_32184" data-name="Path 32184" d="M182.219,182.377c.321-.6.464-1.145,1.137-.952a.494.494,0,0,1,.226.43c-.2.672-.79.443-1.362.522" transform="translate(-132.085 -131.481)" fill="#fbde6a"/>
        <path id="Path_32185" data-name="Path 32185" d="M190.515,185.314a1.238,1.238,0,0,1,1.355-.193c-.381.536-.756.441-1.355.193" transform="translate(-138.098 -134.106)" fill="#fbde6a"/>
        <path id="Path_32186" data-name="Path 32186" d="M192.369,160.729a.838.838,0,0,1-.812-.838l.029-.028a.819.819,0,0,1,.831.823Z" transform="translate(-138.854 -115.88)" fill="#eebd48"/>
        <path id="Path_32187" data-name="Path 32187" d="M135.123,83.411c-.062.038-.178.164-.252.143-.272-.078-.227-.336-.233-.545-.009-.3.185-.082.25-.066.2.047.262.209.234.469" transform="translate(-97.595 -60.058)" fill="#fbde6a"/>
        <path id="Path_32188" data-name="Path 32188" d="M224.923,160.907c.423.407.107.492-.245.561a.539.539,0,0,1,.245-.561" transform="translate(-162.86 -116.637)" fill="#eebd48"/>
        <path id="Path_32189" data-name="Path 32189" d="M133.2,198.41a23.7,23.7,0,0,0,3.666-.475.613.613,0,0,1,.786.566c.059.486-.358.629-.693.693a2.189,2.189,0,0,1-1.334.02,25.249,25.249,0,0,0-2.426-.8" transform="translate(-96.553 -143.454)" fill="#fbde6a"/>
        <path id="Path_32190" data-name="Path 32190" d="M107.606,171.952c.3.005.626-.05.823.273a2.594,2.594,0,0,1-.58,1.882c-.42-.745-.168-1.475-.243-2.156" transform="translate(-77.994 -124.643)" fill="#fbde6a"/>
        <path id="Path_32191" data-name="Path 32191" d="M136.873,194.717c.3-.51.636-.688,1.072-.543a.3.3,0,0,1,.132.458c-.31.405-.7.279-1.2.086" transform="translate(-99.215 -140.715)" fill="#fbde6a"/>
        <path id="Path_32192" data-name="Path 32192" d="M163.633,196.852a.882.882,0,0,1,.814.562c-.351-.072-.945.209-.814-.562" transform="translate(-118.599 -142.692)" fill="#fbde6a"/>
        <path id="Path_32193" data-name="Path 32193" d="M212.989,31.553a1.2,1.2,0,0,1-1.106-1.064c-.042-.319.111-.617.432-.479.552.237,1.39.168,1.537.9.073.364-.433.639-.863.643" transform="translate(-153.582 -21.728)" fill="#f4f5f5"/>
        <path id="Path_32194" data-name="Path 32194" d="M213.49,59.126l.28-.265.035.035-.274.272Z" transform="translate(-154.752 -42.667)" fill="#fbde6a"/>
        <path id="Path_32195" data-name="Path 32195" d="M208.941,131.739c-.961-.437-1.917.123-2.894.011a27.866,27.866,0,0,0-3.156-.026l-.273-.278a57.87,57.87,0,0,0,1.4-7.988l.241-.245c1.485.132,2.931-.306,4.407-.3.133,1.137-.327,2.341.482,3.414a.871.871,0,0,1-.228,1.124c-1.288,1.063-.392,1.833.324,2.635-.106.55.189,1.173-.3,1.652" transform="translate(-146.872 -89.096)" fill="#fde064"/>
        <path id="Path_32196" data-name="Path 32196" d="M221.474,195.8c-3.406.472-6.864.372-10.261.948-.489-.794-.44-1.307.656-1.351.456-.018.9-.141.943-.735l.011-.039c.336.5.82.257,1.242.224,1.485-.118,2.968-.266,4.452-.4a3.123,3.123,0,0,0,1.591.112c.975-.137,1.426.264,1.367,1.245" transform="translate(-152.887 -140.948)" fill="#373b42"/>
        <path id="Path_32197" data-name="Path 32197" d="M226.9,142.263a.439.439,0,0,1-.235-.512c.046-.177.161-.127.258-.024l-.023.536" transform="translate(-164.29 -102.666)" fill="#fde064"/>
        <path id="Path_32198" data-name="Path 32198" d="M210.68,58.872l.273-.272a2.024,2.024,0,0,1,2.665,1.625,6.477,6.477,0,0,0,.811,3.011c.438.613.094,1.665-.183,2.492-4.575,1.28-4.681,1.2-4.684-3.431q0-1.3,0-2.6c.591.023,1.064-.116,1.123-.821m1.882.913a.568.568,0,0,0-.445-.544.424.424,0,0,0-.523.446c0,.309.224.463.512.5.265.035.407-.11.456-.4" transform="translate(-151.901 -42.371)" fill="#fde064"/>
        <path id="Path_32199" data-name="Path 32199" d="M108.9,149.288c.223,1.148.988,2.114,1.11,3.3.052.437-.195,1.028.567,1.1.634.368.738,1.089,1.09,1.645a1.858,1.858,0,0,0-.283,1.11,1.649,1.649,0,0,1-1.383-.527c-.257-1.032-.861-.44-1.371-.294a16.917,16.917,0,0,1-5.5-1.914,2.783,2.783,0,0,0-.3-.589,1.206,1.206,0,0,1,.152-1.629c.452-.576.594.54,1.153.343a5.921,5.921,0,0,1,.6-1.983c1.143-1.811,1.987-2.026,3.651-.72a1.588,1.588,0,0,0,.513.163" transform="translate(-74.347 -107.49)" fill="#fde064"/>
        <path id="Path_32200" data-name="Path 32200" d="M111.945,106.219l.818.274.295.292-.021.543c-.732.44-1.376.9-.281,1.648a10.3,10.3,0,0,0-.284,3.028,11.2,11.2,0,0,1-2.482.288,2.107,2.107,0,0,1-1.624-.566c-.609-2.889,1.758-4.687,2.6-7.044.043-.119.346-.276.422-.232.506.294.2.809.279,1.224l0,0c-.564.062-.7.489-.771.944-.015.092.111.293.184.3.491.037.659-.365.871-.7" transform="translate(-78.479 -75.706)" fill="#fde064"/>
        <path id="Path_32201" data-name="Path 32201" d="M99.281,140.333c.823.9,1.536,1.47.251,2.1-.6.3-.12,1.041-.612,1.594-.757-1.323.426-2.277.36-3.7" transform="translate(-71.52 -101.723)" fill="#fde064"/>
        <path id="Path_32202" data-name="Path 32202" d="M195.5,191.982c-.042.593-.487.716-.943.735-1.1.045-1.145.558-.656,1.351-.018.934-.767,1.042-1.422,1.256a8.984,8.984,0,0,1-3.634-.7,5.808,5.808,0,0,0-1.682-1.27c-.476-2.4.346-3.089,2.816-2.3,1.8.573,3.566,1.3,5.52.926" transform="translate(-135.577 -138.266)" fill="#f35d73"/>
        <path id="Path_32203" data-name="Path 32203" d="M220.309,295.054a.211.211,0,0,1,.015.154s-.091-.07-.091-.07Z" transform="translate(-159.641 -213.876)" fill="#fcac45"/>
        <path id="Path_32204" data-name="Path 32204" d="M175.6,204.857a8.981,8.981,0,0,0,3.634.7c-.04.458-.411.684-.683.979a25.733,25.733,0,0,1-9.791.138c2.134-1.246,4.556-1.263,6.839-1.813" transform="translate(-122.329 -148.495)" fill="#fbde6a"/>
        <path id="Path_32205" data-name="Path 32205" d="M182.2,91.518c.174,1.524-.43,3.223-.268,4.961.068.729-.295.919-.976.945a55.086,55.086,0,0,1-7.746-.571c-.676-.069-.625-.529-.637-.989-.063-2.419.509-4.788.574-7.2.016-.588.406-.588.867-.552,2.217.175,4.435.412,6.655.448,1.156.019,1.74.247,1.541,1.509a10.637,10.637,0,0,0-.01,1.447" transform="translate(-125.089 -63.862)" fill="#fde064"/>
        <path id="Path_32206" data-name="Path 32206" d="M174.293,129.579a2.416,2.416,0,0,0-1.651-1.65c-.077-.161-.112-.4-.239-.469-2.19-1.217-1.691-3.168-1.4-5.062.091-.6.575-.538.962-.5a61.714,61.714,0,0,0,7.63.543c.758-.01.815.5.727,1.022a61.994,61.994,0,0,1-1.36,6.964c-.162.56-.545.476-.946.552a3.929,3.929,0,0,1-3.719-1.4" transform="translate(-123.762 -88.346)" fill="#fde064"/>
        <path id="Path_32207" data-name="Path 32207" d="M192.467,158.526a.819.819,0,0,0-.831-.823c-.089-.833.465-.855,1.042-.8.373.035.977-.195,1.031.335a2.665,2.665,0,0,1-.358,1.653c-.24.354-.554-.28-.883-.364" transform="translate(-138.904 -113.719)" fill="#fde064"/>
        <path id="Path_32208" data-name="Path 32208" d="M202.619,153.926l.273.278-.273-.278" transform="translate(-146.872 -111.576)" fill="#fbde6a"/>
        <path id="Path_32209" data-name="Path 32209" d="M207.938,124l-.241.245.241-.245" transform="translate(-150.553 -89.885)" fill="#fbde6a"/>
        <path id="Path_32210" data-name="Path 32210" d="M114.529,132.216a11.184,11.184,0,0,0,2.482-.288c-.048.43.214,1.172-.226,1.22a2.607,2.607,0,0,1-2.256-.932" transform="translate(-83.019 -95.631)" fill="#fbde6a"/>
        <path id="Path_32211" data-name="Path 32211" d="M134.6,174.98a1.86,1.86,0,0,1,.283-1.11,3.2,3.2,0,0,1,1.332,1.55,3.744,3.744,0,0,1-1.615-.44" transform="translate(-97.56 -126.033)" fill="#fbde6a"/>
        <path id="Path_32212" data-name="Path 32212" d="M118.856,109.469c-.212.333-.38.735-.871.7-.072-.005-.2-.206-.184-.3.072-.454.207-.882.771-.944l.283.543" transform="translate(-85.389 -78.957)" fill="#fbde6a"/>
        <path id="Path_32213" data-name="Path 32213" d="M123.042,116.582c-1.1-.752-.45-1.207.281-1.648a4.608,4.608,0,0,1-.281,1.648" transform="translate(-88.765 -83.312)" fill="#fbde6a"/>
        <path id="Path_32214" data-name="Path 32214" d="M124.609,174.129c.509-.146,1.114-.738,1.37.294-.46-.082-.989.154-1.37-.294" transform="translate(-90.325 -126.002)" fill="#fbde6a"/>
        <path id="Path_32215" data-name="Path 32215" d="M130.194,165c-.761-.07-.514-.661-.567-1.1a1.033,1.033,0,0,1,.567,1.1" transform="translate(-93.963 -118.806)" fill="#fbde6a"/>
        <path id="Path_32216" data-name="Path 32216" d="M124.9,112.19l-.295-.291c.128.067.52-.133.295.291" transform="translate(-90.326 -81.112)" fill="#fbde6a"/>
        <path id="Path_32217" data-name="Path 32217" d="M217.928,61.84c-.049.293-.191.438-.456.4-.288-.039-.516-.193-.512-.5a.424.424,0,0,1,.523-.446.568.568,0,0,1,.445.544" transform="translate(-157.267 -44.426)" fill="#fbde6a"/>
      </g>
    </g>
  </g>
</svg>
