<svg xmlns="http://www.w3.org/2000/svg" xmlns:xlink="http://www.w3.org/1999/xlink" width="169.668" height="183.676" viewBox="0 0 169.668 183.676">
  <defs>
    <clipPath id="clip-path">
      <rect id="Rectangle_17656" data-name="Rectangle 17656" width="68.008" height="150.052" fill="none"/>
    </clipPath>
  </defs>
  <g id="Group_31012" data-name="Group 31012" transform="translate(-719.39 -3218)">
    <path id="Path_32028" data-name="Path 32028" d="M314.515,175.567c20.722,4.441,32.675,23.99,48.439,38.155,14.962,13.445,37.77,22.107,40.761,42,2.978,19.811-16.482,34.579-26.656,51.838-10.031,17.018-13.17,41.851-32.031,47.723-18.826,5.86-34.975-13.94-53.326-21.153-17.58-6.91-40.263-4.549-51.214-19.94-11.241-15.8-3.727-36.954-3.058-56.332.829-23.991-9.007-51.931,7.4-69.45,16.648-17.773,45.869-17.943,69.681-12.84" transform="translate(485.037 3045.325)" fill="#b7e8e6"/>
    <g id="Group_30944" data-name="Group 30944" transform="translate(765.996 3239.812)">
      <g id="Group_30943" data-name="Group 30943" clip-path="url(#clip-path)">
        <path id="Path_32218" data-name="Path 32218" d="M47.062,37.952a23.008,23.008,0,0,0-3.145.255c-3.719.8-6.01-.664-6.376-4.419-.443-4.544.324-9.038.991-13.513a10.289,10.289,0,0,0-.131-4.329,13.509,13.509,0,0,1,1.111-10.12C40.79,3.458,42.188,1.41,45.427.984A58,58,0,0,1,54.761.01C60.449.2,65.114,3.768,66.109,9.269c1.365,7.556,3.865,14.882,4.477,22.578-.091,1.927-1.138,2.992-2.78,4.026-2.05,1.29-4.186.739-6.265,1.09l-3.523.123c-1.773-.022-1.894-.391-.683-1.8,5.587-6.519,3.671-19.278-3.25-24.34a7.069,7.069,0,0,0-8.266.149c-3.274,2.462-5.309,6.776-5.992,10.821C38.815,27.9,41.21,33.081,46.4,36.648a1.359,1.359,0,0,1,.657,1.3" transform="translate(-13.725 0)" fill="#7e5127"/>
        <path id="Path_32219" data-name="Path 32219" d="M75.524,55.418c2.079-.351,4.215.2,6.266-1.09,1.642-1.034,2.689-2.1,2.779-4.026,2.347.473,3.985,2.084,5.709,3.556.153.638.655.769,1.2.833l.012.006.744.579-.073-.069.811.609-.077-.1c.428,2.134-1.186,1.414-2.15,1.5-4.943.45-5.06.441-4.92,5.344.353,12.358.82,24.713,1.244,37.069.1,2.924-.163,5.842.51,8.774.32,1.394.7,3.137-.538,4.5a4.4,4.4,0,0,1-.559-.1l-.73-.408a.306.306,0,0,1-.3-.092c-.342-.611-.8-.96-1.529-.657a10.951,10.951,0,0,0-5.037-3.858c-1.274-1.43-.379-4.338-3.207-4.708,2.885-2.94,2.191-6.355,1.3-9.8-.239-2.774.676-5.643-.683-8.326.2-3.1.588-6.193.561-9.286-.025-2.985.77-6.049-.539-8.963.249-2.044-.442-3.964-.782-5.93a18.584,18.584,0,0,0-.022-5.359" transform="translate(-27.708 -18.455)" fill="#c83d2e"/>
        <path id="Path_32220" data-name="Path 32220" d="M48.331,43.555a1.359,1.359,0,0,0-.657-1.3c-5.2-3.567-7.591-8.749-6.579-14.734.684-4.044,2.718-8.359,5.992-10.821a7.069,7.069,0,0,1,8.266-.149c6.921,5.062,8.837,17.821,3.25,24.34-1.211,1.413-1.09,1.782.683,1.8q-.035.462-.07.925c-1.948.019-3.146,1.419-4.571,2.436s-1.93,3.009-3.811,3.513c-.61-.547-.431-1.3-.514-1.983l.247-.465-.827,0-.641-.223c.555-1.143,2.994-.034,2.619-1.758-.28-1.288-2.092-1.35-3.388-1.582m5.929-7.311H48.106c1.668,3.666,3.325,3.8,6.154,0" transform="translate(-14.993 -5.602)" fill="#f4b78d"/>
        <path id="Path_32221" data-name="Path 32221" d="M38.105,166.213q-.343,14.676-.685,29.352c-.953-.962-.551-2.18-.557-3.285-.037-7.325-.022-14.651-.023-21.976,0-4.458,0-4.35-4.186-4.493-1.01-.034-1.384,1.487-2.44.66a21.47,21.47,0,0,1-.037-5.656c2-.311,4.117.6,6.02-.618l3.38.006,4.01.047,9.726-.046c.679.878,1.649.5,2.513.584l18.328,0a.957.957,0,0,1,.4,1.259c-1.071.271-1.033,1.148-.96,1.938.148,1.609-.919,1.778-2.081,1.89-1.475-.008-2.964.1-4.423-.051-2.32-.246-3.187.555-3.086,2.982.179,4.314.154,8.645.008,12.961-.1,2.907.641,5.871-.47,8.724-.116-6.53-.214-13.06-.363-19.589-.028-1.247-.328-2.488-.376-3.736s-.829-1.163-1.715-1.231c-1.352-.1-1.546.676-1.637,1.731-.315,3.673-.693,7.342-1.009,11.016q-.759,8.817-1.467,17.638c-.115,1.416-.117,2.6-2.241,2.551-2.277-.052-1.892-1.421-1.906-2.741-.1-9.168-.176-18.337-.321-27.5-.015-.99.686-2.488-1.215-2.7-4.4-.053-8.8-.623-13.182.286" transform="translate(-11.007 -58.772)" fill="#662515"/>
        <path id="Path_32222" data-name="Path 32222" d="M93,116.038c1.238-1.365.859-3.108.538-4.5-.673-2.932-.409-5.85-.509-8.774-.425-12.356-.891-24.711-1.245-37.069-.14-4.9-.023-4.893,4.92-5.344.964-.088,2.578.632,2.151-1.5,2.373.755,2.975,2.236,2.783,4.777-1.259,16.707-2.3,33.43-3.475,50.142-.073,1.028.774,2.748-1.366,2.9-1.266-.208-2.677.451-3.8-.634" transform="translate(-33.661 -21.59)" fill="#b13128"/>
        <path id="Path_32223" data-name="Path 32223" d="M82.974,193.731c1.111-2.853.37-5.817.469-8.724.147-4.317.171-8.647-.008-12.961-.1-2.427.767-3.228,3.086-2.982,1.459.155,2.948.042,4.424.051l.033.252a.2.2,0,0,1-.12.321l-.531.772a2.978,2.978,0,0,0,.029,3.671q-.067.962-.136,1.925c-1.954,1.507-1.128,3.281-.482,5.038-.8,9.729-1.646,19.455-2.372,29.19-.127,1.7-1,1.716-2.27,1.749-1.419.036-2.106-.336-2.093-1.923.05-5.459-.011-10.919-.031-16.378" transform="translate(-30.441 -62.01)" fill="#70301f"/>
        <path id="Path_32224" data-name="Path 32224" d="M30.338,169.723c1.056.827,1.43-.695,2.441-.66,4.182.143,4.186.035,4.186,4.493,0,7.325-.014,14.651.023,21.976.005,1.105-.4,2.324.557,3.285.011,3.678.047,7.355.018,11.032-.007.851.393,2.149-1.1,2.136-1.208-.011-2.588.632-3.363-1.349a11.665,11.665,0,0,1-.516-4.577c0-1.215.517-2.472-.579-3.492l-.025-1.755c1.464-2.809-.349-5.552-.167-8.335q-.739-11.378-1.478-22.755" transform="translate(-11.13 -62.025)" fill="#70301f"/>
        <path id="Path_32225" data-name="Path 32225" d="M13.585,186.951c-2.17-11.873-4.592-23.7-5.913-35.72-.337-3.064.905-5.022,3.288-6.579a43.722,43.722,0,0,1,9.365-4.46q.863.488,1.728.975s-.07.276-.07.276a20.289,20.289,0,0,0-9.518,5.718,2.94,2.94,0,0,0-.8,2.576c.956,9.642,2.567,19.182,4.17,28.731.5,2.969,1.64,5.968.813,9.089a4.993,4.993,0,0,0-3.06-.6" transform="translate(-2.795 -51.433)" fill="#4d9ba6"/>
        <path id="Path_32226" data-name="Path 32226" d="M25.414,109.14c-2.83-1.645-2.645-2.8,1.078-6-2.338-1.551-3.228-4.176-4.828-6.282a1.9,1.9,0,0,1,.039-2.3c.391-.075,1-.014,1.14-.244,1.682-2.663,4.228-3.058,7.061-2.891a3.1,3.1,0,0,0,1.8-.431c3.031-2.055,4.019-.178,4.709,2.356-.313,1.453-.441,2.86,1,3.865l0,1.057-.585.745a19.9,19.9,0,0,0-4.437,5.043c-2.408,1.578-6.3,1.119-6.974,5.079m6.243-9.832c-.3-1.158-1.283-.805-2.035-.836-.694-.028-1.672-.09-1.461,1.026.181.959,1.1,1.228,1.953,1.1.686-.1,1.45-.337,1.544-1.292" transform="translate(-7.81 -33.062)" fill="#f4b78d"/>
        <path id="Path_32227" data-name="Path 32227" d="M36.509,89.677c-.69-2.536-1.678-4.413-4.71-2.358a3.1,3.1,0,0,1-1.8.431c-2.833-.167-5.379.228-7.061,2.891-.145.23-.75.169-1.141.244-1.539-7.71,3.942-11.992,11.423-10.48,1.223.248,2.413.66,3.618,1l1.211.134c1.79,2.667,0,5.368.073,8.051l-1.61.091" transform="translate(-7.9 -29.388)" fill="#70301f"/>
        <path id="Path_32228" data-name="Path 32228" d="M27.475,117.213c.674-3.96,4.566-3.5,6.974-5.079,2.233-.211,2.629,2.253,4.258,2.922q.05,1.316.1,2.632c-.411.082-1.04.023-1.2.269-2.217,3.42-4.374,2.322-6.571,0a.771.771,0,0,0-1.319.044,1.2,1.2,0,0,0-.089,1.461,5.893,5.893,0,0,0,3.378,2.163c.748.261,1.856.367,1.842,1.414-.016,1.161-1.247,1.221-2.013,1.713-.791.507-2.29-.578-2.508,1.133-1.367.553-2.355-.327-3.422-.905l.57-7.767" transform="translate(-9.871 -41.134)" fill="#e89318"/>
        <path id="Path_32229" data-name="Path 32229" d="M10.79,211.112a4.989,4.989,0,0,1,3.06.6,1.245,1.245,0,0,0,1.256.684c4.122,1.525,4.967.979,5.03-3.118.016-1.087-.422-2.3.55-3.236-.183,2.783,1.631,5.527.167,8.335-1.559-1.354-2.955-.879-4.487.19-2.809,1.961-5.523,4.006-9.455,3.014-1.612-.407-3.294.678-3.29,2.9a3.949,3.949,0,0,1-2.857-1.67c-1.138-1.261-1.038-2.349.534-2.9,3.392-1.18,6.324-3.22,9.492-4.813" transform="translate(0 -75.593)" fill="#b1b4b4"/>
        <path id="Path_32230" data-name="Path 32230" d="M5.718,224.84c0-2.227,1.678-3.312,3.29-2.905,3.932.993,6.646-1.052,9.455-3.014,1.532-1.07,2.928-1.544,4.486-.19l.025,1.755c-1.017.537-.578,1.5-.667,2.3-2.214.77-4.948.367-6.41,2.838a3.383,3.383,0,0,0-2.263.784c-3.1,1.985-5.612.648-7.917-1.571" transform="translate(-2.098 -79.942)" fill="#d7d8d8"/>
        <path id="Path_32231" data-name="Path 32231" d="M47.372,84.125c-.072-2.683,1.716-5.383-.072-8.052q.9-4.592,1.794-9.182l.064.131a.678.678,0,0,0,.678-.729l-.123.007c.639.127.785-.3.891-.783l.656-.3.641.223.579.462c.084.684-.1,1.436.515,1.982-1.955.742-.81,2.553-1.106,3.773a82.02,82.02,0,0,0-2.506,13.934L47.41,93.047c-1.065-.969-.355-2.275-.644-3.391-.008-.173-.012-.346-.013-.519l0-1.059c.189-1.321.955-2.551.615-3.954" transform="translate(-17.153 -23.927)" fill="#e43c3f"/>
        <path id="Path_32232" data-name="Path 32232" d="M89.117,157.075l-18.328,0,1.216-1.473a9.172,9.172,0,0,0,4.963-5.528l5.17,1.922c.278.67.564,1.33,1.463,1.3,1.654,1.06,2.982,2.809,5.284,2.495q.116.643.232,1.285" transform="translate(-25.971 -55.058)" fill="#843929"/>
        <path id="Path_32233" data-name="Path 32233" d="M96.309,155.114c-2.3.314-3.63-1.435-5.284-2.495q.061-2.195.122-4.39a.3.3,0,0,0,.3.091l.729.409a4.208,4.208,0,0,0,.559.1c1.121,1.085,2.532.425,3.8.634q-.111,2.825-.22,5.651" transform="translate(-33.395 -54.382)" fill="#662515"/>
        <path id="Path_32234" data-name="Path 32234" d="M26.787,132.431c1.067.579,2.055,1.459,3.42.906,1.494.346,2.3,1.012,1.061,2.5-.717.86-1.5,1.661-2.259,2.489l-1.727-.978a8.247,8.247,0,0,1-.5-4.913" transform="translate(-9.753 -48.586)" fill="#c83d2e"/>
        <path id="Path_32235" data-name="Path 32235" d="M48.707,67.861q-.9,4.59-1.794,9.182L45.7,76.909c.406-2.03.782-4.067,1.231-6.088.258-1.164.318-2.495,1.775-2.96" transform="translate(-16.767 -24.897)" fill="#b13128"/>
        <path id="Path_32236" data-name="Path 32236" d="M21.8,228.461c1.462-2.472,4.2-2.068,6.409-2.838.557,1.81-1.079,1.72-1.944,1.995a34.591,34.591,0,0,1-4.465.843" transform="translate(-7.997 -82.776)" fill="#b1b4b4"/>
        <path id="Path_32237" data-name="Path 32237" d="M42.8,169.4c4.377-.909,8.786-.339,13.182-.286L42.8,169.4" transform="translate(-15.703 -61.963)" fill="#e66058"/>
        <path id="Path_32238" data-name="Path 32238" d="M95.6,167.2l-.033-.252c1.161-.112,2.227-.28,2.08-1.89-.072-.79-.111-1.667.96-1.939.619,2.555.363,4.466-3.007,4.08" transform="translate(-35.061 -59.845)" fill="#843929"/>
        <path id="Path_32239" data-name="Path 32239" d="M93.232,185.168c-.645-1.756-1.471-3.53.482-5.037l-.482,5.037" transform="translate(-33.934 -66.086)" fill="#662515"/>
        <path id="Path_32240" data-name="Path 32240" d="M94.592,170.844l.53-.772q-.218,1.9-.438,3.791-.046-1.509-.092-3.019" transform="translate(-34.704 -62.395)" fill="#843929"/>
        <path id="Path_32241" data-name="Path 32241" d="M94.233,171.291q.046,1.509.092,3.019c-.021.218-.042.435-.063.653a2.977,2.977,0,0,1-.028-3.671" transform="translate(-34.345 -62.843)" fill="#662515"/>
        <path id="Path_32242" data-name="Path 32242" d="M100.032,56.752c-.55-.063-1.052-.2-1.205-.832l1.205.832" transform="translate(-36.257 -20.516)" fill="#b13128"/>
        <path id="Path_32243" data-name="Path 32243" d="M52.316,65.689c-.106.478-.252.91-.891.783.084-.505.323-.832.891-.783" transform="translate(-18.867 -24.098)" fill="#b13128"/>
        <path id="Path_32244" data-name="Path 32244" d="M101.494,57.823l-.744-.578.744.578" transform="translate(-36.963 -21.002)" fill="#b13128"/>
        <path id="Path_32245" data-name="Path 32245" d="M51.219,66.917a.678.678,0,0,1-.678.729c-.082-.53.178-.741.678-.729" transform="translate(-18.537 -24.55)" fill="#b13128"/>
        <path id="Path_32246" data-name="Path 32246" d="M102.62,58.658l-.811-.609.811.609" transform="translate(-37.351 -21.297)" fill="#b13128"/>
        <path id="Path_32247" data-name="Path 32247" d="M69.848,59.432q.034-.462.07-.925l3.524-.123a18.607,18.607,0,0,1,.022,5.359l-.181.158-.853-.872-1.884-1.646-.7-1.952" transform="translate(-25.626 -21.42)" fill="#d7d8d8"/>
        <path id="Path_32248" data-name="Path 32248" d="M70.836,102.789c.89,3.442,1.584,6.856-1.3,9.8q-.651.125-1.3.248c-2.151-.676-3.636.432-5,1.868l-.928.2a2.89,2.89,0,0,1-2.758-1.316l-.369-.651.283-.682c1.005-3.274-.317-6.373-.709-9.542,1.526-2.817,5.091-4.075,5.765-7.544,2.484-6.139,3.88-12.6,5.654-18.953,1.309,2.915.513,5.979.539,8.964.027,3.093-.357,6.191-.561,9.286-1.1,2.885-1.239,5.689.683,8.325" transform="translate(-21.556 -27.961)" fill="#e43c3f"/>
        <path id="Path_32249" data-name="Path 32249" d="M71.317,72.778c-1.775,6.351-3.17,12.814-5.654,18.953-1.157-1.535-1.278-3.979-3.794-4.32.635-4.955,1.216-9.917,1.922-14.861.512-3.587,2.291-5.23,5.624-5.476l.941-.066.18-.159c.339,1.966,1.029,3.885.781,5.929" transform="translate(-22.698 -24.525)" fill="#b13128"/>
        <path id="Path_32250" data-name="Path 32250" d="M65.558,133.907q.651-.122,1.3-.247c2.828.371,1.934,3.279,3.207,4.709a8.84,8.84,0,0,0-.189,5.683,9.177,9.177,0,0,1-4.963,5.528c-1.233.339-2.616.046-3.729.888l-9.725.045c.159-1.61,1.572-1.487,2.6-1.827,1.769-.586,2.1-1.545.95-3.012,6.591-.82,10.9-3.794,10.551-11.166a2.416,2.416,0,0,1,0-.6" transform="translate(-18.879 -49.037)" fill="#64a4af"/>
        <path id="Path_32251" data-name="Path 32251" d="M80.332,146.779a8.838,8.838,0,0,1,.189-5.682,10.943,10.943,0,0,1,5.037,3.858q-.028,1.873-.056,3.745l-5.17-1.921" transform="translate(-29.334 -51.765)" fill="#662515"/>
        <path id="Path_32252" data-name="Path 32252" d="M76.975,113.364c-1.922-2.636-1.787-5.44-.682-8.325,1.358,2.683.443,5.551.682,8.325" transform="translate(-27.695 -38.536)" fill="#f4b78d"/>
        <path id="Path_32253" data-name="Path 32253" d="M88.715,150.872q.028-1.873.056-3.746c.734-.3,1.188.046,1.529.657q-.061,2.2-.122,4.391c-.9.027-1.185-.632-1.463-1.3" transform="translate(-32.547 -53.936)" fill="#d7d8d8"/>
        <path id="Path_32254" data-name="Path 32254" d="M92.415,148.781l-.729-.409c.243.137.486.273.729.409" transform="translate(-33.637 -54.434)" fill="#843929"/>
        <path id="Path_32255" data-name="Path 32255" d="M62.9,60.039l.7,1.952a6.959,6.959,0,0,0-5.109,3.857c-3.831,7.229-5.621,14.849-3.81,23.037a1.937,1.937,0,0,1-1.288,1.622c-.758-2.3-.981-4.788-2.483-6.812a82.07,82.07,0,0,1,2.505-13.934c.3-1.22-.848-3.031,1.107-3.773,1.88-.5,2.386-2.5,3.81-3.513s2.622-2.416,4.571-2.436" transform="translate(-18.676 -22.027)" fill="#e66058"/>
        <path id="Path_32256" data-name="Path 32256" d="M58.454,48.4c-2.829,3.8-4.486,3.666-6.154,0Z" transform="translate(-19.188 -17.755)" fill="#fdfdfd"/>
        <path id="Path_32257" data-name="Path 32257" d="M55.461,66.033l-.579-.463.827,0-.248.465" transform="translate(-20.135 -24.055)" fill="#b13128"/>
        <path id="Path_32258" data-name="Path 32258" d="M29.439,186.249c-.972.94-.534,2.149-.55,3.236-.062,4.1-.907,4.643-5.03,3.118a10.784,10.784,0,0,0,2.55-6.574c.127-9.442-1.123-18.847-.7-28.3a5.2,5.2,0,0,0-.467-2.115c-1.078-2.626-.7-3.333,2.2-3.462,2.622-.116,5.252-.05,7.878-.065l1.321,1.98c-.517,1.212.645,2.062.681,3.155l-3.38-.006c-1.417-.9-3.039-.51-4.565-.7-.891-.11-1.753.015-1.454,1.316a21.493,21.493,0,0,0,.037,5.656q.739,11.378,1.478,22.755" transform="translate(-8.753 -55.796)" fill="#64a4af"/>
        <path id="Path_32259" data-name="Path 32259" d="M44.653,157.209c-.037-1.093-1.2-1.942-.682-3.154l1.246-.392c.746-.2,2.005.724,2.077-.95.652-.064,1.328-.065,1.773-.674l3.144.38c1.149,1.464.822,2.424-.947,3.009-1.028.34-2.442.217-2.6,1.827l-4.01-.046" transform="translate(-16.084 -55.779)" fill="#c83d2e"/>
        <path id="Path_32260" data-name="Path 32260" d="M30.244,160.392c-.3-1.3.563-1.425,1.454-1.316,1.527.188,3.149-.207,4.565.7-1.9,1.214-4.024.307-6.02.618" transform="translate(-11.074 -58.35)" fill="#70301f"/>
        <path id="Path_32261" data-name="Path 32261" d="M66.82,159.692c1.113-.842,2.5-.549,3.729-.888q-.609.735-1.216,1.472c-.864-.08-1.834.294-2.513-.584" transform="translate(-24.515 -58.261)" fill="#70301f"/>
        <path id="Path_32262" data-name="Path 32262" d="M31.691,148.452c-2.626.015-5.257-.051-7.879.065-2.9.128-3.275.836-2.2,3.461a5.2,5.2,0,0,1,.467,2.115c-.427,9.449.822,18.854.7,28.3a10.776,10.776,0,0,1-2.55,6.574,1.244,1.244,0,0,1-1.255-.684c.826-3.121-.315-6.121-.813-9.089-1.6-9.549-3.214-19.089-4.17-28.731a2.941,2.941,0,0,1,.8-2.576,20.278,20.278,0,0,1,9.517-5.717c.9.843,1.6,2.535,2.876,2.189,3.9-1.058,4.02,1.63,4.5,4.1" transform="translate(-5.124 -52.158)" fill="#73bbc6"/>
        <path id="Path_32263" data-name="Path 32263" d="M37.687,132.735c-.483-2.466-.6-5.154-4.5-4.1-1.275.346-1.977-1.345-2.876-2.189,0,0,.071-.279.07-.277.754-.826,1.541-1.627,2.258-2.487,1.236-1.483.433-2.149-1.061-2.5.22-1.712,1.718-.627,2.51-1.135.766-.491,2-.551,2.013-1.712.014-1.048-1.094-1.152-1.842-1.414a5.893,5.893,0,0,1-3.378-2.163,1.2,1.2,0,0,1,.089-1.461.771.771,0,0,1,1.319-.044c2.2,2.322,4.354,3.418,6.571,0,.16-.246.789-.187,1.2-.268,1.285-.363.325-1.859,1.219-2.42,2.692-.94,3.532-3.371,4.557-5.655A1.938,1.938,0,0,0,47.12,103.3q1.585-1.987,3.17-3.97c2.515.341,2.636,2.786,3.793,4.32-.674,3.468-4.239,4.726-5.765,7.544q-.31.66-.62,1.319c-1.8.665-3.5,1.335-2.632,3.884.229.672.407,1.789-1.031,1.582-3.091-.446-4.1,1.474-4.585,4.006-2.425,1.033-2.215,2.5-.41,3.835,1.762,1.3,1.857-1.351,3.055-1.546,2.115,2.465,1.566,5.566,2.008,8.43-.444.609-1.121.61-1.773.674-.316-1.22-.619-2.444-.954-3.658-.139-.5-.349-1.1-.981-1.012-.684.091-.6.653-.536,1.222.175,1.461.268,2.931.394,4.4l-1.245.392-1.321-1.981" transform="translate(-11.119 -36.44)" fill="#f4b78d"/>
        <path id="Path_32264" data-name="Path 32264" d="M43.078,112.061c-1.629-.669-2.025-3.134-4.258-2.922a19.917,19.917,0,0,1,4.438-5.044.31.31,0,0,0,.275-.136q-.227,4.051-.455,8.1" transform="translate(-14.242 -38.14)" fill="#fdfdfd"/>
        <path id="Path_32265" data-name="Path 32265" d="M35.622,104.134c-.093.955-.858,1.191-1.544,1.292-.855.126-1.771-.143-1.953-1.1-.211-1.116.767-1.054,1.461-1.026.752.03,1.733-.322,2.035.836" transform="translate(-11.776 -37.887)" fill="#fdfdfd"/>
        <path id="Path_32266" data-name="Path 32266" d="M46.68,95.081c.34,1.4-.426,2.633-.615,3.954-1.437-1-1.309-2.41-1-3.864l1.61-.09" transform="translate(-16.461 -34.883)" fill="#c83d2e"/>
        <path id="Path_32267" data-name="Path 32267" d="M46.414,103c0,.173.005.346.013.521-.107.034-.214.062-.322.087a.31.31,0,0,1-.275.137l.584-.745" transform="translate(-16.814 -37.787)" fill="#c83d2e"/>
        <path id="Path_32268" data-name="Path 32268" d="M46,103.908c.108-.025.215-.054.322-.087.289,1.114-.421,2.42.645,3.388a14.068,14.068,0,0,1-.1,5.015c-.894.561.066,2.056-1.219,2.42q-.05-1.318-.1-2.633.226-4.051.454-8.1" transform="translate(-16.71 -38.089)" fill="#e66058"/>
        <path id="Path_32269" data-name="Path 32269" d="M47.631,109.869a14.079,14.079,0,0,0,.1-5.014q.986-3.727,1.972-7.452c1.5,2.024,1.725,4.515,2.483,6.811-1.024,2.284-1.864,4.716-4.557,5.655" transform="translate(-17.475 -35.735)" fill="#fdfdfd"/>
        <path id="Path_32270" data-name="Path 32270" d="M59.621,86.044q-1.585,1.984-3.17,3.97c-1.811-8.186-.022-15.806,3.809-23.034a6.959,6.959,0,0,1,5.109-3.857l1.884,1.647c-.029.313-.058.626-.087.938-3.333.246-5.112,1.889-5.624,5.476-.706,4.944-1.287,9.907-1.922,14.861" transform="translate(-20.45 -23.158)" fill="#e43c3f"/>
        <path id="Path_32271" data-name="Path 32271" d="M73.787,66.661c.029-.313.058-.625.087-.938l.853.871-.94.067" transform="translate(-27.071 -24.112)" fill="#c83d2e"/>
        <path id="Path_32272" data-name="Path 32272" d="M49.908,145.5c-.442-2.864.107-5.965-2.009-8.428a3.185,3.185,0,0,0-1.767-2.219,36.038,36.038,0,0,1,8.419-.638l.369.65c-.285,2.962.988,2.66,2.758,1.316l.928-.2,5-1.269c.348,7.373-3.96,10.346-10.551,11.166q-1.577-.186-3.148-.377" transform="translate(-16.925 -49.239)" fill="#73bbc6"/>
        <path id="Path_32273" data-name="Path 32273" d="M54.043,129.055a36.031,36.031,0,0,0-8.415.638l-.879-.072c.482-2.533,1.494-4.453,4.585-4.006,1.438.208,1.261-.909,1.031-1.581-.87-2.548.835-3.219,2.633-3.884a19.674,19.674,0,0,0,1.33,8.223l-.283.682" transform="translate(-16.417 -44.08)" fill="#fdfdfd"/>
        <path id="Path_32274" data-name="Path 32274" d="M59.1,127.607a19.671,19.671,0,0,1-1.33-8.222l.62-1.319c.393,3.169,1.715,6.269.71,9.542" transform="translate(-21.188 -43.315)" fill="#c83d2e"/>
        <path id="Path_32275" data-name="Path 32275" d="M70.835,134.533l-5,1.269c1.362-1.437,2.847-2.545,5-1.868a2.376,2.376,0,0,0,0,.6" transform="translate(-24.153 -49.062)" fill="#c83d2e"/>
        <path id="Path_32276" data-name="Path 32276" d="M62.747,136.558c-1.77,1.344-3.043,1.646-2.758-1.316a2.889,2.889,0,0,0,2.758,1.316" transform="translate(-21.994 -49.617)" fill="#c83d2e"/>
        <path id="Path_32277" data-name="Path 32277" d="M45.762,151.343c-.126-1.467-.22-2.938-.394-4.4-.068-.569-.148-1.131.536-1.222.631-.084.842.51.981,1.012.336,1.214.638,2.438.953,3.659-.071,1.673-1.33.75-2.076.949" transform="translate(-16.628 -53.459)" fill="#b1b4b4"/>
        <path id="Path_32278" data-name="Path 32278" d="M43.709,135.109l.879.072a3.191,3.191,0,0,1,1.764,2.22c-1.2.192-1.292,2.849-3.054,1.544-1.8-1.336-2.015-2.8.411-3.835" transform="translate(-15.378 -49.568)" fill="#c83d2e"/>
      </g>
    </g>
  </g>
</svg>
